solid General Idea
facet normal -0.866025403784439 0.499999999999999 -1.82244409037621e-014
outer loop
vertex 590.039183249934 107.789034522758 25.0
vertex 592.037191700026 112.612653620707 20.0
vertex 590.039183249933 107.789034522758 20.0
endloop
endfacet
facet normal -0.965925826289063 0.258819045102541 -1.32995466454329e-014
outer loop
vertex 592.037191700026 112.612653620707 20.0
vertex 590.039183249934 107.789034522758 25.0
vertex 592.037191700026 112.612653620708 25.0
endloop
endfacet
facet normal 0.130526192220052 0.99144486137381 3.33953027755955e-019
outer loop
vertex 572.718675174245 139.789034522758 25.0
vertex 578.4126941665 139.039402701118 5.63993296509579e-015
vertex 572.718675174245 139.789034522758 5.63993296509579e-015
endloop
endfacet
facet normal 0.25881904510252 0.965925826289069 -9.49746238292186e-019
outer loop
vertex 578.4126941665 139.039402701118 5.63993296509579e-015
vertex 572.718675174245 139.789034522758 25.0
vertex 578.4126941665 139.039402701118 25.0
endloop
endfacet
facet normal 0.866025403784438 -0.500000000000002 -9.19374835428861e-018
outer loop
vertex 591.771234057502 106.789034522758 5.63993296509579e-015
vertex 588.275024360349 102.232685336654 25.0
vertex 588.275024360349 102.232685336654 5.63993296509579e-015
endloop
endfacet
facet normal 0.707106781186548 -0.707106781186547 -7.98840553417569e-018
outer loop
vertex 588.275024360349 102.232685336654 25.0
vertex 591.771234057502 106.789034522758 5.63993296509579e-015
vertex 591.771234057502 106.789034522758 25.0
endloop
endfacet
facet normal 0.25881904510252 -0.965925826289069 -4.06377183921239e-018
outer loop
vertex 578.4126941665 96.5386663443988 25.0
vertex 572.718675174245 95.7890345227583 5.63993296509579e-015
vertex 578.4126941665 96.5386663443988 5.63993296509579e-015
endloop
endfacet
facet normal 0.130526192220051 -0.99144486137381 -2.86234279143759e-018
outer loop
vertex 572.718675174245 95.7890345227583 5.63993296509579e-015
vertex 578.4126941665 96.5386663443988 25.0
vertex 572.718675174245 95.7890345227583 25.0
endloop
endfacet
facet normal 0.866025403784437 0.500000000000003 -7.58181008937866e-018
outer loop
vertex 591.771234057502 128.789034522758 5.63993296509579e-015
vertex 593.969043352604 123.483053515014 25.0
vertex 593.969043352604 123.483053515014 5.63993296509579e-015
endloop
endfacet
facet normal 0.965925826289069 0.25881904510252 -8.93815177246789e-018
outer loop
vertex 593.969043352604 123.483053515014 25.0
vertex 591.771234057502 128.789034522758 5.63993296509579e-015
vertex 591.771234057502 128.789034522758 25.0
endloop
endfacet
facet normal 0.499999999999998 0.86602540378444 -3.44670710488457e-018
outer loop
vertex 583.718675174245 136.841593406016 25.0
vertex 588.275024360349 133.345383708862 5.63993296509579e-015
vertex 583.718675174245 136.841593406016 5.63993296509579e-015
endloop
endfacet
facet normal 0.707106781186545 0.70710678118655 -5.70878057823187e-018
outer loop
vertex 588.275024360349 133.345383708862 5.63993296509579e-015
vertex 583.718675174245 136.841593406016 25.0
vertex 588.275024360349 133.345383708862 25.0
endloop
endfacet
facet normal -0.0 -1.0 -1.61193826490994e-018
outer loop
vertex 572.718675174245 95.7890345227583 25.0
vertex 570.718675174246 95.7890345227583 5.63993296509579e-015
vertex 572.718675174245 95.7890345227583 5.63993296509579e-015
endloop
endfacet
facet normal -0.0 -1.0 -1.61193826490994e-018
outer loop
vertex 570.718675174246 95.7890345227583 5.63993296509579e-015
vertex 572.718675174245 95.7890345227583 25.0
vertex 570.718675174246 95.7890345227583 25.0
endloop
endfacet
facet normal 7.04991620636976e-015 1.0 1.61193826490987e-018
outer loop
vertex 570.718675174245 139.789034522758 25.0
vertex 572.718675174245 139.789034522758 5.63993296509579e-015
vertex 570.718675174245 139.789034522758 5.63993296509579e-015
endloop
endfacet
facet normal 7.04991620636976e-015 1.0 1.61193826490987e-018
outer loop
vertex 572.718675174245 139.789034522758 5.63993296509579e-015
vertex 570.718675174245 139.789034522758 25.0
vertex 572.718675174245 139.789034522758 25.0
endloop
endfacet
facet normal 0.500000000000003 -0.866025403784437 -6.23866607837305e-018
outer loop
vertex 583.718675174245 98.7364756395007 25.0
vertex 578.4126941665 96.5386663443988 5.63993296509579e-015
vertex 583.718675174245 98.7364756395007 5.63993296509579e-015
endloop
endfacet
facet normal 0.25881904510252 -0.965925826289069 -4.06377183921239e-018
outer loop
vertex 578.4126941665 96.5386663443988 5.63993296509579e-015
vertex 583.718675174245 98.7364756395007 25.0
vertex 578.4126941665 96.5386663443988 25.0
endloop
endfacet
facet normal 9.68537318325761e-018 -1.61193826490994e-018 1.0
outer loop
vertex 572.718675174245 95.7890345227583 25.0
vertex 570.718675174246 97.7890345227583 25.0
vertex 570.718675174246 95.7890345227583 25.0
endloop
endfacet
facet normal 9.68537318325761e-018 -1.61193826490994e-018 1.0
outer loop
vertex 570.718675174246 97.7890345227583 25.0
vertex 572.718675174245 95.7890345227583 25.0
vertex 572.718675174245 97.7890345227582 25.0
endloop
endfacet
facet normal 9.68537318325761e-018 -1.61193826490994e-018 1.0
outer loop
vertex 572.718675174245 97.7890345227582 25.0
vertex 572.718675174245 95.7890345227583 25.0
vertex 578.4126941665 96.5386663443988 25.0
endloop
endfacet
facet normal 9.68537318325761e-018 -1.61193826490994e-018 1.0
outer loop
vertex 572.718675174245 97.7890345227582 25.0
vertex 578.4126941665 96.5386663443988 25.0
vertex 577.895056076295 98.4705179969768 25.0
endloop
endfacet
facet normal 9.68537318325761e-018 -1.61193826490994e-018 1.0
outer loop
vertex 577.895056076295 98.4705179969768 25.0
vertex 578.4126941665 96.5386663443988 25.0
vertex 582.718675174245 100.468526447069 25.0
endloop
endfacet
facet normal 9.68537318325761e-018 -1.61193826490994e-018 1.0
outer loop
vertex 582.718675174245 100.468526447069 25.0
vertex 578.4126941665 96.5386663443988 25.0
vertex 583.718675174245 98.7364756395007 25.0
endloop
endfacet
facet normal 9.68537318325761e-018 -1.61193826490994e-018 1.0
outer loop
vertex 582.718675174245 100.468526447069 25.0
vertex 583.718675174245 98.7364756395007 25.0
vertex 586.860810797976 103.646898899027 25.0
endloop
endfacet
facet normal 9.68537318325761e-018 -1.61193826490994e-018 1.0
outer loop
vertex 586.860810797976 103.646898899027 25.0
vertex 583.718675174245 98.7364756395007 25.0
vertex 588.275024360349 102.232685336654 25.0
endloop
endfacet
facet normal 9.68537318325761e-018 -1.61193826490994e-018 1.0
outer loop
vertex 586.860810797976 103.646898899027 25.0
vertex 588.275024360349 102.232685336654 25.0
vertex 590.039183249934 107.789034522758 25.0
endloop
endfacet
facet normal 9.68537318325761e-018 -1.61193826490994e-018 1.0
outer loop
vertex 590.039183249934 107.789034522758 25.0
vertex 588.275024360349 102.232685336654 25.0
vertex 591.771234057502 106.789034522758 25.0
endloop
endfacet
facet normal 9.68537318325761e-018 -1.61193826490994e-018 1.0
outer loop
vertex 590.039183249934 107.789034522758 25.0
vertex 591.771234057502 106.789034522758 25.0
vertex 592.037191700026 112.612653620708 25.0
endloop
endfacet
facet normal 9.68537318325761e-018 -1.61193826490994e-018 1.0
outer loop
vertex 592.037191700026 112.612653620708 25.0
vertex 591.771234057502 106.789034522758 25.0
vertex 593.969043352604 112.095015530503 25.0
endloop
endfacet
facet normal 9.68537318325761e-018 -1.61193826490994e-018 1.0
outer loop
vertex 592.037191700026 112.612653620708 25.0
vertex 593.969043352604 112.095015530503 25.0
vertex 592.718675174245 117.789034522758 25.0
endloop
endfacet
facet normal 9.68537318325761e-018 -1.61193826490994e-018 1.0
outer loop
vertex 572.718675174245 137.789034522758 25.0
vertex 570.718675174245 139.789034522758 25.0
vertex 570.718675174245 137.789034522758 25.0
endloop
endfacet
facet normal 9.68537318325761e-018 -1.61193826490994e-018 1.0
outer loop
vertex 570.718675174245 139.789034522758 25.0
vertex 572.718675174245 137.789034522758 25.0
vertex 572.718675174245 139.789034522758 25.0
endloop
endfacet
facet normal 9.68537318325761e-018 -1.61193826490994e-018 1.0
outer loop
vertex 572.718675174245 139.789034522758 25.0
vertex 572.718675174245 137.789034522758 25.0
vertex 577.895056076295 137.10755104854 25.0
endloop
endfacet
facet normal 9.68537318325761e-018 -1.61193826490994e-018 1.0
outer loop
vertex 572.718675174245 139.789034522758 25.0
vertex 577.895056076295 137.10755104854 25.0
vertex 578.4126941665 139.039402701118 25.0
endloop
endfacet
facet normal 9.68537318325761e-018 -1.61193826490994e-018 1.0
outer loop
vertex 578.4126941665 139.039402701118 25.0
vertex 577.895056076295 137.10755104854 25.0
vertex 582.718675174245 135.109542598447 25.0
endloop
endfacet
facet normal 9.68537318325761e-018 -1.61193826490994e-018 1.0
outer loop
vertex 578.4126941665 139.039402701118 25.0
vertex 582.718675174245 135.109542598447 25.0
vertex 583.718675174245 136.841593406016 25.0
endloop
endfacet
facet normal 9.68537318325761e-018 -1.61193826490994e-018 1.0
outer loop
vertex 583.718675174245 136.841593406016 25.0
vertex 582.718675174245 135.109542598447 25.0
vertex 586.860810797976 131.931170146489 25.0
endloop
endfacet
facet normal 9.68537318325761e-018 -1.61193826490994e-018 1.0
outer loop
vertex 583.718675174245 136.841593406016 25.0
vertex 586.860810797976 131.931170146489 25.0
vertex 588.275024360349 133.345383708862 25.0
endloop
endfacet
facet normal 9.68537318325761e-018 -1.61193826490994e-018 1.0
outer loop
vertex 588.275024360349 133.345383708862 25.0
vertex 586.860810797976 131.931170146489 25.0
vertex 590.039183249934 127.789034522758 25.0
endloop
endfacet
facet normal 9.68537318325761e-018 -1.61193826490994e-018 1.0
outer loop
vertex 588.275024360349 133.345383708862 25.0
vertex 590.039183249934 127.789034522758 25.0
vertex 591.771234057502 128.789034522758 25.0
endloop
endfacet
facet normal 9.68537318325761e-018 -1.61193826490994e-018 1.0
outer loop
vertex 591.771234057502 128.789034522758 25.0
vertex 590.039183249934 127.789034522758 25.0
vertex 592.037191700026 122.965415424809 25.0
endloop
endfacet
facet normal 9.68537318325761e-018 -1.61193826490994e-018 1.0
outer loop
vertex 591.771234057502 128.789034522758 25.0
vertex 592.037191700026 122.965415424809 25.0
vertex 593.969043352604 123.483053515014 25.0
endloop
endfacet
facet normal 9.68537318325761e-018 -1.61193826490994e-018 1.0
outer loop
vertex 593.969043352604 123.483053515014 25.0
vertex 592.037191700026 122.965415424809 25.0
vertex 592.718675174245 117.789034522758 25.0
endloop
endfacet
facet normal 9.68537318325761e-018 -1.61193826490994e-018 1.0
outer loop
vertex 593.969043352604 123.483053515014 25.0
vertex 592.718675174245 117.789034522758 25.0
vertex 593.969043352604 112.095015530503 25.0
endloop
endfacet
facet normal 9.68537318325761e-018 -1.61193826490994e-018 1.0
outer loop
vertex 593.969043352604 123.483053515014 25.0
vertex 593.969043352604 112.095015530503 25.0
vertex 594.718675174245 117.789034522758 25.0
endloop
endfacet
facet normal 0.707106781186548 -0.707106781186547 -7.98840553417569e-018
outer loop
vertex 588.275024360349 102.232685336654 25.0
vertex 583.718675174245 98.7364756395007 5.63993296509579e-015
vertex 588.275024360349 102.232685336654 5.63993296509579e-015
endloop
endfacet
facet normal 0.500000000000003 -0.866025403784437 -6.23866607837305e-018
outer loop
vertex 583.718675174245 98.7364756395007 5.63993296509579e-015
vertex 588.275024360349 102.232685336654 25.0
vertex 583.718675174245 98.7364756395007 25.0
endloop
endfacet
facet normal 0.25881904510252 0.965925826289069 -9.49746238292186e-019
outer loop
vertex 578.4126941665 139.039402701118 25.0
vertex 583.718675174245 136.841593406016 5.63993296509579e-015
vertex 578.4126941665 139.039402701118 5.63993296509579e-015
endloop
endfacet
facet normal 0.499999999999998 0.86602540378444 -3.44670710488457e-018
outer loop
vertex 583.718675174245 136.841593406016 5.63993296509579e-015
vertex 578.4126941665 139.039402701118 25.0
vertex 583.718675174245 136.841593406016 25.0
endloop
endfacet
facet normal 0.707106781186545 0.70710678118655 -5.70878057823187e-018
outer loop
vertex 588.275024360349 133.345383708862 5.63993296509579e-015
vertex 591.771234057502 128.789034522758 25.0
vertex 591.771234057502 128.789034522758 5.63993296509579e-015
endloop
endfacet
facet normal 0.866025403784437 0.500000000000003 -7.58181008937866e-018
outer loop
vertex 591.771234057502 128.789034522758 25.0
vertex 588.275024360349 133.345383708862 5.63993296509579e-015
vertex 588.275024360349 133.345383708862 25.0
endloop
endfacet
facet normal 0.965925826289069 -0.25881904510252 -9.7725524174443e-018
outer loop
vertex 593.969043352604 112.095015530503 5.63993296509579e-015
vertex 591.771234057502 106.789034522758 25.0
vertex 591.771234057502 106.789034522758 5.63993296509579e-015
endloop
endfacet
facet normal 0.866025403784438 -0.500000000000002 -9.19374835428861e-018
outer loop
vertex 591.771234057502 106.789034522758 25.0
vertex 593.969043352604 112.095015530503 5.63993296509579e-015
vertex 593.969043352604 112.095015530503 25.0
endloop
endfacet
facet normal -0.130526192220051 0.99144486137381 -7.70555213438676e-018
outer loop
vertex 572.718675174245 99.7890345227583 3.00000000000003
vertex 577.37741798609 100.402369649555 0.0
vertex 572.718675174245 99.7890345227583 0.0
endloop
endfacet
facet normal -0.258819045102521 0.965925826289068 -3.88602152000135e-018
outer loop
vertex 577.37741798609 100.402369649555 0.0
vertex 572.718675174245 99.7890345227583 3.00000000000003
vertex 577.37741798609 100.402369649555 3.00000000000003
endloop
endfacet
facet normal -0.500000000000002 -0.866025403784437 -1.90295916935567e-033
outer loop
vertex 581.718675174245 133.377491790878 3.00000000000003
vertex 577.37741798609 135.175699395961 0.0
vertex 581.718675174245 133.377491790878 0.0
endloop
endfacet
facet normal -0.258819045102519 -0.965925826289069 -2.19573777041772e-033
outer loop
vertex 577.37741798609 135.175699395961 0.0
vertex 581.718675174245 133.377491790878 3.00000000000003
vertex 577.37741798609 135.175699395961 3.00000000000003
endloop
endfacet
facet normal -0.258819045102519 -0.965925826289069 -2.19573777041772e-033
outer loop
vertex 577.37741798609 135.175699395961 3.00000000000003
vertex 572.718675174245 135.789034522758 0.0
vertex 577.37741798609 135.175699395961 0.0
endloop
endfacet
facet normal -0.130526192220053 -0.99144486137381 -2.28687364176173e-033
outer loop
vertex 572.718675174245 135.789034522758 0.0
vertex 577.37741798609 135.175699395961 3.00000000000003
vertex 572.718675174245 135.789034522758 3.00000000000003
endloop
endfacet
facet normal 0.965925826289069 0.25881904510252 -8.93815177246789e-018
outer loop
vertex 593.969043352604 123.483053515014 5.63993296509579e-015
vertex 594.718675174245 117.789034522758 25.0
vertex 594.718675174245 117.789034522758 5.63993296509579e-015
endloop
endfacet
facet normal 1.0 -2.22777747391173e-016 -9.68537318325761e-018
outer loop
vertex 594.718675174245 117.789034522758 25.0
vertex 593.969043352604 123.483053515014 5.63993296509579e-015
vertex 593.969043352604 123.483053515014 25.0
endloop
endfacet
facet normal -0.707106781186548 -0.707106781186548 -1.48049704569076e-033
outer loop
vertex 585.446597235603 130.516956584116 3.00000000000003
vertex 588.307132442365 126.789034522758 0.0
vertex 588.307132442365 126.789034522758 3.00000000000003
endloop
endfacet
facet normal -0.866025403784436 -0.500000000000005 -9.57141494999074e-034
outer loop
vertex 588.307132442365 126.789034522758 0.0
vertex 585.446597235603 130.516956584116 3.00000000000003
vertex 585.446597235603 130.516956584116 0.0
endloop
endfacet
facet normal 1.0 -2.22777747391173e-016 -9.68537318325761e-018
outer loop
vertex 594.718675174245 117.789034522758 5.63993296509579e-015
vertex 593.969043352604 112.095015530503 25.0
vertex 593.969043352604 112.095015530503 5.63993296509579e-015
endloop
endfacet
facet normal 0.965925826289069 -0.25881904510252 -9.7725524174443e-018
outer loop
vertex 593.969043352604 112.095015530503 25.0
vertex 594.718675174245 117.789034522758 5.63993296509579e-015
vertex 594.718675174245 117.789034522758 25.0
endloop
endfacet
facet normal -0.866025403784436 0.500000000000006 1.38173897605499e-033
outer loop
vertex 588.307132442365 108.789034522758 3.00000000000003
vertex 585.446597235603 105.0611124614 0.0
vertex 585.446597235603 105.0611124614 3.00000000000003
endloop
endfacet
facet normal -0.707106781186543 0.707106781186552 1.82717943724344e-033
outer loop
vertex 585.446597235603 105.0611124614 0.0
vertex 588.307132442365 108.789034522758 3.00000000000003
vertex 588.307132442365 108.789034522758 0.0
endloop
endfacet
facet normal -0.965925826289069 0.258819045102518 8.42135287079984e-034
outer loop
vertex 590.105340047448 113.130291710913 3.00000000000003
vertex 588.307132442365 108.789034522758 0.0
vertex 588.307132442365 108.789034522758 3.00000000000003
endloop
endfacet
facet normal -0.866025403784436 0.500000000000006 1.38173897605499e-033
outer loop
vertex 588.307132442365 108.789034522758 0.0
vertex 590.105340047448 113.130291710913 3.00000000000003
vertex 590.105340047448 113.130291710913 0.0
endloop
endfacet
facet normal -0.5 0.866025403784439 2.14810063934054e-033
outer loop
vertex 581.718675174245 102.200577254638 3.00000000000003
vertex 585.446597235603 105.0611124614 0.0
vertex 581.718675174245 102.200577254638 0.0
endloop
endfacet
facet normal -0.707106781186543 0.707106781186552 1.82717943724344e-033
outer loop
vertex 585.446597235603 105.0611124614 0.0
vertex 581.718675174245 102.200577254638 3.00000000000003
vertex 585.446597235603 105.0611124614 3.00000000000003
endloop
endfacet
facet normal -1.0 -2.13866637495525e-016 2.45141469984868e-034
outer loop
vertex 590.718675174245 117.789034522758 3.00000000000003
vertex 590.105340047448 113.130291710913 0.0
vertex 590.105340047448 113.130291710913 3.00000000000003
endloop
endfacet
facet normal -0.965925826289069 0.258819045102518 8.42135287079984e-034
outer loop
vertex 590.105340047448 113.130291710913 0.0
vertex 590.718675174245 117.789034522758 3.00000000000003
vertex 590.718675174245 117.789034522758 0.0
endloop
endfacet
facet normal -1.0 -1.80803450835776e-008 1.84117284622421e-008
outer loop
vertex 570.718675174246 99.7890345227583 19.992
vertex 570.718679179571 97.7890345227583 16.9979973377837
vertex 570.718675174246 97.7890345227583 20.0
endloop
endfacet
facet normal -1.0 -1.80803450835776e-008 1.84117284622421e-008
outer loop
vertex 570.718675174246 97.7890345227583 25.0
vertex 570.718675174246 95.7890345227583 5.63993296509579e-015
vertex 570.718675174246 95.7890345227583 25.0
endloop
endfacet
facet normal -1.0 -1.80803450835776e-008 1.84117284622421e-008
outer loop
vertex 570.718675174246 95.7890345227583 5.63993296509579e-015
vertex 570.718675174246 97.7890345227583 25.0
vertex 570.718675174246 97.7890345227583 3.00000000000003
endloop
endfacet
facet normal -1.0 -1.80803450835776e-008 1.84117284622421e-008
outer loop
vertex 570.718675174246 95.7890345227583 5.63993296509579e-015
vertex 570.718675174246 97.7890345227583 3.00000000000003
vertex 570.718675174246 99.7890345227583 0.0
endloop
endfacet
facet normal -1.0 -1.80803450835776e-008 1.84117284622421e-008
outer loop
vertex 570.718675174246 97.7890345227583 3.00000000000003
vertex 570.718675174246 97.7890345227583 25.0
vertex 570.718675174246 97.7890345227583 20.0
endloop
endfacet
facet normal -1.0 -1.80803450835776e-008 1.84117284622421e-008
outer loop
vertex 570.718675174246 97.7890345227583 3.00000000000003
vertex 570.718675174246 97.7890345227583 20.0
vertex 570.718679179571 97.7890345227583 16.9979973377837
endloop
endfacet
facet normal -1.0 -1.80803450835776e-008 1.84117284622421e-008
outer loop
vertex 570.718675174246 99.7890345227583 0.0
vertex 570.718675174246 97.7890345227583 3.00000000000003
vertex 570.718675174246 99.7890345227583 2.99200000000001
endloop
endfacet
facet normal 0.0 1.0 0.0
outer loop
vertex 570.718675174246 99.7890345227583 2.99200000000001
vertex 572.718675174245 99.7890345227583 0.0
vertex 570.718675174246 99.7890345227583 0.0
endloop
endfacet
facet normal 0.0 1.0 0.0
outer loop
vertex 572.718675174245 99.7890345227583 0.0
vertex 570.718675174246 99.7890345227583 2.99200000000001
vertex 572.718675174245 99.7890345227583 3.00000000000003
endloop
endfacet
facet normal -0.258819045102521 0.965925826289068 -3.88602152000135e-018
outer loop
vertex 577.37741798609 100.402369649555 3.00000000000003
vertex 581.718675174245 102.200577254638 0.0
vertex 577.37741798609 100.402369649555 0.0
endloop
endfacet
facet normal -0.5 0.866025403784439 2.14810063934054e-033
outer loop
vertex 581.718675174245 102.200577254638 0.0
vertex 577.37741798609 100.402369649555 3.00000000000003
vertex 581.718675174245 102.200577254638 3.00000000000003
endloop
endfacet
facet normal -5.63993296509606e-015 -1.0 -2.33888047105403e-033
outer loop
vertex 572.718675174245 135.789034522758 3.00000000000003
vertex 570.718675174245 135.789034522758 0.0
vertex 572.718675174245 135.789034522758 0.0
endloop
endfacet
facet normal -5.63993296509606e-015 -1.0 -2.33888047105403e-033
outer loop
vertex 570.718675174245 135.789034522758 0.0
vertex 572.718675174245 135.789034522758 3.00000000000003
vertex 570.718675174245 135.789034522758 3.00000000000003
endloop
endfacet
facet normal -1.0 -2.36007739629948e-014 -6.78367556131866e-016
outer loop
vertex 570.718675174245 139.789034522758 25.0
vertex 570.718675174245 137.789034522758 20.0
vertex 570.718675174245 137.789034522758 25.0
endloop
endfacet
facet normal -1.0 -2.36007739629948e-014 -6.78367556131866e-016
outer loop
vertex 570.718675174245 137.789034522758 20.0
vertex 570.718675174245 139.789034522758 25.0
vertex 570.718675174245 137.789034522758 17.0
endloop
endfacet
facet normal -1.0 -2.36007739629948e-014 -6.78367556131866e-016
outer loop
vertex 570.718675174245 137.789034522758 17.0
vertex 570.718675174245 139.789034522758 25.0
vertex 570.718675174245 137.789034522758 3.00000000000003
endloop
endfacet
facet normal -1.0 -2.36007739629948e-014 -6.78367556131866e-016
outer loop
vertex 570.718675174245 137.789034522758 3.00000000000003
vertex 570.718675174245 135.789034522758 0.0
vertex 570.718675174245 135.789034522758 3.00000000000003
endloop
endfacet
facet normal -1.0 -2.36007739629948e-014 -6.78367556131866e-016
outer loop
vertex 570.718675174245 135.789034522758 0.0
vertex 570.718675174245 137.789034522758 3.00000000000003
vertex 570.718675174245 139.789034522758 5.63993296509579e-015
endloop
endfacet
facet normal -1.0 -2.36007739629948e-014 -6.78367556131866e-016
outer loop
vertex 570.718675174245 139.789034522758 5.63993296509579e-015
vertex 570.718675174245 137.789034522758 3.00000000000003
vertex 570.718675174245 139.789034522758 25.0
endloop
endfacet
facet normal -1.0 -2.36007739629948e-014 -6.78367556131866e-016
outer loop
vertex 570.718675174245 137.789034522758 17.0
vertex 570.718675174245 135.789034522758 20.0
vertex 570.718675174245 137.789034522758 20.0
endloop
endfacet
facet normal -0.866025403784436 -0.500000000000005 -9.57141494999074e-034
outer loop
vertex 588.307132442365 126.789034522758 3.00000000000003
vertex 590.105340047448 122.447777334604 0.0
vertex 590.105340047448 122.447777334604 3.00000000000003
endloop
endfacet
facet normal -0.965925826289069 -0.258819045102518 -3.68558333174282e-034
outer loop
vertex 590.105340047448 122.447777334604 0.0
vertex 588.307132442365 126.789034522758 3.00000000000003
vertex 588.307132442365 126.789034522758 0.0
endloop
endfacet
facet normal -0.707106781186548 -0.707106781186548 -1.48049704569076e-033
outer loop
vertex 585.446597235603 130.516956584116 3.00000000000003
vertex 581.718675174245 133.377491790878 0.0
vertex 585.446597235603 130.516956584116 0.0
endloop
endfacet
facet normal -0.500000000000002 -0.866025403784437 -1.90295916935567e-033
outer loop
vertex 581.718675174245 133.377491790878 0.0
vertex 585.446597235603 130.516956584116 3.00000000000003
vertex 581.718675174245 133.377491790878 3.00000000000003
endloop
endfacet
facet normal -0.965925826289069 -0.258819045102518 -3.68558333174282e-034
outer loop
vertex 590.105340047448 122.447777334604 3.00000000000003
vertex 590.718675174245 117.789034522758 0.0
vertex 590.718675174245 117.789034522758 3.00000000000003
endloop
endfacet
facet normal -1.0 -2.13866637495525e-016 2.45141469984868e-034
outer loop
vertex 590.718675174245 117.789034522758 0.0
vertex 590.105340047448 122.447777334604 3.00000000000003
vertex 590.105340047448 122.447777334604 0.0
endloop
endfacet
facet normal -0.00399993600154657 0.00399993600154345 0.99998400038399
outer loop
vertex 572.718675174245 99.7890345227583 3.00000000000003
vertex 570.718675174246 99.7890345227583 2.99200000000001
vertex 570.718675174246 97.7890345227583 3.00000000000003
endloop
endfacet
facet normal -6.88303265142709e-018 6.5000012043284e-018 1.0
outer loop
vertex 572.718675174245 97.7890345227582 3.00000000000003
vertex 572.718675174245 99.7890345227583 3.00000000000003
vertex 570.718675174246 97.7890345227583 3.00000000000003
endloop
endfacet
facet normal -6.88303265142709e-018 6.5000012043284e-018 1.0
outer loop
vertex 572.718675174245 99.7890345227583 3.00000000000003
vertex 572.718675174245 97.7890345227582 3.00000000000003
vertex 577.37741798609 100.402369649555 3.00000000000003
endloop
endfacet
facet normal -6.88303265142709e-018 6.5000012043284e-018 1.0
outer loop
vertex 577.37741798609 100.402369649555 3.00000000000003
vertex 572.718675174245 97.7890345227582 3.00000000000003
vertex 577.895056076295 98.4705179969769 3.00000000000003
endloop
endfacet
facet normal -6.88303265142709e-018 6.5000012043284e-018 1.0
outer loop
vertex 577.37741798609 100.402369649555 3.00000000000003
vertex 577.895056076295 98.4705179969769 3.00000000000003
vertex 581.718675174245 102.200577254638 3.00000000000003
endloop
endfacet
facet normal -6.88303265142709e-018 6.5000012043284e-018 1.0
outer loop
vertex 581.718675174245 102.200577254638 3.00000000000003
vertex 577.895056076295 98.4705179969769 3.00000000000003
vertex 582.718675174245 100.468526447069 3.00000000000003
endloop
endfacet
facet normal -6.88303265142709e-018 6.5000012043284e-018 1.0
outer loop
vertex 581.718675174245 102.200577254638 3.00000000000003
vertex 582.718675174245 100.468526447069 3.00000000000003
vertex 585.446597235603 105.0611124614 3.00000000000003
endloop
endfacet
facet normal -6.88303265142709e-018 6.5000012043284e-018 1.0
outer loop
vertex 585.446597235603 105.0611124614 3.00000000000003
vertex 582.718675174245 100.468526447069 3.00000000000003
vertex 586.860810797976 103.646898899027 3.00000000000003
endloop
endfacet
facet normal -6.88303265142709e-018 6.5000012043284e-018 1.0
outer loop
vertex 585.446597235603 105.0611124614 3.00000000000003
vertex 586.860810797976 103.646898899027 3.00000000000003
vertex 588.307132442365 108.789034522758 3.00000000000003
endloop
endfacet
facet normal -6.88303265142709e-018 6.5000012043284e-018 1.0
outer loop
vertex 588.307132442365 108.789034522758 3.00000000000003
vertex 586.860810797976 103.646898899027 3.00000000000003
vertex 590.039183249934 107.789034522758 3.00000000000003
endloop
endfacet
facet normal -6.88303265142709e-018 6.5000012043284e-018 1.0
outer loop
vertex 588.307132442365 108.789034522758 3.00000000000003
vertex 590.039183249934 107.789034522758 3.00000000000003
vertex 590.105340047448 113.130291710913 3.00000000000003
endloop
endfacet
facet normal -6.88303265142709e-018 6.5000012043284e-018 1.0
outer loop
vertex 590.105340047448 113.130291710913 3.00000000000003
vertex 590.039183249934 107.789034522758 3.00000000000003
vertex 592.037191700026 112.612653620708 3.00000000000003
endloop
endfacet
facet normal -6.88303265142709e-018 6.5000012043284e-018 1.0
outer loop
vertex 590.105340047448 113.130291710913 3.00000000000003
vertex 592.037191700026 112.612653620708 3.00000000000003
vertex 590.718675174245 117.789034522758 3.00000000000003
endloop
endfacet
facet normal -6.88303265142709e-018 6.5000012043284e-018 1.0
outer loop
vertex 570.718675174245 135.789034522758 3.00000000000003
vertex 572.718675174245 137.789034522758 3.00000000000003
vertex 570.718675174245 137.789034522758 3.00000000000003
endloop
endfacet
facet normal -6.88303265142709e-018 6.5000012043284e-018 1.0
outer loop
vertex 572.718675174245 137.789034522758 3.00000000000003
vertex 570.718675174245 135.789034522758 3.00000000000003
vertex 572.718675174245 135.789034522758 3.00000000000003
endloop
endfacet
facet normal -6.88303265142709e-018 6.5000012043284e-018 1.0
outer loop
vertex 572.718675174245 137.789034522758 3.00000000000003
vertex 572.718675174245 135.789034522758 3.00000000000003
vertex 577.37741798609 135.175699395961 3.00000000000003
endloop
endfacet
facet normal -6.88303265142709e-018 6.5000012043284e-018 1.0
outer loop
vertex 572.718675174245 137.789034522758 3.00000000000003
vertex 577.37741798609 135.175699395961 3.00000000000003
vertex 577.895056076295 137.10755104854 3.00000000000003
endloop
endfacet
facet normal -6.88303265142709e-018 6.5000012043284e-018 1.0
outer loop
vertex 577.895056076295 137.10755104854 3.00000000000003
vertex 577.37741798609 135.175699395961 3.00000000000003
vertex 581.718675174245 133.377491790878 3.00000000000003
endloop
endfacet
facet normal -6.88303265142709e-018 6.5000012043284e-018 1.0
outer loop
vertex 577.895056076295 137.10755104854 3.00000000000003
vertex 581.718675174245 133.377491790878 3.00000000000003
vertex 582.718675174245 135.109542598447 3.00000000000003
endloop
endfacet
facet normal -6.88303265142709e-018 6.5000012043284e-018 1.0
outer loop
vertex 582.718675174245 135.109542598447 3.00000000000003
vertex 581.718675174245 133.377491790878 3.00000000000003
vertex 585.446597235603 130.516956584116 3.00000000000003
endloop
endfacet
facet normal -6.88303265142709e-018 6.5000012043284e-018 1.0
outer loop
vertex 582.718675174245 135.109542598447 3.00000000000003
vertex 585.446597235603 130.516956584116 3.00000000000003
vertex 586.860810797976 131.931170146489 3.00000000000003
endloop
endfacet
facet normal -6.88303265142709e-018 6.5000012043284e-018 1.0
outer loop
vertex 586.860810797976 131.931170146489 3.00000000000003
vertex 585.446597235603 130.516956584116 3.00000000000003
vertex 588.307132442365 126.789034522758 3.00000000000003
endloop
endfacet
facet normal -6.88303265142709e-018 6.5000012043284e-018 1.0
outer loop
vertex 586.860810797976 131.931170146489 3.00000000000003
vertex 588.307132442365 126.789034522758 3.00000000000003
vertex 590.039183249934 127.789034522758 3.00000000000003
endloop
endfacet
facet normal -6.88303265142709e-018 6.5000012043284e-018 1.0
outer loop
vertex 590.039183249934 127.789034522758 3.00000000000003
vertex 588.307132442365 126.789034522758 3.00000000000003
vertex 590.105340047448 122.447777334604 3.00000000000003
endloop
endfacet
facet normal -6.88303265142709e-018 6.5000012043284e-018 1.0
outer loop
vertex 590.039183249934 127.789034522758 3.00000000000003
vertex 590.105340047448 122.447777334604 3.00000000000003
vertex 592.037191700026 122.965415424809 3.00000000000003
endloop
endfacet
facet normal -6.88303265142709e-018 6.5000012043284e-018 1.0
outer loop
vertex 592.037191700026 122.965415424809 3.00000000000003
vertex 590.105340047448 122.447777334604 3.00000000000003
vertex 590.718675174245 117.789034522758 3.00000000000003
endloop
endfacet
facet normal -6.88303265142709e-018 6.5000012043284e-018 1.0
outer loop
vertex 592.037191700026 122.965415424809 3.00000000000003
vertex 590.718675174245 117.789034522758 3.00000000000003
vertex 592.037191700026 112.612653620708 3.00000000000003
endloop
endfacet
facet normal -6.88303265142709e-018 6.5000012043284e-018 1.0
outer loop
vertex 592.037191700026 122.965415424809 3.00000000000003
vertex 592.037191700026 112.612653620708 3.00000000000003
vertex 592.718675174245 117.789034522758 3.00000000000003
endloop
endfacet
facet normal 1.55827251821036e-017 1.65106981767156e-031 -1.0
outer loop
vertex 572.718675174245 139.789034522758 5.63993296509579e-015
vertex 570.718675174245 135.789034522758 0.0
vertex 570.718675174245 139.789034522758 5.63993296509579e-015
endloop
endfacet
facet normal 1.55827251821036e-017 1.65106981767156e-031 -1.0
outer loop
vertex 570.718675174245 135.789034522758 0.0
vertex 572.718675174245 139.789034522758 5.63993296509579e-015
vertex 572.718675174245 135.789034522758 0.0
endloop
endfacet
facet normal 1.55827251821036e-017 1.65106981767156e-031 -1.0
outer loop
vertex 572.718675174245 135.789034522758 0.0
vertex 572.718675174245 139.789034522758 5.63993296509579e-015
vertex 578.4126941665 139.039402701118 5.63993296509579e-015
endloop
endfacet
facet normal 1.55827251821036e-017 1.65106981767156e-031 -1.0
outer loop
vertex 572.718675174245 135.789034522758 0.0
vertex 578.4126941665 139.039402701118 5.63993296509579e-015
vertex 577.37741798609 135.175699395961 0.0
endloop
endfacet
facet normal 1.55827251821036e-017 1.65106981767156e-031 -1.0
outer loop
vertex 577.37741798609 135.175699395961 0.0
vertex 578.4126941665 139.039402701118 5.63993296509579e-015
vertex 581.718675174245 133.377491790878 0.0
endloop
endfacet
facet normal 1.55827251821036e-017 1.65106981767156e-031 -1.0
outer loop
vertex 581.718675174245 133.377491790878 0.0
vertex 578.4126941665 139.039402701118 5.63993296509579e-015
vertex 583.718675174245 136.841593406016 5.63993296509579e-015
endloop
endfacet
facet normal 1.55827251821036e-017 1.65106981767156e-031 -1.0
outer loop
vertex 581.718675174245 133.377491790878 0.0
vertex 583.718675174245 136.841593406016 5.63993296509579e-015
vertex 585.446597235603 130.516956584116 0.0
endloop
endfacet
facet normal 1.55827251821036e-017 1.65106981767156e-031 -1.0
outer loop
vertex 585.446597235603 130.516956584116 0.0
vertex 583.718675174245 136.841593406016 5.63993296509579e-015
vertex 588.275024360349 133.345383708862 5.63993296509579e-015
endloop
endfacet
facet normal 1.55827251821036e-017 1.65106981767156e-031 -1.0
outer loop
vertex 585.446597235603 130.516956584116 0.0
vertex 588.275024360349 133.345383708862 5.63993296509579e-015
vertex 588.307132442365 126.789034522758 0.0
endloop
endfacet
facet normal 1.55827251821036e-017 1.65106981767156e-031 -1.0
outer loop
vertex 588.307132442365 126.789034522758 0.0
vertex 588.275024360349 133.345383708862 5.63993296509579e-015
vertex 591.771234057502 128.789034522758 5.63993296509579e-015
endloop
endfacet
facet normal 1.55827251821036e-017 1.65106981767156e-031 -1.0
outer loop
vertex 588.307132442365 126.789034522758 0.0
vertex 591.771234057502 128.789034522758 5.63993296509579e-015
vertex 590.105340047448 122.447777334604 0.0
endloop
endfacet
facet normal 1.55827251821036e-017 1.65106981767156e-031 -1.0
outer loop
vertex 590.105340047448 122.447777334604 0.0
vertex 591.771234057502 128.789034522758 5.63993296509579e-015
vertex 590.718675174245 117.789034522758 0.0
endloop
endfacet
facet normal 1.55827251821036e-017 1.65106981767156e-031 -1.0
outer loop
vertex 572.718675174245 99.7890345227583 0.0
vertex 570.718675174246 95.7890345227583 5.63993296509579e-015
vertex 570.718675174246 99.7890345227583 0.0
endloop
endfacet
facet normal 1.55827251821036e-017 1.65106981767156e-031 -1.0
outer loop
vertex 570.718675174246 95.7890345227583 5.63993296509579e-015
vertex 572.718675174245 99.7890345227583 0.0
vertex 572.718675174245 95.7890345227583 5.63993296509579e-015
endloop
endfacet
facet normal 1.55827251821036e-017 1.65106981767156e-031 -1.0
outer loop
vertex 572.718675174245 95.7890345227583 5.63993296509579e-015
vertex 572.718675174245 99.7890345227583 0.0
vertex 577.37741798609 100.402369649555 0.0
endloop
endfacet
facet normal 1.55827251821036e-017 1.65106981767156e-031 -1.0
outer loop
vertex 572.718675174245 95.7890345227583 5.63993296509579e-015
vertex 577.37741798609 100.402369649555 0.0
vertex 578.4126941665 96.5386663443988 5.63993296509579e-015
endloop
endfacet
facet normal 1.55827251821036e-017 1.65106981767156e-031 -1.0
outer loop
vertex 578.4126941665 96.5386663443988 5.63993296509579e-015
vertex 577.37741798609 100.402369649555 0.0
vertex 581.718675174245 102.200577254638 0.0
endloop
endfacet
facet normal 1.55827251821036e-017 1.65106981767156e-031 -1.0
outer loop
vertex 578.4126941665 96.5386663443988 5.63993296509579e-015
vertex 581.718675174245 102.200577254638 0.0
vertex 583.718675174245 98.7364756395007 5.63993296509579e-015
endloop
endfacet
facet normal 1.55827251821036e-017 1.65106981767156e-031 -1.0
outer loop
vertex 583.718675174245 98.7364756395007 5.63993296509579e-015
vertex 581.718675174245 102.200577254638 0.0
vertex 585.446597235603 105.0611124614 0.0
endloop
endfacet
facet normal 1.55827251821036e-017 1.65106981767156e-031 -1.0
outer loop
vertex 583.718675174245 98.7364756395007 5.63993296509579e-015
vertex 585.446597235603 105.0611124614 0.0
vertex 588.275024360349 102.232685336654 5.63993296509579e-015
endloop
endfacet
facet normal 1.55827251821036e-017 1.65106981767156e-031 -1.0
outer loop
vertex 588.275024360349 102.232685336654 5.63993296509579e-015
vertex 585.446597235603 105.0611124614 0.0
vertex 588.307132442365 108.789034522758 0.0
endloop
endfacet
facet normal 1.55827251821036e-017 1.65106981767156e-031 -1.0
outer loop
vertex 588.275024360349 102.232685336654 5.63993296509579e-015
vertex 588.307132442365 108.789034522758 0.0
vertex 591.771234057502 106.789034522758 5.63993296509579e-015
endloop
endfacet
facet normal 1.55827251821036e-017 1.65106981767156e-031 -1.0
outer loop
vertex 591.771234057502 106.789034522758 5.63993296509579e-015
vertex 588.307132442365 108.789034522758 0.0
vertex 590.105340047448 113.130291710913 0.0
endloop
endfacet
facet normal 1.55827251821036e-017 1.65106981767156e-031 -1.0
outer loop
vertex 591.771234057502 106.789034522758 5.63993296509579e-015
vertex 590.105340047448 113.130291710913 0.0
vertex 590.718675174245 117.789034522758 0.0
endloop
endfacet
facet normal 1.55827251821036e-017 1.65106981767156e-031 -1.0
outer loop
vertex 591.771234057502 106.789034522758 5.63993296509579e-015
vertex 590.718675174245 117.789034522758 0.0
vertex 591.771234057502 128.789034522758 5.63993296509579e-015
endloop
endfacet
facet normal 1.55827251821036e-017 1.65106981767156e-031 -1.0
outer loop
vertex 591.771234057502 106.789034522758 5.63993296509579e-015
vertex 591.771234057502 128.789034522758 5.63993296509579e-015
vertex 593.969043352604 123.483053515014 5.63993296509579e-015
endloop
endfacet
facet normal 1.55827251821036e-017 1.65106981767156e-031 -1.0
outer loop
vertex 591.771234057502 106.789034522758 5.63993296509579e-015
vertex 593.969043352604 123.483053515014 5.63993296509579e-015
vertex 593.969043352604 112.095015530503 5.63993296509579e-015
endloop
endfacet
facet normal 1.55827251821036e-017 1.65106981767156e-031 -1.0
outer loop
vertex 593.969043352604 112.095015530503 5.63993296509579e-015
vertex 593.969043352604 123.483053515014 5.63993296509579e-015
vertex 594.718675174245 117.789034522758 5.63993296509579e-015
endloop
endfacet
facet normal -0.707106781186545 0.707106781186551 -1.61435336434766e-014
outer loop
vertex 586.860810797976 103.646898899027 25.0
vertex 590.039183249933 107.789034522758 20.0
vertex 586.860810797976 103.646898899027 20.0
endloop
endfacet
facet normal -0.866025403784435 0.500000000000007 -1.82244409037622e-014
outer loop
vertex 590.039183249933 107.789034522758 20.0
vertex 586.860810797976 103.646898899027 25.0
vertex 590.039183249934 107.789034522758 25.0
endloop
endfacet
facet normal -0.965925826289069 0.25881904510252 -1.32995466454323e-014
outer loop
vertex 592.037191700026 112.612653620708 25.0
vertex 592.718675174245 117.789034522758 20.0
vertex 592.037191700026 112.612653620707 20.0
endloop
endfacet
facet normal -1.0 4.77635490406676e-015 -1.03684441469215e-014
outer loop
vertex 592.718675174245 117.789034522758 20.0
vertex 592.037191700026 112.612653620708 25.0
vertex 592.718675174245 117.789034522758 25.0
endloop
endfacet
facet normal -1.0 1.78222197912938e-015 -1.03684441469215e-014
outer loop
vertex 592.718675174245 117.789034522758 25.0
vertex 592.037191700026 122.965415424809 20.0
vertex 592.718675174245 117.789034522758 20.0
endloop
endfacet
facet normal -0.965925826289066 -0.25881904510253 -9.6362767621502e-015
outer loop
vertex 592.037191700026 122.965415424809 20.0
vertex 592.718675174245 117.789034522758 25.0
vertex 592.037191700026 122.965415424809 25.0
endloop
endfacet
facet normal -5.63993296509631e-015 -1.0 5.63993296509781e-016
outer loop
vertex 572.718675174245 137.789034522758 25.0
vertex 570.718675174245 137.789034522758 20.0
vertex 572.718675174244 137.789034522758 20.0
endloop
endfacet
facet normal -5.63993296509631e-015 -1.0 5.63993296509781e-016
outer loop
vertex 570.718675174245 137.789034522758 20.0
vertex 572.718675174245 137.789034522758 25.0
vertex 570.718675174245 137.789034522758 25.0
endloop
endfacet
facet normal -0.258819045102519 -0.965925826289069 7.83238123805206e-015
outer loop
vertex 577.895056076295 137.10755104854 25.0
vertex 572.718675174244 137.789034522758 20.0
vertex 577.895056076295 137.10755104854 20.0
endloop
endfacet
facet normal -0.130526192220052 -0.99144486137381 1.13578499512808e-014
outer loop
vertex 572.718675174244 137.789034522758 20.0
vertex 577.895056076295 137.10755104854 25.0
vertex 572.718675174245 137.789034522758 25.0
endloop
endfacet
facet normal -0.866025403784437 -0.500000000000003 -3.95259407921987e-015
outer loop
vertex 590.039183249934 127.789034522758 25.0
vertex 592.037191700026 122.965415424809 20.0
vertex 592.037191700026 122.965415424809 25.0
endloop
endfacet
facet normal -0.965925826289066 -0.25881904510253 -9.6362767621502e-015
outer loop
vertex 592.037191700026 122.965415424809 20.0
vertex 590.039183249934 127.789034522758 25.0
vertex 590.039183249933 127.789034522758 20.0
endloop
endfacet
facet normal -0.707106781186545 -0.70710678118655 -2.95908374803345e-015
outer loop
vertex 586.860810797976 131.931170146489 25.0
vertex 582.718675174245 135.109542598447 20.0
vertex 586.860810797976 131.931170146489 20.0
endloop
endfacet
facet normal -0.500000000000005 -0.866025403784436 -9.67327313131829e-016
outer loop
vertex 582.718675174245 135.109542598447 20.0
vertex 586.860810797976 131.931170146489 25.0
vertex 582.718675174245 135.109542598447 25.0
endloop
endfacet
facet normal -0.499999999999996 -0.866025403784441 -9.67327313131441e-016
outer loop
vertex 582.718675174245 135.109542598447 25.0
vertex 577.895056076295 137.10755104854 20.0
vertex 582.718675174245 135.109542598447 20.0
endloop
endfacet
facet normal -0.258819045102522 -0.965925826289068 7.83238123805196e-015
outer loop
vertex 577.895056076295 137.10755104854 20.0
vertex 582.718675174245 135.109542598447 25.0
vertex 577.895056076295 137.10755104854 25.0
endloop
endfacet
facet normal -0.707106781186545 -0.70710678118655 -2.95908374803345e-015
outer loop
vertex 586.860810797976 131.931170146489 25.0
vertex 590.039183249933 127.789034522758 20.0
vertex 590.039183249934 127.789034522758 25.0
endloop
endfacet
facet normal -0.866025403784433 -0.500000000000009 -3.95259407921966e-015
outer loop
vertex 590.039183249933 127.789034522758 20.0
vertex 586.860810797976 131.931170146489 25.0
vertex 586.860810797976 131.931170146489 20.0
endloop
endfacet
facet normal -0.499999999999997 0.86602540378444 -8.58892189768829e-015
outer loop
vertex 582.718675174245 100.468526447069 25.0
vertex 586.860810797976 103.646898899027 20.0
vertex 582.718675174245 100.468526447069 20.0
endloop
endfacet
facet normal -0.707106781186541 0.707106781186554 -1.61435336434765e-014
outer loop
vertex 586.860810797976 103.646898899027 20.0
vertex 582.718675174245 100.468526447069 25.0
vertex 586.860810797976 103.646898899027 25.0
endloop
endfacet
facet normal -0.25881904510252 0.965925826289069 -3.54222517573187e-015
outer loop
vertex 577.895056076295 98.4705179969768 25.0
vertex 582.718675174245 100.468526447069 20.0
vertex 577.895056076295 98.4705179969768 20.0
endloop
endfacet
facet normal -0.499999999999998 0.86602540378444 -8.5889218976883e-015
outer loop
vertex 582.718675174245 100.468526447069 20.0
vertex 577.895056076295 98.4705179969768 25.0
vertex 582.718675174245 100.468526447069 25.0
endloop
endfacet
facet normal -0.130526192220049 0.991444861373811 -2.72545137044601e-015
outer loop
vertex 572.718675174245 97.7890345227582 25.0
vertex 577.895056076295 98.4705179969768 20.0
vertex 572.718675174244 97.7890345227582 20.0
endloop
endfacet
facet normal -0.258819045102525 0.965925826289067 -3.5422251757319e-015
outer loop
vertex 577.895056076295 98.4705179969768 20.0
vertex 572.718675174245 97.7890345227582 25.0
vertex 577.895056076295 98.4705179969768 25.0
endloop
endfacet
facet normal 4.08895139969781e-014 1.0 -3.38395977905857e-015
outer loop
vertex 570.718675174246 97.7890345227583 25.0
vertex 572.718675174244 97.7890345227582 20.0
vertex 570.718675174246 97.7890345227583 20.0
endloop
endfacet
facet normal 4.08895139969781e-014 1.0 -3.38395977905857e-015
outer loop
vertex 572.718675174244 97.7890345227582 20.0
vertex 570.718675174246 97.7890345227583 25.0
vertex 572.718675174245 97.7890345227582 25.0
endloop
endfacet
facet normal -5.63993296509631e-015 -1.0 -2.01426177324923e-016
outer loop
vertex 572.718675174244 137.789034522758 17.0
vertex 570.718675174245 137.789034522758 3.00000000000003
vertex 572.718675174245 137.789034522758 3.00000000000003
endloop
endfacet
facet normal -5.63993296509631e-015 -1.0 -2.01426177324923e-016
outer loop
vertex 570.718675174245 137.789034522758 3.00000000000003
vertex 572.718675174244 137.789034522758 17.0
vertex 570.718675174245 137.789034522758 17.0
endloop
endfacet
facet normal -0.500000000000001 -0.866025403784438 -4.39667850141756e-016
outer loop
vertex 582.718675174245 135.109542598447 17.0
vertex 577.895056076295 137.10755104854 3.00000000000003
vertex 582.718675174245 135.109542598447 3.00000000000003
endloop
endfacet
facet normal -0.25881904510252 -0.965925826289069 -2.65292197248251e-015
outer loop
vertex 577.895056076295 137.10755104854 3.00000000000003
vertex 582.718675174245 135.109542598447 17.0
vertex 577.895056076295 137.10755104854 17.0
endloop
endfacet
facet normal -0.707106781186543 -0.707106781186552 -9.28201367835894e-016
outer loop
vertex 586.860810797976 131.931170146489 17.0
vertex 582.718675174245 135.109542598447 3.00000000000003
vertex 586.860810797976 131.931170146489 3.00000000000003
endloop
endfacet
facet normal -0.499999999999998 -0.86602540378444 -4.39667850141782e-016
outer loop
vertex 582.718675174245 135.109542598447 3.00000000000003
vertex 586.860810797976 131.931170146489 17.0
vertex 582.718675174245 135.109542598447 17.0
endloop
endfacet
facet normal -0.866025403784435 -0.500000000000006 1.91762897867247e-016
outer loop
vertex 590.039183249933 127.789034522758 17.0
vertex 586.860810797976 131.931170146489 3.00000000000003
vertex 590.039183249934 127.789034522758 3.00000000000003
endloop
endfacet
facet normal -0.707106781186545 -0.70710678118655 -9.28201367835917e-016
outer loop
vertex 586.860810797976 131.931170146489 3.00000000000003
vertex 590.039183249933 127.789034522758 17.0
vertex 586.860810797976 131.931170146489 17.0
endloop
endfacet
facet normal -0.965925826289067 -0.258819045102527 3.3569927079903e-015
outer loop
vertex 592.037191700026 122.965415424809 17.0
vertex 590.039183249934 127.789034522758 3.00000000000003
vertex 592.037191700026 122.965415424809 3.00000000000003
endloop
endfacet
facet normal -0.866025403784436 -0.500000000000004 1.91762897867292e-016
outer loop
vertex 590.039183249934 127.789034522758 3.00000000000003
vertex 592.037191700026 122.965415424809 17.0
vertex 590.039183249933 127.789034522758 17.0
endloop
endfacet
facet normal -0.965925826289067 -0.258819045102527 3.3569927079903e-015
outer loop
vertex 592.037191700026 122.965415424809 17.0
vertex 592.718675174245 117.789034522758 3.00000000000003
vertex 592.718675174245 117.789034522758 17.0
endloop
endfacet
facet normal -1.0 7.00413237797848e-015 5.36580998975799e-015
outer loop
vertex 592.718675174245 117.789034522758 3.00000000000003
vertex 592.037191700026 122.965415424809 17.0
vertex 592.037191700026 122.965415424809 3.00000000000003
endloop
endfacet
facet normal -1.0 8.07346556545612e-015 5.365809989758e-015
outer loop
vertex 592.718675174245 117.789034522758 17.0
vertex 592.037191700026 112.612653620708 3.00000000000003
vertex 592.037191700026 112.612653620707 17.0
endloop
endfacet
facet normal -0.965925826289067 0.258819045102527 8.24699874313369e-015
outer loop
vertex 592.037191700026 112.612653620708 3.00000000000003
vertex 592.718675174245 117.789034522758 17.0
vertex 592.718675174245 117.789034522758 3.00000000000003
endloop
endfacet
facet normal -0.258819045102521 -0.965925826289068 -2.6529219724825e-015
outer loop
vertex 577.895056076295 137.10755104854 17.0
vertex 572.718675174245 137.789034522758 3.00000000000003
vertex 577.895056076295 137.10755104854 3.00000000000003
endloop
endfacet
facet normal -0.130526192220053 -0.99144486137381 -3.85964751892431e-015
outer loop
vertex 572.718675174245 137.789034522758 3.00000000000003
vertex 577.895056076295 137.10755104854 17.0
vertex 572.718675174244 137.789034522758 17.0
endloop
endfacet
facet normal -0.965925826289065 0.258819045102534 8.24699874313378e-015
outer loop
vertex 592.037191700026 112.612653620707 17.0
vertex 590.039183249934 107.789034522758 3.00000000000003
vertex 590.039183249933 107.789034522758 17.0
endloop
endfacet
facet normal -0.866025403784439 0.499999999999999 8.7077058997919e-015
outer loop
vertex 590.039183249934 107.789034522758 3.00000000000003
vertex 592.037191700026 112.612653620707 17.0
vertex 592.037191700026 112.612653620708 3.00000000000003
endloop
endfacet
facet normal -0.866025403784438 0.500000000000001 8.70770589979188e-015
outer loop
vertex 590.039183249933 107.789034522758 17.0
vertex 586.860810797976 103.646898899027 3.00000000000003
vertex 586.860810797976 103.646898899027 17.0
endloop
endfacet
facet normal -0.707106781186543 0.707106781186552 6.39811900135806e-015
outer loop
vertex 586.860810797976 103.646898899027 3.00000000000003
vertex 590.039183249933 107.789034522758 17.0
vertex 590.039183249934 107.789034522758 3.00000000000003
endloop
endfacet
facet normal 3.9478854375834e-014 1.0 1.41017930275529e-015
outer loop
vertex 570.718679179571 97.7890345227583 16.9979973377837
vertex 572.718675174245 97.7890345227582 3.00000000000003
vertex 570.718675174246 97.7890345227583 3.00000000000003
endloop
endfacet
facet normal 3.9478854375834e-014 1.0 1.41017930275529e-015
outer loop
vertex 572.718675174245 97.7890345227582 3.00000000000003
vertex 570.718679179571 97.7890345227583 16.9979973377837
vertex 572.718675174244 97.7890345227582 17.0
endloop
endfacet
facet normal -0.499999999999998 0.86602540378444 3.07026545546859e-015
outer loop
vertex 582.718675174245 100.468526447069 17.0
vertex 586.860810797976 103.646898899027 3.00000000000003
vertex 582.718675174245 100.468526447069 3.00000000000003
endloop
endfacet
facet normal -0.707106781186543 0.707106781186552 6.39811900135806e-015
outer loop
vertex 586.860810797976 103.646898899027 3.00000000000003
vertex 582.718675174245 100.468526447069 17.0
vertex 586.860810797976 103.646898899027 17.0
endloop
endfacet
facet normal -0.258819045102525 0.965925826289067 9.38049920170987e-016
outer loop
vertex 577.895056076295 98.4705179969768 17.0
vertex 582.718675174245 100.468526447069 3.00000000000003
vertex 577.895056076295 98.4705179969769 3.00000000000003
endloop
endfacet
facet normal -0.499999999999998 0.86602540378444 3.07026545546859e-015
outer loop
vertex 582.718675174245 100.468526447069 3.00000000000003
vertex 577.895056076295 98.4705179969768 17.0
vertex 582.718675174245 100.468526447069 17.0
endloop
endfacet
facet normal -0.130526192220052 0.99144486137381 8.12264545654686e-016
outer loop
vertex 572.718675174244 97.7890345227582 17.0
vertex 577.895056076295 98.4705179969769 3.00000000000003
vertex 572.718675174245 97.7890345227582 3.00000000000003
endloop
endfacet
facet normal -0.258819045102524 0.965925826289068 9.38049920170986e-016
outer loop
vertex 577.895056076295 98.4705179969769 3.00000000000003
vertex 572.718675174244 97.7890345227582 17.0
vertex 577.895056076295 98.4705179969768 17.0
endloop
endfacet
facet normal -0.00399993600154657 0.00399993600154352 0.99998400038399
outer loop
vertex 572.718675174245 99.7890345227583 20.0
vertex 570.718675174246 99.7890345227583 19.992
vertex 570.718675174246 97.7890345227583 20.0
endloop
endfacet
facet normal -0.720576692122875 0.416025147168915 -0.554700196225256
outer loop
vertex 588.307132442365 108.789034522758 20.0
vertex 592.037191700026 112.612653620707 17.0
vertex 590.039183249933 107.789034522758 17.0
endloop
endfacet
facet normal -0.82521248351817 0.197750145123549 -0.529073942988491
outer loop
vertex 592.037191700026 112.612653620707 17.0
vertex 588.307132442365 108.789034522758 20.0
vertex 590.105340047448 113.130291710913 20.0
endloop
endfacet
facet normal -0.825212483518172 -0.197750145123537 -0.529073942988492
outer loop
vertex 592.037191700026 122.965415424809 17.0
vertex 590.718675174245 117.789034522758 20.0
vertex 590.105340047448 122.447777334604 20.0
endloop
endfacet
facet normal -0.416025147168915 -0.720576692122883 -0.554700196225247
outer loop
vertex 581.718675174245 133.377491790878 20.0
vertex 577.895056076295 137.10755104854 17.0
vertex 582.718675174245 135.109542598447 17.0
endloop
endfacet
facet normal -0.215350462657791 -0.803698868072337 -0.55470019622524
outer loop
vertex 577.895056076295 137.10755104854 17.0
vertex 581.718675174245 133.377491790878 20.0
vertex 577.37741798609 135.175699395961 20.0
endloop
endfacet
facet normal -0.588348405414542 -0.588348405414543 -0.55470019622525
outer loop
vertex 585.446597235603 130.516956584116 20.0
vertex 582.718675174245 135.109542598447 17.0
vertex 586.860810797976 131.931170146489 17.0
endloop
endfacet
facet normal -0.416025147168921 -0.720576692122879 -0.554700196225247
outer loop
vertex 582.718675174245 135.109542598447 17.0
vertex 585.446597235603 130.516956584116 20.0
vertex 581.718675174245 133.377491790878 20.0
endloop
endfacet
facet normal -0.720576692122877 -0.41602514716892 -0.554700196225251
outer loop
vertex 588.307132442365 126.789034522758 20.0
vertex 592.037191700026 122.965415424809 17.0
vertex 590.105340047448 122.447777334604 20.0
endloop
endfacet
facet normal -0.825212483518172 -0.197750145123537 -0.529073942988492
outer loop
vertex 592.037191700026 122.965415424809 17.0
vertex 588.307132442365 126.789034522758 20.0
vertex 590.039183249933 127.789034522758 17.0
endloop
endfacet
facet normal -0.41602514716891 0.720576692122883 -0.554700196225249
outer loop
vertex 581.718675174245 102.200577254638 20.0
vertex 586.860810797976 103.646898899027 17.0
vertex 582.718675174245 100.468526447069 17.0
endloop
endfacet
facet normal -0.588348405414531 0.588348405414545 -0.554700196225259
outer loop
vertex 586.860810797976 103.646898899027 17.0
vertex 581.718675174245 102.200577254638 20.0
vertex 585.446597235603 105.0611124614 20.0
endloop
endfacet
facet normal -0.215350462657787 -0.803698868072338 -0.55470019622524
outer loop
vertex 577.37741798609 135.175699395961 20.0
vertex 572.718675174244 137.789034522758 17.0
vertex 577.895056076295 137.10755104854 17.0
endloop
endfacet
facet normal -0.108890142577874 -0.827102748321104 -0.551401832214083
outer loop
vertex 572.718675174244 137.789034522758 17.0
vertex 577.37741798609 135.175699395961 20.0
vertex 572.718675174245 135.789034522758 20.0
endloop
endfacet
facet normal -4.70454658355186e-015 -0.832050294337831 -0.554700196225248
outer loop
vertex 572.718675174245 135.789034522758 20.0
vertex 570.718675174245 137.789034522758 17.0
vertex 572.718675174244 137.789034522758 17.0
endloop
endfacet
facet normal -4.70454658355186e-015 -0.832050294337831 -0.554700196225248
outer loop
vertex 570.718675174245 137.789034522758 17.0
vertex 572.718675174245 135.789034522758 20.0
vertex 570.718675174245 135.789034522758 20.0
endloop
endfacet
facet normal 0.0 0.0 -1.0
outer loop
vertex 592.718675174245 117.789034522758 17.0
vertex 592.037191700026 112.612653620707 17.0
vertex 592.037191700026 122.965415424809 17.0
endloop
endfacet
facet normal -0.588348405414542 -0.588348405414543 -0.55470019622525
outer loop
vertex 585.446597235603 130.516956584116 20.0
vertex 590.039183249933 127.789034522758 17.0
vertex 588.307132442365 126.789034522758 20.0
endloop
endfacet
facet normal -0.720576692122873 -0.416025147168927 -0.554700196225251
outer loop
vertex 590.039183249933 127.789034522758 17.0
vertex 585.446597235603 130.516956584116 20.0
vertex 586.860810797976 131.931170146489 17.0
endloop
endfacet
facet normal 0.00138808000168336 0.831793582279691 -0.555083335826458
outer loop
vertex 570.718675174246 99.7890345227583 19.992
vertex 572.718675174244 97.7890345227582 17.0
vertex 570.718679179571 97.7890345227583 16.9979973377837
endloop
endfacet
facet normal 0.00138808000168336 0.831793582279691 -0.555083335826458
outer loop
vertex 572.718675174244 97.7890345227582 17.0
vertex 570.718675174246 99.7890345227583 19.992
vertex 572.718675174245 99.7890345227583 20.0
endloop
endfacet
facet normal -0.215350462657789 0.803698868072337 -0.554700196225241
outer loop
vertex 577.37741798609 100.402369649555 20.0
vertex 582.718675174245 100.468526447069 17.0
vertex 577.895056076295 98.4705179969768 17.0
endloop
endfacet
facet normal -0.416025147168914 0.720576692122881 -0.554700196225249
outer loop
vertex 582.718675174245 100.468526447069 17.0
vertex 577.37741798609 100.402369649555 20.0
vertex 581.718675174245 102.200577254638 20.0
endloop
endfacet
facet normal -0.588348405414533 0.588348405414543 -0.554700196225259
outer loop
vertex 585.446597235603 105.0611124614 20.0
vertex 590.039183249933 107.789034522758 17.0
vertex 586.860810797976 103.646898899027 17.0
endloop
endfacet
facet normal -0.720576692122871 0.416025147168922 -0.554700196225256
outer loop
vertex 590.039183249933 107.789034522758 17.0
vertex 585.446597235603 105.0611124614 20.0
vertex 588.307132442365 108.789034522758 20.0
endloop
endfacet
facet normal -0.10889014257787 0.827102748321104 -0.551401832214082
outer loop
vertex 572.718675174245 99.7890345227583 20.0
vertex 577.895056076295 98.4705179969768 17.0
vertex 572.718675174244 97.7890345227582 17.0
endloop
endfacet
facet normal -0.215350462657796 0.803698868072335 -0.554700196225241
outer loop
vertex 577.895056076295 98.4705179969768 17.0
vertex 572.718675174245 99.7890345227583 20.0
vertex 577.37741798609 100.402369649555 20.0
endloop
endfacet
facet normal -0.886728717075013 3.87916557771905e-015 -0.462290149488934
outer loop
vertex 590.718675174245 117.789034522758 20.0
vertex 592.037191700026 112.612653620707 17.0
vertex 590.105340047448 113.130291710913 20.0
endloop
endfacet
facet normal -0.825212483518172 -0.197750145123537 -0.529073942988492
outer loop
vertex 592.037191700026 122.965415424809 17.0
vertex 592.037191700026 112.612653620707 17.0
vertex 590.718675174245 117.789034522758 20.0
endloop
endfacet
facet normal 0.0 0.0 1.0
outer loop
vertex 572.718675174244 97.7890345227582 20.0
vertex 572.718675174245 99.7890345227583 20.0
vertex 570.718675174246 97.7890345227583 20.0
endloop
endfacet
facet normal 0.0 0.0 1.0
outer loop
vertex 572.718675174245 99.7890345227583 20.0
vertex 572.718675174244 97.7890345227582 20.0
vertex 577.895056076295 98.4705179969768 20.0
endloop
endfacet
facet normal 0.0 0.0 1.0
outer loop
vertex 572.718675174245 99.7890345227583 20.0
vertex 577.895056076295 98.4705179969768 20.0
vertex 577.37741798609 100.402369649555 20.0
endloop
endfacet
facet normal 0.0 0.0 1.0
outer loop
vertex 577.37741798609 100.402369649555 20.0
vertex 577.895056076295 98.4705179969768 20.0
vertex 581.718675174245 102.200577254638 20.0
endloop
endfacet
facet normal 0.0 0.0 1.0
outer loop
vertex 581.718675174245 102.200577254638 20.0
vertex 577.895056076295 98.4705179969768 20.0
vertex 582.718675174245 100.468526447069 20.0
endloop
endfacet
facet normal 0.0 0.0 1.0
outer loop
vertex 581.718675174245 102.200577254638 20.0
vertex 582.718675174245 100.468526447069 20.0
vertex 585.446597235603 105.0611124614 20.0
endloop
endfacet
facet normal 0.0 0.0 1.0
outer loop
vertex 585.446597235603 105.0611124614 20.0
vertex 582.718675174245 100.468526447069 20.0
vertex 586.860810797976 103.646898899027 20.0
endloop
endfacet
facet normal 0.0 0.0 1.0
outer loop
vertex 585.446597235603 105.0611124614 20.0
vertex 586.860810797976 103.646898899027 20.0
vertex 588.307132442365 108.789034522758 20.0
endloop
endfacet
facet normal 0.0 0.0 1.0
outer loop
vertex 588.307132442365 108.789034522758 20.0
vertex 586.860810797976 103.646898899027 20.0
vertex 590.039183249933 107.789034522758 20.0
endloop
endfacet
facet normal 0.0 0.0 1.0
outer loop
vertex 588.307132442365 108.789034522758 20.0
vertex 590.039183249933 107.789034522758 20.0
vertex 590.105340047448 113.130291710913 20.0
endloop
endfacet
facet normal 0.0 0.0 1.0
outer loop
vertex 590.105340047448 113.130291710913 20.0
vertex 590.039183249933 107.789034522758 20.0
vertex 592.037191700026 112.612653620707 20.0
endloop
endfacet
facet normal 0.0 0.0 1.0
outer loop
vertex 590.105340047448 113.130291710913 20.0
vertex 592.037191700026 112.612653620707 20.0
vertex 590.718675174245 117.789034522758 20.0
endloop
endfacet
facet normal 0.0 0.0 1.0
outer loop
vertex 570.718675174245 135.789034522758 20.0
vertex 572.718675174244 137.789034522758 20.0
vertex 570.718675174245 137.789034522758 20.0
endloop
endfacet
facet normal 0.0 0.0 1.0
outer loop
vertex 572.718675174244 137.789034522758 20.0
vertex 570.718675174245 135.789034522758 20.0
vertex 572.718675174245 135.789034522758 20.0
endloop
endfacet
facet normal 0.0 0.0 1.0
outer loop
vertex 572.718675174244 137.789034522758 20.0
vertex 572.718675174245 135.789034522758 20.0
vertex 577.895056076295 137.10755104854 20.0
endloop
endfacet
facet normal 0.0 0.0 1.0
outer loop
vertex 577.895056076295 137.10755104854 20.0
vertex 572.718675174245 135.789034522758 20.0
vertex 577.37741798609 135.175699395961 20.0
endloop
endfacet
facet normal 0.0 0.0 1.0
outer loop
vertex 577.895056076295 137.10755104854 20.0
vertex 577.37741798609 135.175699395961 20.0
vertex 581.718675174245 133.377491790878 20.0
endloop
endfacet
facet normal 0.0 0.0 1.0
outer loop
vertex 577.895056076295 137.10755104854 20.0
vertex 581.718675174245 133.377491790878 20.0
vertex 582.718675174245 135.109542598447 20.0
endloop
endfacet
facet normal 0.0 0.0 1.0
outer loop
vertex 582.718675174245 135.109542598447 20.0
vertex 581.718675174245 133.377491790878 20.0
vertex 585.446597235603 130.516956584116 20.0
endloop
endfacet
facet normal 0.0 0.0 1.0
outer loop
vertex 582.718675174245 135.109542598447 20.0
vertex 585.446597235603 130.516956584116 20.0
vertex 586.860810797976 131.931170146489 20.0
endloop
endfacet
facet normal 0.0 0.0 1.0
outer loop
vertex 586.860810797976 131.931170146489 20.0
vertex 585.446597235603 130.516956584116 20.0
vertex 588.307132442365 126.789034522758 20.0
endloop
endfacet
facet normal 0.0 0.0 1.0
outer loop
vertex 586.860810797976 131.931170146489 20.0
vertex 588.307132442365 126.789034522758 20.0
vertex 590.039183249933 127.789034522758 20.0
endloop
endfacet
facet normal 0.0 0.0 1.0
outer loop
vertex 590.039183249933 127.789034522758 20.0
vertex 588.307132442365 126.789034522758 20.0
vertex 590.105340047448 122.447777334604 20.0
endloop
endfacet
facet normal 0.0 0.0 1.0
outer loop
vertex 590.039183249933 127.789034522758 20.0
vertex 590.105340047448 122.447777334604 20.0
vertex 592.037191700026 122.965415424809 20.0
endloop
endfacet
facet normal 0.0 0.0 1.0
outer loop
vertex 592.037191700026 122.965415424809 20.0
vertex 590.105340047448 122.447777334604 20.0
vertex 590.718675174245 117.789034522758 20.0
endloop
endfacet
facet normal 0.0 0.0 1.0
outer loop
vertex 592.037191700026 122.965415424809 20.0
vertex 590.718675174245 117.789034522758 20.0
vertex 592.037191700026 112.612653620707 20.0
endloop
endfacet
facet normal 0.0 0.0 1.0
outer loop
vertex 592.037191700026 122.965415424809 20.0
vertex 592.037191700026 112.612653620707 20.0
vertex 592.718675174245 117.789034522758 20.0
endloop
endfacet
endsolid General Idea
