<?xml version="1.0" encoding="UTF-8" standalone="no"?>
<svg width="420.952mm" height="221.721mm"
 viewBox="0 0 1591 838"
 xmlns="http://www.w3.org/2000/svg" xmlns:xlink="http://www.w3.org/1999/xlink"  version="1.2" baseProfile="tiny">
<title>Qt Svg Document</title>
<desc>Generated with Qt</desc>
<defs>
</defs>
<g fill="none" stroke="black" stroke-width="1" fill-rule="evenodd" stroke-linecap="square" stroke-linejoin="bevel" >

<g fill="none" stroke="#000000" stroke-opacity="1" stroke-width="1" stroke-linecap="square" stroke-linejoin="bevel" transform="matrix(1,0,0,1,0,0)"
font-family="MS Shell Dlg 2" font-size="11" font-weight="400" font-style="normal" 
>
</g>

<g fill="#000000" fill-opacity="1" stroke="none" transform="matrix(1,0,0,1,0,0)"
font-family="MS Shell Dlg 2" font-size="11" font-weight="400" font-style="normal" 
>
<path vector-effect="non-scaling-stroke" fill-rule="evenodd" d="M0,0 L1591,0 L1591,838 L0,838 L0,0"/>
</g>

<g fill="none" stroke="#000000" stroke-opacity="1" stroke-width="1" stroke-linecap="square" stroke-linejoin="bevel" transform="matrix(1,0,0,1,0,0)"
font-family="MS Shell Dlg 2" font-size="11" font-weight="400" font-style="normal" 
>
</g>

<g fill="#000000" fill-opacity="1" stroke="#000000" stroke-opacity="1" stroke-width="1" stroke-linecap="square" stroke-linejoin="bevel" transform="matrix(0.999371,0,0,0.998807,0,0)"
font-family="MS Shell Dlg 2" font-size="11" font-weight="400" font-style="normal" 
>
</g>

<g fill="#ffffff" fill-opacity="1" stroke="#ffffff" stroke-opacity="1" stroke-width="1" stroke-linecap="round" stroke-linejoin="bevel" transform="matrix(0.999371,0,0,0.998807,0,0)"
font-family="MS Shell Dlg 2" font-size="11" font-weight="400" font-style="normal" 
>
<polyline fill="none" vector-effect="none" points="72.3182,599.795 -7.10543e-14,599.795 -7.10543e-14,238.205 72.3182,238.205 72.3182,75.4886 1518.68,75.4886 1518.68,238.205 1591,238.205 1591,599.795 1518.68,599.795 1518.68,762.511 72.3182,762.511 72.3182,599.795 " />
<polyline fill="none" vector-effect="none" points="976.295,419 976.241,414.563 976.078,410.129 975.806,405.7 975.425,401.279 974.936,396.869 974.339,392.472 973.634,388.091 972.822,383.729 971.903,379.387 970.877,375.07 969.746,370.78 968.51,366.518 967.17,362.288 965.727,358.092 964.181,353.933 962.533,349.813 960.785,345.734 958.937,341.7 956.991,337.712 954.947,333.774 952.808,329.886 950.573,326.053 948.246,322.275 945.826,318.555 943.316,314.896 940.716,311.3 938.029,307.769 935.257,304.305 932.4,300.909 929.461,297.585 926.441,294.334 923.342,291.158 920.166,288.059 916.915,285.039 913.591,282.1 910.195,279.243 906.731,276.471 903.2,273.784 899.604,271.184 895.945,268.674 892.225,266.254 888.447,263.927 884.614,261.692 880.726,259.553 876.788,257.509 872.8,255.563 868.766,253.715 864.687,251.967 860.567,250.319 856.408,248.773 852.212,247.33 847.982,245.99 843.72,244.754 839.43,243.623 835.113,242.597 830.771,241.678 826.409,240.866 822.028,240.161 817.631,239.564 813.221,239.075 808.8,238.694 804.371,238.422 799.937,238.259 795.5,238.205 791.063,238.259 786.629,238.422 782.2,238.694 777.779,239.075 773.369,239.564 768.972,240.161 764.591,240.866 760.229,241.678 755.887,242.597 751.57,243.623 747.28,244.754 743.018,245.99 738.788,247.33 734.592,248.773 730.433,250.319 726.313,251.967 722.234,253.715 718.2,255.563 714.212,257.509 710.274,259.553 706.386,261.692 702.553,263.927 698.775,266.254 695.055,268.674 691.396,271.184 687.8,273.784 684.269,276.471 680.805,279.243 677.409,282.1 674.085,285.039 670.834,288.059 667.658,291.158 664.559,294.334 661.539,297.585 658.6,300.909 655.743,304.305 652.971,307.769 650.284,311.3 647.684,314.896 645.174,318.555 642.754,322.275 640.427,326.053 638.192,329.886 636.053,333.774 634.009,337.712 632.063,341.7 630.215,345.734 628.467,349.813 626.819,353.933 625.273,358.092 623.83,362.288 622.49,366.518 621.254,370.78 620.123,375.07 619.097,379.387 618.178,383.729 617.366,388.091 616.661,392.472 616.064,396.869 615.575,401.279 615.194,405.7 614.922,410.129 614.759,414.563 614.705,419 614.759,423.437 614.922,427.871 615.194,432.3 615.575,436.721 616.064,441.131 616.661,445.528 617.366,449.909 618.178,454.271 619.097,458.613 620.123,462.93 621.254,467.22 622.49,471.482 623.83,475.712 625.273,479.908 626.819,484.067 628.467,488.187 630.215,492.266 632.063,496.3 634.009,500.288 636.053,504.226 638.192,508.114 640.427,511.947 642.754,515.725 645.174,519.445 647.684,523.104 650.284,526.7 652.971,530.231 655.743,533.695 658.6,537.091 661.539,540.415 664.559,543.666 667.658,546.842 670.834,549.941 674.085,552.961 677.409,555.9 680.805,558.757 684.269,561.529 687.8,564.216 691.396,566.816 695.055,569.326 698.775,571.746 702.553,574.073 706.386,576.308 710.274,578.447 714.212,580.491 718.2,582.437 722.234,584.285 726.313,586.033 730.433,587.681 734.592,589.227 738.788,590.67 743.018,592.01 747.28,593.246 751.57,594.377 755.887,595.403 760.229,596.322 764.591,597.134 768.972,597.839 773.369,598.436 777.779,598.925 782.2,599.306 786.629,599.578 791.063,599.741 795.5,599.795 799.937,599.741 804.371,599.578 808.8,599.306 813.221,598.925 817.631,598.436 822.028,597.839 826.409,597.134 830.771,596.322 835.113,595.403 839.43,594.377 843.72,593.246 847.982,592.01 852.212,590.67 856.408,589.227 860.567,587.681 864.687,586.033 868.766,584.285 872.8,582.437 876.788,580.491 880.726,578.447 884.614,576.308 888.447,574.073 892.225,571.746 895.945,569.326 899.604,566.816 903.2,564.216 906.731,561.529 910.195,558.757 913.591,555.9 916.915,552.961 920.166,549.941 923.342,546.842 926.441,543.666 929.461,540.415 932.4,537.091 935.257,533.695 938.029,530.231 940.716,526.7 943.316,523.104 945.826,519.445 948.246,515.725 950.573,511.947 952.808,508.114 954.947,504.226 956.991,500.288 958.937,496.3 960.785,492.266 962.533,488.187 964.181,484.067 965.727,479.908 967.17,475.712 968.51,471.482 969.746,467.22 970.877,462.93 971.903,458.613 972.822,454.271 973.634,449.909 974.339,445.528 974.936,441.131 975.425,436.721 975.806,432.3 976.078,427.871 976.241,423.437 976.295,419 " />
</g>

<g fill="#ffffff" fill-opacity="1" stroke="#ffffff" stroke-opacity="1" stroke-width="1" stroke-linecap="square" stroke-linejoin="bevel" transform="matrix(0.999371,0,0,0.998807,0,0)"
font-family="MS Shell Dlg 2" font-size="11" font-weight="400" font-style="normal" 
>
</g>

<g fill="#ffffff" fill-opacity="1" stroke="none" transform="matrix(1,0,0,1,0,0)"
font-family="MS Shell Dlg 2" font-size="11" font-weight="400" font-style="normal" 
>
<path vector-effect="non-scaling-stroke" fill-rule="evenodd" d="M342.795,418 L343.795,418 L343.795,419 L342.795,419 L342.795,418"/>
</g>

<g fill="#ffffff" fill-opacity="1" stroke="#ffffff" stroke-opacity="1" stroke-width="1" stroke-linecap="square" stroke-linejoin="bevel" transform="matrix(0.999371,0,0,0.998807,0,0)"
font-family="MS Shell Dlg 2" font-size="11" font-weight="400" font-style="normal" 
>
</g>

<g fill="#ffffff" fill-opacity="1" stroke="#ffffff" stroke-opacity="1" stroke-width="1" stroke-linecap="round" stroke-linejoin="bevel" transform="matrix(0.999371,0,0,0.998807,0,0)"
font-family="MS Shell Dlg 2" font-size="11" font-weight="400" font-style="normal" 
>
<polyline fill="none" vector-effect="none" points="433.909,419 433.882,416.782 433.8,414.564 433.664,412.35 433.474,410.139 433.229,407.934 432.931,405.736 432.578,403.545 432.172,401.364 431.713,399.194 431.2,397.035 430.635,394.89 430.017,392.759 429.347,390.644 428.625,388.546 427.852,386.466 427.028,384.406 426.154,382.367 425.23,380.35 424.257,378.356 423.235,376.387 422.165,374.443 421.048,372.526 419.884,370.637 418.674,368.778 417.419,366.948 416.119,365.15 414.776,363.384 413.39,361.652 411.961,359.955 410.492,358.293 408.982,356.667 407.432,355.079 405.844,353.53 404.219,352.02 402.557,350.55 400.859,349.122 399.127,347.735 397.361,346.392 395.563,345.092 393.734,343.837 391.874,342.627 389.985,341.463 388.068,340.346 386.125,339.276 384.155,338.255 382.161,337.281 380.144,336.358 378.105,335.483 376.045,334.66 373.965,333.887 371.867,333.165 369.752,332.495 367.622,331.877 365.476,331.311 363.318,330.799 361.147,330.339 358.966,329.933 356.775,329.581 354.577,329.282 352.372,329.038 350.161,328.847 347.947,328.711 345.73,328.629 343.511,328.602 341.293,328.629 339.076,328.711 336.861,328.847 334.651,329.038 332.446,329.282 330.247,329.581 328.057,329.933 325.876,330.339 323.705,330.799 321.547,331.311 319.401,331.877 317.27,332.495 315.155,333.165 313.057,333.887 310.978,334.66 308.918,335.483 306.878,336.358 304.861,337.281 302.868,338.255 300.898,339.276 298.954,340.346 297.038,341.463 295.149,342.627 293.289,343.837 291.46,345.092 289.662,346.392 287.896,347.735 286.164,349.122 284.466,350.55 282.804,352.02 281.178,353.53 279.591,355.079 278.041,356.667 276.531,358.293 275.061,359.955 273.633,361.652 272.247,363.384 270.903,365.15 269.604,366.948 268.348,368.778 267.139,370.637 265.975,372.526 264.857,374.443 263.788,376.387 262.766,378.356 261.793,380.35 260.869,382.367 259.995,384.406 259.171,386.466 258.398,388.546 257.676,390.644 257.006,392.759 256.388,394.89 255.823,397.035 255.31,399.194 254.851,401.364 254.445,403.545 254.092,405.736 253.793,407.934 253.549,410.139 253.359,412.35 253.223,414.564 253.141,416.782 253.114,419 253.141,421.218 253.223,423.436 253.359,425.65 253.549,427.861 253.793,430.066 254.092,432.264 254.445,434.455 254.851,436.636 255.31,438.806 255.823,440.965 256.388,443.11 257.006,445.241 257.676,447.356 258.398,449.454 259.171,451.534 259.995,453.594 260.869,455.633 261.793,457.65 262.766,459.644 263.788,461.613 264.857,463.557 265.975,465.474 267.139,467.363 268.348,469.222 269.604,471.052 270.903,472.85 272.247,474.616 273.633,476.348 275.061,478.045 276.531,479.707 278.041,481.333 279.591,482.921 281.178,484.47 282.804,485.98 284.466,487.45 286.164,488.878 287.896,490.265 289.662,491.608 291.46,492.908 293.289,494.163 295.149,495.373 297.038,496.537 298.954,497.654 300.898,498.724 302.868,499.745 304.861,500.719 306.878,501.642 308.918,502.517 310.978,503.34 313.057,504.113 315.155,504.835 317.27,505.505 319.401,506.123 321.547,506.689 323.705,507.201 325.876,507.661 328.057,508.067 330.247,508.419 332.446,508.718 334.651,508.962 336.861,509.153 339.076,509.289 341.293,509.371 343.511,509.398 345.73,509.371 347.947,509.289 350.161,509.153 352.372,508.962 354.577,508.718 356.775,508.419 358.966,508.067 361.147,507.661 363.318,507.201 365.476,506.689 367.622,506.123 369.752,505.505 371.867,504.835 373.965,504.113 376.045,503.34 378.105,502.517 380.144,501.642 382.161,500.719 384.155,499.745 386.125,498.724 388.068,497.654 389.985,496.537 391.874,495.373 393.734,494.163 395.563,492.908 397.361,491.608 399.127,490.265 400.859,488.878 402.557,487.45 404.219,485.98 405.844,484.47 407.432,482.921 408.982,481.333 410.492,479.707 411.961,478.045 413.39,476.348 414.776,474.616 416.119,472.85 417.419,471.052 418.674,469.222 419.884,467.363 421.048,465.474 422.165,463.557 423.235,461.613 424.257,459.644 425.23,457.65 426.154,455.633 427.028,453.594 427.852,451.534 428.625,449.454 429.347,447.356 430.017,445.241 430.635,443.11 431.2,440.965 431.713,438.806 432.172,436.636 432.578,434.455 432.931,432.264 433.229,430.066 433.474,427.861 433.664,425.65 433.8,423.436 433.882,421.218 433.909,419 " />
<polyline fill="none" vector-effect="none" points="1337.89,419 1337.86,416.782 1337.78,414.564 1337.64,412.35 1337.45,410.139 1337.21,407.934 1336.91,405.736 1336.56,403.545 1336.15,401.364 1335.69,399.194 1335.18,397.035 1334.61,394.89 1333.99,392.759 1333.32,390.644 1332.6,388.546 1331.83,386.466 1331.01,384.406 1330.13,382.367 1329.21,380.35 1328.23,378.356 1327.21,376.387 1326.14,374.443 1325.03,372.526 1323.86,370.637 1322.65,368.778 1321.4,366.948 1320.1,365.15 1318.75,363.384 1317.37,361.652 1315.94,359.955 1314.47,358.293 1312.96,356.667 1311.41,355.079 1309.82,353.53 1308.2,352.02 1306.53,350.55 1304.84,349.122 1303.1,347.735 1301.34,346.392 1299.54,345.092 1297.71,343.837 1295.85,342.627 1293.96,341.463 1292.05,340.346 1290.1,339.276 1288.13,338.255 1286.14,337.281 1284.12,336.358 1282.08,335.483 1280.02,334.66 1277.94,333.887 1275.84,333.165 1273.73,332.495 1271.6,331.877 1269.45,331.311 1267.29,330.799 1265.12,330.339 1262.94,329.933 1260.75,329.581 1258.55,329.282 1256.35,329.038 1254.14,328.847 1251.92,328.711 1249.71,328.629 1247.49,328.602 1245.27,328.629 1243.05,328.711 1240.84,328.847 1238.63,329.038 1236.42,329.282 1234.22,329.581 1232.03,329.933 1229.85,330.339 1227.68,330.799 1225.52,331.311 1223.38,331.877 1221.25,332.495 1219.13,333.165 1217.03,333.887 1214.95,334.66 1212.89,335.483 1210.86,336.358 1208.84,337.281 1206.84,338.255 1204.88,339.276 1202.93,340.346 1201.01,341.463 1199.13,342.627 1197.27,343.837 1195.44,345.092 1193.64,346.392 1191.87,347.735 1190.14,349.122 1188.44,350.55 1186.78,352.02 1185.16,353.53 1183.57,355.079 1182.02,356.667 1180.51,358.293 1179.04,359.955 1177.61,361.652 1176.22,363.384 1174.88,365.15 1173.58,366.948 1172.33,368.778 1171.12,370.637 1169.95,372.526 1168.83,374.443 1167.76,376.387 1166.74,378.356 1165.77,380.35 1164.85,382.367 1163.97,384.406 1163.15,386.466 1162.38,388.546 1161.65,390.644 1160.98,392.759 1160.37,394.89 1159.8,397.035 1159.29,399.194 1158.83,401.364 1158.42,403.545 1158.07,405.736 1157.77,407.934 1157.53,410.139 1157.34,412.35 1157.2,414.564 1157.12,416.782 1157.09,419 1157.12,421.218 1157.2,423.436 1157.34,425.65 1157.53,427.861 1157.77,430.066 1158.07,432.264 1158.42,434.455 1158.83,436.636 1159.29,438.806 1159.8,440.965 1160.37,443.11 1160.98,445.241 1161.65,447.356 1162.38,449.454 1163.15,451.534 1163.97,453.594 1164.85,455.633 1165.77,457.65 1166.74,459.644 1167.76,461.613 1168.83,463.557 1169.95,465.474 1171.12,467.363 1172.33,469.222 1173.58,471.052 1174.88,472.85 1176.22,474.616 1177.61,476.348 1179.04,478.045 1180.51,479.707 1182.02,481.333 1183.57,482.921 1185.16,484.47 1186.78,485.98 1188.44,487.45 1190.14,488.878 1191.87,490.265 1193.64,491.608 1195.44,492.908 1197.27,494.163 1199.13,495.373 1201.01,496.537 1202.93,497.654 1204.88,498.724 1206.84,499.745 1208.84,500.719 1210.86,501.642 1212.89,502.517 1214.95,503.34 1217.03,504.113 1219.13,504.835 1221.25,505.505 1223.38,506.123 1225.52,506.689 1227.68,507.201 1229.85,507.661 1232.03,508.067 1234.22,508.419 1236.42,508.718 1238.63,508.962 1240.84,509.153 1243.05,509.289 1245.27,509.371 1247.49,509.398 1249.71,509.371 1251.92,509.289 1254.14,509.153 1256.35,508.962 1258.55,508.718 1260.75,508.419 1262.94,508.067 1265.12,507.661 1267.29,507.201 1269.45,506.689 1271.6,506.123 1273.73,505.505 1275.84,504.835 1277.94,504.113 1280.02,503.34 1282.08,502.517 1284.12,501.642 1286.14,500.719 1288.13,499.745 1290.1,498.724 1292.05,497.654 1293.96,496.537 1295.85,495.373 1297.71,494.163 1299.54,492.908 1301.34,491.608 1303.1,490.265 1304.84,488.878 1306.53,487.45 1308.2,485.98 1309.82,484.47 1311.41,482.921 1312.96,481.333 1314.47,479.707 1315.94,478.045 1317.37,476.348 1318.75,474.616 1320.1,472.85 1321.4,471.052 1322.65,469.222 1323.86,467.363 1325.03,465.474 1326.14,463.557 1327.21,461.613 1328.23,459.644 1329.21,457.65 1330.13,455.633 1331.01,453.594 1331.83,451.534 1332.6,449.454 1333.32,447.356 1333.99,445.241 1334.61,443.11 1335.18,440.965 1335.69,438.806 1336.15,436.636 1336.56,434.455 1336.91,432.264 1337.21,430.066 1337.45,427.861 1337.64,425.65 1337.78,423.436 1337.86,421.218 1337.89,419 " />
</g>

<g fill="#ffffff" fill-opacity="1" stroke="#ffffff" stroke-opacity="1" stroke-width="1" stroke-linecap="round" stroke-linejoin="bevel" transform="matrix(0.999371,0,0,0.998807,0,0)"
font-family="MS Shell Dlg 2" font-size="11" font-weight="400" font-style="normal" 
>
</g>

<g fill="#ffffff" fill-opacity="1" stroke="#ffffff" stroke-opacity="1" stroke-width="1" stroke-linecap="round" stroke-linejoin="bevel" transform="matrix(1,0,0,1,0,0)"
font-family="MS Shell Dlg 2" font-size="11" font-weight="400" font-style="normal" 
>
</g>

<g fill="none" stroke="#000000" stroke-opacity="1" stroke-width="1" stroke-linecap="square" stroke-linejoin="bevel" transform="matrix(1,0,0,1,0,0)"
font-family="MS Shell Dlg 2" font-size="11" font-weight="400" font-style="normal" 
>
</g>
</g>
</svg>
