<?xml version="1.0" encoding="UTF-8" standalone="no"?>
<svg width="420.952mm" height="221.721mm"
 viewBox="0 0 1591 838"
 xmlns="http://www.w3.org/2000/svg" xmlns:xlink="http://www.w3.org/1999/xlink"  version="1.2" baseProfile="tiny">
<title>Qt Svg Document</title>
<desc>Generated with Qt</desc>
<defs>
</defs>
<g fill="none" stroke="black" stroke-width="1" fill-rule="evenodd" stroke-linecap="square" stroke-linejoin="bevel" >

<g fill="none" stroke="#000000" stroke-opacity="1" stroke-width="1" stroke-linecap="square" stroke-linejoin="bevel" transform="matrix(1,0,0,1,0,0)"
font-family="MS Shell Dlg 2" font-size="11" font-weight="400" font-style="normal" 
>
</g>

<g fill="#000000" fill-opacity="1" stroke="none" transform="matrix(1,0,0,1,0,0)"
font-family="MS Shell Dlg 2" font-size="11" font-weight="400" font-style="normal" 
>
<path vector-effect="non-scaling-stroke" fill-rule="evenodd" d="M0,0 L1591,0 L1591,838 L0,838 L0,0"/>
</g>

<g fill="none" stroke="#000000" stroke-opacity="1" stroke-width="1" stroke-linecap="square" stroke-linejoin="bevel" transform="matrix(1,0,0,1,0,0)"
font-family="MS Shell Dlg 2" font-size="11" font-weight="400" font-style="normal" 
>
</g>

<g fill="#000000" fill-opacity="1" stroke="#000000" stroke-opacity="1" stroke-width="1" stroke-linecap="square" stroke-linejoin="bevel" transform="matrix(0.999371,0,0,0.998807,0,0)"
font-family="MS Shell Dlg 2" font-size="11" font-weight="400" font-style="normal" 
>
</g>

<g fill="#ffffff" fill-opacity="1" stroke="#ffffff" stroke-opacity="1" stroke-width="1" stroke-linecap="square" stroke-linejoin="bevel" transform="matrix(0.999371,0,0,0.998807,0,0)"
font-family="MS Shell Dlg 2" font-size="11" font-weight="400" font-style="normal" 
>
</g>

<g fill="#ffffff" fill-opacity="1" stroke="none" transform="matrix(1,0,0,1,0,0)"
font-family="MS Shell Dlg 2" font-size="11" font-weight="400" font-style="normal" 
>
<path vector-effect="non-scaling-stroke" fill-rule="evenodd" d="M1555.84,418 L1556.84,418 L1556.84,419 L1555.84,419 L1555.84,418"/>
</g>

<g fill="#ffffff" fill-opacity="1" stroke="#ffffff" stroke-opacity="1" stroke-width="1" stroke-linecap="square" stroke-linejoin="bevel" transform="matrix(0.999371,0,0,0.998807,0,0)"
font-family="MS Shell Dlg 2" font-size="11" font-weight="400" font-style="normal" 
>
</g>

<g fill="#ffffff" fill-opacity="1" stroke="none" transform="matrix(1,0,0,1,0,0)"
font-family="MS Shell Dlg 2" font-size="11" font-weight="400" font-style="normal" 
>
<path vector-effect="non-scaling-stroke" fill-rule="evenodd" d="M1555.84,418 L1556.84,418 L1556.84,419 L1555.84,419 L1555.84,418"/>
</g>

<g fill="#ffffff" fill-opacity="1" stroke="#ffffff" stroke-opacity="1" stroke-width="1" stroke-linecap="square" stroke-linejoin="bevel" transform="matrix(0.999371,0,0,0.998807,0,0)"
font-family="MS Shell Dlg 2" font-size="11" font-weight="400" font-style="normal" 
>
</g>

<g fill="#ffffff" fill-opacity="1" stroke="#ffffff" stroke-opacity="1" stroke-width="1" stroke-linecap="round" stroke-linejoin="bevel" transform="matrix(0.999371,0,0,0.998807,0,0)"
font-family="MS Shell Dlg 2" font-size="11" font-weight="400" font-style="normal" 
>
<polyline fill="none" vector-effect="none" points="1271.64,419 1271.61,416.663 1271.52,414.327 1271.38,411.995 1271.18,409.666 1270.92,407.343 1270.61,405.027 1270.23,402.72 1269.81,400.422 1269.32,398.136 1268.78,395.862 1268.19,393.602 1267.54,391.357 1266.83,389.129 1266.07,386.919 1265.26,384.728 1264.39,382.558 1263.47,380.41 1262.49,378.285 1261.47,376.185 1260.39,374.11 1259.27,372.063 1258.09,370.043 1256.86,368.054 1255.59,366.095 1254.27,364.167 1252.9,362.273 1251.48,360.413 1250.02,358.588 1248.52,356.8 1246.97,355.049 1245.38,353.337 1243.74,351.664 1242.07,350.032 1240.36,348.441 1238.61,346.893 1236.82,345.388 1235,343.928 1233.14,342.513 1231.24,341.144 1229.31,339.821 1227.36,338.547 1225.37,337.321 1223.35,336.144 1221.3,335.017 1219.22,333.941 1217.12,332.916 1215,331.942 1212.85,331.021 1210.68,330.154 1208.49,329.339 1206.28,328.579 1204.05,327.873 1201.81,327.222 1199.55,326.627 1197.27,326.087 1194.99,325.602 1192.69,325.175 1190.38,324.803 1188.07,324.489 1185.74,324.231 1183.41,324.031 1181.08,323.887 1178.75,323.801 1176.41,323.773 1174.07,323.801 1171.74,323.887 1169.4,324.031 1167.08,324.231 1164.75,324.489 1162.44,324.803 1160.13,325.175 1157.83,325.602 1155.54,326.087 1153.27,326.627 1151.01,327.222 1148.77,327.873 1146.54,328.579 1144.33,329.339 1142.14,330.154 1139.97,331.021 1137.82,331.942 1135.69,332.916 1133.59,333.941 1131.52,335.017 1129.47,336.144 1127.45,337.321 1125.46,338.547 1123.5,339.821 1121.58,341.144 1119.68,342.513 1117.82,343.928 1116,345.388 1114.21,346.893 1112.46,348.441 1110.75,350.032 1109.07,351.664 1107.44,353.337 1105.85,355.049 1104.3,356.8 1102.8,358.588 1101.34,360.413 1099.92,362.273 1098.55,364.167 1097.23,366.095 1095.96,368.054 1094.73,370.043 1093.55,372.063 1092.43,374.11 1091.35,376.185 1090.32,378.285 1089.35,380.41 1088.43,382.558 1087.56,384.728 1086.75,386.919 1085.99,389.129 1085.28,391.357 1084.63,393.602 1084.04,395.862 1083.5,398.136 1083.01,400.422 1082.58,402.72 1082.21,405.027 1081.9,407.343 1081.64,409.666 1081.44,411.995 1081.3,414.327 1081.21,416.663 1081.18,419 1081.21,421.337 1081.3,423.673 1081.44,426.005 1081.64,428.334 1081.9,430.657 1082.21,432.973 1082.58,435.28 1083.01,437.578 1083.5,439.864 1084.04,442.138 1084.63,444.398 1085.28,446.643 1085.99,448.871 1086.75,451.081 1087.56,453.272 1088.43,455.442 1089.35,457.59 1090.32,459.715 1091.35,461.815 1092.43,463.89 1093.55,465.937 1094.73,467.957 1095.96,469.946 1097.23,471.905 1098.55,473.833 1099.92,475.727 1101.34,477.587 1102.8,479.412 1104.3,481.2 1105.85,482.951 1107.44,484.663 1109.07,486.336 1110.75,487.968 1112.46,489.559 1114.21,491.107 1116,492.612 1117.82,494.072 1119.68,495.487 1121.58,496.856 1123.5,498.179 1125.46,499.453 1127.45,500.679 1129.47,501.856 1131.52,502.983 1133.59,504.059 1135.69,505.084 1137.82,506.058 1139.97,506.979 1142.14,507.846 1144.33,508.661 1146.54,509.421 1148.77,510.127 1151.01,510.778 1153.27,511.373 1155.54,511.913 1157.83,512.398 1160.13,512.825 1162.44,513.197 1164.75,513.511 1167.08,513.769 1169.4,513.969 1171.74,514.113 1174.07,514.199 1176.41,514.227 1178.75,514.199 1181.08,514.113 1183.41,513.969 1185.74,513.769 1188.07,513.511 1190.38,513.197 1192.69,512.825 1194.99,512.398 1197.27,511.913 1199.55,511.373 1201.81,510.778 1204.05,510.127 1206.28,509.421 1208.49,508.661 1210.68,507.846 1212.85,506.979 1215,506.058 1217.12,505.084 1219.22,504.059 1221.3,502.983 1223.35,501.856 1225.37,500.679 1227.36,499.453 1229.31,498.179 1231.24,496.856 1233.14,495.487 1235,494.072 1236.82,492.612 1238.61,491.107 1240.36,489.559 1242.07,487.968 1243.74,486.336 1245.38,484.663 1246.97,482.951 1248.52,481.2 1250.02,479.412 1251.48,477.587 1252.9,475.727 1254.27,473.833 1255.59,471.905 1256.86,469.946 1258.09,467.957 1259.27,465.937 1260.39,463.89 1261.47,461.815 1262.49,459.715 1263.47,457.59 1264.39,455.442 1265.26,453.272 1266.07,451.081 1266.83,448.871 1267.54,446.643 1268.19,444.398 1268.78,442.138 1269.32,439.864 1269.81,437.578 1270.23,435.28 1270.61,432.973 1270.92,430.657 1271.18,428.334 1271.38,426.005 1271.52,423.673 1271.61,421.337 1271.64,419 " />
<polyline fill="none" vector-effect="none" points="1077.04,291.062 1077.02,289.994 1076.96,288.927 1076.86,287.863 1076.72,286.804 1076.54,285.751 1076.32,284.705 1076.07,283.668 1075.77,282.641 1075.44,281.626 1075.06,280.625 1074.66,279.638 1074.21,278.667 1073.73,277.713 1073.21,276.778 1072.66,275.863 1072.08,274.969 1071.46,274.098 1070.81,273.25 1070.12,272.427 1069.41,271.631 1068.67,270.861 1067.9,270.12 1067.11,269.408 1066.28,268.726 1065.44,268.076 1064.56,267.458 1063.67,266.873 1062.76,266.321 1061.82,265.804 1060.87,265.323 1059.9,264.877 1058.91,264.469 1057.91,264.097 1056.89,263.763 1055.86,263.467 1054.83,263.21 1053.78,262.992 1052.73,262.813 1051.67,262.673 1050.61,262.574 1049.54,262.514 1048.47,262.494 1047.4,262.514 1046.34,262.574 1045.27,262.673 1044.21,262.813 1043.16,262.992 1042.11,263.21 1041.08,263.467 1040.05,263.763 1039.04,264.097 1038.03,264.469 1037.05,264.877 1036.08,265.323 1035.12,265.804 1034.19,266.321 1033.27,266.873 1032.38,267.458 1031.51,268.076 1030.66,268.726 1029.84,269.408 1029.04,270.12 1028.27,270.861 1027.53,271.631 1026.82,272.427 1026.14,273.25 1025.49,274.098 1024.87,274.969 1024.28,275.863 1023.73,276.778 1023.21,277.713 1022.73,278.667 1022.29,279.638 1021.88,280.625 1021.51,281.626 1021.17,282.641 1020.88,283.668 1020.62,284.705 1020.4,285.751 1020.22,286.804 1020.08,287.863 1019.98,288.927 1019.92,289.994 1019.9,291.062 1019.92,292.13 1019.98,293.197 1020.08,294.261 1020.22,295.32 1020.4,296.373 1020.62,297.419 1020.88,298.456 1021.17,299.483 1021.51,300.497 1021.88,301.499 1022.29,302.486 1022.73,303.457 1023.21,304.411 1023.73,305.346 1024.28,306.261 1024.87,307.155 1025.49,308.026 1026.14,308.874 1026.82,309.697 1027.53,310.493 1028.27,311.263 1029.04,312.004 1029.84,312.716 1030.66,313.397 1031.51,314.048 1032.38,314.666 1033.27,315.251 1034.19,315.803 1035.12,316.319 1036.08,316.801 1037.05,317.246 1038.03,317.655 1039.04,318.027 1040.05,318.361 1041.08,318.657 1042.11,318.914 1043.16,319.132 1044.21,319.311 1045.27,319.45 1046.34,319.55 1047.4,319.61 1048.47,319.63 1049.54,319.61 1050.61,319.55 1051.67,319.45 1052.73,319.311 1053.78,319.132 1054.83,318.914 1055.86,318.657 1056.89,318.361 1057.91,318.027 1058.91,317.655 1059.9,317.246 1060.87,316.801 1061.82,316.319 1062.76,315.803 1063.67,315.251 1064.56,314.666 1065.44,314.048 1066.28,313.397 1067.11,312.716 1067.9,312.004 1068.67,311.263 1069.41,310.493 1070.12,309.697 1070.81,308.874 1071.46,308.026 1072.08,307.155 1072.66,306.261 1073.21,305.346 1073.73,304.411 1074.21,303.457 1074.66,302.486 1075.06,301.499 1075.44,300.497 1075.77,299.483 1076.07,298.456 1076.32,297.419 1076.54,296.373 1076.72,295.32 1076.86,294.261 1076.96,293.197 1077.02,292.13 1077.04,291.062 " />
<polyline fill="none" vector-effect="none" points="1332.92,546.938 1332.9,545.87 1332.84,544.803 1332.74,543.739 1332.6,542.68 1332.42,541.627 1332.2,540.581 1331.94,539.544 1331.65,538.517 1331.31,537.503 1330.94,536.501 1330.53,535.514 1330.09,534.543 1329.6,533.589 1329.09,532.654 1328.54,531.739 1327.95,530.845 1327.33,529.974 1326.68,529.126 1326,528.303 1325.29,527.507 1324.55,526.737 1323.78,525.996 1322.98,525.284 1322.16,524.603 1321.31,523.952 1320.44,523.334 1319.55,522.749 1318.63,522.197 1317.7,521.681 1316.74,521.199 1315.77,520.754 1314.78,520.345 1313.78,519.973 1312.77,519.639 1311.74,519.343 1310.7,519.086 1309.66,518.868 1308.61,518.689 1307.55,518.55 1306.48,518.45 1305.42,518.39 1304.35,518.37 1303.28,518.39 1302.21,518.45 1301.15,518.55 1300.09,518.689 1299.04,518.868 1297.99,519.086 1296.95,519.343 1295.93,519.639 1294.91,519.973 1293.91,520.345 1292.92,520.754 1291.95,521.199 1291,521.681 1290.06,522.197 1289.15,522.749 1288.25,523.334 1287.38,523.952 1286.54,524.603 1285.71,525.284 1284.92,525.996 1284.15,526.737 1283.41,527.507 1282.69,528.303 1282.01,529.126 1281.36,529.974 1280.74,530.845 1280.16,531.739 1279.61,532.654 1279.09,533.589 1278.61,534.543 1278.16,535.514 1277.75,536.501 1277.38,537.503 1277.05,538.517 1276.75,539.544 1276.5,540.581 1276.28,541.627 1276.1,542.68 1275.96,543.739 1275.86,544.803 1275.8,545.87 1275.78,546.938 1275.8,548.006 1275.86,549.073 1275.96,550.137 1276.1,551.196 1276.28,552.249 1276.5,553.295 1276.75,554.332 1277.05,555.359 1277.38,556.374 1277.75,557.375 1278.16,558.362 1278.61,559.333 1279.09,560.287 1279.61,561.222 1280.16,562.137 1280.74,563.031 1281.36,563.902 1282.01,564.75 1282.69,565.573 1283.41,566.369 1284.15,567.139 1284.92,567.88 1285.71,568.592 1286.54,569.274 1287.38,569.924 1288.25,570.542 1289.15,571.127 1290.06,571.679 1291,572.196 1291.95,572.677 1292.92,573.123 1293.91,573.531 1294.91,573.903 1295.93,574.237 1296.95,574.533 1297.99,574.79 1299.04,575.008 1300.09,575.187 1301.15,575.327 1302.21,575.426 1303.28,575.486 1304.35,575.506 1305.42,575.486 1306.48,575.426 1307.55,575.327 1308.61,575.187 1309.66,575.008 1310.7,574.79 1311.74,574.533 1312.77,574.237 1313.78,573.903 1314.78,573.531 1315.77,573.123 1316.74,572.677 1317.7,572.196 1318.63,571.679 1319.55,571.127 1320.44,570.542 1321.31,569.924 1322.16,569.274 1322.98,568.592 1323.78,567.88 1324.55,567.139 1325.29,566.369 1326,565.573 1326.68,564.75 1327.33,563.902 1327.95,563.031 1328.54,562.137 1329.09,561.222 1329.6,560.287 1330.09,559.333 1330.53,558.362 1330.94,557.375 1331.31,556.374 1331.65,555.359 1331.94,554.332 1332.2,553.295 1332.42,552.249 1332.6,551.196 1332.74,550.137 1332.84,549.073 1332.9,548.006 1332.92,546.938 " />
<polyline fill="none" vector-effect="none" points="1312.71,311.263 1312.69,310.194 1312.63,309.128 1312.54,308.064 1312.4,307.005 1312.22,305.951 1312,304.906 1311.74,303.869 1311.45,302.842 1311.11,301.827 1310.74,300.826 1310.33,299.838 1309.89,298.867 1309.4,297.914 1308.89,296.979 1308.34,296.063 1307.75,295.17 1307.13,294.298 1306.48,293.451 1305.8,292.628 1305.09,291.831 1304.35,291.062 1303.58,290.321 1302.78,289.609 1301.96,288.927 1301.11,288.277 1300.24,287.658 1299.35,287.073 1298.43,286.522 1297.5,286.005 1296.54,285.524 1295.57,285.078 1294.58,284.669 1293.58,284.298 1292.57,283.964 1291.54,283.668 1290.5,283.411 1289.46,283.193 1288.4,283.014 1287.35,282.874 1286.28,282.774 1285.21,282.714 1284.15,282.694 1283.08,282.714 1282.01,282.774 1280.95,282.874 1279.89,283.014 1278.84,283.193 1277.79,283.411 1276.75,283.668 1275.73,283.964 1274.71,284.298 1273.71,284.669 1272.72,285.078 1271.75,285.524 1270.8,286.005 1269.86,286.522 1268.95,287.073 1268.05,287.658 1267.18,288.277 1266.33,288.927 1265.51,289.609 1264.72,290.321 1263.95,291.062 1263.2,291.831 1262.49,292.628 1261.81,293.451 1261.16,294.298 1260.54,295.17 1259.96,296.063 1259.41,296.979 1258.89,297.914 1258.41,298.867 1257.96,299.838 1257.55,300.826 1257.18,301.827 1256.85,302.842 1256.55,303.869 1256.29,304.906 1256.08,305.951 1255.9,307.005 1255.76,308.064 1255.66,309.128 1255.6,310.194 1255.58,311.263 1255.6,312.331 1255.66,313.398 1255.76,314.461 1255.9,315.521 1256.08,316.574 1256.29,317.62 1256.55,318.657 1256.85,319.683 1257.18,320.698 1257.55,321.7 1257.96,322.687 1258.41,323.658 1258.89,324.612 1259.41,325.547 1259.96,326.462 1260.54,327.356 1261.16,328.227 1261.81,329.075 1262.49,329.897 1263.2,330.694 1263.95,331.463 1264.72,332.205 1265.51,332.917 1266.33,333.598 1267.18,334.249 1268.05,334.867 1268.95,335.452 1269.86,336.003 1270.8,336.52 1271.75,337.002 1272.72,337.447 1273.71,337.856 1274.71,338.228 1275.73,338.562 1276.75,338.857 1277.79,339.115 1278.84,339.333 1279.89,339.512 1280.95,339.651 1282.01,339.751 1283.08,339.811 1284.15,339.831 1285.21,339.811 1286.28,339.751 1287.35,339.651 1288.4,339.512 1289.46,339.333 1290.5,339.115 1291.54,338.857 1292.57,338.562 1293.58,338.228 1294.58,337.856 1295.57,337.447 1296.54,337.002 1297.5,336.52 1298.43,336.003 1299.35,335.452 1300.24,334.867 1301.11,334.249 1301.96,333.598 1302.78,332.917 1303.58,332.205 1304.35,331.463 1305.09,330.694 1305.8,329.897 1306.48,329.075 1307.13,328.227 1307.75,327.356 1308.34,326.462 1308.89,325.547 1309.4,324.612 1309.89,323.658 1310.33,322.687 1310.74,321.7 1311.11,320.698 1311.45,319.683 1311.74,318.657 1312,317.62 1312.22,316.574 1312.4,315.521 1312.54,314.461 1312.63,313.398 1312.69,312.331 1312.71,311.263 " />
<polyline fill="none" vector-effect="none" points="1097.24,526.737 1097.22,525.669 1097.16,524.602 1097.06,523.539 1096.92,522.479 1096.74,521.426 1096.52,520.38 1096.27,519.343 1095.97,518.317 1095.64,517.302 1095.27,516.3 1094.86,515.313 1094.41,514.342 1093.93,513.388 1093.41,512.453 1092.86,511.538 1092.28,510.644 1091.66,509.773 1091.01,508.925 1090.33,508.103 1089.61,507.306 1088.87,506.537 1088.1,505.795 1087.31,505.083 1086.48,504.402 1085.64,503.751 1084.76,503.133 1083.87,502.548 1082.96,501.997 1082.02,501.48 1081.07,500.998 1080.1,500.553 1079.11,500.144 1078.11,499.772 1077.09,499.438 1076.07,499.143 1075.03,498.885 1073.98,498.667 1072.93,498.488 1071.87,498.349 1070.81,498.249 1069.74,498.189 1068.67,498.169 1067.6,498.189 1066.54,498.249 1065.47,498.349 1064.41,498.488 1063.36,498.667 1062.31,498.885 1061.28,499.143 1060.25,499.438 1059.24,499.772 1058.23,500.144 1057.25,500.553 1056.28,500.998 1055.32,501.48 1054.39,501.997 1053.47,502.548 1052.58,503.133 1051.71,503.751 1050.86,504.402 1050.04,505.083 1049.24,505.795 1048.47,506.537 1047.73,507.306 1047.02,508.103 1046.34,508.925 1045.69,509.773 1045.07,510.644 1044.48,511.538 1043.93,512.453 1043.41,513.388 1042.93,514.342 1042.49,515.313 1042.08,516.3 1041.71,517.302 1041.37,518.317 1041.08,519.343 1040.82,520.38 1040.6,521.426 1040.42,522.479 1040.28,523.539 1040.18,524.602 1040.12,525.669 1040.1,526.737 1040.12,527.806 1040.18,528.872 1040.28,529.936 1040.42,530.995 1040.6,532.049 1040.82,533.094 1041.08,534.131 1041.37,535.158 1041.71,536.173 1042.08,537.174 1042.49,538.162 1042.93,539.133 1043.41,540.086 1043.93,541.021 1044.48,541.937 1045.07,542.83 1045.69,543.702 1046.34,544.549 1047.02,545.372 1047.73,546.169 1048.47,546.938 1049.24,547.679 1050.04,548.391 1050.86,549.073 1051.71,549.723 1052.58,550.342 1053.47,550.927 1054.39,551.478 1055.32,551.995 1056.28,552.476 1057.25,552.922 1058.23,553.331 1059.24,553.702 1060.25,554.036 1061.28,554.332 1062.31,554.589 1063.36,554.807 1064.41,554.986 1065.47,555.126 1066.54,555.226 1067.6,555.286 1068.67,555.306 1069.74,555.286 1070.81,555.226 1071.87,555.126 1072.93,554.986 1073.98,554.807 1075.03,554.589 1076.07,554.332 1077.09,554.036 1078.11,553.702 1079.11,553.331 1080.1,552.922 1081.07,552.476 1082.02,551.995 1082.96,551.478 1083.87,550.927 1084.76,550.342 1085.64,549.723 1086.48,549.073 1087.31,548.391 1088.1,547.679 1088.87,546.938 1089.61,546.169 1090.33,545.372 1091.01,544.549 1091.66,543.702 1092.28,542.83 1092.86,541.937 1093.41,541.021 1093.93,540.086 1094.41,539.133 1094.86,538.162 1095.27,537.174 1095.64,536.173 1095.97,535.158 1096.27,534.131 1096.52,533.094 1096.74,532.049 1096.92,530.995 1097.06,529.936 1097.16,528.872 1097.22,527.806 1097.24,526.737 " />
<polyline fill="none" vector-effect="none" points="1024.05,419 1024.03,417.492 1023.97,415.985 1023.87,414.48 1023.73,412.978 1023.55,411.48 1023.33,409.987 1023.07,408.501 1022.78,407.022 1022.44,405.552 1022.07,404.091 1021.65,402.64 1021.2,401.2 1020.71,399.774 1020.19,398.36 1019.62,396.961 1019.02,395.577 1018.39,394.209 1017.71,392.859 1017.01,391.527 1016.26,390.214 1015.49,388.922 1014.68,387.65 1013.83,386.4 1012.96,385.172 1012.05,383.969 1011.11,382.79 1010.13,381.635 1009.13,380.507 1008.1,379.406 1007.04,378.333 1005.96,377.287 1004.84,376.271 1003.7,375.285 1002.53,374.329 1001.34,373.404 1000.13,372.511 998.887,371.651 997.626,370.823 996.344,370.029 995.041,369.269 993.718,368.544 992.377,367.854 991.018,367.199 989.642,366.581 988.251,365.999 986.844,365.454 985.424,364.947 983.99,364.477 982.545,364.045 981.089,363.651 979.623,363.296 978.148,362.98 976.666,362.703 975.176,362.465 973.681,362.266 972.181,362.107 970.677,361.988 969.171,361.908 967.663,361.869 966.155,361.869 964.647,361.908 963.141,361.988 961.637,362.107 960.137,362.266 958.642,362.465 957.153,362.703 955.67,362.98 954.195,363.296 952.729,363.651 951.273,364.045 949.828,364.477 948.394,364.947 946.974,365.454 945.568,365.999 944.176,366.581 942.8,367.199 941.441,367.854 940.1,368.544 938.777,369.269 937.475,370.029 936.192,370.823 934.931,371.651 933.692,372.511 932.477,373.404 931.285,374.329 930.118,375.285 928.977,376.271 927.863,377.287 926.775,378.333 925.716,379.406 924.685,380.507 923.683,381.635 922.712,382.79 921.772,383.969 920.863,385.172 919.986,386.4 919.142,387.65 918.331,388.922 917.554,390.214 916.811,391.527 916.103,392.859 915.431,394.209 914.795,395.577 914.194,396.961 913.631,398.36 913.105,399.774 912.616,401.2 912.165,402.64 911.752,404.091 911.378,405.552 911.042,407.022 910.746,408.501 910.488,409.987 910.27,411.48 910.091,412.978 909.952,414.48 909.852,415.985 909.793,417.492 909.773,419 909.793,420.508 909.852,422.015 909.952,423.52 910.091,425.022 910.27,426.52 910.488,428.013 910.746,429.499 911.042,430.978 911.378,432.448 911.752,433.909 912.165,435.36 912.616,436.8 913.105,438.226 913.631,439.64 914.194,441.039 914.795,442.423 915.431,443.791 916.103,445.141 916.811,446.473 917.554,447.786 918.331,449.078 919.142,450.35 919.986,451.6 920.863,452.828 921.772,454.031 922.712,455.21 923.683,456.365 924.685,457.493 925.716,458.594 926.775,459.667 927.863,460.713 928.977,461.729 930.118,462.715 931.285,463.671 932.477,464.596 933.692,465.489 934.931,466.349 936.192,467.177 937.475,467.971 938.777,468.731 940.1,469.456 941.441,470.146 942.8,470.801 944.176,471.419 945.568,472.001 946.974,472.546 948.394,473.053 949.828,473.523 951.273,473.955 952.729,474.349 954.195,474.704 955.67,475.02 957.153,475.297 958.642,475.535 960.137,475.734 961.637,475.893 963.141,476.012 964.647,476.092 966.155,476.131 967.663,476.131 969.171,476.092 970.677,476.012 972.181,475.893 973.681,475.734 975.176,475.535 976.666,475.297 978.148,475.02 979.623,474.704 981.089,474.349 982.545,473.955 983.99,473.523 985.424,473.053 986.844,472.546 988.251,472.001 989.642,471.419 991.018,470.801 992.377,470.146 993.718,469.456 995.041,468.731 996.344,467.971 997.626,467.177 998.887,466.349 1000.13,465.489 1001.34,464.596 1002.53,463.671 1003.7,462.715 1004.84,461.729 1005.96,460.713 1007.04,459.667 1008.1,458.594 1009.13,457.493 1010.13,456.365 1011.11,455.21 1012.05,454.031 1012.96,452.828 1013.83,451.6 1014.68,450.35 1015.49,449.078 1016.26,447.786 1017.01,446.473 1017.71,445.141 1018.39,443.791 1019.02,442.423 1019.62,441.039 1020.19,439.64 1020.71,438.226 1021.2,436.8 1021.65,435.36 1022.07,433.909 1022.44,432.448 1022.78,430.978 1023.07,429.499 1023.33,428.013 1023.55,426.52 1023.73,425.022 1023.87,423.52 1023.97,422.015 1024.03,420.508 1024.05,419 " />
<polyline fill="none" vector-effect="none" points="1443.05,419 1443.03,417.492 1442.97,415.985 1442.87,414.48 1442.73,412.978 1442.55,411.48 1442.33,409.987 1442.07,408.501 1441.78,407.022 1441.44,405.552 1441.07,404.091 1440.65,402.64 1440.2,401.2 1439.71,399.774 1439.19,398.36 1438.62,396.961 1438.02,395.577 1437.39,394.209 1436.71,392.859 1436.01,391.527 1435.26,390.214 1434.49,388.922 1433.68,387.65 1432.83,386.4 1431.96,385.172 1431.05,383.969 1430.11,382.79 1429.13,381.635 1428.13,380.507 1427.1,379.406 1426.04,378.333 1424.96,377.287 1423.84,376.271 1422.7,375.285 1421.53,374.329 1420.34,373.404 1419.13,372.511 1417.89,371.651 1416.63,370.823 1415.34,370.029 1414.04,369.269 1412.72,368.544 1411.38,367.854 1410.02,367.199 1408.64,366.581 1407.25,365.999 1405.84,365.454 1404.42,364.947 1402.99,364.477 1401.55,364.045 1400.09,363.651 1398.62,363.296 1397.15,362.98 1395.67,362.703 1394.18,362.465 1392.68,362.266 1391.18,362.107 1389.68,361.988 1388.17,361.908 1386.66,361.869 1385.15,361.869 1383.65,361.908 1382.14,361.988 1380.64,362.107 1379.14,362.266 1377.64,362.465 1376.15,362.703 1374.67,362.98 1373.2,363.296 1371.73,363.651 1370.27,364.045 1368.83,364.477 1367.39,364.947 1365.97,365.454 1364.57,365.999 1363.18,366.581 1361.8,367.199 1360.44,367.854 1359.1,368.544 1357.78,369.269 1356.47,370.029 1355.19,370.823 1353.93,371.651 1352.69,372.511 1351.48,373.404 1350.29,374.329 1349.12,375.285 1347.98,376.271 1346.86,377.287 1345.78,378.333 1344.72,379.406 1343.68,380.507 1342.68,381.635 1341.71,382.79 1340.77,383.969 1339.86,385.172 1338.99,386.4 1338.14,387.65 1337.33,388.922 1336.55,390.214 1335.81,391.527 1335.1,392.859 1334.43,394.209 1333.79,395.577 1333.19,396.961 1332.63,398.36 1332.1,399.774 1331.62,401.2 1331.17,402.64 1330.75,404.091 1330.38,405.552 1330.04,407.022 1329.75,408.501 1329.49,409.987 1329.27,411.48 1329.09,412.978 1328.95,414.48 1328.85,415.985 1328.79,417.492 1328.77,419 1328.79,420.508 1328.85,422.015 1328.95,423.52 1329.09,425.022 1329.27,426.52 1329.49,428.013 1329.75,429.499 1330.04,430.978 1330.38,432.448 1330.75,433.909 1331.17,435.36 1331.62,436.8 1332.1,438.226 1332.63,439.64 1333.19,441.039 1333.79,442.423 1334.43,443.791 1335.1,445.141 1335.81,446.473 1336.55,447.786 1337.33,449.078 1338.14,450.35 1338.99,451.6 1339.86,452.828 1340.77,454.031 1341.71,455.21 1342.68,456.365 1343.68,457.493 1344.72,458.594 1345.78,459.667 1346.86,460.713 1347.98,461.729 1349.12,462.715 1350.29,463.671 1351.48,464.596 1352.69,465.489 1353.93,466.349 1355.19,467.177 1356.47,467.971 1357.78,468.731 1359.1,469.456 1360.44,470.146 1361.8,470.801 1363.18,471.419 1364.57,472.001 1365.97,472.546 1367.39,473.053 1368.83,473.523 1370.27,473.955 1371.73,474.349 1373.2,474.704 1374.67,475.02 1376.15,475.297 1377.64,475.535 1379.14,475.734 1380.64,475.893 1382.14,476.012 1383.65,476.092 1385.15,476.131 1386.66,476.131 1388.17,476.092 1389.68,476.012 1391.18,475.893 1392.68,475.734 1394.18,475.535 1395.67,475.297 1397.15,475.02 1398.62,474.704 1400.09,474.349 1401.55,473.955 1402.99,473.523 1404.42,473.053 1405.84,472.546 1407.25,472.001 1408.64,471.419 1410.02,470.801 1411.38,470.146 1412.72,469.456 1414.04,468.731 1415.34,467.971 1416.63,467.177 1417.89,466.349 1419.13,465.489 1420.34,464.596 1421.53,463.671 1422.7,462.715 1423.84,461.729 1424.96,460.713 1426.04,459.667 1427.1,458.594 1428.13,457.493 1429.13,456.365 1430.11,455.21 1431.05,454.031 1431.96,452.828 1432.83,451.6 1433.68,450.35 1434.49,449.078 1435.26,447.786 1436.01,446.473 1436.71,445.141 1437.39,443.791 1438.02,442.423 1438.62,441.039 1439.19,439.64 1439.71,438.226 1440.2,436.8 1440.65,435.36 1441.07,433.909 1441.44,432.448 1441.78,430.978 1442.07,429.499 1442.33,428.013 1442.55,426.52 1442.73,425.022 1442.87,423.52 1442.97,422.015 1443.03,420.508 1443.05,419 " />
<polyline fill="none" vector-effect="none" points="33.6818,799.909 319.364,799.909 319.364,838 605.045,838 605.045,799.909 795.5,799.909 795.5,838 1081.18,838 1081.18,799.909 1176.41,799.909 1181.08,799.88 1185.76,799.794 1190.43,799.651 1195.1,799.45 1199.77,799.192 1204.43,798.877 1209.09,798.505 1213.74,798.075 1218.39,797.588 1223.04,797.044 1227.67,796.444 1232.3,795.786 1236.92,795.072 1241.53,794.301 1246.13,793.474 1250.72,792.59 1255.3,791.65 1259.87,790.654 1264.42,789.602 1268.96,788.494 1273.49,787.33 1278,786.111 1282.5,784.837 1286.98,783.507 1291.45,782.123 1295.89,780.684 1300.32,779.19 1304.73,777.643 1309.12,776.041 1313.5,774.385 1317.85,772.676 1322.18,770.914 1326.48,769.099 1330.77,767.231 1335.03,765.31 1339.27,763.338 1343.48,761.313 1347.67,759.237 1351.83,757.11 1355.97,754.932 1360.08,752.703 1364.16,750.424 1368.21,748.095 1372.24,745.717 1376.23,743.289 1380.19,740.812 1384.13,738.287 1388.03,735.714 1391.9,733.094 1395.74,730.425 1399.54,727.711 1403.32,724.949 1407.05,722.142 1410.76,719.288 1414.42,716.39 1418.06,713.447 1421.65,710.459 1425.21,707.428 1428.73,704.353 1432.21,701.235 1435.66,698.075 1439.06,694.872 1442.43,691.628 1445.75,688.343 1449.04,685.018 1452.28,681.652 1455.48,678.247 1458.64,674.803 1461.76,671.32 1464.84,667.799 1467.87,664.241 1470.86,660.646 1473.8,657.015 1476.7,653.347 1479.55,649.645 1482.36,645.907 1485.12,642.136 1487.83,638.331 1490.5,634.492 1493.12,630.622 1495.7,626.719 1498.22,622.785 1500.7,618.821 1503.13,614.826 1505.5,610.802 1507.83,606.749 1510.11,602.668 1512.34,598.559 1514.52,594.423 1516.65,590.261 1518.72,586.073 1520.75,581.86 1522.72,577.622 1524.64,573.36 1526.51,569.075 1528.32,564.768 1530.09,560.438 1531.79,556.087 1533.45,551.716 1535.05,547.324 1536.6,542.914 1538.09,538.484 1539.53,534.037 1540.92,529.572 1542.25,525.091 1543.52,520.593 1544.74,516.081 1545.9,511.553 1547.01,507.012 1548.06,502.458 1549.06,497.891 1550,493.312 1550.88,488.722 1551.71,484.121 1552.48,479.511 1553.2,474.891 1553.85,470.263 1554.45,465.627 1555,460.985 1555.48,456.336 1555.91,451.681 1556.29,447.021 1556.6,442.358 1556.86,437.69 1557.06,433.02 1557.2,428.348 1557.29,423.674 1557.32,419 1557.29,414.326 1557.2,409.652 1557.06,404.98 1556.86,400.31 1556.6,395.642 1556.29,390.979 1555.91,386.319 1555.48,381.664 1555,377.015 1554.45,372.373 1553.85,367.737 1553.2,363.109 1552.48,358.489 1551.71,353.879 1550.88,349.278 1550,344.688 1549.06,340.109 1548.06,335.542 1547.01,330.988 1545.9,326.447 1544.74,321.919 1543.52,317.407 1542.25,312.909 1540.92,308.428 1539.53,303.963 1538.09,299.516 1536.6,295.086 1535.05,290.676 1533.45,286.284 1531.79,281.913 1530.09,277.562 1528.32,273.232 1526.51,268.925 1524.64,264.64 1522.72,260.378 1520.75,256.14 1518.72,251.927 1516.65,247.739 1514.52,243.577 1512.34,239.441 1510.11,235.332 1507.83,231.251 1505.5,227.198 1503.13,223.174 1500.7,219.179 1498.22,215.215 1495.7,211.281 1493.12,207.378 1490.5,203.508 1487.83,199.669 1485.12,195.864 1482.36,192.093 1479.55,188.355 1476.7,184.653 1473.8,180.985 1470.86,177.354 1467.87,173.759 1464.84,170.201 1461.76,166.68 1458.64,163.197 1455.48,159.753 1452.28,156.348 1449.04,152.982 1445.75,149.657 1442.43,146.372 1439.06,143.128 1435.66,139.925 1432.21,136.765 1428.73,133.647 1425.21,130.572 1421.65,127.541 1418.06,124.553 1414.42,121.61 1410.76,118.712 1407.05,115.858 1403.32,113.051 1399.54,110.289 1395.74,107.575 1391.9,104.906 1388.03,102.286 1384.13,99.7126 1380.19,97.1876 1376.23,94.7111 1372.24,92.2834 1368.21,89.9049 1364.16,87.576 1360.08,85.2969 1355.97,83.0682 1351.83,80.89 1347.67,78.7627 1343.48,76.6867 1339.27,74.6623 1335.03,72.6897 1330.77,70.7692 1326.48,68.9012 1322.18,67.0859 1317.85,65.3236 1313.5,63.6146 1309.12,61.959 1304.73,60.3573 1300.32,58.8096 1295.89,57.3161 1291.45,55.8771 1286.98,54.4927 1282.5,53.1633 1278,51.8889 1273.49,50.6699 1268.96,49.5063 1264.42,48.3983 1259.87,47.3462 1255.3,46.35 1250.72,45.41 1246.13,44.5262 1241.53,43.6988 1236.92,42.9279 1232.3,42.2137 1227.67,41.5562 1223.04,40.9555 1218.39,40.4118 1213.74,39.9251 1209.09,39.4955 1204.43,39.123 1199.77,38.8077 1195.1,38.5497 1190.43,38.349 1185.76,38.2056 1181.08,38.1196 1176.41,38.0909 1081.18,38.0909 1081.18,0 795.5,0 795.5,38.0909 605.045,38.0909 605.045,0 319.364,0 319.364,38.0909 33.6818,38.0909 33.6818,133.318 39.4543,133.774 45.2236,134.269 50.9893,134.804 56.7512,135.378 62.509,135.992 68.2625,136.645 74.0114,137.338 79.7553,138.071 85.4941,138.842 91.2275,139.653 96.9552,140.504 102.677,141.394 108.392,142.323 114.101,143.291 119.803,144.298 125.499,145.345 131.186,146.43 136.867,147.555 142.539,148.718 148.203,149.921 153.859,151.162 159.506,152.442 165.144,153.761 170.774,155.119 176.393,156.515 182.003,157.949 187.603,159.422 193.193,160.934 198.772,162.484 204.34,164.072 209.898,165.698 215.444,167.363 220.978,169.065 226.501,170.806 232.012,172.584 237.51,174.4 242.996,176.254 248.469,178.145 253.928,180.074 259.375,182.04 264.808,184.044 270.226,186.085 275.631,188.163 281.022,190.278 286.397,192.43 291.758,194.619 297.104,196.844 302.434,199.107 307.749,201.406 313.047,203.741 318.33,206.112 323.596,208.52 328.845,210.964 334.078,213.444 339.293,215.959 344.491,218.511 349.672,221.098 354.834,223.72 359.979,226.378 365.105,229.072 370.212,231.8 375.301,234.563 380.37,237.361 385.42,240.194 390.451,243.062 395.462,245.964 400.453,248.9 405.423,251.87 410.373,254.875 415.302,257.913 420.211,260.986 425.098,264.091 429.963,267.231 434.807,270.403 439.629,273.609 444.429,276.848 449.207,280.119 453.962,283.424 458.694,286.761 463.404,290.13 468.09,293.532 472.752,296.965 477.391,300.431 482.006,303.928 486.597,307.457 491.163,311.018 495.705,314.609 500.222,318.232 504.715,321.886 509.182,325.57 513.623,329.285 518.039,333.031 522.43,336.806 526.794,340.612 531.132,344.448 535.443,348.313 536.872,349.629 538.274,350.975 539.648,352.348 540.993,353.75 542.31,355.178 543.597,356.633 544.855,358.114 546.082,359.621 547.278,361.152 548.442,362.707 549.574,364.286 550.674,365.887 551.741,367.511 552.775,369.156 553.775,370.822 554.741,372.507 555.672,374.212 556.568,375.936 557.429,377.678 558.254,379.437 559.044,381.212 559.796,383.003 560.512,384.809 561.191,386.63 561.833,388.463 562.437,390.31 563.004,392.168 563.532,394.038 564.022,395.918 564.474,397.807 564.887,399.706 565.261,401.612 565.596,403.526 565.892,405.446 566.149,407.372 566.367,409.303 566.545,411.237 566.684,413.175 566.783,415.115 566.842,417.057 566.862,419 566.842,420.943 566.783,422.885 566.684,424.825 566.545,426.763 566.367,428.697 566.149,430.628 565.892,432.554 565.596,434.474 565.261,436.388 564.887,438.294 564.474,440.193 564.022,442.082 563.532,443.962 563.004,445.832 562.437,447.69 561.833,449.537 561.191,451.37 560.512,453.191 559.796,454.997 559.044,456.788 558.254,458.563 557.429,460.322 556.568,462.064 555.672,463.788 554.741,465.493 553.775,467.178 552.775,468.844 551.741,470.489 550.674,472.113 549.574,473.714 548.442,475.293 547.278,476.848 546.082,478.379 544.855,479.886 543.597,481.367 542.31,482.822 540.993,484.25 539.648,485.652 538.274,487.025 536.872,488.371 535.443,489.687 531.132,493.552 526.794,497.388 522.43,501.194 518.039,504.969 513.623,508.715 509.182,512.43 504.715,516.114 500.222,519.768 495.705,523.391 491.163,526.982 486.597,530.543 482.006,534.072 477.391,537.569 472.752,541.035 468.09,544.468 463.404,547.87 458.694,551.239 453.962,554.576 449.207,557.881 444.429,561.152 439.629,564.391 434.807,567.597 429.963,570.769 425.098,573.909 420.211,577.014 415.302,580.087 410.373,583.125 405.423,586.13 400.453,589.1 395.462,592.036 390.451,594.938 385.42,597.806 380.37,600.639 375.301,603.437 370.212,606.2 365.105,608.928 359.979,611.622 354.834,614.28 349.672,616.902 344.491,619.489 339.293,622.041 334.078,624.556 328.845,627.036 323.596,629.48 318.33,631.888 313.047,634.259 307.749,636.594 302.434,638.893 297.104,641.156 291.758,643.381 286.397,645.57 281.022,647.722 275.631,649.837 270.226,651.915 264.808,653.956 259.375,655.96 253.928,657.926 248.469,659.855 242.996,661.746 237.51,663.6 232.012,665.416 226.501,667.194 220.978,668.935 215.444,670.637 209.898,672.302 204.34,673.928 198.772,675.516 193.193,677.066 187.603,678.578 182.003,680.051 176.393,681.485 170.774,682.881 165.144,684.239 159.506,685.558 153.859,686.838 148.203,688.079 142.539,689.282 136.867,690.445 131.186,691.57 125.499,692.655 119.803,693.702 114.101,694.709 108.392,695.677 102.677,696.606 96.9552,697.496 91.2275,698.347 85.4941,699.158 79.7553,699.929 74.0114,700.662 68.2625,701.355 62.509,702.008 56.7512,702.622 50.9893,703.196 45.2236,703.731 39.4543,704.226 33.6818,704.682 33.6818,799.909 " />
</g>

<g fill="#ffffff" fill-opacity="1" stroke="#ffffff" stroke-opacity="1" stroke-width="1" stroke-linecap="round" stroke-linejoin="bevel" transform="matrix(0.999371,0,0,0.998807,0,0)"
font-family="MS Shell Dlg 2" font-size="11" font-weight="400" font-style="normal" 
>
</g>

<g fill="#ffffff" fill-opacity="1" stroke="#ffffff" stroke-opacity="1" stroke-width="1" stroke-linecap="round" stroke-linejoin="bevel" transform="matrix(1,0,0,1,0,0)"
font-family="MS Shell Dlg 2" font-size="11" font-weight="400" font-style="normal" 
>
</g>

<g fill="none" stroke="#000000" stroke-opacity="1" stroke-width="1" stroke-linecap="square" stroke-linejoin="bevel" transform="matrix(1,0,0,1,0,0)"
font-family="MS Shell Dlg 2" font-size="11" font-weight="400" font-style="normal" 
>
</g>
</g>
</svg>
