<?xml version="1.0" encoding="UTF-8" standalone="no"?>
<svg width="420.952mm" height="221.721mm"
 viewBox="0 0 1591 838"
 xmlns="http://www.w3.org/2000/svg" xmlns:xlink="http://www.w3.org/1999/xlink"  version="1.2" baseProfile="tiny">
<title>Qt Svg Document</title>
<desc>Generated with Qt</desc>
<defs>
</defs>
<g fill="none" stroke="black" stroke-width="1" fill-rule="evenodd" stroke-linecap="square" stroke-linejoin="bevel" >

<g fill="none" stroke="#000000" stroke-opacity="1" stroke-width="1" stroke-linecap="square" stroke-linejoin="bevel" transform="matrix(1,0,0,1,0,0)"
font-family="MS Shell Dlg 2" font-size="11" font-weight="400" font-style="normal" 
>
</g>

<g fill="#000000" fill-opacity="1" stroke="none" transform="matrix(1,0,0,1,0,0)"
font-family="MS Shell Dlg 2" font-size="11" font-weight="400" font-style="normal" 
>
<path vector-effect="non-scaling-stroke" fill-rule="evenodd" d="M0,0 L1591,0 L1591,838 L0,838 L0,0"/>
</g>

<g fill="none" stroke="#000000" stroke-opacity="1" stroke-width="1" stroke-linecap="square" stroke-linejoin="bevel" transform="matrix(1,0,0,1,0,0)"
font-family="MS Shell Dlg 2" font-size="11" font-weight="400" font-style="normal" 
>
</g>

<g fill="#000000" fill-opacity="1" stroke="#000000" stroke-opacity="1" stroke-width="1" stroke-linecap="square" stroke-linejoin="bevel" transform="matrix(0.999371,0,0,0.998807,0,0)"
font-family="MS Shell Dlg 2" font-size="11" font-weight="400" font-style="normal" 
>
</g>

<g fill="#ffffff" fill-opacity="1" stroke="#ffffff" stroke-opacity="1" stroke-width="1" stroke-linecap="square" stroke-linejoin="bevel" transform="matrix(0.999371,0,0,0.998807,0,0)"
font-family="MS Shell Dlg 2" font-size="11" font-weight="400" font-style="normal" 
>
</g>

<g fill="#ffffff" fill-opacity="1" stroke="none" transform="matrix(1,0,0,1,0,0)"
font-family="MS Shell Dlg 2" font-size="11" font-weight="400" font-style="normal" 
>
<path vector-effect="non-scaling-stroke" fill-rule="evenodd" d="M1555.84,418 L1556.84,418 L1556.84,419 L1555.84,419 L1555.84,418"/>
</g>

<g fill="#ffffff" fill-opacity="1" stroke="#ffffff" stroke-opacity="1" stroke-width="1" stroke-linecap="square" stroke-linejoin="bevel" transform="matrix(0.999371,0,0,0.998807,0,0)"
font-family="MS Shell Dlg 2" font-size="11" font-weight="400" font-style="normal" 
>
</g>

<g fill="#ffffff" fill-opacity="1" stroke="none" transform="matrix(1,0,0,1,0,0)"
font-family="MS Shell Dlg 2" font-size="11" font-weight="400" font-style="normal" 
>
<path vector-effect="non-scaling-stroke" fill-rule="evenodd" d="M1555.84,418 L1556.84,418 L1556.84,419 L1555.84,419 L1555.84,418"/>
</g>

<g fill="#ffffff" fill-opacity="1" stroke="#ffffff" stroke-opacity="1" stroke-width="1" stroke-linecap="square" stroke-linejoin="bevel" transform="matrix(0.999371,0,0,0.998807,0,0)"
font-family="MS Shell Dlg 2" font-size="11" font-weight="400" font-style="normal" 
>
</g>

<g fill="#ffffff" fill-opacity="1" stroke="#ffffff" stroke-opacity="1" stroke-width="1" stroke-linecap="round" stroke-linejoin="bevel" transform="matrix(0.999371,0,0,0.998807,0,0)"
font-family="MS Shell Dlg 2" font-size="11" font-weight="400" font-style="normal" 
>
<polyline fill="none" vector-effect="none" points="33.6818,799.909 319.364,799.909 319.364,838 605.045,838 605.045,799.909 795.5,799.909 795.5,838 1081.18,838 1081.18,799.909 1176.41,799.909 1181.08,799.88 1185.76,799.794 1190.43,799.651 1195.1,799.45 1199.77,799.192 1204.43,798.877 1209.09,798.505 1213.74,798.075 1218.39,797.588 1223.04,797.044 1227.67,796.444 1232.3,795.786 1236.92,795.072 1241.53,794.301 1246.13,793.474 1250.72,792.59 1255.3,791.65 1259.87,790.654 1264.42,789.602 1268.96,788.494 1273.49,787.33 1278,786.111 1282.5,784.837 1286.98,783.507 1291.45,782.123 1295.89,780.684 1300.32,779.19 1304.73,777.643 1309.12,776.041 1313.5,774.385 1317.85,772.676 1322.18,770.914 1326.48,769.099 1330.77,767.231 1335.03,765.31 1339.27,763.338 1343.48,761.313 1347.67,759.237 1351.83,757.11 1355.97,754.932 1360.08,752.703 1364.16,750.424 1368.21,748.095 1372.24,745.717 1376.23,743.289 1380.19,740.812 1384.13,738.287 1388.03,735.714 1391.9,733.094 1395.74,730.425 1399.54,727.711 1403.32,724.949 1407.05,722.142 1410.76,719.288 1414.42,716.39 1418.06,713.447 1421.65,710.459 1425.21,707.428 1428.73,704.353 1432.21,701.235 1435.66,698.075 1439.06,694.872 1442.43,691.628 1445.75,688.343 1449.04,685.018 1452.28,681.652 1455.48,678.247 1458.64,674.803 1461.76,671.32 1464.84,667.799 1467.87,664.241 1470.86,660.646 1473.8,657.015 1476.7,653.347 1479.55,649.645 1482.36,645.907 1485.12,642.136 1487.83,638.331 1490.5,634.492 1493.12,630.622 1495.7,626.719 1498.22,622.785 1500.7,618.821 1503.13,614.826 1505.5,610.802 1507.83,606.749 1510.11,602.668 1512.34,598.559 1514.52,594.423 1516.65,590.261 1518.72,586.073 1520.75,581.86 1522.72,577.622 1524.64,573.36 1526.51,569.075 1528.32,564.768 1530.09,560.438 1531.79,556.087 1533.45,551.716 1535.05,547.324 1536.6,542.914 1538.09,538.484 1539.53,534.037 1540.92,529.572 1542.25,525.091 1543.52,520.593 1544.74,516.081 1545.9,511.553 1547.01,507.012 1548.06,502.458 1549.06,497.891 1550,493.312 1550.88,488.722 1551.71,484.121 1552.48,479.511 1553.2,474.891 1553.85,470.263 1554.45,465.627 1555,460.985 1555.48,456.336 1555.91,451.681 1556.29,447.021 1556.6,442.358 1556.86,437.69 1557.06,433.02 1557.2,428.348 1557.29,423.674 1557.32,419 1557.29,414.326 1557.2,409.652 1557.06,404.98 1556.86,400.31 1556.6,395.642 1556.29,390.979 1555.91,386.319 1555.48,381.664 1555,377.015 1554.45,372.373 1553.85,367.737 1553.2,363.109 1552.48,358.489 1551.71,353.879 1550.88,349.278 1550,344.688 1549.06,340.109 1548.06,335.542 1547.01,330.988 1545.9,326.447 1544.74,321.919 1543.52,317.407 1542.25,312.909 1540.92,308.428 1539.53,303.963 1538.09,299.516 1536.6,295.086 1535.05,290.676 1533.45,286.284 1531.79,281.913 1530.09,277.562 1528.32,273.232 1526.51,268.925 1524.64,264.64 1522.72,260.378 1520.75,256.14 1518.72,251.927 1516.65,247.739 1514.52,243.577 1512.34,239.441 1510.11,235.332 1507.83,231.251 1505.5,227.198 1503.13,223.174 1500.7,219.179 1498.22,215.215 1495.7,211.281 1493.12,207.378 1490.5,203.508 1487.83,199.669 1485.12,195.864 1482.36,192.093 1479.55,188.355 1476.7,184.653 1473.8,180.985 1470.86,177.354 1467.87,173.759 1464.84,170.201 1461.76,166.68 1458.64,163.197 1455.48,159.753 1452.28,156.348 1449.04,152.982 1445.75,149.657 1442.43,146.372 1439.06,143.128 1435.66,139.925 1432.21,136.765 1428.73,133.647 1425.21,130.572 1421.65,127.541 1418.06,124.553 1414.42,121.61 1410.76,118.712 1407.05,115.858 1403.32,113.051 1399.54,110.289 1395.74,107.575 1391.9,104.906 1388.03,102.286 1384.13,99.7126 1380.19,97.1876 1376.23,94.7111 1372.24,92.2834 1368.21,89.9049 1364.16,87.576 1360.08,85.2969 1355.97,83.0682 1351.83,80.89 1347.67,78.7627 1343.48,76.6867 1339.27,74.6623 1335.03,72.6897 1330.77,70.7692 1326.48,68.9012 1322.18,67.0859 1317.85,65.3236 1313.5,63.6146 1309.12,61.959 1304.73,60.3573 1300.32,58.8096 1295.89,57.3161 1291.45,55.8771 1286.98,54.4927 1282.5,53.1633 1278,51.8889 1273.49,50.6699 1268.96,49.5063 1264.42,48.3983 1259.87,47.3462 1255.3,46.35 1250.72,45.41 1246.13,44.5262 1241.53,43.6988 1236.92,42.9279 1232.3,42.2137 1227.67,41.5562 1223.04,40.9555 1218.39,40.4118 1213.74,39.9251 1209.09,39.4955 1204.43,39.123 1199.77,38.8077 1195.1,38.5497 1190.43,38.349 1185.76,38.2056 1181.08,38.1196 1176.41,38.0909 1081.18,38.0909 1081.18,0 795.5,0 795.5,38.0909 605.045,38.0909 605.045,0 319.364,0 319.364,38.0909 33.6818,38.0909 33.6818,133.318 39.4543,133.774 45.2236,134.269 50.9893,134.804 56.7512,135.378 62.509,135.992 68.2625,136.645 74.0114,137.338 79.7553,138.071 85.4941,138.842 91.2275,139.653 96.9552,140.504 102.677,141.394 108.392,142.323 114.101,143.291 119.803,144.298 125.499,145.345 131.186,146.43 136.867,147.555 142.539,148.718 148.203,149.921 153.859,151.162 159.506,152.442 165.144,153.761 170.774,155.119 176.393,156.515 182.003,157.949 187.603,159.422 193.193,160.934 198.772,162.484 204.34,164.072 209.898,165.698 215.444,167.363 220.978,169.065 226.501,170.806 232.012,172.584 237.51,174.4 242.996,176.254 248.469,178.145 253.928,180.074 259.375,182.04 264.808,184.044 270.226,186.085 275.631,188.163 281.022,190.278 286.397,192.43 291.758,194.619 297.104,196.844 302.434,199.107 307.749,201.406 313.047,203.741 318.33,206.112 323.596,208.52 328.845,210.964 334.078,213.444 339.293,215.959 344.491,218.511 349.672,221.098 354.834,223.72 359.979,226.378 365.105,229.072 370.212,231.8 375.301,234.563 380.37,237.361 385.42,240.194 390.451,243.062 395.462,245.964 400.453,248.9 405.423,251.87 410.373,254.875 415.302,257.913 420.211,260.986 425.098,264.091 429.963,267.231 434.807,270.403 439.629,273.609 444.429,276.848 449.207,280.119 453.962,283.424 458.694,286.761 463.404,290.13 468.09,293.532 472.752,296.965 477.391,300.431 482.006,303.928 486.597,307.457 491.163,311.018 495.705,314.609 500.222,318.232 504.715,321.886 509.182,325.57 513.623,329.285 518.039,333.031 522.43,336.806 526.794,340.612 531.132,344.448 535.443,348.313 536.872,349.629 538.274,350.975 539.648,352.348 540.993,353.75 542.31,355.178 543.597,356.633 544.855,358.114 546.082,359.621 547.278,361.152 548.442,362.707 549.574,364.286 550.674,365.887 551.741,367.511 552.775,369.156 553.775,370.822 554.741,372.507 555.672,374.212 556.568,375.936 557.429,377.678 558.254,379.437 559.044,381.212 559.796,383.003 560.512,384.809 561.191,386.63 561.833,388.463 562.437,390.31 563.004,392.168 563.532,394.038 564.022,395.918 564.474,397.807 564.887,399.706 565.261,401.612 565.596,403.526 565.892,405.446 566.149,407.372 566.367,409.303 566.545,411.237 566.684,413.175 566.783,415.115 566.842,417.057 566.862,419 566.842,420.943 566.783,422.885 566.684,424.825 566.545,426.763 566.367,428.697 566.149,430.628 565.892,432.554 565.596,434.474 565.261,436.388 564.887,438.294 564.474,440.193 564.022,442.082 563.532,443.962 563.004,445.832 562.437,447.69 561.833,449.537 561.191,451.37 560.512,453.191 559.796,454.997 559.044,456.788 558.254,458.563 557.429,460.322 556.568,462.064 555.672,463.788 554.741,465.493 553.775,467.178 552.775,468.844 551.741,470.489 550.674,472.113 549.574,473.714 548.442,475.293 547.278,476.848 546.082,478.379 544.855,479.886 543.597,481.367 542.31,482.822 540.993,484.25 539.648,485.652 538.274,487.025 536.872,488.371 535.443,489.687 531.132,493.552 526.794,497.388 522.43,501.194 518.039,504.969 513.623,508.715 509.182,512.43 504.715,516.114 500.222,519.768 495.705,523.391 491.163,526.982 486.597,530.543 482.006,534.072 477.391,537.569 472.752,541.035 468.09,544.468 463.404,547.87 458.694,551.239 453.962,554.576 449.207,557.881 444.429,561.152 439.629,564.391 434.807,567.597 429.963,570.769 425.098,573.909 420.211,577.014 415.302,580.087 410.373,583.125 405.423,586.13 400.453,589.1 395.462,592.036 390.451,594.938 385.42,597.806 380.37,600.639 375.301,603.437 370.212,606.2 365.105,608.928 359.979,611.622 354.834,614.28 349.672,616.902 344.491,619.489 339.293,622.041 334.078,624.556 328.845,627.036 323.596,629.48 318.33,631.888 313.047,634.259 307.749,636.594 302.434,638.893 297.104,641.156 291.758,643.381 286.397,645.57 281.022,647.722 275.631,649.837 270.226,651.915 264.808,653.956 259.375,655.96 253.928,657.926 248.469,659.855 242.996,661.746 237.51,663.6 232.012,665.416 226.501,667.194 220.978,668.935 215.444,670.637 209.898,672.302 204.34,673.928 198.772,675.516 193.193,677.066 187.603,678.578 182.003,680.051 176.393,681.485 170.774,682.881 165.144,684.239 159.506,685.558 153.859,686.838 148.203,688.079 142.539,689.282 136.867,690.445 131.186,691.57 125.499,692.655 119.803,693.702 114.101,694.709 108.392,695.677 102.677,696.606 96.9552,697.496 91.2275,698.347 85.4941,699.158 79.7553,699.929 74.0114,700.662 68.2625,701.355 62.509,702.008 56.7512,702.622 50.9893,703.196 45.2236,703.731 39.4543,704.226 33.6818,704.682 33.6818,799.909 " />
<polyline fill="none" vector-effect="none" points="1443.05,419 1442.97,412.456 1442.72,405.917 1442.32,399.385 1441.76,392.865 1441.04,386.361 1440.16,379.876 1439.12,373.415 1437.92,366.982 1436.57,360.58 1435.05,354.213 1433.39,347.885 1431.56,341.6 1429.59,335.361 1427.46,329.173 1425.18,323.039 1422.75,316.963 1420.17,310.948 1417.45,304.998 1414.58,299.117 1411.56,293.308 1408.41,287.575 1405.11,281.922 1401.68,276.35 1398.11,270.865 1394.41,265.469 1390.57,260.165 1386.61,254.957 1382.52,249.848 1378.31,244.84 1373.97,239.938 1369.52,235.143 1364.95,230.46 1360.27,225.889 1355.47,221.435 1350.57,217.101 1345.56,212.887 1340.45,208.798 1335.24,204.836 1329.94,201.002 1324.54,197.3 1319.06,193.731 1313.49,190.298 1307.83,187.003 1302.1,183.848 1296.29,180.834 1290.41,177.964 1284.46,175.238 1278.45,172.66 1272.37,170.23 1266.24,167.95 1260.05,165.821 1253.81,163.845 1247.52,162.022 1241.2,160.354 1234.83,158.842 1228.43,157.487 1221.99,156.289 1215.53,155.25 1209.05,154.369 1202.54,153.648 1196.02,153.086 1189.49,152.685 1182.95,152.444 1176.41,152.364 1169.87,152.444 1163.33,152.685 1156.79,153.086 1150.27,153.648 1143.77,154.369 1137.29,155.25 1130.82,156.289 1124.39,157.487 1117.99,158.842 1111.62,160.354 1105.29,162.022 1099.01,163.845 1092.77,165.821 1086.58,167.95 1080.45,170.23 1074.37,172.66 1068.36,175.238 1062.41,177.964 1056.53,180.834 1050.72,183.848 1044.98,187.003 1039.33,190.298 1033.76,193.731 1028.27,197.3 1022.88,201.002 1017.57,204.836 1012.37,208.798 1007.26,212.887 1002.25,217.101 997.347,221.435 992.553,225.889 987.869,230.46 983.298,235.143 978.845,239.938 974.51,244.84 970.296,249.848 966.207,254.957 962.245,260.165 958.411,265.469 954.709,270.865 951.14,276.35 947.707,281.922 944.412,287.575 941.257,293.308 938.243,299.117 935.373,304.998 932.648,310.948 930.069,316.963 927.639,323.039 925.359,329.173 923.23,335.361 921.254,341.6 919.431,347.885 917.763,354.213 916.251,360.58 914.896,366.982 913.698,373.415 912.659,379.876 911.778,386.361 911.057,392.865 910.495,399.385 910.094,405.917 909.853,412.456 909.773,419 909.853,425.544 910.094,432.083 910.495,438.615 911.057,445.135 911.778,451.639 912.659,458.124 913.698,464.585 914.896,471.018 916.251,477.42 917.763,483.787 919.431,490.115 921.254,496.4 923.23,502.639 925.359,508.827 927.639,514.961 930.069,521.037 932.648,527.052 935.373,533.002 938.243,538.883 941.257,544.692 944.412,550.425 947.707,556.078 951.14,561.65 954.709,567.135 958.411,572.531 962.245,577.835 966.207,583.043 970.296,588.152 974.51,593.16 978.845,598.062 983.298,602.857 987.869,607.54 992.553,612.111 997.347,616.565 1002.25,620.899 1007.26,625.113 1012.37,629.202 1017.57,633.164 1022.88,636.998 1028.27,640.7 1033.76,644.269 1039.33,647.702 1044.98,650.997 1050.72,654.152 1056.53,657.166 1062.41,660.036 1068.36,662.762 1074.37,665.34 1080.45,667.77 1086.58,670.05 1092.77,672.179 1099.01,674.155 1105.29,675.978 1111.62,677.646 1117.99,679.158 1124.39,680.513 1130.82,681.711 1137.29,682.75 1143.77,683.631 1150.27,684.352 1156.79,684.914 1163.33,685.315 1169.87,685.556 1176.41,685.636 1182.95,685.556 1189.49,685.315 1196.02,684.914 1202.54,684.352 1209.05,683.631 1215.53,682.75 1221.99,681.711 1228.43,680.513 1234.83,679.158 1241.2,677.646 1247.52,675.978 1253.81,674.155 1260.05,672.179 1266.24,670.05 1272.37,667.77 1278.45,665.34 1284.46,662.762 1290.41,660.036 1296.29,657.166 1302.1,654.152 1307.83,650.997 1313.49,647.702 1319.06,644.269 1324.54,640.7 1329.94,636.998 1335.24,633.164 1340.45,629.202 1345.56,625.113 1350.57,620.899 1355.47,616.565 1360.27,612.111 1364.95,607.54 1369.52,602.857 1373.97,598.062 1378.31,593.16 1382.52,588.152 1386.61,583.043 1390.57,577.835 1394.41,572.531 1398.11,567.135 1401.68,561.65 1405.11,556.078 1408.41,550.425 1411.56,544.692 1414.58,538.883 1417.45,533.002 1420.17,527.052 1422.75,521.037 1425.18,514.961 1427.46,508.827 1429.59,502.639 1431.56,496.4 1433.39,490.115 1435.05,483.787 1436.57,477.42 1437.92,471.018 1439.12,464.585 1440.16,458.124 1441.04,451.639 1441.76,445.135 1442.32,438.615 1442.72,432.083 1442.97,425.544 1443.05,419 " />
</g>

<g fill="#ffffff" fill-opacity="1" stroke="#ffffff" stroke-opacity="1" stroke-width="1" stroke-linecap="round" stroke-linejoin="bevel" transform="matrix(0.999371,0,0,0.998807,0,0)"
font-family="MS Shell Dlg 2" font-size="11" font-weight="400" font-style="normal" 
>
</g>

<g fill="#ffffff" fill-opacity="1" stroke="#ffffff" stroke-opacity="1" stroke-width="1" stroke-linecap="round" stroke-linejoin="bevel" transform="matrix(1,0,0,1,0,0)"
font-family="MS Shell Dlg 2" font-size="11" font-weight="400" font-style="normal" 
>
</g>

<g fill="none" stroke="#000000" stroke-opacity="1" stroke-width="1" stroke-linecap="square" stroke-linejoin="bevel" transform="matrix(1,0,0,1,0,0)"
font-family="MS Shell Dlg 2" font-size="11" font-weight="400" font-style="normal" 
>
</g>
</g>
</svg>
