<?xml version="1.0" encoding="UTF-8" standalone="no"?>
<svg width="420.952mm" height="221.721mm"
 viewBox="0 0 1591 838"
 xmlns="http://www.w3.org/2000/svg" xmlns:xlink="http://www.w3.org/1999/xlink"  version="1.2" baseProfile="tiny">
<title>Qt Svg Document</title>
<desc>Generated with Qt</desc>
<defs>
</defs>
<g fill="none" stroke="black" stroke-width="1" fill-rule="evenodd" stroke-linecap="square" stroke-linejoin="bevel" >

<g fill="none" stroke="#000000" stroke-opacity="1" stroke-width="1" stroke-linecap="square" stroke-linejoin="bevel" transform="matrix(1,0,0,1,0,0)"
font-family="MS Shell Dlg 2" font-size="11" font-weight="400" font-style="normal" 
>
</g>

<g fill="#000000" fill-opacity="1" stroke="none" transform="matrix(1,0,0,1,0,0)"
font-family="MS Shell Dlg 2" font-size="11" font-weight="400" font-style="normal" 
>
<path vector-effect="non-scaling-stroke" fill-rule="evenodd" d="M0,0 L1591,0 L1591,838 L0,838 L0,0"/>
</g>

<g fill="none" stroke="#000000" stroke-opacity="1" stroke-width="1" stroke-linecap="square" stroke-linejoin="bevel" transform="matrix(1,0,0,1,0,0)"
font-family="MS Shell Dlg 2" font-size="11" font-weight="400" font-style="normal" 
>
</g>

<g fill="#000000" fill-opacity="1" stroke="#000000" stroke-opacity="1" stroke-width="1" stroke-linecap="square" stroke-linejoin="bevel" transform="matrix(0.999371,0,0,0.998807,0,0)"
font-family="MS Shell Dlg 2" font-size="11" font-weight="400" font-style="normal" 
>
</g>

<g fill="#ffffff" fill-opacity="1" stroke="#ffffff" stroke-opacity="1" stroke-width="1" stroke-linecap="round" stroke-linejoin="bevel" transform="matrix(0.999371,0,0,0.998807,0,0)"
font-family="MS Shell Dlg 2" font-size="11" font-weight="400" font-style="normal" 
>
<polyline fill="none" vector-effect="none" points="-1.13687e-13,532.339 -1.13687e-13,306.345 1591,306.345 1591,532.339 -1.13687e-13,532.339 " />
<polyline fill="none" vector-effect="none" points="253.114,419.342 253.094,418.003 253.034,416.664 252.935,415.329 252.796,413.996 252.618,412.669 252.401,411.347 252.144,410.032 251.849,408.726 251.515,407.428 251.143,406.141 250.733,404.866 250.285,403.604 249.8,402.355 249.278,401.121 248.72,399.904 248.126,398.703 247.497,397.52 246.833,396.357 246.135,395.214 245.403,394.092 244.638,392.992 243.841,391.915 243.013,390.863 242.153,389.835 241.264,388.834 240.345,387.859 239.398,386.912 238.423,385.993 237.422,385.103 236.394,384.244 235.341,383.416 234.265,382.619 233.165,381.854 232.043,381.122 230.9,380.424 229.736,379.76 228.554,379.131 227.353,378.537 226.135,377.979 224.902,377.457 223.653,376.972 222.391,376.524 221.115,376.114 219.829,375.742 218.531,375.408 217.225,375.112 215.91,374.856 214.588,374.639 213.261,374.46 211.928,374.322 210.592,374.223 209.254,374.163 207.915,374.143 206.575,374.163 205.237,374.223 203.901,374.322 202.569,374.46 201.241,374.639 199.92,374.856 198.605,375.112 197.298,375.408 196.001,375.742 194.714,376.114 193.439,376.524 192.176,376.972 190.928,377.457 189.694,377.979 188.476,378.537 187.276,379.131 186.093,379.76 184.93,380.424 183.787,381.122 182.665,381.854 181.565,382.619 180.488,383.416 179.436,384.244 178.408,385.103 177.406,385.993 176.431,386.912 175.484,387.859 174.566,388.834 173.676,389.835 172.817,390.863 171.988,391.915 171.191,392.992 170.427,394.092 169.695,395.214 168.997,396.357 168.333,397.52 167.703,398.703 167.109,399.904 166.551,401.121 166.029,402.355 165.544,403.604 165.097,404.866 164.687,406.141 164.314,407.428 163.98,408.726 163.685,410.032 163.429,411.347 163.211,412.669 163.033,413.996 162.894,415.329 162.795,416.664 162.736,418.003 162.716,419.342 162.736,420.681 162.795,422.02 162.894,423.356 163.033,424.688 163.211,426.016 163.429,427.337 163.685,428.652 163.98,429.959 164.314,431.256 164.687,432.543 165.097,433.818 165.544,435.08 166.029,436.329 166.551,437.563 167.109,438.781 167.703,439.981 168.333,441.164 168.997,442.327 169.695,443.47 170.427,444.592 171.191,445.692 171.988,446.769 172.817,447.821 173.676,448.849 174.566,449.851 175.484,450.825 176.431,451.773 177.406,452.691 178.408,453.581 179.436,454.44 180.488,455.269 181.565,456.066 182.665,456.83 183.787,457.562 184.93,458.26 186.093,458.924 187.276,459.554 188.476,460.148 189.694,460.706 190.928,461.227 192.176,461.712 193.439,462.16 194.714,462.57 196.001,462.943 197.298,463.276 198.605,463.572 199.92,463.828 201.241,464.046 202.569,464.224 203.901,464.362 205.237,464.462 206.575,464.521 207.915,464.541 209.254,464.521 210.592,464.462 211.928,464.362 213.261,464.224 214.588,464.046 215.91,463.828 217.225,463.572 218.531,463.276 219.829,462.943 221.115,462.57 222.391,462.16 223.653,461.712 224.902,461.227 226.135,460.706 227.353,460.148 228.554,459.554 229.736,458.924 230.9,458.26 232.043,457.562 233.165,456.83 234.265,456.066 235.341,455.269 236.394,454.44 237.422,453.581 238.423,452.691 239.398,451.773 240.345,450.825 241.264,449.851 242.153,448.849 243.013,447.821 243.841,446.769 244.638,445.692 245.403,444.592 246.135,443.47 246.833,442.327 247.497,441.164 248.126,439.981 248.72,438.781 249.278,437.563 249.8,436.329 250.285,435.08 250.733,433.818 251.143,432.543 251.515,431.256 251.849,429.959 252.144,428.652 252.401,427.337 252.618,426.016 252.796,424.688 252.935,423.356 253.034,422.02 253.094,420.681 253.114,419.342 " />
</g>

<g fill="#ffffff" fill-opacity="1" stroke="#ffffff" stroke-opacity="1" stroke-width="1" stroke-linecap="square" stroke-linejoin="bevel" transform="matrix(0.999371,0,0,0.998807,0,0)"
font-family="MS Shell Dlg 2" font-size="11" font-weight="400" font-style="normal" 
>
</g>

<g fill="#ffffff" fill-opacity="1" stroke="none" transform="matrix(1,0,0,1,0,0)"
font-family="MS Shell Dlg 2" font-size="11" font-weight="400" font-style="normal" 
>
<path vector-effect="non-scaling-stroke" fill-rule="evenodd" d="M-0.5,531.204 L0.5,531.204 L0.5,532.204 L-0.5,532.204 L-0.5,531.204"/>
</g>

<g fill="#ffffff" fill-opacity="1" stroke="#ffffff" stroke-opacity="1" stroke-width="1" stroke-linecap="square" stroke-linejoin="bevel" transform="matrix(0.999371,0,0,0.998807,0,0)"
font-family="MS Shell Dlg 2" font-size="11" font-weight="400" font-style="normal" 
>
</g>

<g fill="#ffffff" fill-opacity="1" stroke="#ffffff" stroke-opacity="1" stroke-width="1" stroke-linecap="round" stroke-linejoin="bevel" transform="matrix(0.999371,0,0,0.998807,0,0)"
font-family="MS Shell Dlg 2" font-size="11" font-weight="400" font-style="normal" 
>
<polyline fill="none" vector-effect="none" points="108.477,419.342 108.457,418.608 108.398,417.876 108.299,417.148 108.16,416.427 107.983,415.715 107.767,415.012 107.514,414.323 107.224,413.649 106.898,412.991 106.536,412.351 106.141,411.733 105.712,411.136 105.252,410.564 104.762,410.017 104.243,409.498 103.696,409.007 103.124,408.547 102.527,408.119 101.908,407.723 101.269,407.362 100.611,407.036 99.9366,406.745 99.2472,406.492 98.5452,406.277 97.8325,406.099 97.1113,405.961 96.3837,405.862 95.6517,405.802 94.9176,405.782 94.1835,405.802 93.4516,405.862 92.7239,405.961 92.0027,406.099 91.29,406.277 90.588,406.492 89.8987,406.745 89.2241,407.036 88.5662,407.362 87.9269,407.723 87.3081,408.119 86.7117,408.547 86.1393,409.007 85.5926,409.498 85.0734,410.017 84.583,410.564 84.1229,411.136 83.6944,411.733 83.2989,412.351 82.9375,412.991 82.6112,413.649 82.321,414.323 82.0678,415.012 81.8522,415.715 81.675,416.427 81.5366,417.148 81.4374,417.876 81.3778,418.608 81.358,419.342 81.3778,420.076 81.4374,420.808 81.5366,421.536 81.675,422.257 81.8522,422.97 82.0678,423.672 82.321,424.361 82.6112,425.036 82.9375,425.694 83.2989,426.333 83.6944,426.952 84.1229,427.548 84.583,428.12 85.0734,428.667 85.5926,429.186 86.1393,429.677 86.7117,430.137 87.3081,430.565 87.9269,430.961 88.5662,431.322 89.2241,431.649 89.8987,431.939 90.588,432.192 91.29,432.408 92.0027,432.585 92.7239,432.723 93.4516,432.822 94.1835,432.882 94.9176,432.902 95.6517,432.882 96.3837,432.822 97.1113,432.723 97.8325,432.585 98.5452,432.408 99.2472,432.192 99.9366,431.939 100.611,431.649 101.269,431.322 101.908,430.961 102.527,430.565 103.124,430.137 103.696,429.677 104.243,429.186 104.762,428.667 105.252,428.12 105.712,427.548 106.141,426.952 106.536,426.333 106.898,425.694 107.224,425.036 107.514,424.361 107.767,423.672 107.983,422.97 108.16,422.257 108.299,421.536 108.398,420.808 108.457,420.076 108.477,419.342 " />
<polyline fill="none" vector-effect="none" points="334.472,419.342 334.452,418.608 334.392,417.876 334.293,417.148 334.155,416.427 333.977,415.715 333.762,415.012 333.509,414.323 333.218,413.649 332.892,412.991 332.531,412.351 332.135,411.733 331.707,411.136 331.247,410.564 330.756,410.017 330.237,409.498 329.69,409.007 329.118,408.547 328.521,408.119 327.903,407.723 327.263,407.362 326.605,407.036 325.931,406.745 325.242,406.492 324.54,406.277 323.827,406.099 323.106,405.961 322.378,405.862 321.646,405.802 320.912,405.782 320.178,405.802 319.446,405.862 318.718,405.961 317.997,406.099 317.284,406.277 316.582,406.492 315.893,406.745 315.218,407.036 314.56,407.362 313.921,407.723 313.302,408.119 312.706,408.547 312.134,409.007 311.587,409.498 311.068,410.017 310.577,410.564 310.117,411.136 309.689,411.733 309.293,412.351 308.932,412.991 308.606,413.649 308.315,414.323 308.062,415.012 307.847,415.715 307.669,416.427 307.531,417.148 307.432,417.876 307.372,418.608 307.352,419.342 307.372,420.076 307.432,420.808 307.531,421.536 307.669,422.257 307.847,422.97 308.062,423.672 308.315,424.361 308.606,425.036 308.932,425.694 309.293,426.333 309.689,426.952 310.117,427.548 310.577,428.12 311.068,428.667 311.587,429.186 312.134,429.677 312.706,430.137 313.302,430.565 313.921,430.961 314.56,431.322 315.218,431.649 315.893,431.939 316.582,432.192 317.284,432.408 317.997,432.585 318.718,432.723 319.446,432.822 320.178,432.882 320.912,432.902 321.646,432.882 322.378,432.822 323.106,432.723 323.827,432.585 324.54,432.408 325.242,432.192 325.931,431.939 326.605,431.649 327.263,431.322 327.903,430.961 328.521,430.565 329.118,430.137 329.69,429.677 330.237,429.186 330.756,428.667 331.247,428.12 331.707,427.548 332.135,426.952 332.531,426.333 332.892,425.694 333.218,425.036 333.509,424.361 333.762,423.672 333.977,422.97 334.155,422.257 334.293,421.536 334.392,420.808 334.452,420.076 334.472,419.342 " />
<polyline fill="none" vector-effect="none" points="1416.98,419.342 1416.96,418.003 1416.9,416.664 1416.81,415.329 1416.67,413.996 1416.49,412.669 1416.27,411.347 1416.02,410.032 1415.72,408.726 1415.39,407.428 1415.01,406.141 1414.6,404.866 1414.16,403.604 1413.67,402.355 1413.15,401.121 1412.59,399.904 1412,398.703 1411.37,397.52 1410.7,396.357 1410.01,395.214 1409.27,394.092 1408.51,392.992 1407.71,391.915 1406.88,390.863 1406.02,389.835 1405.13,388.834 1404.22,387.859 1403.27,386.912 1402.29,385.993 1401.29,385.103 1400.26,384.244 1399.21,383.416 1398.14,382.619 1397.04,381.854 1395.91,381.122 1394.77,380.424 1393.61,379.76 1392.42,379.131 1391.22,378.537 1390.01,377.979 1388.77,377.457 1387.52,376.972 1386.26,376.524 1384.99,376.114 1383.7,375.742 1382.4,375.408 1381.1,375.112 1379.78,374.856 1378.46,374.639 1377.13,374.46 1375.8,374.322 1374.46,374.223 1373.12,374.163 1371.79,374.143 1370.45,374.163 1369.11,374.223 1367.77,374.322 1366.44,374.46 1365.11,374.639 1363.79,374.856 1362.48,375.112 1361.17,375.408 1359.87,375.742 1358.58,376.114 1357.31,376.524 1356.05,376.972 1354.8,377.457 1353.56,377.979 1352.35,378.537 1351.15,379.131 1349.96,379.76 1348.8,380.424 1347.66,381.122 1346.54,381.854 1345.44,382.619 1344.36,383.416 1343.31,384.244 1342.28,385.103 1341.28,385.993 1340.3,386.912 1339.35,387.859 1338.44,388.834 1337.55,389.835 1336.69,390.863 1335.86,391.915 1335.06,392.992 1334.3,394.092 1333.57,395.214 1332.87,396.357 1332.2,397.52 1331.57,398.703 1330.98,399.904 1330.42,401.121 1329.9,402.355 1329.42,403.604 1328.97,404.866 1328.56,406.141 1328.19,407.428 1327.85,408.726 1327.56,410.032 1327.3,411.347 1327.08,412.669 1326.9,413.996 1326.77,415.329 1326.67,416.664 1326.61,418.003 1326.59,419.342 1326.61,420.681 1326.67,422.02 1326.77,423.356 1326.9,424.688 1327.08,426.016 1327.3,427.337 1327.56,428.652 1327.85,429.959 1328.19,431.256 1328.56,432.543 1328.97,433.818 1329.42,435.08 1329.9,436.329 1330.42,437.563 1330.98,438.781 1331.57,439.981 1332.2,441.164 1332.87,442.327 1333.57,443.47 1334.3,444.592 1335.06,445.692 1335.86,446.769 1336.69,447.821 1337.55,448.849 1338.44,449.851 1339.35,450.825 1340.3,451.773 1341.28,452.691 1342.28,453.581 1343.31,454.44 1344.36,455.269 1345.44,456.066 1346.54,456.83 1347.66,457.562 1348.8,458.26 1349.96,458.924 1351.15,459.554 1352.35,460.148 1353.56,460.706 1354.8,461.227 1356.05,461.712 1357.31,462.16 1358.58,462.57 1359.87,462.943 1361.17,463.276 1362.48,463.572 1363.79,463.828 1365.11,464.046 1366.44,464.224 1367.77,464.362 1369.11,464.462 1370.45,464.521 1371.79,464.541 1373.12,464.521 1374.46,464.462 1375.8,464.362 1377.13,464.224 1378.46,464.046 1379.78,463.828 1381.1,463.572 1382.4,463.276 1383.7,462.943 1384.99,462.57 1386.26,462.16 1387.52,461.712 1388.77,461.227 1390.01,460.706 1391.22,460.148 1392.42,459.554 1393.61,458.924 1394.77,458.26 1395.91,457.562 1397.04,456.83 1398.14,456.066 1399.21,455.269 1400.26,454.44 1401.29,453.581 1402.29,452.691 1403.27,451.773 1404.22,450.825 1405.13,449.851 1406.02,448.849 1406.88,447.821 1407.71,446.769 1408.51,445.692 1409.27,444.592 1410.01,443.47 1410.7,442.327 1411.37,441.164 1412,439.981 1412.59,438.781 1413.15,437.563 1413.67,436.329 1414.16,435.08 1414.6,433.818 1415.01,432.543 1415.39,431.256 1415.72,429.959 1416.02,428.652 1416.27,427.337 1416.49,426.016 1416.67,424.688 1416.81,423.356 1416.9,422.02 1416.96,420.681 1416.98,419.342 " />
<polyline fill="none" vector-effect="none" points="1272.35,419.342 1272.33,418.608 1272.27,417.876 1272.17,417.148 1272.03,416.427 1271.85,415.715 1271.64,415.012 1271.38,414.323 1271.09,413.649 1270.77,412.991 1270.41,412.351 1270.01,411.733 1269.58,411.136 1269.12,410.564 1268.63,410.017 1268.11,409.498 1267.57,409.007 1266.99,408.547 1266.4,408.119 1265.78,407.723 1265.14,407.362 1264.48,407.036 1263.81,406.745 1263.12,406.492 1262.42,406.277 1261.7,406.099 1260.98,405.961 1260.25,405.862 1259.52,405.802 1258.79,405.782 1258.05,405.802 1257.32,405.862 1256.59,405.961 1255.87,406.099 1255.16,406.277 1254.46,406.492 1253.77,406.745 1253.09,407.036 1252.44,407.362 1251.8,407.723 1251.18,408.119 1250.58,408.547 1250.01,409.007 1249.46,409.498 1248.94,410.017 1248.45,410.564 1247.99,411.136 1247.57,411.733 1247.17,412.351 1246.81,412.991 1246.48,413.649 1246.19,414.323 1245.94,415.012 1245.72,415.715 1245.55,416.427 1245.41,417.148 1245.31,417.876 1245.25,418.608 1245.23,419.342 1245.25,420.076 1245.31,420.808 1245.41,421.536 1245.55,422.257 1245.72,422.97 1245.94,423.672 1246.19,424.361 1246.48,425.036 1246.81,425.694 1247.17,426.333 1247.57,426.952 1247.99,427.548 1248.45,428.12 1248.94,428.667 1249.46,429.186 1250.01,429.677 1250.58,430.137 1251.18,430.565 1251.8,430.961 1252.44,431.322 1253.09,431.649 1253.77,431.939 1254.46,432.192 1255.16,432.408 1255.87,432.585 1256.59,432.723 1257.32,432.822 1258.05,432.882 1258.79,432.902 1259.52,432.882 1260.25,432.822 1260.98,432.723 1261.7,432.585 1262.42,432.408 1263.12,432.192 1263.81,431.939 1264.48,431.649 1265.14,431.322 1265.78,430.961 1266.4,430.565 1266.99,430.137 1267.57,429.677 1268.11,429.186 1268.63,428.667 1269.12,428.12 1269.58,427.548 1270.01,426.952 1270.41,426.333 1270.77,425.694 1271.09,425.036 1271.38,424.361 1271.64,423.672 1271.85,422.97 1272.03,422.257 1272.17,421.536 1272.27,420.808 1272.33,420.076 1272.35,419.342 " />
<polyline fill="none" vector-effect="none" points="1498.34,419.342 1498.32,418.608 1498.26,417.876 1498.16,417.148 1498.03,416.427 1497.85,415.715 1497.63,415.012 1497.38,414.323 1497.09,413.649 1496.76,412.991 1496.4,412.351 1496.01,411.733 1495.58,411.136 1495.12,410.564 1494.63,410.017 1494.11,409.498 1493.56,409.007 1492.99,408.547 1492.39,408.119 1491.77,407.723 1491.13,407.362 1490.48,407.036 1489.8,406.745 1489.11,406.492 1488.41,406.277 1487.7,406.099 1486.98,405.961 1486.25,405.862 1485.52,405.802 1484.78,405.782 1484.05,405.802 1483.32,405.862 1482.59,405.961 1481.87,406.099 1481.16,406.277 1480.45,406.492 1479.76,406.745 1479.09,407.036 1478.43,407.362 1477.79,407.723 1477.17,408.119 1476.58,408.547 1476,409.007 1475.46,409.498 1474.94,410.017 1474.45,410.564 1473.99,411.136 1473.56,411.733 1473.16,412.351 1472.8,412.991 1472.48,413.649 1472.19,414.323 1471.93,415.012 1471.72,415.715 1471.54,416.427 1471.4,417.148 1471.3,417.876 1471.24,418.608 1471.22,419.342 1471.24,420.076 1471.3,420.808 1471.4,421.536 1471.54,422.257 1471.72,422.97 1471.93,423.672 1472.19,424.361 1472.48,425.036 1472.8,425.694 1473.16,426.333 1473.56,426.952 1473.99,427.548 1474.45,428.12 1474.94,428.667 1475.46,429.186 1476,429.677 1476.58,430.137 1477.17,430.565 1477.79,430.961 1478.43,431.322 1479.09,431.649 1479.76,431.939 1480.45,432.192 1481.16,432.408 1481.87,432.585 1482.59,432.723 1483.32,432.822 1484.05,432.882 1484.78,432.902 1485.52,432.882 1486.25,432.822 1486.98,432.723 1487.7,432.585 1488.41,432.408 1489.11,432.192 1489.8,431.939 1490.48,431.649 1491.13,431.322 1491.77,430.961 1492.39,430.565 1492.99,430.137 1493.56,429.677 1494.11,429.186 1494.63,428.667 1495.12,428.12 1495.58,427.548 1496.01,426.952 1496.4,426.333 1496.76,425.694 1497.09,425.036 1497.38,424.361 1497.63,423.672 1497.85,422.97 1498.03,422.257 1498.16,421.536 1498.26,420.808 1498.32,420.076 1498.34,419.342 " />
<polyline fill="none" vector-effect="none" points="561.596,464.541 561.596,374.143 579.675,374.143 579.675,464.541 561.596,464.541 " />
<polyline fill="none" vector-effect="none" points="27.1193,505.22 27.1193,487.14 162.716,487.14 162.716,505.22 27.1193,505.22 " />
<polyline fill="none" vector-effect="none" points="27.1193,351.544 27.1193,333.464 162.716,333.464 162.716,351.544 27.1193,351.544 " />
<polyline fill="none" vector-effect="none" points="253.114,351.544 253.114,333.464 388.71,333.464 388.71,351.544 253.114,351.544 " />
<polyline fill="none" vector-effect="none" points="253.114,505.22 253.114,487.14 388.71,487.14 388.71,505.22 253.114,505.22 " />
<polyline fill="none" vector-effect="none" points="1190.99,351.544 1190.99,333.464 1326.59,333.464 1326.59,351.544 1190.99,351.544 " />
<polyline fill="none" vector-effect="none" points="1416.98,351.544 1416.98,333.464 1552.58,333.464 1552.58,351.544 1416.98,351.544 " />
<polyline fill="none" vector-effect="none" points="1190.99,505.22 1190.99,487.14 1326.59,487.14 1326.59,505.22 1190.99,505.22 " />
<polyline fill="none" vector-effect="none" points="1416.98,505.22 1416.98,487.14 1552.58,487.14 1552.58,505.22 1416.98,505.22 " />
<polyline fill="none" vector-effect="none" points="543.516,419.342 475.718,380.199 475.718,458.485 543.516,419.342 " />
<polyline fill="none" vector-effect="none" points="415.83,439.566 448.599,458.485 448.599,380.199 415.83,399.118 " />
<polyline fill="none" vector-effect="none" points="543.516,450.657 489.278,481.971 529.545,505.22 " />
<polyline fill="none" vector-effect="none" points="611.726,505.22 651.994,481.971 597.755,450.657 " />
<polyline fill="none" vector-effect="none" points="597.755,419.342 665.553,458.485 665.553,380.199 597.755,419.342 " />
<polyline fill="none" vector-effect="none" points="597.755,388.027 651.994,356.713 611.726,333.464 " />
<polyline fill="none" vector-effect="none" points="529.545,333.464 489.278,356.713 543.516,388.027 " />
<polyline fill="none" vector-effect="none" points="415.83,345.622 415.83,367.803 " />
<polyline fill="none" vector-effect="none" points="415.83,367.803 435.039,356.713 415.83,345.622 " />
<polyline fill="none" vector-effect="none" points="415.83,493.062 435.039,481.971 415.83,470.881 " />
<polyline fill="none" vector-effect="none" points="760.471,419.342 692.673,380.199 692.673,458.485 760.471,419.342 " />
<polyline fill="none" vector-effect="none" points="828.681,505.22 868.948,481.971 801.15,442.828 801.15,463.074 " />
<polyline fill="none" vector-effect="none" points="814.71,419.342 882.508,458.485 882.508,380.199 814.71,419.342 " />
<polyline fill="none" vector-effect="none" points="746.5,333.464 706.232,356.713 774.031,395.856 774.031,375.61 " />
<polyline fill="none" vector-effect="none" points="995.505,464.541 995.505,374.143 1013.58,374.143 1013.58,464.541 995.505,464.541 " />
<polyline fill="none" vector-effect="none" points="977.425,419.342 909.627,380.199 909.627,458.485 977.425,419.342 " />
<polyline fill="none" vector-effect="none" points="1045.64,505.22 1085.9,481.971 1031.66,450.657 " />
<polyline fill="none" vector-effect="none" points="1031.66,419.342 1099.46,458.485 1099.46,380.199 1031.66,419.342 " />
<polyline fill="none" vector-effect="none" points="1031.66,388.027 1085.9,356.713 1045.64,333.464 " />
<polyline fill="none" vector-effect="none" points="963.454,333.464 923.187,356.713 977.425,388.027 " />
<polyline fill="none" vector-effect="none" points="1163.87,401.728 1126.58,380.199 1126.58,458.485 1163.87,436.957 " />
<polyline fill="none" vector-effect="none" points="1163.87,468.271 1140.14,481.971 1163.87,495.672 " />
<polyline fill="none" vector-effect="none" points="1163.87,343.013 1140.14,356.713 1163.87,370.413 " />
<polyline fill="none" vector-effect="none" points="543.516,333.464 529.545,333.464 " />
<polyline fill="none" vector-effect="none" points="611.726,333.464 597.755,333.464 " />
<polyline fill="none" vector-effect="none" points="759.004,333.464 746.5,333.464 " />
<polyline fill="none" vector-effect="none" points="828.681,333.464 816.176,333.464 " />
<polyline fill="none" vector-effect="none" points="977.425,333.464 963.454,333.464 " />
<polyline fill="none" vector-effect="none" points="1045.64,333.464 1031.66,333.464 " />
<polyline fill="none" vector-effect="none" points="1163.87,370.413 1163.87,343.013 " />
<polyline fill="none" vector-effect="none" points="1163.87,436.957 1163.87,401.728 " />
<polyline fill="none" vector-effect="none" points="1163.87,495.672 1163.87,468.271 " />
<polyline fill="none" vector-effect="none" points="963.454,505.22 977.425,505.22 " />
<polyline fill="none" vector-effect="none" points="1031.66,505.22 1045.64,505.22 " />
<polyline fill="none" vector-effect="none" points="816.176,505.22 828.681,505.22 " />
<polyline fill="none" vector-effect="none" points="746.5,505.22 759.004,505.22 " />
<polyline fill="none" vector-effect="none" points="597.755,505.22 611.726,505.22 " />
<polyline fill="none" vector-effect="none" points="529.545,505.22 543.516,505.22 " />
<polyline fill="none" vector-effect="none" points="415.83,470.881 415.83,493.062 " />
<polyline fill="none" vector-effect="none" points="415.83,399.118 415.83,439.566 " />
<polyline fill="none" vector-effect="none" points="543.516,333.464 543.516,388.027 " />
<polyline fill="none" vector-effect="none" points="977.425,333.464 977.425,388.027 " />
</g>

<g fill="#ffffff" fill-opacity="1" stroke="#ffffff" stroke-opacity="1" stroke-width="1" stroke-linecap="square" stroke-linejoin="bevel" transform="matrix(0.999371,0,0,0.998807,0,0)"
font-family="MS Shell Dlg 2" font-size="11" font-weight="400" font-style="normal" 
>
</g>

<g fill="#ffffff" fill-opacity="1" stroke="none" transform="matrix(1,0,0,1,0,0)"
font-family="MS Shell Dlg 2" font-size="11" font-weight="400" font-style="normal" 
>
<path vector-effect="non-scaling-stroke" fill-rule="evenodd" d="M542.675,304.796 L543.675,304.796 L543.675,305.796 L542.675,305.796 L542.675,304.796"/>
</g>

<g fill="#ffffff" fill-opacity="1" stroke="#ffffff" stroke-opacity="1" stroke-width="1" stroke-linecap="square" stroke-linejoin="bevel" transform="matrix(0.999371,0,0,0.998807,0,0)"
font-family="MS Shell Dlg 2" font-size="11" font-weight="400" font-style="normal" 
>
</g>

<g fill="#ffffff" fill-opacity="1" stroke="none" transform="matrix(1,0,0,1,0,0)"
font-family="MS Shell Dlg 2" font-size="11" font-weight="400" font-style="normal" 
>
<path vector-effect="non-scaling-stroke" fill-rule="evenodd" d="M596.879,304.796 L597.879,304.796 L597.879,305.796 L596.879,305.796 L596.879,304.796"/>
</g>

<g fill="#ffffff" fill-opacity="1" stroke="#ffffff" stroke-opacity="1" stroke-width="1" stroke-linecap="square" stroke-linejoin="bevel" transform="matrix(0.999371,0,0,0.998807,0,0)"
font-family="MS Shell Dlg 2" font-size="11" font-weight="400" font-style="normal" 
>
</g>

<g fill="#ffffff" fill-opacity="1" stroke="#ffffff" stroke-opacity="1" stroke-width="1" stroke-linecap="round" stroke-linejoin="bevel" transform="matrix(0.999371,0,0,0.998807,0,0)"
font-family="MS Shell Dlg 2" font-size="11" font-weight="400" font-style="normal" 
>
<polyline fill="none" vector-effect="none" points="597.755,388.027 597.755,333.464 " />
<polyline fill="none" vector-effect="none" points="543.516,450.657 543.516,505.22 " />
<polyline fill="none" vector-effect="none" points="597.755,505.22 597.755,450.657 " />
<polyline fill="none" vector-effect="none" points="977.425,450.657 923.187,481.971 963.454,505.22 " />
<polyline fill="none" vector-effect="none" points="977.425,450.657 977.425,505.22 " />
<polyline fill="none" vector-effect="none" points="1031.66,388.027 1031.66,333.464 " />
<polyline fill="none" vector-effect="none" points="1031.66,505.22 1031.66,450.657 " />
<polyline fill="none" vector-effect="none" points="801.15,347.024 801.13,346.29 801.07,345.558 800.971,344.83 800.833,344.109 800.656,343.396 800.44,342.694 800.187,342.005 799.897,341.33 799.57,340.672 799.209,340.033 798.813,339.414 798.385,338.818 797.925,338.246 797.434,337.699 796.915,337.18 796.369,336.689 795.796,336.229 795.2,335.801 794.581,335.405 793.942,335.044 793.284,334.717 792.609,334.427 791.92,334.174 791.218,333.959 790.505,333.781 789.784,333.643 789.056,333.544 788.324,333.484 787.59,333.464 786.856,333.484 786.124,333.544 785.396,333.643 784.675,333.781 783.963,333.959 783.261,334.174 782.571,334.427 781.897,334.717 781.239,335.044 780.599,335.405 779.981,335.801 779.384,336.229 778.812,336.689 778.265,337.18 777.746,337.699 777.256,338.246 776.795,338.818 776.367,339.414 775.972,340.033 775.61,340.672 775.284,341.33 774.994,342.005 774.74,342.694 774.525,343.396 774.348,344.109 774.209,344.83 774.11,345.558 774.05,346.29 774.031,347.024 774.05,347.758 774.11,348.49 774.209,349.218 774.348,349.939 774.525,350.652 774.74,351.354 774.994,352.043 775.284,352.717 775.61,353.375 775.972,354.015 776.367,354.633 776.795,355.23 777.256,355.802 777.746,356.349 778.265,356.868 778.812,357.359 779.384,357.819 779.981,358.247 780.599,358.643 781.239,359.004 781.897,359.33 782.571,359.621 783.261,359.874 783.963,360.089 784.675,360.267 785.396,360.405 786.124,360.504 786.856,360.564 787.59,360.584 788.324,360.564 789.056,360.504 789.784,360.405 790.505,360.267 791.218,360.089 791.92,359.874 792.609,359.621 793.284,359.33 793.942,359.004 794.581,358.643 795.2,358.247 795.796,357.819 796.369,357.359 796.915,356.868 797.434,356.349 797.925,355.802 798.385,355.23 798.813,354.633 799.209,354.015 799.57,353.375 799.897,352.717 800.187,352.043 800.44,351.354 800.656,350.652 800.833,349.939 800.971,349.218 801.07,348.49 801.13,347.758 801.15,347.024 " />
<polyline fill="none" vector-effect="none" points="801.15,491.66 801.13,490.926 801.07,490.194 800.971,489.467 800.833,488.745 800.656,488.033 800.44,487.331 800.187,486.641 799.897,485.967 799.57,485.309 799.209,484.67 798.813,484.051 798.385,483.454 797.925,482.882 797.434,482.335 796.915,481.816 796.369,481.326 795.796,480.866 795.2,480.437 794.581,480.042 793.942,479.68 793.284,479.354 792.609,479.064 791.92,478.81 791.218,478.595 790.505,478.418 789.784,478.279 789.056,478.18 788.324,478.121 787.59,478.101 786.856,478.121 786.124,478.18 785.396,478.279 784.675,478.418 783.963,478.595 783.261,478.81 782.571,479.064 781.897,479.354 781.239,479.68 780.599,480.042 779.981,480.437 779.384,480.866 778.812,481.326 778.265,481.816 777.746,482.335 777.256,482.882 776.795,483.454 776.367,484.051 775.972,484.67 775.61,485.309 775.284,485.967 774.994,486.641 774.74,487.331 774.525,488.033 774.348,488.745 774.209,489.467 774.11,490.194 774.05,490.926 774.031,491.66 774.05,492.394 774.11,493.126 774.209,493.854 774.348,494.575 774.525,495.288 774.74,495.99 774.994,496.679 775.284,497.354 775.61,498.012 775.972,498.651 776.367,499.27 776.795,499.866 777.256,500.439 777.746,500.985 778.265,501.505 778.812,501.995 779.384,502.455 779.981,502.883 780.599,503.279 781.239,503.64 781.897,503.967 782.571,504.257 783.261,504.51 783.963,504.726 784.675,504.903 785.396,505.041 786.124,505.14 786.856,505.2 787.59,505.22 788.324,505.2 789.056,505.14 789.784,505.041 790.505,504.903 791.218,504.726 791.92,504.51 792.609,504.257 793.284,503.967 793.942,503.64 794.581,503.279 795.2,502.883 795.796,502.455 796.369,501.995 796.915,501.505 797.434,500.985 797.925,500.439 798.385,499.866 798.813,499.27 799.209,498.651 799.57,498.012 799.897,497.354 800.187,496.679 800.44,495.99 800.656,495.288 800.833,494.575 800.971,493.854 801.07,493.126 801.13,492.394 801.15,491.66 " />
<polyline fill="none" vector-effect="none" points="759.004,333.464 758.548,334.47 758.128,335.491 757.743,336.527 757.395,337.575 757.084,338.634 756.809,339.704 756.573,340.783 756.374,341.869 756.213,342.962 756.09,344.059 756.006,345.16 755.96,346.264 755.953,347.368 755.984,348.472 756.054,349.574 756.162,350.673 756.309,351.768 756.493,352.857 756.716,353.938 756.976,355.012 757.273,356.075 757.608,357.128 757.979,358.168 758.385,359.194 758.828,360.206 759.306,361.202 759.818,362.181 760.363,363.141 760.943,364.081 761.554,365.001 762.197,365.898 762.871,366.773 763.576,367.624 764.309,368.449 765.071,369.249 765.861,370.021 766.676,370.765 767.518,371.481 768.383,372.166 769.273,372.821 770.184,373.445 771.117,374.036 772.069,374.595 773.041,375.12 774.031,375.61 " />
<polyline fill="none" vector-effect="none" points="774.031,463.074 773.041,463.565 772.069,464.09 771.117,464.648 770.184,465.239 769.273,465.863 768.383,466.518 767.518,467.204 766.676,467.919 765.861,468.663 765.071,469.436 764.309,470.235 763.576,471.061 762.871,471.911 762.197,472.786 761.554,473.684 760.943,474.603 760.363,475.544 759.818,476.504 759.306,477.482 758.828,478.478 758.385,479.49 757.979,480.516 757.608,481.557 757.273,482.609 756.976,483.673 756.716,484.746 756.493,485.828 756.309,486.917 756.162,488.011 756.054,489.11 755.984,490.212 755.953,491.316 755.96,492.421 756.006,493.524 756.09,494.625 756.213,495.723 756.374,496.815 756.573,497.902 756.809,498.98 757.084,500.05 757.395,501.11 757.743,502.158 758.128,503.193 758.548,504.214 759.004,505.22 " />
<polyline fill="none" vector-effect="none" points="801.15,375.61 801.15,395.856 868.948,356.713 828.681,333.464 " />
<polyline fill="none" vector-effect="none" points="801.15,375.61 802.139,375.12 803.111,374.595 804.064,374.036 804.996,373.445 805.908,372.821 806.797,372.166 807.663,371.481 808.504,370.765 809.32,370.021 810.109,369.249 810.871,368.449 811.605,367.624 812.309,366.773 812.983,365.898 813.626,365.001 814.238,364.081 814.817,363.141 815.363,362.181 815.875,361.202 816.352,360.206 816.795,359.194 817.202,358.168 817.573,357.128 817.907,356.075 818.205,355.012 818.465,353.938 818.687,352.857 818.872,351.768 819.018,350.673 819.126,349.574 819.196,348.472 819.228,347.368 819.22,346.264 819.174,345.16 819.09,344.059 818.968,342.962 818.807,341.869 818.608,340.783 818.371,339.704 818.097,338.634 817.785,337.575 817.437,336.527 817.053,335.491 816.632,334.47 816.176,333.464 " />
<polyline fill="none" vector-effect="none" points="774.031,463.074 774.031,442.828 706.232,481.971 746.5,505.22 " />
<polyline fill="none" vector-effect="none" points="816.176,505.22 816.632,504.214 817.053,503.193 817.437,502.158 817.785,501.11 818.097,500.05 818.371,498.98 818.608,497.902 818.807,496.815 818.968,495.723 819.09,494.625 819.174,493.524 819.22,492.421 819.228,491.316 819.196,490.212 819.126,489.11 819.018,488.011 818.872,486.917 818.687,485.828 818.465,484.746 818.205,483.673 817.907,482.609 817.573,481.557 817.202,480.516 816.795,479.49 816.352,478.478 815.875,477.482 815.363,476.504 814.817,475.544 814.238,474.603 813.626,473.684 812.983,472.786 812.309,471.911 811.605,471.061 810.871,470.235 810.109,469.436 809.32,468.663 808.504,467.919 807.663,467.204 806.797,466.518 805.908,465.863 804.996,465.239 804.064,464.648 803.111,464.09 802.139,463.565 801.15,463.074 " />
</g>

<g fill="#ffffff" fill-opacity="1" stroke="#ffffff" stroke-opacity="1" stroke-width="1" stroke-linecap="round" stroke-linejoin="bevel" transform="matrix(0.999371,0,0,0.998807,0,0)"
font-family="MS Shell Dlg 2" font-size="11" font-weight="400" font-style="normal" 
>
</g>

<g fill="#ffffff" fill-opacity="1" stroke="#ffffff" stroke-opacity="1" stroke-width="1" stroke-linecap="round" stroke-linejoin="bevel" transform="matrix(1,0,0,1,0,0)"
font-family="MS Shell Dlg 2" font-size="11" font-weight="400" font-style="normal" 
>
</g>

<g fill="none" stroke="#000000" stroke-opacity="1" stroke-width="1" stroke-linecap="square" stroke-linejoin="bevel" transform="matrix(1,0,0,1,0,0)"
font-family="MS Shell Dlg 2" font-size="11" font-weight="400" font-style="normal" 
>
</g>
</g>
</svg>
