<?xml version="1.0" encoding="UTF-8" standalone="no"?>
<svg width="420.952mm" height="221.721mm"
 viewBox="0 0 1591 838"
 xmlns="http://www.w3.org/2000/svg" xmlns:xlink="http://www.w3.org/1999/xlink"  version="1.2" baseProfile="tiny">
<title>Qt Svg Document</title>
<desc>Generated with Qt</desc>
<defs>
</defs>
<g fill="none" stroke="black" stroke-width="1" fill-rule="evenodd" stroke-linecap="square" stroke-linejoin="bevel" >

<g fill="none" stroke="#000000" stroke-opacity="1" stroke-width="1" stroke-linecap="square" stroke-linejoin="bevel" transform="matrix(1,0,0,1,0,0)"
font-family="MS Shell Dlg 2" font-size="11" font-weight="400" font-style="normal" 
>
</g>

<g fill="#000000" fill-opacity="1" stroke="none" transform="matrix(1,0,0,1,0,0)"
font-family="MS Shell Dlg 2" font-size="11" font-weight="400" font-style="normal" 
>
<path vector-effect="non-scaling-stroke" fill-rule="evenodd" d="M0,0 L1591,0 L1591,838 L0,838 L0,0"/>
</g>

<g fill="none" stroke="#000000" stroke-opacity="1" stroke-width="1" stroke-linecap="square" stroke-linejoin="bevel" transform="matrix(1,0,0,1,0,0)"
font-family="MS Shell Dlg 2" font-size="11" font-weight="400" font-style="normal" 
>
</g>

<g fill="#000000" fill-opacity="1" stroke="#000000" stroke-opacity="1" stroke-width="1" stroke-linecap="square" stroke-linejoin="bevel" transform="matrix(0.999371,0,0,0.998807,0,0)"
font-family="MS Shell Dlg 2" font-size="11" font-weight="400" font-style="normal" 
>
</g>

<g fill="#ffffff" fill-opacity="1" stroke="#ffffff" stroke-opacity="1" stroke-width="1" stroke-linecap="square" stroke-linejoin="bevel" transform="matrix(0.999371,0,0,0.998807,0,0)"
font-family="MS Shell Dlg 2" font-size="11" font-weight="400" font-style="normal" 
>
</g>

<g fill="#ffffff" fill-opacity="1" stroke="none" transform="matrix(1,0,0,1,0,0)"
font-family="MS Shell Dlg 2" font-size="11" font-weight="400" font-style="normal" 
>
<path vector-effect="non-scaling-stroke" fill-rule="evenodd" d="M561.971,836.5 L562.971,836.5 L562.971,837.5 L561.971,837.5 L561.971,836.5"/>
</g>

<g fill="#ffffff" fill-opacity="1" stroke="#ffffff" stroke-opacity="1" stroke-width="1" stroke-linecap="square" stroke-linejoin="bevel" transform="matrix(0.999371,0,0,0.998807,0,0)"
font-family="MS Shell Dlg 2" font-size="11" font-weight="400" font-style="normal" 
>
</g>

<g fill="#ffffff" fill-opacity="1" stroke="#ffffff" stroke-opacity="1" stroke-width="1" stroke-linecap="round" stroke-linejoin="bevel" transform="matrix(0.999371,0,0,0.998807,0,0)"
font-family="MS Shell Dlg 2" font-size="11" font-weight="400" font-style="normal" 
>
<polyline fill="none" vector-effect="none" points="960.79,295.608 960.77,295.084 960.711,294.563 960.612,294.048 960.475,293.542 960.3,293.048 960.088,292.569 959.84,292.106 959.558,291.664 959.244,291.245 958.898,290.85 958.524,290.483 958.123,290.145 957.697,289.839 957.25,289.565 956.783,289.326 956.3,289.123 955.802,288.957 955.294,288.83 954.777,288.741 954.255,288.691 953.731,288.681 953.207,288.711 952.688,288.78 952.175,288.889 951.671,289.035 951.18,289.22 950.705,289.441 950.248,289.698 949.811,289.988 949.397,290.31 949.009,290.663 948.649,291.044 948.319,291.452 948.021,291.883 947.756,292.335 947.526,292.806 947.332,293.294 947.175,293.794 947.057,294.305 946.978,294.823 946.939,295.346 946.939,295.871 946.978,296.393 947.057,296.912 947.175,297.423 947.332,297.923 947.526,298.41 947.756,298.882 948.021,299.334 948.319,299.765 948.649,300.172 949.009,300.554 949.397,300.906 949.811,301.229 950.248,301.519 950.705,301.776 951.18,301.997 951.671,302.181 952.175,302.328 952.688,302.436 953.207,302.506 953.731,302.535 954.255,302.525 954.777,302.476 955.294,302.387 955.802,302.259 956.3,302.094 956.783,301.891 957.25,301.652 957.697,301.378 958.123,301.072 958.524,300.734 958.898,300.366 959.244,299.972 959.558,299.552 959.84,299.11 960.088,298.648 960.3,298.169 960.475,297.674 960.612,297.168 960.711,296.653 960.77,296.132 960.79,295.608 " />
<polyline fill="none" vector-effect="none" points="960.79,117.451 960.77,116.927 960.711,116.406 960.612,115.891 960.475,115.385 960.3,114.891 960.088,114.411 959.84,113.949 959.558,113.507 959.244,113.088 958.898,112.693 958.524,112.326 958.123,111.988 957.697,111.681 957.25,111.408 956.783,111.169 956.3,110.966 955.802,110.8 955.294,110.672 954.777,110.583 954.255,110.534 953.731,110.524 953.207,110.554 952.688,110.623 952.175,110.731 951.671,110.878 951.18,111.063 950.705,111.284 950.248,111.54 949.811,111.831 949.397,112.153 949.009,112.506 948.649,112.887 948.319,113.294 948.021,113.725 947.756,114.178 947.526,114.649 947.332,115.136 947.175,115.637 947.057,116.148 946.978,116.666 946.939,117.189 946.939,117.713 946.978,118.236 947.057,118.755 947.175,119.265 947.332,119.766 947.526,120.253 947.756,120.724 948.021,121.177 948.319,121.608 948.649,122.015 949.009,122.396 949.397,122.749 949.811,123.072 950.248,123.362 950.705,123.618 951.18,123.839 951.671,124.024 952.175,124.171 952.688,124.279 953.207,124.348 953.731,124.378 954.255,124.368 954.777,124.319 955.294,124.23 955.802,124.102 956.3,123.936 956.783,123.733 957.25,123.494 957.697,123.221 958.123,122.914 958.524,122.576 958.898,122.209 959.244,121.815 959.558,121.395 959.84,120.953 960.088,120.491 960.3,120.011 960.475,119.517 960.612,119.011 960.711,118.496 960.77,117.975 960.79,117.451 " />
<polyline fill="none" vector-effect="none" points="960.79,206.53 960.77,206.006 960.711,205.485 960.612,204.97 960.475,204.464 960.3,203.969 960.088,203.49 959.84,203.028 959.558,202.586 959.244,202.166 958.898,201.772 958.524,201.404 958.123,201.067 957.697,200.76 957.25,200.486 956.783,200.247 956.3,200.044 955.802,199.879 955.294,199.751 954.777,199.662 954.255,199.613 953.731,199.603 953.207,199.632 952.688,199.702 952.175,199.81 951.671,199.957 951.18,200.141 950.705,200.362 950.248,200.619 949.811,200.909 949.397,201.232 949.009,201.585 948.649,201.966 948.319,202.373 948.021,202.804 947.756,203.257 947.526,203.728 947.332,204.215 947.175,204.715 947.057,205.226 946.978,205.745 946.939,206.268 946.939,206.792 946.978,207.315 947.057,207.833 947.175,208.344 947.332,208.845 947.526,209.332 947.756,209.803 948.021,210.255 948.319,210.686 948.649,211.094 949.009,211.475 949.397,211.828 949.811,212.15 950.248,212.441 950.705,212.697 951.18,212.918 951.671,213.103 952.175,213.249 952.688,213.358 953.207,213.427 953.731,213.457 954.255,213.447 954.777,213.397 955.294,213.308 955.802,213.181 956.3,213.015 956.783,212.812 957.25,212.573 957.697,212.3 958.123,211.993 958.524,211.655 958.898,211.288 959.244,210.893 959.558,210.474 959.84,210.032 960.088,209.57 960.3,209.09 960.475,208.596 960.612,208.09 960.711,207.575 960.77,207.054 960.79,206.53 " />
<polyline fill="none" vector-effect="none" points="960.79,720.549 960.77,720.025 960.711,719.504 960.612,718.989 960.475,718.483 960.3,717.989 960.088,717.509 959.84,717.047 959.558,716.605 959.244,716.185 958.898,715.791 958.524,715.424 958.123,715.086 957.697,714.779 957.25,714.506 956.783,714.267 956.3,714.064 955.802,713.898 955.294,713.77 954.777,713.681 954.255,713.632 953.731,713.622 953.207,713.652 952.688,713.721 952.175,713.829 951.671,713.976 951.18,714.161 950.705,714.382 950.248,714.638 949.811,714.928 949.397,715.251 949.009,715.604 948.649,715.985 948.319,716.392 948.021,716.823 947.756,717.276 947.526,717.747 947.332,718.234 947.175,718.735 947.057,719.245 946.978,719.764 946.939,720.287 946.939,720.811 946.978,721.334 947.057,721.852 947.175,722.363 947.332,722.864 947.526,723.351 947.756,723.822 948.021,724.275 948.319,724.706 948.649,725.113 949.009,725.494 949.397,725.847 949.811,726.169 950.248,726.46 950.705,726.716 951.18,726.937 951.671,727.122 952.175,727.269 952.688,727.377 953.207,727.446 953.731,727.476 954.255,727.466 954.777,727.417 955.294,727.328 955.802,727.2 956.3,727.034 956.783,726.831 957.25,726.592 957.697,726.319 958.123,726.012 958.524,725.674 958.898,725.307 959.244,724.912 959.558,724.493 959.84,724.051 960.088,723.589 960.3,723.109 960.475,722.615 960.612,722.109 960.711,721.594 960.77,721.073 960.79,720.549 " />
<polyline fill="none" vector-effect="none" points="960.79,542.392 960.77,541.868 960.711,541.347 960.612,540.832 960.475,540.326 960.3,539.831 960.088,539.352 959.84,538.89 959.558,538.448 959.244,538.028 958.898,537.634 958.524,537.266 958.123,536.928 957.697,536.622 957.25,536.348 956.783,536.109 956.3,535.906 955.802,535.741 955.294,535.613 954.777,535.524 954.255,535.475 953.731,535.465 953.207,535.494 952.688,535.564 952.175,535.672 951.671,535.819 951.18,536.003 950.705,536.224 950.248,536.481 949.811,536.771 949.397,537.094 949.009,537.446 948.649,537.828 948.319,538.235 948.021,538.666 947.756,539.118 947.526,539.59 947.332,540.077 947.175,540.577 947.057,541.088 946.978,541.607 946.939,542.129 946.939,542.654 946.978,543.177 947.057,543.695 947.175,544.206 947.332,544.706 947.526,545.194 947.756,545.665 948.021,546.117 948.319,546.548 948.649,546.956 949.009,547.337 949.397,547.69 949.811,548.012 950.248,548.302 950.705,548.559 951.18,548.78 951.671,548.965 952.175,549.111 952.688,549.22 953.207,549.289 953.731,549.319 954.255,549.309 954.777,549.259 955.294,549.17 955.802,549.043 956.3,548.877 956.783,548.674 957.25,548.435 957.697,548.161 958.123,547.855 958.524,547.517 958.898,547.15 959.244,546.755 959.558,546.336 959.84,545.894 960.088,545.431 960.3,544.952 960.475,544.458 960.612,543.952 960.711,543.437 960.77,542.916 960.79,542.392 " />
<polyline fill="none" vector-effect="none" points="960.79,631.47 960.77,630.946 960.711,630.425 960.612,629.91 960.475,629.404 960.3,628.91 960.088,628.43 959.84,627.968 959.558,627.526 959.244,627.107 958.898,626.712 958.524,626.345 958.123,626.007 957.697,625.7 957.25,625.427 956.783,625.188 956.3,624.985 955.802,624.819 955.294,624.692 954.777,624.603 954.255,624.553 953.731,624.543 953.207,624.573 952.688,624.642 952.175,624.751 951.671,624.897 951.18,625.082 950.705,625.303 950.248,625.559 949.811,625.85 949.397,626.172 949.009,626.525 948.649,626.906 948.319,627.314 948.021,627.745 947.756,628.197 947.526,628.668 947.332,629.155 947.175,629.656 947.057,630.167 946.978,630.685 946.939,631.208 946.939,631.732 946.978,632.255 947.057,632.774 947.175,633.285 947.332,633.785 947.526,634.272 947.756,634.743 948.021,635.196 948.319,635.627 948.649,636.034 949.009,636.415 949.397,636.768 949.811,637.091 950.248,637.381 950.705,637.638 951.18,637.859 951.671,638.043 952.175,638.19 952.688,638.298 953.207,638.368 953.731,638.397 954.255,638.387 954.777,638.338 955.294,638.249 955.802,638.121 956.3,637.956 956.783,637.753 957.25,637.514 957.697,637.24 958.123,636.933 958.524,636.596 958.898,636.228 959.244,635.834 959.558,635.414 959.84,634.972 960.088,634.51 960.3,634.031 960.475,633.536 960.612,633.03 960.711,632.515 960.77,631.994 960.79,631.47 " />
<polyline fill="none" vector-effect="none" points="663.862,295.608 663.842,295.084 663.782,294.563 663.684,294.048 663.546,293.542 663.371,293.048 663.159,292.569 662.911,292.106 662.629,291.664 662.315,291.245 661.969,290.85 661.595,290.483 661.194,290.145 660.769,289.839 660.321,289.565 659.855,289.326 659.371,289.123 658.874,288.957 658.365,288.83 657.848,288.741 657.326,288.691 656.802,288.681 656.279,288.711 655.759,288.78 655.246,288.889 654.742,289.035 654.252,289.22 653.776,289.441 653.319,289.698 652.882,289.988 652.469,290.31 652.081,290.663 651.721,291.044 651.39,291.452 651.092,291.883 650.827,292.335 650.597,292.806 650.403,293.294 650.247,293.794 650.129,294.305 650.05,294.823 650.01,295.346 650.01,295.871 650.05,296.393 650.129,296.912 650.247,297.423 650.403,297.923 650.597,298.41 650.827,298.882 651.092,299.334 651.39,299.765 651.721,300.172 652.081,300.554 652.469,300.906 652.882,301.229 653.319,301.519 653.776,301.776 654.252,301.997 654.742,302.181 655.246,302.328 655.759,302.436 656.279,302.506 656.802,302.535 657.326,302.525 657.848,302.476 658.365,302.387 658.874,302.259 659.371,302.094 659.855,301.891 660.321,301.652 660.769,301.378 661.194,301.072 661.595,300.734 661.969,300.366 662.315,299.972 662.629,299.552 662.911,299.11 663.159,298.648 663.371,298.169 663.546,297.674 663.684,297.168 663.782,296.653 663.842,296.132 663.862,295.608 " />
<polyline fill="none" vector-effect="none" points="663.862,117.451 663.842,116.927 663.782,116.406 663.684,115.891 663.546,115.385 663.371,114.891 663.159,114.411 662.911,113.949 662.629,113.507 662.315,113.088 661.969,112.693 661.595,112.326 661.194,111.988 660.769,111.681 660.321,111.408 659.855,111.169 659.371,110.966 658.874,110.8 658.365,110.672 657.848,110.583 657.326,110.534 656.802,110.524 656.279,110.554 655.759,110.623 655.246,110.731 654.742,110.878 654.252,111.063 653.776,111.284 653.319,111.54 652.882,111.831 652.469,112.153 652.081,112.506 651.721,112.887 651.39,113.294 651.092,113.725 650.827,114.178 650.597,114.649 650.403,115.136 650.247,115.637 650.129,116.148 650.05,116.666 650.01,117.189 650.01,117.713 650.05,118.236 650.129,118.755 650.247,119.265 650.403,119.766 650.597,120.253 650.827,120.724 651.092,121.177 651.39,121.608 651.721,122.015 652.081,122.396 652.469,122.749 652.882,123.072 653.319,123.362 653.776,123.618 654.252,123.839 654.742,124.024 655.246,124.171 655.759,124.279 656.279,124.348 656.802,124.378 657.326,124.368 657.848,124.319 658.365,124.23 658.874,124.102 659.371,123.936 659.855,123.733 660.321,123.494 660.769,123.221 661.194,122.914 661.595,122.576 661.969,122.209 662.315,121.815 662.629,121.395 662.911,120.953 663.159,120.491 663.371,120.011 663.546,119.517 663.684,119.011 663.782,118.496 663.842,117.975 663.862,117.451 " />
<polyline fill="none" vector-effect="none" points="663.862,206.53 663.842,206.006 663.782,205.485 663.684,204.97 663.546,204.464 663.371,203.969 663.159,203.49 662.911,203.028 662.629,202.586 662.315,202.166 661.969,201.772 661.595,201.404 661.194,201.067 660.769,200.76 660.321,200.486 659.855,200.247 659.371,200.044 658.874,199.879 658.365,199.751 657.848,199.662 657.326,199.613 656.802,199.603 656.279,199.632 655.759,199.702 655.246,199.81 654.742,199.957 654.252,200.141 653.776,200.362 653.319,200.619 652.882,200.909 652.469,201.232 652.081,201.585 651.721,201.966 651.39,202.373 651.092,202.804 650.827,203.257 650.597,203.728 650.403,204.215 650.247,204.715 650.129,205.226 650.05,205.745 650.01,206.268 650.01,206.792 650.05,207.315 650.129,207.833 650.247,208.344 650.403,208.845 650.597,209.332 650.827,209.803 651.092,210.255 651.39,210.686 651.721,211.094 652.081,211.475 652.469,211.828 652.882,212.15 653.319,212.441 653.776,212.697 654.252,212.918 654.742,213.103 655.246,213.249 655.759,213.358 656.279,213.427 656.802,213.457 657.326,213.447 657.848,213.397 658.365,213.308 658.874,213.181 659.371,213.015 659.855,212.812 660.321,212.573 660.769,212.3 661.194,211.993 661.595,211.655 661.969,211.288 662.315,210.893 662.629,210.474 662.911,210.032 663.159,209.57 663.371,209.09 663.546,208.596 663.684,208.09 663.782,207.575 663.842,207.054 663.862,206.53 " />
<polyline fill="none" vector-effect="none" points="663.862,720.549 663.842,720.025 663.782,719.504 663.684,718.989 663.546,718.483 663.371,717.989 663.159,717.509 662.911,717.047 662.629,716.605 662.315,716.185 661.969,715.791 661.595,715.424 661.194,715.086 660.769,714.779 660.321,714.506 659.855,714.267 659.371,714.064 658.874,713.898 658.365,713.77 657.848,713.681 657.326,713.632 656.802,713.622 656.279,713.652 655.759,713.721 655.246,713.829 654.742,713.976 654.252,714.161 653.776,714.382 653.319,714.638 652.882,714.928 652.469,715.251 652.081,715.604 651.721,715.985 651.39,716.392 651.092,716.823 650.827,717.276 650.597,717.747 650.403,718.234 650.247,718.735 650.129,719.245 650.05,719.764 650.01,720.287 650.01,720.811 650.05,721.334 650.129,721.852 650.247,722.363 650.403,722.864 650.597,723.351 650.827,723.822 651.092,724.275 651.39,724.706 651.721,725.113 652.081,725.494 652.469,725.847 652.882,726.169 653.319,726.46 653.776,726.716 654.252,726.937 654.742,727.122 655.246,727.269 655.759,727.377 656.279,727.446 656.802,727.476 657.326,727.466 657.848,727.417 658.365,727.328 658.874,727.2 659.371,727.034 659.855,726.831 660.321,726.592 660.769,726.319 661.194,726.012 661.595,725.674 661.969,725.307 662.315,724.912 662.629,724.493 662.911,724.051 663.159,723.589 663.371,723.109 663.546,722.615 663.684,722.109 663.782,721.594 663.842,721.073 663.862,720.549 " />
<polyline fill="none" vector-effect="none" points="663.862,542.392 663.842,541.868 663.782,541.347 663.684,540.832 663.546,540.326 663.371,539.831 663.159,539.352 662.911,538.89 662.629,538.448 662.315,538.028 661.969,537.634 661.595,537.266 661.194,536.928 660.769,536.622 660.321,536.348 659.855,536.109 659.371,535.906 658.874,535.741 658.365,535.613 657.848,535.524 657.326,535.475 656.802,535.465 656.279,535.494 655.759,535.564 655.246,535.672 654.742,535.819 654.252,536.003 653.776,536.224 653.319,536.481 652.882,536.771 652.469,537.094 652.081,537.446 651.721,537.828 651.39,538.235 651.092,538.666 650.827,539.118 650.597,539.59 650.403,540.077 650.247,540.577 650.129,541.088 650.05,541.607 650.01,542.129 650.01,542.654 650.05,543.177 650.129,543.695 650.247,544.206 650.403,544.706 650.597,545.194 650.827,545.665 651.092,546.117 651.39,546.548 651.721,546.956 652.081,547.337 652.469,547.69 652.882,548.012 653.319,548.302 653.776,548.559 654.252,548.78 654.742,548.965 655.246,549.111 655.759,549.22 656.279,549.289 656.802,549.319 657.326,549.309 657.848,549.259 658.365,549.17 658.874,549.043 659.371,548.877 659.855,548.674 660.321,548.435 660.769,548.161 661.194,547.855 661.595,547.517 661.969,547.15 662.315,546.755 662.629,546.336 662.911,545.894 663.159,545.431 663.371,544.952 663.546,544.458 663.684,543.952 663.782,543.437 663.842,542.916 663.862,542.392 " />
<polyline fill="none" vector-effect="none" points="663.862,631.47 663.842,630.946 663.782,630.425 663.684,629.91 663.546,629.404 663.371,628.91 663.159,628.43 662.911,627.968 662.629,627.526 662.315,627.107 661.969,626.712 661.595,626.345 661.194,626.007 660.769,625.7 660.321,625.427 659.855,625.188 659.371,624.985 658.874,624.819 658.365,624.692 657.848,624.603 657.326,624.553 656.802,624.543 656.279,624.573 655.759,624.642 655.246,624.751 654.742,624.897 654.252,625.082 653.776,625.303 653.319,625.559 652.882,625.85 652.469,626.172 652.081,626.525 651.721,626.906 651.39,627.314 651.092,627.745 650.827,628.197 650.597,628.668 650.403,629.155 650.247,629.656 650.129,630.167 650.05,630.685 650.01,631.208 650.01,631.732 650.05,632.255 650.129,632.774 650.247,633.285 650.403,633.785 650.597,634.272 650.827,634.743 651.092,635.196 651.39,635.627 651.721,636.034 652.081,636.415 652.469,636.768 652.882,637.091 653.319,637.381 653.776,637.638 654.252,637.859 654.742,638.043 655.246,638.19 655.759,638.298 656.279,638.368 656.802,638.397 657.326,638.387 657.848,638.338 658.365,638.249 658.874,638.121 659.371,637.956 659.855,637.753 660.321,637.514 660.769,637.24 661.194,636.933 661.595,636.596 661.969,636.228 662.315,635.834 662.629,635.414 662.911,634.972 663.159,634.51 663.371,634.031 663.546,633.536 663.684,633.03 663.782,632.515 663.842,631.994 663.862,631.47 " />
<polyline fill="none" vector-effect="none" points="713.35,377.759 713.33,377.235 713.27,376.714 713.172,376.199 713.035,375.693 712.859,375.198 712.647,374.719 712.4,374.257 712.118,373.815 711.803,373.395 711.458,373.001 711.083,372.633 710.682,372.295 710.257,371.989 709.81,371.715 709.343,371.476 708.859,371.273 708.362,371.108 707.853,370.98 707.337,370.891 706.815,370.841 706.29,370.831 705.767,370.861 705.247,370.931 704.734,371.039 704.231,371.186 703.74,371.37 703.264,371.591 702.807,371.848 702.37,372.138 701.957,372.461 701.569,372.813 701.209,373.195 700.879,373.602 700.58,374.033 700.315,374.485 700.085,374.957 699.891,375.444 699.735,375.944 699.617,376.455 699.538,376.974 699.498,377.496 699.498,378.021 699.538,378.544 699.617,379.062 699.735,379.573 699.891,380.073 700.085,380.561 700.315,381.032 700.58,381.484 700.879,381.915 701.209,382.323 701.569,382.704 701.957,383.057 702.37,383.379 702.807,383.669 703.264,383.926 703.74,384.147 704.231,384.331 704.734,384.478 705.247,384.587 705.767,384.656 706.29,384.686 706.815,384.676 707.337,384.626 707.853,384.537 708.362,384.41 708.859,384.244 709.343,384.041 709.81,383.802 710.257,383.528 710.682,383.222 711.083,382.884 711.458,382.517 711.803,382.122 712.118,381.703 712.4,381.261 712.647,380.798 712.859,380.319 713.035,379.825 713.172,379.319 713.27,378.804 713.33,378.283 713.35,377.759 " />
<polyline fill="none" vector-effect="none" points="911.302,377.759 911.282,377.235 911.223,376.714 911.124,376.199 910.987,375.693 910.812,375.198 910.6,374.719 910.352,374.257 910.07,373.815 909.755,373.395 909.41,373.001 909.036,372.633 908.635,372.295 908.209,371.989 907.762,371.715 907.295,371.476 906.812,371.273 906.314,371.108 905.806,370.98 905.289,370.891 904.767,370.841 904.243,370.831 903.719,370.861 903.199,370.931 902.686,371.039 902.183,371.186 901.692,371.37 901.217,371.591 900.759,371.848 900.323,372.138 899.909,372.461 899.521,372.813 899.161,373.195 898.831,373.602 898.533,374.033 898.267,374.485 898.037,374.957 897.844,375.444 897.687,375.944 897.569,376.455 897.49,376.974 897.45,377.496 897.45,378.021 897.49,378.544 897.569,379.062 897.687,379.573 897.844,380.073 898.037,380.561 898.267,381.032 898.533,381.484 898.831,381.915 899.161,382.323 899.521,382.704 899.909,383.057 900.323,383.379 900.759,383.669 901.217,383.926 901.692,384.147 902.183,384.331 902.686,384.478 903.199,384.587 903.719,384.656 904.243,384.686 904.767,384.676 905.289,384.626 905.806,384.537 906.314,384.41 906.812,384.244 907.295,384.041 907.762,383.802 908.209,383.528 908.635,383.222 909.036,382.884 909.41,382.517 909.755,382.122 910.07,381.703 910.352,381.261 910.6,380.798 910.812,380.319 910.987,379.825 911.124,379.319 911.223,378.804 911.282,378.283 911.302,377.759 " />
<polyline fill="none" vector-effect="none" points="713.35,802.699 713.33,802.175 713.27,801.654 713.172,801.139 713.035,800.633 712.859,800.139 712.647,799.659 712.4,799.197 712.118,798.755 711.803,798.336 711.458,797.941 711.083,797.574 710.682,797.236 710.257,796.929 709.81,796.656 709.343,796.417 708.859,796.214 708.362,796.048 707.853,795.92 707.337,795.832 706.815,795.782 706.29,795.772 705.767,795.802 705.247,795.871 704.734,795.979 704.231,796.126 703.74,796.311 703.264,796.532 702.807,796.788 702.37,797.079 701.957,797.401 701.569,797.754 701.209,798.135 700.879,798.542 700.58,798.973 700.315,799.426 700.085,799.897 699.891,800.384 699.735,800.885 699.617,801.396 699.538,801.914 699.498,802.437 699.498,802.961 699.538,803.484 699.617,804.003 699.735,804.513 699.891,805.014 700.085,805.501 700.315,805.972 700.58,806.425 700.879,806.856 701.209,807.263 701.569,807.644 701.957,807.997 702.37,808.32 702.807,808.61 703.264,808.866 703.74,809.087 704.231,809.272 704.734,809.419 705.247,809.527 705.767,809.596 706.29,809.626 706.815,809.616 707.337,809.567 707.853,809.478 708.362,809.35 708.859,809.184 709.343,808.981 709.81,808.742 710.257,808.469 710.682,808.162 711.083,807.824 711.458,807.457 711.803,807.063 712.118,806.643 712.4,806.201 712.647,805.739 712.859,805.259 713.035,804.765 713.172,804.259 713.27,803.744 713.33,803.223 713.35,802.699 " />
<polyline fill="none" vector-effect="none" points="911.302,802.699 911.282,802.175 911.223,801.654 911.124,801.139 910.987,800.633 910.812,800.139 910.6,799.659 910.352,799.197 910.07,798.755 909.755,798.336 909.41,797.941 909.036,797.574 908.635,797.236 908.209,796.929 907.762,796.656 907.295,796.417 906.812,796.214 906.314,796.048 905.806,795.92 905.289,795.832 904.767,795.782 904.243,795.772 903.719,795.802 903.199,795.871 902.686,795.979 902.183,796.126 901.692,796.311 901.217,796.532 900.759,796.788 900.323,797.079 899.909,797.401 899.521,797.754 899.161,798.135 898.831,798.542 898.533,798.973 898.267,799.426 898.037,799.897 897.844,800.384 897.687,800.885 897.569,801.396 897.49,801.914 897.45,802.437 897.45,802.961 897.49,803.484 897.569,804.003 897.687,804.513 897.844,805.014 898.037,805.501 898.267,805.972 898.533,806.425 898.831,806.856 899.161,807.263 899.521,807.644 899.909,807.997 900.323,808.32 900.759,808.61 901.217,808.866 901.692,809.087 902.183,809.272 902.686,809.419 903.199,809.527 903.719,809.596 904.243,809.626 904.767,809.616 905.289,809.567 905.806,809.478 906.314,809.35 906.812,809.184 907.295,808.981 907.762,808.742 908.209,808.469 908.635,808.162 909.036,807.824 909.41,807.457 909.755,807.063 910.07,806.643 910.352,806.201 910.6,805.739 910.812,805.259 910.987,804.765 911.124,804.259 911.223,803.744 911.282,803.223 911.302,802.699 " />
<polyline fill="none" vector-effect="none" points="713.35,460.241 713.33,459.717 713.27,459.196 713.172,458.681 713.035,458.175 712.859,457.681 712.647,457.202 712.4,456.739 712.118,456.297 711.803,455.878 711.458,455.483 711.083,455.116 710.682,454.778 710.257,454.472 709.81,454.198 709.343,453.959 708.859,453.756 708.362,453.59 707.853,453.463 707.337,453.374 706.815,453.324 706.29,453.314 705.767,453.344 705.247,453.413 704.734,453.522 704.231,453.669 703.74,453.853 703.264,454.074 702.807,454.331 702.37,454.621 701.957,454.943 701.569,455.296 701.209,455.677 700.879,456.085 700.58,456.516 700.315,456.968 700.085,457.439 699.891,457.927 699.735,458.427 699.617,458.938 699.538,459.456 699.498,459.979 699.498,460.504 699.538,461.026 699.617,461.545 699.735,462.056 699.891,462.556 700.085,463.043 700.315,463.515 700.58,463.967 700.879,464.398 701.209,464.805 701.569,465.187 701.957,465.539 702.37,465.862 702.807,466.152 703.264,466.409 703.74,466.63 704.231,466.814 704.734,466.961 705.247,467.069 705.767,467.139 706.29,467.169 706.815,467.159 707.337,467.109 707.853,467.02 708.362,466.892 708.859,466.727 709.343,466.524 709.81,466.285 710.257,466.011 710.682,465.705 711.083,465.367 711.458,464.999 711.803,464.605 712.118,464.185 712.4,463.743 712.647,463.281 712.859,462.802 713.035,462.307 713.172,461.801 713.27,461.286 713.33,460.765 713.35,460.241 " />
<polyline fill="none" vector-effect="none" points="911.302,460.241 911.282,459.717 911.223,459.196 911.124,458.681 910.987,458.175 910.812,457.681 910.6,457.202 910.352,456.739 910.07,456.297 909.755,455.878 909.41,455.483 909.036,455.116 908.635,454.778 908.209,454.472 907.762,454.198 907.295,453.959 906.812,453.756 906.314,453.59 905.806,453.463 905.289,453.374 904.767,453.324 904.243,453.314 903.719,453.344 903.199,453.413 902.686,453.522 902.183,453.669 901.692,453.853 901.217,454.074 900.759,454.331 900.323,454.621 899.909,454.943 899.521,455.296 899.161,455.677 898.831,456.085 898.533,456.516 898.267,456.968 898.037,457.439 897.844,457.927 897.687,458.427 897.569,458.938 897.49,459.456 897.45,459.979 897.45,460.504 897.49,461.026 897.569,461.545 897.687,462.056 897.844,462.556 898.037,463.043 898.267,463.515 898.533,463.967 898.831,464.398 899.161,464.805 899.521,465.187 899.909,465.539 900.323,465.862 900.759,466.152 901.217,466.409 901.692,466.63 902.183,466.814 902.686,466.961 903.199,467.069 903.719,467.139 904.243,467.169 904.767,467.159 905.289,467.109 905.806,467.02 906.314,466.892 906.812,466.727 907.295,466.524 907.762,466.285 908.209,466.011 908.635,465.705 909.036,465.367 909.41,464.999 909.755,464.605 910.07,464.185 910.352,463.743 910.6,463.281 910.812,462.802 910.987,462.307 911.124,461.801 911.223,461.286 911.282,460.765 911.302,460.241 " />
<polyline fill="none" vector-effect="none" points="713.35,35.3009 713.33,34.7769 713.27,34.2559 713.172,33.7409 713.035,33.2348 712.859,32.7406 712.647,32.2611 712.4,31.7989 712.118,31.3568 711.803,30.9373 711.458,30.5428 711.083,30.1756 710.682,29.8377 710.257,29.5311 709.81,29.2575 709.343,29.0186 708.859,28.8156 708.362,28.6498 707.853,28.5221 707.337,28.4332 706.815,28.3837 706.29,28.3738 705.767,28.4035 705.247,28.4728 704.734,28.5812 704.231,28.728 703.74,28.9125 703.264,29.1336 702.807,29.3901 702.37,29.6803 701.957,30.0028 701.569,30.3556 701.209,30.7368 700.879,31.1441 700.58,31.5752 700.315,32.0276 700.085,32.4988 699.891,32.9861 699.735,33.4866 699.617,33.9975 699.538,34.5158 699.498,35.0387 699.498,35.563 699.538,36.0859 699.617,36.6043 699.735,37.1151 699.891,37.6156 700.085,38.1029 700.315,38.5741 700.58,39.0265 700.879,39.4576 701.209,39.8649 701.569,40.2461 701.957,40.5989 702.37,40.9214 702.807,41.2117 703.264,41.4681 703.74,41.6892 704.231,41.8737 704.734,42.0206 705.247,42.1289 705.767,42.1982 706.29,42.228 706.815,42.218 707.337,42.1685 707.853,42.0796 708.362,41.9519 708.859,41.7861 709.343,41.5831 709.81,41.3442 710.257,41.0706 710.682,40.764 711.083,40.4262 711.458,40.0589 711.803,39.6644 712.118,39.2449 712.4,38.8028 712.647,38.3407 712.859,37.8611 713.035,37.3669 713.172,36.8608 713.27,36.3458 713.33,35.8248 713.35,35.3009 " />
<polyline fill="none" vector-effect="none" points="911.302,35.3009 911.282,34.7769 911.223,34.2559 911.124,33.7409 910.987,33.2348 910.812,32.7406 910.6,32.2611 910.352,31.7989 910.07,31.3568 909.755,30.9373 909.41,30.5428 909.036,30.1756 908.635,29.8377 908.209,29.5311 907.762,29.2575 907.295,29.0186 906.812,28.8156 906.314,28.6498 905.806,28.5221 905.289,28.4332 904.767,28.3837 904.243,28.3738 903.719,28.4035 903.199,28.4728 902.686,28.5812 902.183,28.728 901.692,28.9125 901.217,29.1336 900.759,29.3901 900.323,29.6803 899.909,30.0028 899.521,30.3556 899.161,30.7368 898.831,31.1441 898.533,31.5752 898.267,32.0276 898.037,32.4988 897.844,32.9861 897.687,33.4866 897.569,33.9975 897.49,34.5158 897.45,35.0387 897.45,35.563 897.49,36.0859 897.569,36.6043 897.687,37.1151 897.844,37.6156 898.037,38.1029 898.267,38.5741 898.533,39.0265 898.831,39.4576 899.161,39.8649 899.521,40.2461 899.909,40.5989 900.323,40.9214 900.759,41.2117 901.217,41.4681 901.692,41.6892 902.183,41.8737 902.686,42.0206 903.199,42.1289 903.719,42.1982 904.243,42.228 904.767,42.218 905.289,42.1685 905.806,42.0796 906.314,41.9519 906.812,41.7861 907.295,41.5831 907.762,41.3442 908.209,41.0706 908.635,40.764 909.036,40.4262 909.41,40.0589 909.755,39.6644 910.07,39.2449 910.352,38.8028 910.6,38.3407 910.812,37.8611 910.987,37.3669 911.124,36.8608 911.223,36.3458 911.282,35.8248 911.302,35.3009 " />
<polyline fill="none" vector-effect="none" points="582.62,719.84 583.883,710.64 585.106,701.435 586.29,692.224 587.435,683.009 588.54,673.788 589.606,664.564 590.633,655.334 591.62,646.101 592.568,636.863 593.477,627.621 594.346,618.376 595.176,609.127 595.967,599.874 596.718,590.618 597.429,581.359 598.102,572.097 598.734,562.833 599.327,553.565 599.881,544.296 600.395,535.024 600.87,525.749 601.305,516.473 601.701,507.196 602.057,497.916 602.373,488.635 602.65,479.353 602.888,470.07 603.085,460.786 603.244,451.501 603.362,442.215 603.442,432.929 603.481,423.643 603.481,414.357 603.442,405.071 603.362,395.785 603.244,386.499 603.085,377.214 602.888,367.93 602.65,358.647 602.373,349.365 602.057,340.084 601.701,330.804 601.305,321.527 600.87,312.251 600.395,302.976 599.881,293.704 599.327,284.435 598.734,275.167 598.102,265.903 597.429,256.641 596.718,247.382 595.967,238.126 595.176,228.873 594.346,219.624 593.477,210.379 592.568,201.137 591.62,191.899 590.633,182.666 589.606,173.436 588.54,164.212 587.435,154.991 586.29,145.776 585.106,136.565 583.883,127.36 582.62,118.16 " />
<polyline fill="none" vector-effect="none" points="1028.17,118.16 1026.91,127.36 1025.69,136.565 1024.51,145.776 1023.36,154.991 1022.26,164.212 1021.19,173.436 1020.16,182.666 1019.18,191.899 1018.23,201.137 1017.32,210.379 1016.45,219.624 1015.62,228.873 1014.83,238.126 1014.08,247.382 1013.37,256.641 1012.69,265.903 1012.06,275.167 1011.47,284.435 1010.91,293.704 1010.4,302.976 1009.93,312.251 1009.49,321.527 1009.09,330.804 1008.74,340.084 1008.42,349.365 1008.15,358.647 1007.91,367.93 1007.71,377.214 1007.55,386.499 1007.43,395.785 1007.35,405.071 1007.31,414.357 1007.31,423.643 1007.35,432.929 1007.43,442.215 1007.55,451.501 1007.71,460.786 1007.91,470.07 1008.15,479.353 1008.42,488.635 1008.74,497.916 1009.09,507.196 1009.49,516.473 1009.93,525.749 1010.4,535.024 1010.91,544.296 1011.47,553.565 1012.06,562.833 1012.69,572.097 1013.37,581.359 1014.08,590.618 1014.83,599.874 1015.62,609.127 1016.45,618.376 1017.32,627.621 1018.23,636.863 1019.18,646.101 1020.16,655.334 1021.19,664.564 1022.26,673.788 1023.36,683.009 1024.51,692.224 1025.69,701.435 1026.91,710.64 1028.17,719.84 " />
<polyline fill="none" vector-effect="none" points="582.62,0 1028.17,1.25056e-12 " />
<polyline fill="none" vector-effect="none" points="582.62,838 1028.17,838 " />
<polyline fill="none" vector-effect="none" points="641.097,422.959 641.097,415.041 680.688,415.041 680.688,422.959 641.097,422.959 " />
<polyline fill="none" vector-effect="none" points="704.442,422.959 704.442,415.041 783.623,415.041 783.623,422.959 704.442,422.959 " />
<polyline fill="none" vector-effect="none" points="827.172,422.959 827.172,415.041 906.353,415.041 906.353,422.959 827.172,422.959 " />
<polyline fill="none" vector-effect="none" points="969.698,422.959 969.698,415.041 930.108,415.041 930.108,422.959 969.698,422.959 " />
<polyline fill="none" vector-effect="none" points="582.62,2.27374e-13 582.62,118.16 " />
<polyline fill="none" vector-effect="none" points="1028.17,838 1028.17,719.84 " />
<polyline fill="none" vector-effect="none" points="582.62,719.84 582.62,838 " />
<polyline fill="none" vector-effect="none" points="1028.17,118.16 1028.17,1.13687e-12 " />
</g>

<g fill="#ffffff" fill-opacity="1" stroke="#ffffff" stroke-opacity="1" stroke-width="1" stroke-linecap="round" stroke-linejoin="bevel" transform="matrix(0.999371,0,0,0.998807,0,0)"
font-family="MS Shell Dlg 2" font-size="11" font-weight="400" font-style="normal" 
>
</g>

<g fill="#ffffff" fill-opacity="1" stroke="#ffffff" stroke-opacity="1" stroke-width="1" stroke-linecap="round" stroke-linejoin="bevel" transform="matrix(1,0,0,1,0,0)"
font-family="MS Shell Dlg 2" font-size="11" font-weight="400" font-style="normal" 
>
</g>

<g fill="none" stroke="#000000" stroke-opacity="1" stroke-width="1" stroke-linecap="square" stroke-linejoin="bevel" transform="matrix(1,0,0,1,0,0)"
font-family="MS Shell Dlg 2" font-size="11" font-weight="400" font-style="normal" 
>
</g>
</g>
</svg>
