<?xml version="1.0" encoding="UTF-8" standalone="no"?>
<svg width="420.952mm" height="221.721mm"
 viewBox="0 0 1591 838"
 xmlns="http://www.w3.org/2000/svg" xmlns:xlink="http://www.w3.org/1999/xlink"  version="1.2" baseProfile="tiny">
<title>Qt Svg Document</title>
<desc>Generated with Qt</desc>
<defs>
</defs>
<g fill="none" stroke="black" stroke-width="1" fill-rule="evenodd" stroke-linecap="square" stroke-linejoin="bevel" >

<g fill="none" stroke="#000000" stroke-opacity="1" stroke-width="1" stroke-linecap="square" stroke-linejoin="bevel" transform="matrix(1,0,0,1,0,0)"
font-family="MS Shell Dlg 2" font-size="11" font-weight="400" font-style="normal" 
>
</g>

<g fill="#000000" fill-opacity="1" stroke="none" transform="matrix(1,0,0,1,0,0)"
font-family="MS Shell Dlg 2" font-size="11" font-weight="400" font-style="normal" 
>
<path vector-effect="non-scaling-stroke" fill-rule="evenodd" d="M0,0 L1591,0 L1591,838 L0,838 L0,0"/>
</g>

<g fill="none" stroke="#000000" stroke-opacity="1" stroke-width="1" stroke-linecap="square" stroke-linejoin="bevel" transform="matrix(1,0,0,1,0,0)"
font-family="MS Shell Dlg 2" font-size="11" font-weight="400" font-style="normal" 
>
</g>

<g fill="#000000" fill-opacity="1" stroke="#000000" stroke-opacity="1" stroke-width="1" stroke-linecap="square" stroke-linejoin="bevel" transform="matrix(0.999371,0,0,0.998807,0,0)"
font-family="MS Shell Dlg 2" font-size="11" font-weight="400" font-style="normal" 
>
</g>

<g fill="#ffffff" fill-opacity="1" stroke="#ffffff" stroke-opacity="1" stroke-width="1" stroke-linecap="round" stroke-linejoin="bevel" transform="matrix(0.999371,0,0,0.998807,0,0)"
font-family="MS Shell Dlg 2" font-size="11" font-weight="400" font-style="normal" 
>
<polyline fill="none" vector-effect="none" points="530.333,639.972 530.333,675.328 176.778,675.328 176.778,639.972 -1.13687e-13,639.972 -1.13687e-13,198.028 176.778,198.028 176.778,162.672 530.333,162.672 530.333,198.028 795.5,198.028 795.5,162.672 1149.06,162.672 1149.06,198.028 1591,198.028 1591,639.972 1149.06,639.972 1149.06,675.328 795.5,675.328 795.5,639.972 530.333,639.972 " />
<polyline fill="none" vector-effect="none" points="126.989,251.061 53.0333,251.061 53.0333,352.777 " />
<polyline fill="none" vector-effect="none" points="749.572,445.517 596.478,445.517 673.025,578.1 749.572,445.517 " />
<polyline fill="none" vector-effect="none" points="861.841,586.939 795.5,472.033 729.159,586.939 " />
<polyline fill="none" vector-effect="none" points="841.428,445.517 917.975,578.1 994.522,445.517 841.428,445.517 " />
<polyline fill="none" vector-effect="none" points="841.428,392.483 994.522,392.483 917.975,259.9 841.428,392.483 " />
<polyline fill="none" vector-effect="none" points="729.159,251.061 795.5,365.967 861.841,251.061 " />
<polyline fill="none" vector-effect="none" points="749.572,392.483 673.025,259.9 596.478,392.483 749.572,392.483 " />
<polyline fill="none" vector-effect="none" points="504.621,445.517 351.527,445.517 428.074,578.1 504.621,445.517 " />
<polyline fill="none" vector-effect="none" points="616.89,586.939 550.55,472.033 484.209,586.939 " />
<polyline fill="none" vector-effect="none" points="484.209,251.061 550.55,365.967 616.89,251.061 " />
<polyline fill="none" vector-effect="none" points="504.621,392.483 428.074,259.9 351.527,392.483 504.621,392.483 " />
<polyline fill="none" vector-effect="none" points="259.671,445.517 106.577,445.517 183.124,578.1 259.671,445.517 " />
<polyline fill="none" vector-effect="none" points="371.94,586.939 305.599,472.033 239.258,586.939 " />
<polyline fill="none" vector-effect="none" points="239.258,251.061 305.599,365.967 371.94,251.061 " />
<polyline fill="none" vector-effect="none" points="259.671,392.483 183.124,259.9 106.577,392.483 259.671,392.483 " />
<polyline fill="none" vector-effect="none" points="126.989,586.939 60.6486,472.033 53.0333,485.223 " />
<polyline fill="none" vector-effect="none" points="53.0333,352.777 60.6486,365.967 126.989,251.061 " />
<polyline fill="none" vector-effect="none" points="1106.79,586.939 1040.45,472.033 974.11,586.939 " />
<polyline fill="none" vector-effect="none" points="1086.38,445.517 1162.93,578.1 1239.47,445.517 1086.38,445.517 " />
<polyline fill="none" vector-effect="none" points="1086.38,392.483 1239.47,392.483 1162.93,259.9 1086.38,392.483 " />
<polyline fill="none" vector-effect="none" points="974.11,251.061 1040.45,365.967 1106.79,251.061 " />
<polyline fill="none" vector-effect="none" points="1351.74,586.939 1285.4,472.033 1219.06,586.939 " />
<polyline fill="none" vector-effect="none" points="1331.33,445.517 1407.88,578.1 1484.42,445.517 1331.33,445.517 " />
<polyline fill="none" vector-effect="none" points="1331.33,392.483 1484.42,392.483 1407.88,259.9 1331.33,392.483 " />
<polyline fill="none" vector-effect="none" points="1219.06,251.061 1285.4,365.967 1351.74,251.061 " />
<polyline fill="none" vector-effect="none" points="1537.97,485.223 1530.35,472.033 1464.01,586.939 " />
<polyline fill="none" vector-effect="none" points="1464.01,251.061 1530.35,365.967 1537.97,352.777 " />
<polyline fill="none" vector-effect="none" points="371.94,251.061 239.258,251.061 " />
<polyline fill="none" vector-effect="none" points="616.89,251.061 484.209,251.061 " />
<polyline fill="none" vector-effect="none" points="861.841,251.061 729.159,251.061 " />
<polyline fill="none" vector-effect="none" points="1106.79,251.061 974.11,251.061 " />
<polyline fill="none" vector-effect="none" points="1351.74,251.061 1219.06,251.061 " />
<polyline fill="none" vector-effect="none" points="1537.97,352.777 1537.97,251.061 1464.01,251.061 " />
<polyline fill="none" vector-effect="none" points="1464.01,586.939 1537.97,586.939 1537.97,485.223 " />
<polyline fill="none" vector-effect="none" points="1219.06,586.939 1351.74,586.939 " />
<polyline fill="none" vector-effect="none" points="974.11,586.939 1106.79,586.939 " />
<polyline fill="none" vector-effect="none" points="729.159,586.939 861.841,586.939 " />
<polyline fill="none" vector-effect="none" points="484.209,586.939 616.89,586.939 " />
<polyline fill="none" vector-effect="none" points="239.258,586.939 371.94,586.939 " />
<polyline fill="none" vector-effect="none" points="53.0333,485.223 53.0333,586.939 126.989,586.939 " />
</g>

<g fill="#ffffff" fill-opacity="1" stroke="#ffffff" stroke-opacity="1" stroke-width="1" stroke-linecap="round" stroke-linejoin="bevel" transform="matrix(0.999371,0,0,0.998807,0,0)"
font-family="MS Shell Dlg 2" font-size="11" font-weight="400" font-style="normal" 
>
</g>

<g fill="#ffffff" fill-opacity="1" stroke="#ffffff" stroke-opacity="1" stroke-width="1" stroke-linecap="round" stroke-linejoin="bevel" transform="matrix(1,0,0,1,0,0)"
font-family="MS Shell Dlg 2" font-size="11" font-weight="400" font-style="normal" 
>
</g>

<g fill="none" stroke="#000000" stroke-opacity="1" stroke-width="1" stroke-linecap="square" stroke-linejoin="bevel" transform="matrix(1,0,0,1,0,0)"
font-family="MS Shell Dlg 2" font-size="11" font-weight="400" font-style="normal" 
>
</g>
</g>
</svg>
