<?xml version="1.0" encoding="UTF-8" standalone="no"?>
<svg width="420.952mm" height="221.721mm"
 viewBox="0 0 1591 838"
 xmlns="http://www.w3.org/2000/svg" xmlns:xlink="http://www.w3.org/1999/xlink"  version="1.2" baseProfile="tiny">
<title>Qt Svg Document</title>
<desc>Generated with Qt</desc>
<defs>
</defs>
<g fill="none" stroke="black" stroke-width="1" fill-rule="evenodd" stroke-linecap="square" stroke-linejoin="bevel" >

<g fill="none" stroke="#000000" stroke-opacity="1" stroke-width="1" stroke-linecap="square" stroke-linejoin="bevel" transform="matrix(1,0,0,1,0,0)"
font-family="MS Shell Dlg 2" font-size="11" font-weight="400" font-style="normal" 
>
</g>

<g fill="#000000" fill-opacity="1" stroke="none" transform="matrix(1,0,0,1,0,0)"
font-family="MS Shell Dlg 2" font-size="11" font-weight="400" font-style="normal" 
>
<path vector-effect="non-scaling-stroke" fill-rule="evenodd" d="M0,0 L1591,0 L1591,838 L0,838 L0,0"/>
</g>

<g fill="none" stroke="#000000" stroke-opacity="1" stroke-width="1" stroke-linecap="square" stroke-linejoin="bevel" transform="matrix(1,0,0,1,0,0)"
font-family="MS Shell Dlg 2" font-size="11" font-weight="400" font-style="normal" 
>
</g>

<g fill="#000000" fill-opacity="1" stroke="#000000" stroke-opacity="1" stroke-width="1" stroke-linecap="square" stroke-linejoin="bevel" transform="matrix(0.999371,0,0,0.998807,0,0)"
font-family="MS Shell Dlg 2" font-size="11" font-weight="400" font-style="normal" 
>
</g>

<g fill="#ffffff" fill-opacity="1" stroke="#ffffff" stroke-opacity="1" stroke-width="1" stroke-linecap="round" stroke-linejoin="bevel" transform="matrix(0.999371,0,0,0.998807,0,0)"
font-family="MS Shell Dlg 2" font-size="11" font-weight="400" font-style="normal" 
>
<polyline fill="none" vector-effect="none" points="1100.23,689.022 1100.23,763.511 1100.21,765.232 1100.15,766.951 1100.05,768.669 1099.91,770.384 1099.73,772.095 1099.51,773.802 1099.26,775.504 1098.96,777.198 1098.62,778.886 1098.25,780.565 1097.84,782.236 1097.38,783.896 1096.89,785.545 1096.37,787.183 1095.8,788.808 1095.2,790.42 1094.56,792.017 1093.88,793.599 1093.17,795.165 1092.42,796.714 1091.63,798.245 1090.81,799.758 1089.96,801.251 1089.07,802.724 1088.15,804.177 1087.19,805.607 1086.2,807.016 1085.18,808.401 1084.13,809.762 1083.05,811.098 1081.93,812.409 1080.79,813.694 1079.61,814.952 1078.41,816.183 1077.18,817.385 1075.92,818.559 1074.64,819.703 1073.33,820.818 1071.99,821.902 1070.63,822.955 1069.24,823.976 1067.83,824.964 1066.4,825.92 1064.95,826.843 1063.48,827.732 1061.99,828.586 1060.47,829.406 1058.94,830.191 1057.39,830.94 1055.83,831.653 1054.24,832.33 1052.65,832.97 1051.04,833.573 1049.41,834.139 1047.77,834.666 1046.12,835.156 1044.46,835.608 1042.79,836.021 1041.11,836.396 1039.43,836.732 1037.73,837.028 1036.03,837.286 1034.32,837.504 1032.61,837.682 1030.9,837.821 1029.18,837.921 1027.46,837.98 1025.74,838 957.175,838 " />
<polyline fill="none" vector-effect="none" points="957.175,838 952.86,836.631 948.534,835.299 944.197,834.004 939.848,832.746 935.489,831.526 931.12,830.343 926.741,829.197 " />
<polyline fill="none" vector-effect="none" points="633.825,838 565.262,838 563.541,837.98 561.821,837.921 560.104,837.821 558.389,837.682 556.677,837.504 554.971,837.286 553.269,837.028 551.574,836.732 549.887,836.396 548.207,836.021 546.537,835.608 544.877,835.156 543.227,834.666 541.59,834.139 539.965,833.573 538.353,832.97 536.756,832.33 535.174,831.653 533.608,830.94 532.059,830.191 530.528,829.406 529.015,828.586 527.522,827.732 526.048,826.843 524.596,825.92 523.165,824.964 521.757,823.976 520.372,822.955 519.011,821.902 517.675,820.818 516.364,819.703 515.079,818.559 513.821,817.385 512.59,816.183 511.387,814.952 510.214,813.694 509.069,812.409 507.955,811.098 506.871,809.762 505.818,808.401 504.797,807.016 503.808,805.607 502.853,804.177 501.93,802.724 501.041,801.251 500.186,799.758 499.367,798.245 498.582,796.714 497.833,795.165 497.12,793.599 496.443,792.017 495.803,790.42 495.2,788.808 494.634,787.183 494.106,785.545 493.616,783.896 493.165,782.236 492.751,780.565 492.377,778.886 492.041,777.198 491.744,775.504 491.487,773.802 491.269,772.095 491.09,770.384 490.952,768.669 490.852,766.951 490.793,765.232 490.773,763.511 490.773,689.022 " />
<polyline fill="none" vector-effect="none" points="689.692,796.404 689.692,736.424 901.308,736.424 901.308,796.404 " />
<polyline fill="none" vector-effect="none" points="664.259,829.197 659.88,830.343 655.511,831.526 651.152,832.746 646.803,834.004 642.466,835.299 638.14,836.631 633.825,838 " />
<polyline fill="none" vector-effect="none" points="664.259,829.197 665.364,828.894 666.457,828.553 667.538,828.175 668.606,827.761 669.659,827.311 670.697,826.826 671.717,826.306 672.72,825.751 673.702,825.163 674.665,824.543 675.606,823.89 676.524,823.205 677.419,822.49 678.289,821.745 679.133,820.971 679.95,820.169 680.74,819.34 681.502,818.484 682.234,817.603 682.936,816.698 683.607,815.77 684.246,814.82 684.852,813.848 685.426,812.857 685.965,811.847 686.47,810.819 686.94,809.774 687.375,808.714 687.773,807.641 688.135,806.554 688.46,805.456 688.747,804.347 688.997,803.229 689.209,802.104 689.382,800.972 689.518,799.834 689.614,798.693 689.673,797.549 689.692,796.404 " />
<polyline fill="none" vector-effect="none" points="901.308,796.404 901.327,797.549 901.386,798.693 901.482,799.834 901.618,800.972 901.791,802.104 902.003,803.229 902.253,804.347 902.54,805.456 902.865,806.554 903.227,807.641 903.625,808.714 904.06,809.774 904.53,810.819 905.035,811.847 905.574,812.857 906.148,813.848 906.754,814.82 907.393,815.77 908.064,816.698 908.766,817.603 909.498,818.484 910.26,819.34 911.05,820.169 911.867,820.971 912.711,821.745 913.581,822.49 914.476,823.205 915.394,823.89 916.335,824.543 917.298,825.163 918.28,825.751 919.283,826.306 920.303,826.826 921.341,827.311 922.394,827.761 923.462,828.175 924.543,828.553 925.636,828.894 926.741,829.197 " />
<polyline fill="none" vector-effect="none" points="1032.51,734.731 1033.03,734.711 1033.54,734.652 1034.05,734.553 1034.55,734.416 1035.04,734.24 1035.51,734.028 1035.97,733.78 1036.41,733.498 1036.82,733.184 1037.21,732.839 1037.57,732.465 1037.9,732.065 1038.19,731.64 1038.46,731.195 1038.69,730.73 1038.88,730.249 1039.04,729.754 1039.16,729.249 1039.24,728.736 1039.28,728.219 1039.28,727.7 1039.24,727.183 1039.16,726.67 1039.04,726.165 1038.88,725.671 1038.69,725.189 1038.46,724.725 1038.19,724.279 1037.9,723.854 1037.57,723.454 1037.21,723.08 1036.82,722.735 1036.41,722.421 1035.97,722.139 1035.51,721.891 1035.04,721.679 1034.55,721.503 1034.05,721.366 1033.54,721.267 1033.03,721.208 1032.51,721.188 1031.25,721.207 1030,721.265 1028.75,721.362 1027.5,721.498 1026.26,721.672 1025.02,721.884 1023.79,722.135 1022.57,722.424 1021.35,722.75 1020.15,723.113 1018.96,723.513 1017.78,723.95 1016.62,724.424 1015.47,724.932 1014.34,725.477 1013.23,726.055 1012.13,726.668 1011.05,727.315 1010,727.994 1008.96,728.706 1007.95,729.45 1006.96,730.224 1006,731.028 1005.06,731.862 1004.15,732.725 1003.26,733.615 1002.41,734.533 1001.58,735.476 1000.78,736.444 1000.01,737.437 999.27,738.453 998.564,739.491 997.89,740.551 997.25,741.631 996.643,742.73 996.07,743.848 995.532,744.983 995.029,746.133 994.563,747.299 994.132,748.479 993.738,749.671 993.381,750.875 993.062,752.089 992.78,753.313 992.536,754.545 992.33,755.783 992.163,757.028 992.034,758.277 992.009,758.795 992.023,759.314 992.077,759.83 992.171,760.34 992.303,760.842 992.473,761.332 992.68,761.807 992.923,762.266 993.2,762.704 993.51,763.12 993.851,763.511 994.221,763.874 994.618,764.209 995.039,764.512 995.482,764.781 995.945,765.017 996.424,765.216 996.917,765.377 997.42,765.501 997.932,765.586 998.449,765.631 998.968,765.636 999.485,765.602 999.999,765.528 1000.51,765.416 1001,765.264 1001.48,765.076 1001.95,764.85 1002.4,764.59 1002.83,764.296 1003.23,763.97 1003.61,763.615 1003.96,763.231 1004.28,762.822 1004.56,762.389 1004.82,761.936 1005.03,761.465 1005.21,760.979 1005.36,760.48 1005.46,759.972 1005.53,759.457 1005.64,758.433 1005.78,757.413 1005.97,756.4 1006.2,755.395 1006.46,754.399 1006.76,753.413 1007.1,752.44 1007.47,751.48 1007.88,750.536 1008.33,749.607 1008.81,748.697 1009.33,747.805 1009.88,746.934 1010.46,746.084 1011.08,745.257 1011.72,744.454 1012.4,743.676 1013.1,742.924 1013.83,742.199 1014.59,741.503 1015.38,740.837 1016.19,740.2 1017.02,739.595 1017.88,739.022 1018.76,738.482 1019.65,737.976 1020.57,737.505 1021.5,737.068 1022.45,736.668 1023.42,736.303 1024.39,735.976 1025.38,735.686 1026.38,735.434 1027.39,735.22 1028.4,735.044 1029.43,734.907 1030.45,734.81 1031.48,734.751 1032.51,734.731 " />
<polyline fill="none" vector-effect="none" points="558.49,734.731 557.972,734.711 557.456,734.652 556.947,734.553 556.447,734.416 555.959,734.24 555.485,734.028 555.029,733.78 554.594,733.498 554.181,733.184 553.794,732.839 553.434,732.465 553.104,732.065 552.806,731.64 552.541,731.195 552.311,730.73 552.117,730.249 551.96,729.754 551.842,729.249 551.763,728.736 551.723,728.219 551.723,727.7 551.763,727.183 551.842,726.67 551.96,726.165 552.117,725.671 552.311,725.189 552.541,724.725 552.806,724.279 553.104,723.854 553.434,723.454 553.794,723.08 554.181,722.735 554.594,722.421 555.029,722.139 555.485,721.891 555.959,721.679 556.447,721.503 556.947,721.366 557.456,721.267 557.972,721.208 558.49,721.188 559.745,721.207 561,721.265 562.252,721.362 563.5,721.498 564.744,721.672 565.981,721.884 567.212,722.135 568.434,722.424 569.647,722.75 570.848,723.113 572.039,723.513 573.216,723.95 574.379,724.424 575.527,724.932 576.659,725.477 577.773,726.055 578.869,726.668 579.945,727.315 581.001,727.994 582.036,728.706 583.048,729.45 584.036,730.224 585.001,731.028 585.939,731.862 586.852,732.725 587.737,733.615 588.595,734.533 589.424,735.476 590.223,736.444 590.992,737.437 591.73,738.453 592.436,739.491 593.11,740.551 593.75,741.631 594.357,742.73 594.93,743.848 595.468,744.983 595.971,746.133 596.437,747.299 596.868,748.479 597.262,749.671 597.619,750.875 597.938,752.089 598.22,753.313 598.464,754.545 598.67,755.783 598.837,757.028 598.966,758.277 598.991,758.795 598.977,759.314 598.923,759.83 598.829,760.34 598.697,760.842 598.527,761.332 598.32,761.807 598.077,762.266 597.8,762.704 597.49,763.12 597.149,763.511 596.779,763.874 596.382,764.209 595.961,764.512 595.518,764.781 595.055,765.017 594.576,765.216 594.083,765.377 593.58,765.501 593.068,765.586 592.551,765.631 592.032,765.636 591.515,765.602 591.001,765.528 590.495,765.416 589.999,765.264 589.515,765.076 589.048,764.85 588.599,764.59 588.172,764.296 587.768,763.97 587.391,763.615 587.041,763.231 586.723,762.822 586.436,762.389 586.183,761.936 585.966,761.465 585.786,760.979 585.643,760.48 585.539,759.972 585.474,759.457 585.364,758.433 585.216,757.413 585.029,756.4 584.804,755.395 584.541,754.399 584.24,753.413 583.902,752.44 583.526,751.48 583.115,750.536 582.668,749.607 582.186,748.697 581.67,747.805 581.121,746.934 580.538,746.084 579.924,745.257 579.279,744.454 578.603,743.676 577.899,742.924 577.166,742.199 576.406,741.503 575.621,740.837 574.811,740.2 573.977,739.595 573.12,739.022 572.243,738.482 571.345,737.976 570.429,737.505 569.496,737.068 568.547,736.668 567.583,736.303 566.606,735.976 565.618,735.686 564.619,735.434 563.611,735.22 562.595,735.044 561.574,734.907 560.549,734.81 559.52,734.751 558.49,734.731 " />
<polyline fill="none" vector-effect="none" points="928.395,257.891 928.375,257.408 928.316,256.928 928.218,256.455 928.082,255.991 927.909,255.54 927.699,255.104 927.454,254.687 927.177,254.292 926.868,253.92 926.529,253.575 926.164,253.258 925.774,252.972 925.362,252.719 924.931,252.501 924.484,252.318 924.023,252.173 923.551,252.065 923.073,251.996 922.591,251.967 922.107,251.977 921.626,252.026 921.151,252.114 920.685,252.241 920.23,252.405 919.79,252.606 919.369,252.842 918.967,253.111 918.589,253.413 918.237,253.744 917.913,254.103 917.62,254.487 917.359,254.893 917.131,255.32 916.939,255.764 916.784,256.221 916.667,256.69 916.589,257.167 916.549,257.649 916.549,258.132 916.589,258.614 916.667,259.091 916.784,259.56 916.939,260.018 917.131,260.462 917.359,260.888 917.62,261.295 917.913,261.679 918.237,262.038 918.589,262.369 918.967,262.67 919.369,262.94 919.79,263.176 920.23,263.376 920.685,263.541 921.151,263.667 921.626,263.756 922.107,263.805 922.591,263.815 923.073,263.785 923.551,263.716 924.023,263.609 924.484,263.463 924.931,263.28 925.362,263.062 925.774,262.809 926.164,262.523 926.529,262.207 926.868,261.861 927.177,261.49 927.454,261.094 927.699,260.677 927.909,260.242 928.082,259.791 928.218,259.327 928.316,258.853 928.375,258.374 928.395,257.891 " />
<polyline fill="none" vector-effect="none" points="928.395,105.527 928.375,105.044 928.316,104.564 928.218,104.091 928.082,103.627 927.909,103.176 927.699,102.741 927.454,102.324 927.177,101.928 926.868,101.556 926.529,101.211 926.164,100.895 925.774,100.609 925.362,100.356 924.931,100.137 924.484,99.9546 924.023,99.8089 923.551,99.7014 923.073,99.6326 922.591,99.603 922.107,99.6129 921.626,99.6621 921.151,99.7504 920.685,99.8771 920.23,100.041 919.79,100.242 919.369,100.478 918.967,100.748 918.589,101.049 918.237,101.38 917.913,101.739 917.62,102.123 917.359,102.53 917.131,102.956 916.939,103.4 916.784,103.858 916.667,104.327 916.589,104.804 916.549,105.285 916.549,105.769 916.589,106.25 916.667,106.727 916.784,107.196 916.939,107.654 917.131,108.098 917.359,108.525 917.62,108.931 917.913,109.315 918.237,109.674 918.589,110.005 918.967,110.306 919.369,110.576 919.79,110.812 920.23,111.013 920.685,111.177 921.151,111.304 921.626,111.392 922.107,111.441 922.591,111.451 923.073,111.422 923.551,111.353 924.023,111.245 924.484,111.1 924.931,110.917 925.362,110.698 925.774,110.445 926.164,110.16 926.529,109.843 926.868,109.498 927.177,109.126 927.454,108.73 927.699,108.314 927.909,107.878 928.082,107.427 928.218,106.963 928.316,106.49 928.375,106.01 928.395,105.527 " />
<polyline fill="none" vector-effect="none" points="928.395,181.709 928.375,181.226 928.316,180.746 928.218,180.273 928.082,179.809 927.909,179.358 927.699,178.922 927.454,178.505 927.177,178.11 926.868,177.738 926.529,177.393 926.164,177.076 925.774,176.791 925.362,176.538 924.931,176.319 924.484,176.136 924.023,175.991 923.551,175.883 923.073,175.814 922.591,175.785 922.107,175.795 921.626,175.844 921.151,175.932 920.685,176.059 920.23,176.223 919.79,176.424 919.369,176.66 918.967,176.929 918.589,177.231 918.237,177.562 917.913,177.921 917.62,178.305 917.359,178.711 917.131,179.138 916.939,179.582 916.784,180.04 916.667,180.508 916.589,180.985 916.549,181.467 916.549,181.951 916.589,182.432 916.667,182.909 916.784,183.378 916.939,183.836 917.131,184.28 917.359,184.706 917.62,185.113 917.913,185.497 918.237,185.856 918.589,186.187 918.967,186.488 919.369,186.758 919.79,186.994 920.23,187.195 920.685,187.359 921.151,187.486 921.626,187.574 922.107,187.623 922.591,187.633 923.073,187.603 923.551,187.535 924.023,187.427 924.484,187.281 924.931,187.099 925.362,186.88 925.774,186.627 926.164,186.341 926.529,186.025 926.868,185.68 927.177,185.308 927.454,184.912 927.699,184.495 927.909,184.06 928.082,183.609 928.218,183.145 928.316,182.672 928.375,182.192 928.395,181.709 " />
<polyline fill="none" vector-effect="none" points="911.466,617.919 911.446,617.436 911.387,616.956 911.289,616.483 911.153,616.019 910.979,615.568 910.77,615.133 910.525,614.716 910.247,614.32 909.938,613.948 909.6,613.603 909.235,613.287 908.845,613.001 908.433,612.748 908.002,612.529 907.554,612.347 907.093,612.201 906.622,612.094 906.144,612.025 905.661,611.995 905.178,612.005 904.697,612.054 904.222,612.142 903.755,612.269 903.301,612.433 902.861,612.634 902.439,612.87 902.038,613.14 901.66,613.441 901.308,613.772 900.984,614.131 900.691,614.515 900.429,614.922 900.202,615.348 900.01,615.792 899.855,616.25 899.738,616.719 899.659,617.196 899.62,617.678 899.62,618.161 899.659,618.643 899.738,619.12 899.855,619.589 900.01,620.046 900.202,620.49 900.429,620.917 900.691,621.323 900.984,621.707 901.308,622.066 901.66,622.397 902.038,622.699 902.439,622.968 902.861,623.204 903.301,623.405 903.755,623.569 904.222,623.696 904.697,623.784 905.178,623.833 905.661,623.843 906.144,623.814 906.622,623.745 907.093,623.637 907.554,623.492 908.002,623.309 908.433,623.09 908.845,622.837 909.235,622.552 909.6,622.235 909.938,621.89 910.247,621.518 910.525,621.123 910.77,620.706 910.979,620.27 911.153,619.819 911.289,619.355 911.387,618.882 911.446,618.402 911.466,617.919 " />
<polyline fill="none" vector-effect="none" points="911.466,465.556 911.446,465.073 911.387,464.593 911.289,464.12 911.153,463.656 910.979,463.205 910.77,462.769 910.525,462.352 910.247,461.956 909.938,461.585 909.6,461.24 909.235,460.923 908.845,460.637 908.433,460.384 908.002,460.166 907.554,459.983 907.093,459.837 906.622,459.73 906.144,459.661 905.661,459.632 905.178,459.641 904.697,459.691 904.222,459.779 903.755,459.906 903.301,460.07 902.861,460.271 902.439,460.507 902.038,460.776 901.66,461.078 901.308,461.409 900.984,461.767 900.691,462.151 900.429,462.558 900.202,462.985 900.01,463.428 899.855,463.886 899.738,464.355 899.659,464.832 899.62,465.314 899.62,465.797 899.659,466.279 899.738,466.756 899.855,467.225 900.01,467.683 900.202,468.126 900.429,468.553 900.691,468.96 900.984,469.344 901.308,469.702 901.66,470.034 902.038,470.335 902.439,470.605 902.861,470.84 903.301,471.041 903.755,471.206 904.222,471.332 904.697,471.42 905.178,471.47 905.661,471.48 906.144,471.45 906.622,471.381 907.093,471.274 907.554,471.128 908.002,470.945 908.433,470.727 908.845,470.474 909.235,470.188 909.6,469.872 909.938,469.526 910.247,469.155 910.525,468.759 910.77,468.342 910.979,467.907 911.153,467.455 911.289,466.992 911.387,466.518 911.446,466.039 911.466,465.556 " />
<polyline fill="none" vector-effect="none" points="911.466,541.737 911.446,541.254 911.387,540.775 911.289,540.301 911.153,539.838 910.979,539.386 910.77,538.951 910.525,538.534 910.247,538.138 909.938,537.767 909.6,537.421 909.235,537.105 908.845,536.819 908.433,536.566 908.002,536.348 907.554,536.165 907.093,536.019 906.622,535.912 906.144,535.843 905.661,535.813 905.178,535.823 904.697,535.872 904.222,535.961 903.755,536.087 903.301,536.252 902.861,536.452 902.439,536.688 902.038,536.958 901.66,537.259 901.308,537.591 900.984,537.949 900.691,538.333 900.429,538.74 900.202,539.167 900.01,539.61 899.855,540.068 899.738,540.537 899.659,541.014 899.62,541.496 899.62,541.979 899.659,542.461 899.738,542.938 899.855,543.407 900.01,543.865 900.202,544.308 900.429,544.735 900.691,545.141 900.984,545.525 901.308,545.884 901.66,546.215 902.038,546.517 902.439,546.786 902.861,547.022 903.301,547.223 903.755,547.387 904.222,547.514 904.697,547.602 905.178,547.652 905.661,547.661 906.144,547.632 906.622,547.563 907.093,547.455 907.554,547.31 908.002,547.127 908.433,546.909 908.845,546.656 909.235,546.37 909.6,546.053 909.938,545.708 910.247,545.336 910.525,544.941 910.77,544.524 910.979,544.088 911.153,543.637 911.289,543.173 911.387,542.7 911.446,542.22 911.466,541.737 " />
<polyline fill="none" vector-effect="none" points="691.385,617.919 691.365,617.436 691.306,616.956 691.208,616.483 691.072,616.019 690.898,615.568 690.689,615.133 690.444,614.716 690.167,614.32 689.858,613.948 689.519,613.603 689.154,613.287 688.764,613.001 688.352,612.748 687.921,612.529 687.474,612.347 687.013,612.201 686.541,612.094 686.063,612.025 685.58,611.995 685.097,612.005 684.616,612.054 684.141,612.142 683.675,612.269 683.22,612.433 682.78,612.634 682.359,612.87 681.957,613.14 681.579,613.441 681.227,613.772 680.903,614.131 680.61,614.515 680.348,614.922 680.121,615.348 679.929,615.792 679.774,616.25 679.657,616.719 679.579,617.196 679.539,617.678 679.539,618.161 679.579,618.643 679.657,619.12 679.774,619.589 679.929,620.046 680.121,620.49 680.348,620.917 680.61,621.323 680.903,621.707 681.227,622.066 681.579,622.397 681.957,622.699 682.359,622.968 682.78,623.204 683.22,623.405 683.675,623.569 684.141,623.696 684.616,623.784 685.097,623.833 685.58,623.843 686.063,623.814 686.541,623.745 687.013,623.637 687.474,623.492 687.921,623.309 688.352,623.09 688.764,622.837 689.154,622.552 689.519,622.235 689.858,621.89 690.167,621.518 690.444,621.123 690.689,620.706 690.898,620.27 691.072,619.819 691.208,619.355 691.306,618.882 691.365,618.402 691.385,617.919 " />
<polyline fill="none" vector-effect="none" points="691.385,465.556 691.365,465.073 691.306,464.593 691.208,464.12 691.072,463.656 690.898,463.205 690.689,462.769 690.444,462.352 690.167,461.956 689.858,461.585 689.519,461.24 689.154,460.923 688.764,460.637 688.352,460.384 687.921,460.166 687.474,459.983 687.013,459.837 686.541,459.73 686.063,459.661 685.58,459.632 685.097,459.641 684.616,459.691 684.141,459.779 683.675,459.906 683.22,460.07 682.78,460.271 682.359,460.507 681.957,460.776 681.579,461.078 681.227,461.409 680.903,461.767 680.61,462.151 680.348,462.558 680.121,462.985 679.929,463.428 679.774,463.886 679.657,464.355 679.579,464.832 679.539,465.314 679.539,465.797 679.579,466.279 679.657,466.756 679.774,467.225 679.929,467.683 680.121,468.126 680.348,468.553 680.61,468.96 680.903,469.344 681.227,469.702 681.579,470.034 681.957,470.335 682.359,470.605 682.78,470.84 683.22,471.041 683.675,471.206 684.141,471.332 684.616,471.42 685.097,471.47 685.58,471.48 686.063,471.45 686.541,471.381 687.013,471.274 687.474,471.128 687.921,470.945 688.352,470.727 688.764,470.474 689.154,470.188 689.519,469.872 689.858,469.526 690.167,469.155 690.444,468.759 690.689,468.342 690.898,467.907 691.072,467.455 691.208,466.992 691.306,466.518 691.365,466.039 691.385,465.556 " />
<polyline fill="none" vector-effect="none" points="691.385,541.737 691.365,541.254 691.306,540.775 691.208,540.301 691.072,539.838 690.898,539.386 690.689,538.951 690.444,538.534 690.167,538.138 689.858,537.767 689.519,537.421 689.154,537.105 688.764,536.819 688.352,536.566 687.921,536.348 687.474,536.165 687.013,536.019 686.541,535.912 686.063,535.843 685.58,535.813 685.097,535.823 684.616,535.872 684.141,535.961 683.675,536.087 683.22,536.252 682.78,536.452 682.359,536.688 681.957,536.958 681.579,537.259 681.227,537.591 680.903,537.949 680.61,538.333 680.348,538.74 680.121,539.167 679.929,539.61 679.774,540.068 679.657,540.537 679.579,541.014 679.539,541.496 679.539,541.979 679.579,542.461 679.657,542.938 679.774,543.407 679.929,543.865 680.121,544.308 680.348,544.735 680.61,545.141 680.903,545.525 681.227,545.884 681.579,546.215 681.957,546.517 682.359,546.786 682.78,547.022 683.22,547.223 683.675,547.387 684.141,547.514 684.616,547.602 685.097,547.652 685.58,547.661 686.063,547.632 686.541,547.563 687.013,547.455 687.474,547.31 687.921,547.127 688.352,546.909 688.764,546.656 689.154,546.37 689.519,546.053 689.858,545.708 690.167,545.336 690.444,544.941 690.689,544.524 690.898,544.088 691.072,543.637 691.208,543.173 691.306,542.7 691.365,542.22 691.385,541.737 " />
<polyline fill="none" vector-effect="none" points="674.456,257.891 674.436,257.408 674.377,256.928 674.279,256.455 674.143,255.991 673.969,255.54 673.759,255.104 673.515,254.687 673.237,254.292 672.928,253.92 672.59,253.575 672.225,253.258 671.835,252.972 671.423,252.719 670.992,252.501 670.544,252.318 670.083,252.173 669.612,252.065 669.134,251.996 668.651,251.967 668.168,251.977 667.687,252.026 667.212,252.114 666.745,252.241 666.291,252.405 665.851,252.606 665.429,252.842 665.028,253.111 664.65,253.413 664.298,253.744 663.974,254.103 663.68,254.487 663.419,254.893 663.192,255.32 663,255.764 662.845,256.221 662.728,256.69 662.649,257.167 662.61,257.649 662.61,258.132 662.649,258.614 662.728,259.091 662.845,259.56 663,260.018 663.192,260.462 663.419,260.888 663.68,261.295 663.974,261.679 664.298,262.038 664.65,262.369 665.028,262.67 665.429,262.94 665.851,263.176 666.291,263.376 666.745,263.541 667.212,263.667 667.687,263.756 668.168,263.805 668.651,263.815 669.134,263.785 669.612,263.716 670.083,263.609 670.544,263.463 670.992,263.28 671.423,263.062 671.835,262.809 672.225,262.523 672.59,262.207 672.928,261.861 673.237,261.49 673.515,261.094 673.759,260.677 673.969,260.242 674.143,259.791 674.279,259.327 674.377,258.853 674.436,258.374 674.456,257.891 " />
<polyline fill="none" vector-effect="none" points="674.456,105.527 674.436,105.044 674.377,104.564 674.279,104.091 674.143,103.627 673.969,103.176 673.759,102.741 673.515,102.324 673.237,101.928 672.928,101.556 672.59,101.211 672.225,100.895 671.835,100.609 671.423,100.356 670.992,100.137 670.544,99.9546 670.083,99.8089 669.612,99.7014 669.134,99.6326 668.651,99.603 668.168,99.6129 667.687,99.6621 667.212,99.7504 666.745,99.8771 666.291,100.041 665.851,100.242 665.429,100.478 665.028,100.748 664.65,101.049 664.298,101.38 663.974,101.739 663.68,102.123 663.419,102.53 663.192,102.956 663,103.4 662.845,103.858 662.728,104.327 662.649,104.804 662.61,105.285 662.61,105.769 662.649,106.25 662.728,106.727 662.845,107.196 663,107.654 663.192,108.098 663.419,108.525 663.68,108.931 663.974,109.315 664.298,109.674 664.65,110.005 665.028,110.306 665.429,110.576 665.851,110.812 666.291,111.013 666.745,111.177 667.212,111.304 667.687,111.392 668.168,111.441 668.651,111.451 669.134,111.422 669.612,111.353 670.083,111.245 670.544,111.1 670.992,110.917 671.423,110.698 671.835,110.445 672.225,110.16 672.59,109.843 672.928,109.498 673.237,109.126 673.515,108.73 673.759,108.314 673.969,107.878 674.143,107.427 674.279,106.963 674.377,106.49 674.436,106.01 674.456,105.527 " />
<polyline fill="none" vector-effect="none" points="674.456,181.709 674.436,181.226 674.377,180.746 674.279,180.273 674.143,179.809 673.969,179.358 673.759,178.922 673.515,178.505 673.237,178.11 672.928,177.738 672.59,177.393 672.225,177.076 671.835,176.791 671.423,176.538 670.992,176.319 670.544,176.136 670.083,175.991 669.612,175.883 669.134,175.814 668.651,175.785 668.168,175.795 667.687,175.844 667.212,175.932 666.745,176.059 666.291,176.223 665.851,176.424 665.429,176.66 665.028,176.929 664.65,177.231 664.298,177.562 663.974,177.921 663.68,178.305 663.419,178.711 663.192,179.138 663,179.582 662.845,180.04 662.728,180.508 662.649,180.985 662.61,181.467 662.61,181.951 662.649,182.432 662.728,182.909 662.845,183.378 663,183.836 663.192,184.28 663.419,184.706 663.68,185.113 663.974,185.497 664.298,185.856 664.65,186.187 665.028,186.488 665.429,186.758 665.851,186.994 666.291,187.195 666.745,187.359 667.212,187.486 667.687,187.574 668.168,187.623 668.651,187.633 669.134,187.603 669.612,187.535 670.083,187.427 670.544,187.281 670.992,187.099 671.423,186.88 671.835,186.627 672.225,186.341 672.59,186.025 672.928,185.68 673.237,185.308 673.515,184.912 673.759,184.495 673.969,184.06 674.143,183.609 674.279,183.145 674.377,182.672 674.436,182.192 674.456,181.709 " />
<polyline fill="none" vector-effect="none" points="665.991,688.176 665.971,687.693 665.912,687.213 665.814,686.74 665.678,686.276 665.505,685.825 665.295,685.389 665.05,684.972 664.773,684.577 664.464,684.205 664.125,683.86 663.76,683.543 663.37,683.258 662.958,683.005 662.527,682.786 662.08,682.603 661.619,682.458 661.147,682.35 660.669,682.281 660.187,682.252 659.703,682.262 659.222,682.311 658.747,682.399 658.281,682.526 657.826,682.69 657.386,682.891 656.965,683.127 656.563,683.396 656.185,683.698 655.833,684.029 655.509,684.388 655.216,684.772 654.955,685.178 654.727,685.605 654.535,686.049 654.38,686.506 654.263,686.975 654.185,687.452 654.145,687.934 654.145,688.417 654.185,688.899 654.263,689.376 654.38,689.845 654.535,690.303 654.727,690.747 654.955,691.173 655.216,691.58 655.509,691.964 655.833,692.323 656.185,692.654 656.563,692.955 656.965,693.225 657.386,693.461 657.826,693.661 658.281,693.826 658.747,693.952 659.222,694.041 659.703,694.09 660.187,694.1 660.669,694.07 661.147,694.001 661.619,693.894 662.08,693.748 662.527,693.566 662.958,693.347 663.37,693.094 663.76,692.808 664.125,692.492 664.464,692.147 664.773,691.775 665.05,691.379 665.295,690.962 665.505,690.527 665.678,690.076 665.814,689.612 665.912,689.138 665.971,688.659 665.991,688.176 " />
<polyline fill="none" vector-effect="none" points="716.779,688.176 716.759,687.693 716.7,687.213 716.602,686.74 716.466,686.276 716.292,685.825 716.083,685.389 715.838,684.972 715.56,684.577 715.251,684.205 714.913,683.86 714.548,683.543 714.158,683.258 713.746,683.005 713.315,682.786 712.867,682.603 712.407,682.458 711.935,682.35 711.457,682.281 710.974,682.252 710.491,682.262 710.01,682.311 709.535,682.399 709.069,682.526 708.614,682.69 708.174,682.891 707.752,683.127 707.351,683.396 706.973,683.698 706.621,684.029 706.297,684.388 706.004,684.772 705.742,685.178 705.515,685.605 705.323,686.049 705.168,686.506 705.051,686.975 704.973,687.452 704.933,687.934 704.933,688.417 704.973,688.899 705.051,689.376 705.168,689.845 705.323,690.303 705.515,690.747 705.742,691.173 706.004,691.58 706.297,691.964 706.621,692.323 706.973,692.654 707.351,692.955 707.752,693.225 708.174,693.461 708.614,693.661 709.069,693.826 709.535,693.952 710.01,694.041 710.491,694.09 710.974,694.1 711.457,694.07 711.935,694.001 712.407,693.894 712.867,693.748 713.315,693.566 713.746,693.347 714.158,693.094 714.548,692.808 714.913,692.492 715.251,692.147 715.56,691.775 715.838,691.379 716.083,690.962 716.292,690.527 716.466,690.076 716.602,689.612 716.7,689.138 716.759,688.659 716.779,688.176 " />
<polyline fill="none" vector-effect="none" points="886.072,688.176 886.052,687.693 885.993,687.213 885.895,686.74 885.759,686.276 885.585,685.825 885.376,685.389 885.131,684.972 884.853,684.577 884.544,684.205 884.206,683.86 883.841,683.543 883.451,683.258 883.039,683.005 882.608,682.786 882.16,682.603 881.699,682.458 881.228,682.35 880.75,682.281 880.267,682.252 879.784,682.262 879.303,682.311 878.828,682.399 878.362,682.526 877.907,682.69 877.467,682.891 877.045,683.127 876.644,683.396 876.266,683.698 875.914,684.029 875.59,684.388 875.297,684.772 875.035,685.178 874.808,685.605 874.616,686.049 874.461,686.506 874.344,686.975 874.266,687.452 874.226,687.934 874.226,688.417 874.266,688.899 874.344,689.376 874.461,689.845 874.616,690.303 874.808,690.747 875.035,691.173 875.297,691.58 875.59,691.964 875.914,692.323 876.266,692.654 876.644,692.955 877.045,693.225 877.467,693.461 877.907,693.661 878.362,693.826 878.828,693.952 879.303,694.041 879.784,694.09 880.267,694.1 880.75,694.07 881.228,694.001 881.699,693.894 882.16,693.748 882.608,693.566 883.039,693.347 883.451,693.094 883.841,692.808 884.206,692.492 884.544,692.147 884.853,691.775 885.131,691.379 885.376,690.962 885.585,690.527 885.759,690.076 885.895,689.612 885.993,689.138 886.052,688.659 886.072,688.176 " />
<polyline fill="none" vector-effect="none" points="936.86,688.176 936.84,687.693 936.781,687.213 936.683,686.74 936.547,686.276 936.373,685.825 936.164,685.389 935.919,684.972 935.641,684.577 935.332,684.205 934.994,683.86 934.629,683.543 934.239,683.258 933.827,683.005 933.396,682.786 932.948,682.603 932.487,682.458 932.016,682.35 931.538,682.281 931.055,682.252 930.572,682.262 930.091,682.311 929.616,682.399 929.149,682.526 928.695,682.69 928.255,682.891 927.833,683.127 927.432,683.396 927.054,683.698 926.702,684.029 926.378,684.388 926.085,684.772 925.823,685.178 925.596,685.605 925.404,686.049 925.249,686.506 925.132,686.975 925.053,687.452 925.014,687.934 925.014,688.417 925.053,688.899 925.132,689.376 925.249,689.845 925.404,690.303 925.596,690.747 925.823,691.173 926.085,691.58 926.378,691.964 926.702,692.323 927.054,692.654 927.432,692.955 927.833,693.225 928.255,693.461 928.695,693.661 929.149,693.826 929.616,693.952 930.091,694.041 930.572,694.09 931.055,694.1 931.538,694.07 932.016,694.001 932.487,693.894 932.948,693.748 933.396,693.566 933.827,693.347 934.239,693.094 934.629,692.808 934.994,692.492 935.332,692.147 935.641,691.775 935.919,691.379 936.164,690.962 936.373,690.527 936.547,690.076 936.683,689.612 936.781,689.138 936.84,688.659 936.86,688.176 " />
<polyline fill="none" vector-effect="none" points="665.991,395.299 665.971,394.816 665.912,394.336 665.814,393.863 665.678,393.399 665.505,392.948 665.295,392.513 665.05,392.096 664.773,391.7 664.464,391.328 664.125,390.983 663.76,390.666 663.37,390.381 662.958,390.128 662.527,389.909 662.08,389.726 661.619,389.581 661.147,389.473 660.669,389.405 660.187,389.375 659.703,389.385 659.222,389.434 658.747,389.522 658.281,389.649 657.826,389.813 657.386,390.014 656.965,390.25 656.563,390.52 656.185,390.821 655.833,391.152 655.509,391.511 655.216,391.895 654.955,392.302 654.727,392.728 654.535,393.172 654.38,393.63 654.263,394.099 654.185,394.576 654.145,395.057 654.145,395.541 654.185,396.022 654.263,396.499 654.38,396.968 654.535,397.426 654.727,397.87 654.955,398.296 655.216,398.703 655.509,399.087 655.833,399.446 656.185,399.777 656.563,400.078 656.965,400.348 657.386,400.584 657.826,400.785 658.281,400.949 658.747,401.076 659.222,401.164 659.703,401.213 660.187,401.223 660.669,401.193 661.147,401.125 661.619,401.017 662.08,400.871 662.527,400.689 662.958,400.47 663.37,400.217 663.76,399.932 664.125,399.615 664.464,399.27 664.773,398.898 665.05,398.502 665.295,398.085 665.505,397.65 665.678,397.199 665.814,396.735 665.912,396.262 665.971,395.782 665.991,395.299 " />
<polyline fill="none" vector-effect="none" points="716.779,395.299 716.759,394.816 716.7,394.336 716.602,393.863 716.466,393.399 716.292,392.948 716.083,392.513 715.838,392.096 715.56,391.7 715.251,391.328 714.913,390.983 714.548,390.666 714.158,390.381 713.746,390.128 713.315,389.909 712.867,389.726 712.407,389.581 711.935,389.473 711.457,389.405 710.974,389.375 710.491,389.385 710.01,389.434 709.535,389.522 709.069,389.649 708.614,389.813 708.174,390.014 707.752,390.25 707.351,390.52 706.973,390.821 706.621,391.152 706.297,391.511 706.004,391.895 705.742,392.302 705.515,392.728 705.323,393.172 705.168,393.63 705.051,394.099 704.973,394.576 704.933,395.057 704.933,395.541 704.973,396.022 705.051,396.499 705.168,396.968 705.323,397.426 705.515,397.87 705.742,398.296 706.004,398.703 706.297,399.087 706.621,399.446 706.973,399.777 707.351,400.078 707.752,400.348 708.174,400.584 708.614,400.785 709.069,400.949 709.535,401.076 710.01,401.164 710.491,401.213 710.974,401.223 711.457,401.193 711.935,401.125 712.407,401.017 712.867,400.871 713.315,400.689 713.746,400.47 714.158,400.217 714.548,399.932 714.913,399.615 715.251,399.27 715.56,398.898 715.838,398.502 716.083,398.085 716.292,397.65 716.466,397.199 716.602,396.735 716.7,396.262 716.759,395.782 716.779,395.299 " />
<polyline fill="none" vector-effect="none" points="886.072,395.299 886.052,394.816 885.993,394.336 885.895,393.863 885.759,393.399 885.585,392.948 885.376,392.513 885.131,392.096 884.853,391.7 884.544,391.328 884.206,390.983 883.841,390.666 883.451,390.381 883.039,390.128 882.608,389.909 882.16,389.726 881.699,389.581 881.228,389.473 880.75,389.405 880.267,389.375 879.784,389.385 879.303,389.434 878.828,389.522 878.362,389.649 877.907,389.813 877.467,390.014 877.045,390.25 876.644,390.52 876.266,390.821 875.914,391.152 875.59,391.511 875.297,391.895 875.035,392.302 874.808,392.728 874.616,393.172 874.461,393.63 874.344,394.099 874.266,394.576 874.226,395.057 874.226,395.541 874.266,396.022 874.344,396.499 874.461,396.968 874.616,397.426 874.808,397.87 875.035,398.296 875.297,398.703 875.59,399.087 875.914,399.446 876.266,399.777 876.644,400.078 877.045,400.348 877.467,400.584 877.907,400.785 878.362,400.949 878.828,401.076 879.303,401.164 879.784,401.213 880.267,401.223 880.75,401.193 881.228,401.125 881.699,401.017 882.16,400.871 882.608,400.689 883.039,400.47 883.451,400.217 883.841,399.932 884.206,399.615 884.544,399.27 884.853,398.898 885.131,398.502 885.376,398.085 885.585,397.65 885.759,397.199 885.895,396.735 885.993,396.262 886.052,395.782 886.072,395.299 " />
<polyline fill="none" vector-effect="none" points="936.86,395.299 936.84,394.816 936.781,394.336 936.683,393.863 936.547,393.399 936.373,392.948 936.164,392.513 935.919,392.096 935.641,391.7 935.332,391.328 934.994,390.983 934.629,390.666 934.239,390.381 933.827,390.128 933.396,389.909 932.948,389.726 932.487,389.581 932.016,389.473 931.538,389.405 931.055,389.375 930.572,389.385 930.091,389.434 929.616,389.522 929.149,389.649 928.695,389.813 928.255,390.014 927.833,390.25 927.432,390.52 927.054,390.821 926.702,391.152 926.378,391.511 926.085,391.895 925.823,392.302 925.596,392.728 925.404,393.172 925.249,393.63 925.132,394.099 925.053,394.576 925.014,395.057 925.014,395.541 925.053,396.022 925.132,396.499 925.249,396.968 925.404,397.426 925.596,397.87 925.823,398.296 926.085,398.703 926.378,399.087 926.702,399.446 927.054,399.777 927.432,400.078 927.833,400.348 928.255,400.584 928.695,400.785 929.149,400.949 929.616,401.076 930.091,401.164 930.572,401.213 931.055,401.223 931.538,401.193 932.016,401.125 932.487,401.017 932.948,400.871 933.396,400.689 933.827,400.47 934.239,400.217 934.629,399.932 934.994,399.615 935.332,399.27 935.641,398.898 935.919,398.502 936.164,398.085 936.373,397.65 936.547,397.199 936.683,396.735 936.781,396.262 936.84,395.782 936.86,395.299 " />
<polyline fill="none" vector-effect="none" points="716.779,328.147 716.759,327.664 716.7,327.185 716.602,326.711 716.466,326.247 716.292,325.796 716.083,325.361 715.838,324.944 715.56,324.548 715.251,324.177 714.913,323.831 714.548,323.515 714.158,323.229 713.746,322.976 713.315,322.757 712.867,322.575 712.407,322.429 711.935,322.322 711.457,322.253 710.974,322.223 710.491,322.233 710.01,322.282 709.535,322.371 709.069,322.497 708.614,322.662 708.174,322.862 707.752,323.098 707.351,323.368 706.973,323.669 706.621,324 706.297,324.359 706.004,324.743 705.742,325.15 705.515,325.576 705.323,326.02 705.168,326.478 705.051,326.947 704.973,327.424 704.933,327.906 704.933,328.389 704.973,328.871 705.051,329.348 705.168,329.817 705.323,330.274 705.515,330.718 705.742,331.145 706.004,331.551 706.297,331.935 706.621,332.294 706.973,332.625 707.351,332.927 707.752,333.196 708.174,333.432 708.614,333.633 709.069,333.797 709.535,333.924 710.01,334.012 710.491,334.061 710.974,334.071 711.457,334.042 711.935,333.973 712.407,333.865 712.867,333.72 713.315,333.537 713.746,333.318 714.158,333.066 714.548,332.78 714.913,332.463 715.251,332.118 715.56,331.746 715.838,331.351 716.083,330.934 716.292,330.498 716.466,330.047 716.602,329.583 716.7,329.11 716.759,328.63 716.779,328.147 " />
<polyline fill="none" vector-effect="none" points="886.072,328.147 886.052,327.664 885.993,327.185 885.895,326.711 885.759,326.247 885.585,325.796 885.376,325.361 885.131,324.944 884.853,324.548 884.544,324.177 884.206,323.831 883.841,323.515 883.451,323.229 883.039,322.976 882.608,322.757 882.16,322.575 881.699,322.429 881.228,322.322 880.75,322.253 880.267,322.223 879.784,322.233 879.303,322.282 878.828,322.371 878.362,322.497 877.907,322.662 877.467,322.862 877.045,323.098 876.644,323.368 876.266,323.669 875.914,324 875.59,324.359 875.297,324.743 875.035,325.15 874.808,325.576 874.616,326.02 874.461,326.478 874.344,326.947 874.266,327.424 874.226,327.906 874.226,328.389 874.266,328.871 874.344,329.348 874.461,329.817 874.616,330.274 874.808,330.718 875.035,331.145 875.297,331.551 875.59,331.935 875.914,332.294 876.266,332.625 876.644,332.927 877.045,333.196 877.467,333.432 877.907,333.633 878.362,333.797 878.828,333.924 879.303,334.012 879.784,334.061 880.267,334.071 880.75,334.042 881.228,333.973 881.699,333.865 882.16,333.72 882.608,333.537 883.039,333.318 883.451,333.066 883.841,332.78 884.206,332.463 884.544,332.118 884.853,331.746 885.131,331.351 885.376,330.934 885.585,330.498 885.759,330.047 885.895,329.583 885.993,329.11 886.052,328.63 886.072,328.147 " />
<polyline fill="none" vector-effect="none" points="716.779,35.2705 716.759,34.7875 716.7,34.3078 716.602,33.8344 716.466,33.3706 716.292,32.9195 716.083,32.484 715.838,32.0671 715.56,31.6714 715.251,31.2997 714.913,30.9545 714.548,30.6379 714.158,30.3522 713.746,30.0993 713.315,29.8807 712.867,29.698 712.407,29.5524 711.935,29.4448 711.457,29.376 710.974,29.3465 710.491,29.3563 710.01,29.4055 709.535,29.4938 709.069,29.6205 708.614,29.7848 708.174,29.9856 707.752,30.2215 707.351,30.4911 706.973,30.7925 706.621,31.1237 706.297,31.4824 706.004,31.8664 705.742,32.273 705.515,32.6996 705.323,33.1433 705.168,33.6012 705.051,34.0701 704.973,34.547 704.933,35.0288 704.933,35.5122 704.973,35.9939 705.051,36.4709 705.168,36.9398 705.323,37.3977 705.515,37.8414 705.742,38.2679 706.004,38.6746 706.297,39.0586 706.621,39.4173 706.973,39.7485 707.351,40.0499 707.752,40.3194 708.174,40.5554 708.614,40.7562 709.069,40.9205 709.535,41.0472 710.01,41.1354 710.491,41.1846 710.974,41.1945 711.457,41.1649 711.935,41.0962 712.407,40.9886 712.867,40.843 713.315,40.6603 713.746,40.4417 714.158,40.1887 714.548,39.903 714.913,39.5865 715.251,39.2412 715.56,38.8696 715.838,38.4739 716.083,38.057 716.292,37.6215 716.466,37.1703 716.602,36.7065 716.7,36.2332 716.759,35.7535 716.779,35.2705 " />
<polyline fill="none" vector-effect="none" points="886.072,35.2705 886.052,34.7875 885.993,34.3078 885.895,33.8344 885.759,33.3706 885.585,32.9195 885.376,32.484 885.131,32.0671 884.853,31.6714 884.544,31.2997 884.206,30.9545 883.841,30.6379 883.451,30.3522 883.039,30.0993 882.608,29.8807 882.16,29.698 881.699,29.5524 881.228,29.4448 880.75,29.376 880.267,29.3465 879.784,29.3563 879.303,29.4055 878.828,29.4938 878.362,29.6205 877.907,29.7848 877.467,29.9856 877.045,30.2215 876.644,30.4911 876.266,30.7925 875.914,31.1237 875.59,31.4824 875.297,31.8664 875.035,32.273 874.808,32.6996 874.616,33.1433 874.461,33.6012 874.344,34.0701 874.266,34.547 874.226,35.0288 874.226,35.5122 874.266,35.9939 874.344,36.4709 874.461,36.9398 874.616,37.3977 874.808,37.8414 875.035,38.2679 875.297,38.6746 875.59,39.0586 875.914,39.4173 876.266,39.7485 876.644,40.0499 877.045,40.3194 877.467,40.5554 877.907,40.7562 878.362,40.9205 878.828,41.0472 879.303,41.1354 879.784,41.1846 880.267,41.1945 880.75,41.1649 881.228,41.0962 881.699,40.9886 882.16,40.843 882.608,40.6603 883.039,40.4417 883.451,40.1887 883.841,39.903 884.206,39.5865 884.544,39.2412 884.853,38.8696 885.131,38.4739 885.376,38.057 885.585,37.6215 885.759,37.1703 885.895,36.7065 885.993,36.2332 886.052,35.7535 886.072,35.2705 " />
<polyline fill="none" vector-effect="none" points="622.821,0 968.179,0 " />
<polyline fill="none" vector-effect="none" points="490.773,689.022 493.936,681.018 497.063,672.999 500.153,664.965 503.205,656.918 506.22,648.856 509.198,640.781 512.139,632.692 515.042,624.59 517.908,616.474 520.736,608.345 523.527,600.203 526.28,592.048 528.995,583.881 531.673,575.701 534.313,567.509 536.915,559.304 539.479,551.088 542.005,542.86 544.493,534.621 546.943,526.37 549.355,518.108 551.729,509.835 554.064,501.551 556.361,493.256 558.62,484.951 560.841,476.635 563.023,468.309 565.166,459.973 567.271,451.628 569.338,443.273 571.365,434.908 573.355,426.534 575.305,418.151 577.217,409.759 579.09,401.358 580.924,392.949 582.719,384.531 584.476,376.106 586.193,367.672 587.872,359.23 589.511,350.781 591.112,342.324 592.673,333.86 594.196,325.388 595.679,316.91 597.123,308.425 598.528,299.934 599.893,291.436 601.219,282.932 602.506,274.421 603.754,265.905 604.963,257.384 606.131,248.856 607.261,240.324 608.351,231.786 609.402,223.244 610.413,214.696 611.385,206.145 612.317,197.588 613.21,189.028 614.063,180.463 614.877,171.895 615.651,163.323 616.385,154.747 617.08,146.168 617.736,137.586 618.351,129.001 618.927,120.414 619.463,111.823 619.96,103.231 620.417,94.6359 620.834,86.0391 621.212,77.4404 621.549,68.8401 621.847,60.2383 622.106,51.6352 622.324,43.031 622.503,34.4259 622.642,25.8201 622.742,17.2137 622.801,8.60694 622.821,2.27374e-13 " />
<polyline fill="none" vector-effect="none" points="968.179,-3.7726e-13 968.199,8.60694 968.258,17.2137 968.358,25.8201 968.497,34.4259 968.676,43.031 968.894,51.6352 969.153,60.2383 969.451,68.8401 969.788,77.4404 970.166,86.0391 970.583,94.6359 971.04,103.231 971.537,111.823 972.073,120.414 972.649,129.001 973.264,137.586 973.92,146.168 974.615,154.747 975.349,163.323 976.123,171.895 976.937,180.463 977.79,189.028 978.683,197.588 979.615,206.145 980.587,214.696 981.598,223.244 982.649,231.786 983.739,240.324 984.869,248.856 986.037,257.384 987.246,265.905 988.494,274.421 989.781,282.932 991.107,291.436 992.472,299.934 993.877,308.425 995.321,316.91 996.804,325.388 998.327,333.86 999.888,342.324 1001.49,350.781 1003.13,359.23 1004.81,367.672 1006.52,376.106 1008.28,384.531 1010.08,392.949 1011.91,401.358 1013.78,409.759 1015.69,418.151 1017.65,426.534 1019.63,434.908 1021.66,443.273 1023.73,451.628 1025.83,459.973 1027.98,468.309 1030.16,476.635 1032.38,484.951 1034.64,493.256 1036.94,501.551 1039.27,509.835 1041.65,518.108 1044.06,526.37 1046.51,534.621 1048.99,542.86 1051.52,551.088 1054.09,559.304 1056.69,567.509 1059.33,575.701 1062,583.881 1064.72,592.048 1067.47,600.203 1070.26,608.345 1073.09,616.474 1075.96,624.59 1078.86,632.692 1081.8,640.781 1084.78,648.856 1087.8,656.918 1090.85,664.965 1093.94,672.999 1097.06,681.018 1100.23,689.022 " />
</g>

<g fill="#ffffff" fill-opacity="1" stroke="#ffffff" stroke-opacity="1" stroke-width="1" stroke-linecap="round" stroke-linejoin="bevel" transform="matrix(0.999371,0,0,0.998807,0,0)"
font-family="MS Shell Dlg 2" font-size="11" font-weight="400" font-style="normal" 
>
</g>

<g fill="#ffffff" fill-opacity="1" stroke="#ffffff" stroke-opacity="1" stroke-width="1" stroke-linecap="round" stroke-linejoin="bevel" transform="matrix(1,0,0,1,0,0)"
font-family="MS Shell Dlg 2" font-size="11" font-weight="400" font-style="normal" 
>
</g>

<g fill="none" stroke="#000000" stroke-opacity="1" stroke-width="1" stroke-linecap="square" stroke-linejoin="bevel" transform="matrix(1,0,0,1,0,0)"
font-family="MS Shell Dlg 2" font-size="11" font-weight="400" font-style="normal" 
>
</g>
</g>
</svg>
