<?xml version="1.0" encoding="UTF-8" standalone="no"?>
<svg width="420.952mm" height="221.721mm"
 viewBox="0 0 1591 838"
 xmlns="http://www.w3.org/2000/svg" xmlns:xlink="http://www.w3.org/1999/xlink"  version="1.2" baseProfile="tiny">
<title>Qt Svg Document</title>
<desc>Generated with Qt</desc>
<defs>
</defs>
<g fill="none" stroke="black" stroke-width="1" fill-rule="evenodd" stroke-linecap="square" stroke-linejoin="bevel" >

<g fill="none" stroke="#000000" stroke-opacity="1" stroke-width="1" stroke-linecap="square" stroke-linejoin="bevel" transform="matrix(1,0,0,1,0,0)"
font-family="MS Shell Dlg 2" font-size="11" font-weight="400" font-style="normal" 
>
</g>

<g fill="#000000" fill-opacity="1" stroke="none" transform="matrix(1,0,0,1,0,0)"
font-family="MS Shell Dlg 2" font-size="11" font-weight="400" font-style="normal" 
>
<path vector-effect="non-scaling-stroke" fill-rule="evenodd" d="M0,0 L1591,0 L1591,838 L0,838 L0,0"/>
</g>

<g fill="none" stroke="#000000" stroke-opacity="1" stroke-width="1" stroke-linecap="square" stroke-linejoin="bevel" transform="matrix(1,0,0,1,0,0)"
font-family="MS Shell Dlg 2" font-size="11" font-weight="400" font-style="normal" 
>
</g>

<g fill="#000000" fill-opacity="1" stroke="#000000" stroke-opacity="1" stroke-width="1" stroke-linecap="square" stroke-linejoin="bevel" transform="matrix(0.999371,0,0,0.998807,0,0)"
font-family="MS Shell Dlg 2" font-size="11" font-weight="400" font-style="normal" 
>
</g>

<g fill="#ffffff" fill-opacity="1" stroke="#ffffff" stroke-opacity="1" stroke-width="1" stroke-linecap="round" stroke-linejoin="bevel" transform="matrix(0.999371,0,0,0.998807,0,0)"
font-family="MS Shell Dlg 2" font-size="11" font-weight="400" font-style="normal" 
>
<polyline fill="none" vector-effect="none" points="490.773,148.978 490.773,74.4889 490.793,72.7684 490.852,71.0487 490.952,69.331 491.09,67.6159 491.269,65.9046 491.487,64.1978 491.744,62.4965 492.041,60.8016 492.377,59.114 492.751,57.4346 493.165,55.7643 493.616,54.104 494.106,52.4546 494.634,50.817 495.2,49.1919 495.803,47.5804 496.443,45.9832 497.12,44.4013 497.833,42.8354 498.582,41.2863 499.367,39.755 500.186,38.2423 501.041,36.7488 501.93,35.2755 502.853,33.8232 503.808,32.3925 504.797,30.9843 505.818,29.5993 506.871,28.2383 507.955,26.9019 509.069,25.5909 510.214,24.306 511.387,23.0479 512.59,21.8173 513.821,20.6147 515.079,19.4409 516.364,18.2965 517.675,17.1821 519.011,16.0982 520.372,15.0455 521.757,14.0245 523.165,13.0357 524.596,12.0798 526.048,11.1572 527.522,10.2683 529.015,9.41373 530.528,8.59387 532.059,7.80917 533.608,7.06005 535.174,6.34691 536.756,5.67013 538.353,5.03007 539.965,4.42707 541.59,3.86146 543.227,3.33353 544.877,2.84357 546.537,2.39183 548.207,1.97857 549.887,1.604 551.574,1.26831 553.269,0.971702 554.971,0.714316 556.677,0.496296 558.389,0.317756 560.104,0.178794 561.821,0.0794815 563.541,0.019873 565.262,-8.52651e-14 1025.74,0 1027.46,0.019873 1029.18,0.0794815 1030.9,0.178794 1032.61,0.317756 1034.32,0.496296 1036.03,0.714316 1037.73,0.971702 1039.43,1.26831 1041.11,1.604 1042.79,1.97857 1044.46,2.39183 1046.12,2.84357 1047.77,3.33353 1049.41,3.86146 1051.04,4.42707 1052.65,5.03007 1054.24,5.67013 1055.83,6.34691 1057.39,7.06005 1058.94,7.80917 1060.47,8.59387 1061.99,9.41373 1063.48,10.2683 1064.95,11.1572 1066.4,12.0798 1067.83,13.0357 1069.24,14.0245 1070.63,15.0455 1071.99,16.0982 1073.33,17.1821 1074.64,18.2965 1075.92,19.4409 1077.18,20.6147 1078.41,21.8173 1079.61,23.0479 1080.79,24.306 1081.93,25.5909 1083.05,26.9019 1084.13,28.2383 1085.18,29.5993 1086.2,30.9843 1087.19,32.3925 1088.15,33.8232 1089.07,35.2755 1089.96,36.7488 1090.81,38.2423 1091.63,39.755 1092.42,41.2863 1093.17,42.8354 1093.88,44.4013 1094.56,45.9832 1095.2,47.5804 1095.8,49.1919 1096.37,50.817 1096.89,52.4546 1097.38,54.104 1097.84,55.7643 1098.25,57.4346 1098.62,59.114 1098.96,60.8016 1099.26,62.4965 1099.51,64.1978 1099.73,65.9046 1099.91,67.6159 1100.05,69.331 1100.15,71.0487 1100.21,72.7684 1100.23,74.4889 1100.23,148.978 " />
<polyline fill="none" vector-effect="none" points="558.49,103.269 557.972,103.289 557.456,103.348 556.947,103.447 556.447,103.584 555.959,103.76 555.485,103.972 555.029,104.22 554.594,104.502 554.181,104.816 553.794,105.161 553.434,105.535 553.104,105.935 552.806,106.36 552.541,106.805 552.311,107.27 552.117,107.751 551.96,108.246 551.842,108.751 551.763,109.264 551.723,109.781 551.723,110.3 551.763,110.817 551.842,111.33 551.96,111.835 552.117,112.329 552.311,112.811 552.541,113.275 552.806,113.721 553.104,114.146 553.434,114.546 553.794,114.92 554.181,115.265 554.594,115.579 555.029,115.861 555.485,116.109 555.959,116.321 556.447,116.497 556.947,116.634 557.456,116.733 557.972,116.792 558.49,116.812 559.745,116.793 561,116.735 562.252,116.638 563.5,116.502 564.744,116.328 565.981,116.116 567.212,115.865 568.434,115.576 569.647,115.25 570.848,114.887 572.039,114.487 573.216,114.05 574.379,113.576 575.527,113.068 576.659,112.523 577.773,111.945 578.869,111.332 579.945,110.685 581.001,110.006 582.036,109.294 583.048,108.55 584.036,107.776 585.001,106.972 585.939,106.138 586.852,105.275 587.737,104.385 588.595,103.467 589.424,102.524 590.223,101.556 590.992,100.563 591.73,99.5469 592.436,98.5085 593.11,97.4489 593.75,96.3689 594.357,95.2696 594.93,94.1521 595.468,93.0175 595.971,91.8667 596.437,90.701 596.868,89.5214 597.262,88.3291 597.619,87.1252 597.938,85.9108 598.22,84.6871 598.464,83.4553 598.67,82.2166 598.837,80.9721 598.966,79.723 598.991,79.2049 598.977,78.6863 598.923,78.1704 598.829,77.6601 598.697,77.1584 598.527,76.6684 598.32,76.1928 598.077,75.7345 597.8,75.2961 597.49,74.8802 597.149,74.4892 596.779,74.1256 596.382,73.7913 595.961,73.4883 595.518,73.2185 595.055,72.9834 594.576,72.7844 594.083,72.6226 593.58,72.499 593.068,72.4144 592.551,72.3692 592.032,72.3637 591.515,72.3979 591.001,72.4716 590.495,72.5844 589.999,72.7357 589.515,72.9244 589.048,73.1497 588.599,73.41 588.172,73.7039 587.768,74.0297 587.391,74.3854 587.041,74.769 586.723,75.1782 586.436,75.6106 586.183,76.0636 585.966,76.5347 585.786,77.021 585.643,77.5197 585.539,78.0279 585.474,78.5426 585.364,79.5671 585.216,80.5867 585.029,81.5999 584.804,82.6053 584.541,83.6013 584.24,84.5867 583.902,85.5599 583.526,86.5195 583.115,87.4642 582.668,88.3925 582.186,89.3032 581.67,90.1949 581.121,91.0663 580.538,91.9162 579.924,92.7433 579.279,93.5464 578.603,94.3245 577.899,95.0763 577.166,95.8007 576.406,96.4968 575.621,97.1634 574.811,97.7998 573.977,98.4048 573.12,98.9777 572.243,99.5176 571.345,100.024 570.429,100.495 569.496,100.932 568.547,101.332 567.583,101.697 566.606,102.024 565.618,102.314 564.619,102.566 563.611,102.78 562.595,102.956 561.574,103.093 560.549,103.19 559.52,103.249 558.49,103.269 " />
<polyline fill="none" vector-effect="none" points="1032.51,103.269 1033.03,103.289 1033.54,103.348 1034.05,103.447 1034.55,103.584 1035.04,103.76 1035.51,103.972 1035.97,104.22 1036.41,104.502 1036.82,104.816 1037.21,105.161 1037.57,105.535 1037.9,105.935 1038.19,106.36 1038.46,106.805 1038.69,107.27 1038.88,107.751 1039.04,108.246 1039.16,108.751 1039.24,109.264 1039.28,109.781 1039.28,110.3 1039.24,110.817 1039.16,111.33 1039.04,111.835 1038.88,112.329 1038.69,112.811 1038.46,113.275 1038.19,113.721 1037.9,114.146 1037.57,114.546 1037.21,114.92 1036.82,115.265 1036.41,115.579 1035.97,115.861 1035.51,116.109 1035.04,116.321 1034.55,116.497 1034.05,116.634 1033.54,116.733 1033.03,116.792 1032.51,116.812 1031.25,116.793 1030,116.735 1028.75,116.638 1027.5,116.502 1026.26,116.328 1025.02,116.116 1023.79,115.865 1022.57,115.576 1021.35,115.25 1020.15,114.887 1018.96,114.487 1017.78,114.05 1016.62,113.576 1015.47,113.068 1014.34,112.523 1013.23,111.945 1012.13,111.332 1011.05,110.685 1010,110.006 1008.96,109.294 1007.95,108.55 1006.96,107.776 1006,106.972 1005.06,106.138 1004.15,105.275 1003.26,104.385 1002.41,103.467 1001.58,102.524 1000.78,101.556 1000.01,100.563 999.27,99.5469 998.564,98.5085 997.89,97.4489 997.25,96.3689 996.643,95.2696 996.07,94.1521 995.532,93.0175 995.029,91.8667 994.563,90.701 994.132,89.5214 993.738,88.3291 993.381,87.1252 993.062,85.9108 992.78,84.6871 992.536,83.4553 992.33,82.2166 992.163,80.9721 992.034,79.723 992.009,79.2049 992.023,78.6863 992.077,78.1704 992.171,77.6601 992.303,77.1584 992.473,76.6684 992.68,76.1928 992.923,75.7345 993.2,75.2961 993.51,74.8802 993.851,74.4892 994.221,74.1256 994.618,73.7913 995.039,73.4883 995.482,73.2185 995.945,72.9834 996.424,72.7844 996.917,72.6226 997.42,72.499 997.932,72.4144 998.449,72.3692 998.968,72.3637 999.485,72.3979 999.999,72.4716 1000.51,72.5844 1001,72.7357 1001.48,72.9244 1001.95,73.1497 1002.4,73.41 1002.83,73.7039 1003.23,74.0297 1003.61,74.3854 1003.96,74.769 1004.28,75.1782 1004.56,75.6106 1004.82,76.0636 1005.03,76.5347 1005.21,77.021 1005.36,77.5197 1005.46,78.0279 1005.53,78.5426 1005.64,79.5671 1005.78,80.5867 1005.97,81.5999 1006.2,82.6053 1006.46,83.6013 1006.76,84.5867 1007.1,85.5599 1007.47,86.5195 1007.88,87.4642 1008.33,88.3925 1008.81,89.3032 1009.33,90.1949 1009.88,91.0663 1010.46,91.9162 1011.08,92.7433 1011.72,93.5464 1012.4,94.3245 1013.1,95.0763 1013.83,95.8007 1014.59,96.4968 1015.38,97.1634 1016.19,97.7998 1017.02,98.4048 1017.88,98.9777 1018.76,99.5176 1019.65,100.024 1020.57,100.495 1021.5,100.932 1022.45,101.332 1023.42,101.697 1024.39,102.024 1025.38,102.314 1026.38,102.566 1027.39,102.78 1028.4,102.956 1029.43,103.093 1030.45,103.19 1031.48,103.249 1032.51,103.269 " />
<polyline fill="none" vector-effect="none" points="691.385,372.444 691.365,371.961 691.306,371.482 691.208,371.008 691.072,370.545 690.898,370.093 690.689,369.658 690.444,369.241 690.167,368.845 689.858,368.474 689.519,368.128 689.154,367.812 688.764,367.526 688.352,367.273 687.921,367.055 687.474,366.872 687.013,366.726 686.541,366.619 686.063,366.55 685.58,366.52 685.097,366.53 684.616,366.58 684.141,366.668 683.675,366.794 683.22,366.959 682.78,367.16 682.359,367.395 681.957,367.665 681.579,367.966 681.227,368.298 680.903,368.656 680.61,369.04 680.348,369.447 680.121,369.874 679.929,370.317 679.774,370.775 679.657,371.244 679.579,371.721 679.539,372.203 679.539,372.686 679.579,373.168 679.657,373.645 679.774,374.114 679.929,374.572 680.121,375.015 680.348,375.442 680.61,375.849 680.903,376.233 681.227,376.591 681.579,376.922 681.957,377.224 682.359,377.493 682.78,377.729 683.22,377.93 683.675,378.094 684.141,378.221 684.616,378.309 685.097,378.359 685.58,378.368 686.063,378.339 686.541,378.27 687.013,378.163 687.474,378.017 687.921,377.834 688.352,377.616 688.764,377.363 689.154,377.077 689.519,376.76 689.858,376.415 690.167,376.044 690.444,375.648 690.689,375.231 690.898,374.795 691.072,374.344 691.208,373.88 691.306,373.407 691.365,372.927 691.385,372.444 " />
<polyline fill="none" vector-effect="none" points="691.385,220.081 691.365,219.598 691.306,219.118 691.208,218.645 691.072,218.181 690.898,217.73 690.689,217.294 690.444,216.877 690.167,216.482 689.858,216.11 689.519,215.765 689.154,215.448 688.764,215.163 688.352,214.91 687.921,214.691 687.474,214.508 687.013,214.363 686.541,214.255 686.063,214.186 685.58,214.157 685.097,214.167 684.616,214.216 684.141,214.304 683.675,214.431 683.22,214.595 682.78,214.796 682.359,215.032 681.957,215.301 681.579,215.603 681.227,215.934 680.903,216.293 680.61,216.677 680.348,217.083 680.121,217.51 679.929,217.954 679.774,218.411 679.657,218.88 679.579,219.357 679.539,219.839 679.539,220.322 679.579,220.804 679.657,221.281 679.774,221.75 679.929,222.208 680.121,222.652 680.348,223.078 680.61,223.485 680.903,223.869 681.227,224.228 681.579,224.559 681.957,224.86 682.359,225.13 682.78,225.366 683.22,225.567 683.675,225.731 684.141,225.858 684.616,225.946 685.097,225.995 685.58,226.005 686.063,225.975 686.541,225.906 687.013,225.799 687.474,225.653 687.921,225.471 688.352,225.252 688.764,224.999 689.154,224.713 689.519,224.397 689.858,224.052 690.167,223.68 690.444,223.284 690.689,222.867 690.898,222.432 691.072,221.981 691.208,221.517 691.306,221.044 691.365,220.564 691.385,220.081 " />
<polyline fill="none" vector-effect="none" points="691.385,296.263 691.365,295.78 691.306,295.3 691.208,294.827 691.072,294.363 690.898,293.912 690.689,293.476 690.444,293.059 690.167,292.664 689.858,292.292 689.519,291.947 689.154,291.63 688.764,291.344 688.352,291.091 687.921,290.873 687.474,290.69 687.013,290.545 686.541,290.437 686.063,290.368 685.58,290.339 685.097,290.348 684.616,290.398 684.141,290.486 683.675,290.613 683.22,290.777 682.78,290.978 682.359,291.214 681.957,291.483 681.579,291.785 681.227,292.116 680.903,292.475 680.61,292.859 680.348,293.265 680.121,293.692 679.929,294.135 679.774,294.593 679.657,295.062 679.579,295.539 679.539,296.021 679.539,296.504 679.579,296.986 679.657,297.463 679.774,297.932 679.929,298.39 680.121,298.833 680.348,299.26 680.61,299.667 680.903,300.051 681.227,300.409 681.579,300.741 681.957,301.042 682.359,301.312 682.78,301.548 683.22,301.748 683.675,301.913 684.141,302.039 684.616,302.128 685.097,302.177 685.58,302.187 686.063,302.157 686.541,302.088 687.013,301.981 687.474,301.835 687.921,301.652 688.352,301.434 688.764,301.181 689.154,300.895 689.519,300.579 689.858,300.233 690.167,299.862 690.444,299.466 690.689,299.049 690.898,298.614 691.072,298.162 691.208,297.699 691.306,297.225 691.365,296.746 691.385,296.263 " />
<polyline fill="none" vector-effect="none" points="911.466,372.444 911.446,371.961 911.387,371.482 911.289,371.008 911.153,370.545 910.979,370.093 910.77,369.658 910.525,369.241 910.247,368.845 909.938,368.474 909.6,368.128 909.235,367.812 908.845,367.526 908.433,367.273 908.002,367.055 907.554,366.872 907.093,366.726 906.622,366.619 906.144,366.55 905.661,366.52 905.178,366.53 904.697,366.58 904.222,366.668 903.755,366.794 903.301,366.959 902.861,367.16 902.439,367.395 902.038,367.665 901.66,367.966 901.308,368.298 900.984,368.656 900.691,369.04 900.429,369.447 900.202,369.874 900.01,370.317 899.855,370.775 899.738,371.244 899.659,371.721 899.62,372.203 899.62,372.686 899.659,373.168 899.738,373.645 899.855,374.114 900.01,374.572 900.202,375.015 900.429,375.442 900.691,375.849 900.984,376.233 901.308,376.591 901.66,376.922 902.038,377.224 902.439,377.493 902.861,377.729 903.301,377.93 903.755,378.094 904.222,378.221 904.697,378.309 905.178,378.359 905.661,378.368 906.144,378.339 906.622,378.27 907.093,378.163 907.554,378.017 908.002,377.834 908.433,377.616 908.845,377.363 909.235,377.077 909.6,376.76 909.938,376.415 910.247,376.044 910.525,375.648 910.77,375.231 910.979,374.795 911.153,374.344 911.289,373.88 911.387,373.407 911.446,372.927 911.466,372.444 " />
<polyline fill="none" vector-effect="none" points="911.466,220.081 911.446,219.598 911.387,219.118 911.289,218.645 911.153,218.181 910.979,217.73 910.77,217.294 910.525,216.877 910.247,216.482 909.938,216.11 909.6,215.765 909.235,215.448 908.845,215.163 908.433,214.91 908.002,214.691 907.554,214.508 907.093,214.363 906.622,214.255 906.144,214.186 905.661,214.157 905.178,214.167 904.697,214.216 904.222,214.304 903.755,214.431 903.301,214.595 902.861,214.796 902.439,215.032 902.038,215.301 901.66,215.603 901.308,215.934 900.984,216.293 900.691,216.677 900.429,217.083 900.202,217.51 900.01,217.954 899.855,218.411 899.738,218.88 899.659,219.357 899.62,219.839 899.62,220.322 899.659,220.804 899.738,221.281 899.855,221.75 900.01,222.208 900.202,222.652 900.429,223.078 900.691,223.485 900.984,223.869 901.308,224.228 901.66,224.559 902.038,224.86 902.439,225.13 902.861,225.366 903.301,225.567 903.755,225.731 904.222,225.858 904.697,225.946 905.178,225.995 905.661,226.005 906.144,225.975 906.622,225.906 907.093,225.799 907.554,225.653 908.002,225.471 908.433,225.252 908.845,224.999 909.235,224.713 909.6,224.397 909.938,224.052 910.247,223.68 910.525,223.284 910.77,222.867 910.979,222.432 911.153,221.981 911.289,221.517 911.387,221.044 911.446,220.564 911.466,220.081 " />
<polyline fill="none" vector-effect="none" points="911.466,296.263 911.446,295.78 911.387,295.3 911.289,294.827 911.153,294.363 910.979,293.912 910.77,293.476 910.525,293.059 910.247,292.664 909.938,292.292 909.6,291.947 909.235,291.63 908.845,291.344 908.433,291.091 908.002,290.873 907.554,290.69 907.093,290.545 906.622,290.437 906.144,290.368 905.661,290.339 905.178,290.348 904.697,290.398 904.222,290.486 903.755,290.613 903.301,290.777 902.861,290.978 902.439,291.214 902.038,291.483 901.66,291.785 901.308,292.116 900.984,292.475 900.691,292.859 900.429,293.265 900.202,293.692 900.01,294.135 899.855,294.593 899.738,295.062 899.659,295.539 899.62,296.021 899.62,296.504 899.659,296.986 899.738,297.463 899.855,297.932 900.01,298.39 900.202,298.833 900.429,299.26 900.691,299.667 900.984,300.051 901.308,300.409 901.66,300.741 902.038,301.042 902.439,301.312 902.861,301.548 903.301,301.748 903.755,301.913 904.222,302.039 904.697,302.128 905.178,302.177 905.661,302.187 906.144,302.157 906.622,302.088 907.093,301.981 907.554,301.835 908.002,301.652 908.433,301.434 908.845,301.181 909.235,300.895 909.6,300.579 909.938,300.233 910.247,299.862 910.525,299.466 910.77,299.049 910.979,298.614 911.153,298.162 911.289,297.699 911.387,297.225 911.446,296.746 911.466,296.263 " />
<polyline fill="none" vector-effect="none" points="928.395,732.473 928.375,731.99 928.316,731.51 928.218,731.037 928.082,730.573 927.909,730.122 927.699,729.686 927.454,729.27 927.177,728.874 926.868,728.502 926.529,728.157 926.164,727.84 925.774,727.555 925.362,727.302 924.931,727.083 924.484,726.9 924.023,726.755 923.551,726.647 923.073,726.578 922.591,726.549 922.107,726.559 921.626,726.608 921.151,726.696 920.685,726.823 920.23,726.987 919.79,727.188 919.369,727.424 918.967,727.694 918.589,727.995 918.237,728.326 917.913,728.685 917.62,729.069 917.359,729.475 917.131,729.902 916.939,730.346 916.784,730.804 916.667,731.273 916.589,731.75 916.549,732.231 916.549,732.715 916.589,733.196 916.667,733.673 916.784,734.142 916.939,734.6 917.131,735.044 917.359,735.47 917.62,735.877 917.913,736.261 918.237,736.62 918.589,736.951 918.967,737.252 919.369,737.522 919.79,737.758 920.23,737.959 920.685,738.123 921.151,738.25 921.626,738.338 922.107,738.387 922.591,738.397 923.073,738.367 923.551,738.299 924.023,738.191 924.484,738.045 924.931,737.863 925.362,737.644 925.774,737.391 926.164,737.105 926.529,736.789 926.868,736.444 927.177,736.072 927.454,735.676 927.699,735.259 927.909,734.824 928.082,734.373 928.218,733.909 928.316,733.436 928.375,732.956 928.395,732.473 " />
<polyline fill="none" vector-effect="none" points="928.395,580.109 928.375,579.626 928.316,579.147 928.218,578.673 928.082,578.209 927.909,577.758 927.699,577.323 927.454,576.906 927.177,576.51 926.868,576.139 926.529,575.793 926.164,575.477 925.774,575.191 925.362,574.938 924.931,574.72 924.484,574.537 924.023,574.391 923.551,574.284 923.073,574.215 922.591,574.185 922.107,574.195 921.626,574.244 921.151,574.333 920.685,574.459 920.23,574.624 919.79,574.824 919.369,575.06 918.967,575.33 918.589,575.631 918.237,575.962 917.913,576.321 917.62,576.705 917.359,577.112 917.131,577.538 916.939,577.982 916.784,578.44 916.667,578.909 916.589,579.386 916.549,579.868 916.549,580.351 916.589,580.833 916.667,581.31 916.784,581.779 916.939,582.236 917.131,582.68 917.359,583.107 917.62,583.513 917.913,583.897 918.237,584.256 918.589,584.587 918.967,584.889 919.369,585.158 919.79,585.394 920.23,585.595 920.685,585.759 921.151,585.886 921.626,585.974 922.107,586.023 922.591,586.033 923.073,586.004 923.551,585.935 924.023,585.827 924.484,585.682 924.931,585.499 925.362,585.281 925.774,585.028 926.164,584.742 926.529,584.425 926.868,584.08 927.177,583.708 927.454,583.313 927.699,582.896 927.909,582.46 928.082,582.009 928.218,581.545 928.316,581.072 928.375,580.592 928.395,580.109 " />
<polyline fill="none" vector-effect="none" points="928.395,656.291 928.375,655.808 928.316,655.328 928.218,654.855 928.082,654.391 927.909,653.94 927.699,653.505 927.454,653.088 927.177,652.692 926.868,652.32 926.529,651.975 926.164,651.659 925.774,651.373 925.362,651.12 924.931,650.901 924.484,650.719 924.023,650.573 923.551,650.465 923.073,650.397 922.591,650.367 922.107,650.377 921.626,650.426 921.151,650.514 920.685,650.641 920.23,650.805 919.79,651.006 919.369,651.242 918.967,651.512 918.589,651.813 918.237,652.144 917.913,652.503 917.62,652.887 917.359,653.294 917.131,653.72 916.939,654.164 916.784,654.622 916.667,655.091 916.589,655.568 916.549,656.049 916.549,656.533 916.589,657.015 916.667,657.492 916.784,657.96 916.939,658.418 917.131,658.862 917.359,659.289 917.62,659.695 917.913,660.079 918.237,660.438 918.589,660.769 918.967,661.071 919.369,661.34 919.79,661.576 920.23,661.777 920.685,661.941 921.151,662.068 921.626,662.156 922.107,662.205 922.591,662.215 923.073,662.186 923.551,662.117 924.023,662.009 924.484,661.864 924.931,661.681 925.362,661.462 925.774,661.209 926.164,660.924 926.529,660.607 926.868,660.262 927.177,659.89 927.454,659.495 927.699,659.078 927.909,658.642 928.082,658.191 928.218,657.727 928.316,657.254 928.375,656.774 928.395,656.291 " />
<polyline fill="none" vector-effect="none" points="674.456,732.473 674.436,731.99 674.377,731.51 674.279,731.037 674.143,730.573 673.969,730.122 673.759,729.686 673.515,729.27 673.237,728.874 672.928,728.502 672.59,728.157 672.225,727.84 671.835,727.555 671.423,727.302 670.992,727.083 670.544,726.9 670.083,726.755 669.612,726.647 669.134,726.578 668.651,726.549 668.168,726.559 667.687,726.608 667.212,726.696 666.745,726.823 666.291,726.987 665.851,727.188 665.429,727.424 665.028,727.694 664.65,727.995 664.298,728.326 663.974,728.685 663.68,729.069 663.419,729.475 663.192,729.902 663,730.346 662.845,730.804 662.728,731.273 662.649,731.75 662.61,732.231 662.61,732.715 662.649,733.196 662.728,733.673 662.845,734.142 663,734.6 663.192,735.044 663.419,735.47 663.68,735.877 663.974,736.261 664.298,736.62 664.65,736.951 665.028,737.252 665.429,737.522 665.851,737.758 666.291,737.959 666.745,738.123 667.212,738.25 667.687,738.338 668.168,738.387 668.651,738.397 669.134,738.367 669.612,738.299 670.083,738.191 670.544,738.045 670.992,737.863 671.423,737.644 671.835,737.391 672.225,737.105 672.59,736.789 672.928,736.444 673.237,736.072 673.515,735.676 673.759,735.259 673.969,734.824 674.143,734.373 674.279,733.909 674.377,733.436 674.436,732.956 674.456,732.473 " />
<polyline fill="none" vector-effect="none" points="674.456,580.109 674.436,579.626 674.377,579.147 674.279,578.673 674.143,578.209 673.969,577.758 673.759,577.323 673.515,576.906 673.237,576.51 672.928,576.139 672.59,575.793 672.225,575.477 671.835,575.191 671.423,574.938 670.992,574.72 670.544,574.537 670.083,574.391 669.612,574.284 669.134,574.215 668.651,574.185 668.168,574.195 667.687,574.244 667.212,574.333 666.745,574.459 666.291,574.624 665.851,574.824 665.429,575.06 665.028,575.33 664.65,575.631 664.298,575.962 663.974,576.321 663.68,576.705 663.419,577.112 663.192,577.538 663,577.982 662.845,578.44 662.728,578.909 662.649,579.386 662.61,579.868 662.61,580.351 662.649,580.833 662.728,581.31 662.845,581.779 663,582.236 663.192,582.68 663.419,583.107 663.68,583.513 663.974,583.897 664.298,584.256 664.65,584.587 665.028,584.889 665.429,585.158 665.851,585.394 666.291,585.595 666.745,585.759 667.212,585.886 667.687,585.974 668.168,586.023 668.651,586.033 669.134,586.004 669.612,585.935 670.083,585.827 670.544,585.682 670.992,585.499 671.423,585.281 671.835,585.028 672.225,584.742 672.59,584.425 672.928,584.08 673.237,583.708 673.515,583.313 673.759,582.896 673.969,582.46 674.143,582.009 674.279,581.545 674.377,581.072 674.436,580.592 674.456,580.109 " />
<polyline fill="none" vector-effect="none" points="674.456,656.291 674.436,655.808 674.377,655.328 674.279,654.855 674.143,654.391 673.969,653.94 673.759,653.505 673.515,653.088 673.237,652.692 672.928,652.32 672.59,651.975 672.225,651.659 671.835,651.373 671.423,651.12 670.992,650.901 670.544,650.719 670.083,650.573 669.612,650.465 669.134,650.397 668.651,650.367 668.168,650.377 667.687,650.426 667.212,650.514 666.745,650.641 666.291,650.805 665.851,651.006 665.429,651.242 665.028,651.512 664.65,651.813 664.298,652.144 663.974,652.503 663.68,652.887 663.419,653.294 663.192,653.72 663,654.164 662.845,654.622 662.728,655.091 662.649,655.568 662.61,656.049 662.61,656.533 662.649,657.015 662.728,657.492 662.845,657.96 663,658.418 663.192,658.862 663.419,659.289 663.68,659.695 663.974,660.079 664.298,660.438 664.65,660.769 665.028,661.071 665.429,661.34 665.851,661.576 666.291,661.777 666.745,661.941 667.212,662.068 667.687,662.156 668.168,662.205 668.651,662.215 669.134,662.186 669.612,662.117 670.083,662.009 670.544,661.864 670.992,661.681 671.423,661.462 671.835,661.209 672.225,660.924 672.59,660.607 672.928,660.262 673.237,659.89 673.515,659.495 673.759,659.078 673.969,658.642 674.143,658.191 674.279,657.727 674.377,657.254 674.436,656.774 674.456,656.291 " />
<polyline fill="none" vector-effect="none" points="665.991,149.824 665.971,149.341 665.912,148.862 665.814,148.388 665.678,147.924 665.505,147.473 665.295,147.038 665.05,146.621 664.773,146.225 664.464,145.853 664.125,145.508 663.76,145.192 663.37,144.906 662.958,144.653 662.527,144.434 662.08,144.252 661.619,144.106 661.147,143.999 660.669,143.93 660.187,143.9 659.703,143.91 659.222,143.959 658.747,144.048 658.281,144.174 657.826,144.339 657.386,144.539 656.965,144.775 656.563,145.045 656.185,145.346 655.833,145.677 655.509,146.036 655.216,146.42 654.955,146.827 654.727,147.253 654.535,147.697 654.38,148.155 654.263,148.624 654.185,149.101 654.145,149.583 654.145,150.066 654.185,150.548 654.263,151.025 654.38,151.494 654.535,151.951 654.727,152.395 654.955,152.822 655.216,153.228 655.509,153.612 655.833,153.971 656.185,154.302 656.563,154.604 656.965,154.873 657.386,155.109 657.826,155.31 658.281,155.474 658.747,155.601 659.222,155.689 659.703,155.738 660.187,155.748 660.669,155.719 661.147,155.65 661.619,155.542 662.08,155.397 662.527,155.214 662.958,154.995 663.37,154.742 663.76,154.457 664.125,154.14 664.464,153.795 664.773,153.423 665.05,153.028 665.295,152.611 665.505,152.175 665.678,151.724 665.814,151.26 665.912,150.787 665.971,150.307 665.991,149.824 " />
<polyline fill="none" vector-effect="none" points="716.779,149.824 716.759,149.341 716.7,148.862 716.602,148.388 716.466,147.924 716.292,147.473 716.083,147.038 715.838,146.621 715.56,146.225 715.251,145.853 714.913,145.508 714.548,145.192 714.158,144.906 713.746,144.653 713.315,144.434 712.867,144.252 712.407,144.106 711.935,143.999 711.457,143.93 710.974,143.9 710.491,143.91 710.01,143.959 709.535,144.048 709.069,144.174 708.614,144.339 708.174,144.539 707.752,144.775 707.351,145.045 706.973,145.346 706.621,145.677 706.297,146.036 706.004,146.42 705.742,146.827 705.515,147.253 705.323,147.697 705.168,148.155 705.051,148.624 704.973,149.101 704.933,149.583 704.933,150.066 704.973,150.548 705.051,151.025 705.168,151.494 705.323,151.951 705.515,152.395 705.742,152.822 706.004,153.228 706.297,153.612 706.621,153.971 706.973,154.302 707.351,154.604 707.752,154.873 708.174,155.109 708.614,155.31 709.069,155.474 709.535,155.601 710.01,155.689 710.491,155.738 710.974,155.748 711.457,155.719 711.935,155.65 712.407,155.542 712.867,155.397 713.315,155.214 713.746,154.995 714.158,154.742 714.548,154.457 714.913,154.14 715.251,153.795 715.56,153.423 715.838,153.028 716.083,152.611 716.292,152.175 716.466,151.724 716.602,151.26 716.7,150.787 716.759,150.307 716.779,149.824 " />
<polyline fill="none" vector-effect="none" points="886.072,149.824 886.052,149.341 885.993,148.862 885.895,148.388 885.759,147.924 885.585,147.473 885.376,147.038 885.131,146.621 884.853,146.225 884.544,145.853 884.206,145.508 883.841,145.192 883.451,144.906 883.039,144.653 882.608,144.434 882.16,144.252 881.699,144.106 881.228,143.999 880.75,143.93 880.267,143.9 879.784,143.91 879.303,143.959 878.828,144.048 878.362,144.174 877.907,144.339 877.467,144.539 877.045,144.775 876.644,145.045 876.266,145.346 875.914,145.677 875.59,146.036 875.297,146.42 875.035,146.827 874.808,147.253 874.616,147.697 874.461,148.155 874.344,148.624 874.266,149.101 874.226,149.583 874.226,150.066 874.266,150.548 874.344,151.025 874.461,151.494 874.616,151.951 874.808,152.395 875.035,152.822 875.297,153.228 875.59,153.612 875.914,153.971 876.266,154.302 876.644,154.604 877.045,154.873 877.467,155.109 877.907,155.31 878.362,155.474 878.828,155.601 879.303,155.689 879.784,155.738 880.267,155.748 880.75,155.719 881.228,155.65 881.699,155.542 882.16,155.397 882.608,155.214 883.039,154.995 883.451,154.742 883.841,154.457 884.206,154.14 884.544,153.795 884.853,153.423 885.131,153.028 885.376,152.611 885.585,152.175 885.759,151.724 885.895,151.26 885.993,150.787 886.052,150.307 886.072,149.824 " />
<polyline fill="none" vector-effect="none" points="936.86,149.824 936.84,149.341 936.781,148.862 936.683,148.388 936.547,147.924 936.373,147.473 936.164,147.038 935.919,146.621 935.641,146.225 935.332,145.853 934.994,145.508 934.629,145.192 934.239,144.906 933.827,144.653 933.396,144.434 932.948,144.252 932.487,144.106 932.016,143.999 931.538,143.93 931.055,143.9 930.572,143.91 930.091,143.959 929.616,144.048 929.149,144.174 928.695,144.339 928.255,144.539 927.833,144.775 927.432,145.045 927.054,145.346 926.702,145.677 926.378,146.036 926.085,146.42 925.823,146.827 925.596,147.253 925.404,147.697 925.249,148.155 925.132,148.624 925.053,149.101 925.014,149.583 925.014,150.066 925.053,150.548 925.132,151.025 925.249,151.494 925.404,151.951 925.596,152.395 925.823,152.822 926.085,153.228 926.378,153.612 926.702,153.971 927.054,154.302 927.432,154.604 927.833,154.873 928.255,155.109 928.695,155.31 929.149,155.474 929.616,155.601 930.091,155.689 930.572,155.738 931.055,155.748 931.538,155.719 932.016,155.65 932.487,155.542 932.948,155.397 933.396,155.214 933.827,154.995 934.239,154.742 934.629,154.457 934.994,154.14 935.332,153.795 935.641,153.423 935.919,153.028 936.164,152.611 936.373,152.175 936.547,151.724 936.683,151.26 936.781,150.787 936.84,150.307 936.86,149.824 " />
<polyline fill="none" vector-effect="none" points="665.991,442.701 665.971,442.218 665.912,441.738 665.814,441.265 665.678,440.801 665.505,440.35 665.295,439.915 665.05,439.498 664.773,439.102 664.464,438.73 664.125,438.385 663.76,438.068 663.37,437.783 662.958,437.53 662.527,437.311 662.08,437.129 661.619,436.983 661.147,436.875 660.669,436.807 660.187,436.777 659.703,436.787 659.222,436.836 658.747,436.924 658.281,437.051 657.826,437.215 657.386,437.416 656.965,437.652 656.563,437.922 656.185,438.223 655.833,438.554 655.509,438.913 655.216,439.297 654.955,439.704 654.727,440.13 654.535,440.574 654.38,441.032 654.263,441.501 654.185,441.978 654.145,442.459 654.145,442.943 654.185,443.424 654.263,443.901 654.38,444.37 654.535,444.828 654.727,445.272 654.955,445.698 655.216,446.105 655.509,446.489 655.833,446.848 656.185,447.179 656.563,447.48 656.965,447.75 657.386,447.986 657.826,448.187 658.281,448.351 658.747,448.478 659.222,448.566 659.703,448.615 660.187,448.625 660.669,448.595 661.147,448.527 661.619,448.419 662.08,448.274 662.527,448.091 662.958,447.872 663.37,447.619 663.76,447.334 664.125,447.017 664.464,446.672 664.773,446.3 665.05,445.904 665.295,445.487 665.505,445.052 665.678,444.601 665.814,444.137 665.912,443.664 665.971,443.184 665.991,442.701 " />
<polyline fill="none" vector-effect="none" points="716.779,442.701 716.759,442.218 716.7,441.738 716.602,441.265 716.466,440.801 716.292,440.35 716.083,439.915 715.838,439.498 715.56,439.102 715.251,438.73 714.913,438.385 714.548,438.068 714.158,437.783 713.746,437.53 713.315,437.311 712.867,437.129 712.407,436.983 711.935,436.875 711.457,436.807 710.974,436.777 710.491,436.787 710.01,436.836 709.535,436.924 709.069,437.051 708.614,437.215 708.174,437.416 707.752,437.652 707.351,437.922 706.973,438.223 706.621,438.554 706.297,438.913 706.004,439.297 705.742,439.704 705.515,440.13 705.323,440.574 705.168,441.032 705.051,441.501 704.973,441.978 704.933,442.459 704.933,442.943 704.973,443.424 705.051,443.901 705.168,444.37 705.323,444.828 705.515,445.272 705.742,445.698 706.004,446.105 706.297,446.489 706.621,446.848 706.973,447.179 707.351,447.48 707.752,447.75 708.174,447.986 708.614,448.187 709.069,448.351 709.535,448.478 710.01,448.566 710.491,448.615 710.974,448.625 711.457,448.595 711.935,448.527 712.407,448.419 712.867,448.274 713.315,448.091 713.746,447.872 714.158,447.619 714.548,447.334 714.913,447.017 715.251,446.672 715.56,446.3 715.838,445.904 716.083,445.487 716.292,445.052 716.466,444.601 716.602,444.137 716.7,443.664 716.759,443.184 716.779,442.701 " />
<polyline fill="none" vector-effect="none" points="886.072,442.701 886.052,442.218 885.993,441.738 885.895,441.265 885.759,440.801 885.585,440.35 885.376,439.915 885.131,439.498 884.853,439.102 884.544,438.73 884.206,438.385 883.841,438.068 883.451,437.783 883.039,437.53 882.608,437.311 882.16,437.129 881.699,436.983 881.228,436.875 880.75,436.807 880.267,436.777 879.784,436.787 879.303,436.836 878.828,436.924 878.362,437.051 877.907,437.215 877.467,437.416 877.045,437.652 876.644,437.922 876.266,438.223 875.914,438.554 875.59,438.913 875.297,439.297 875.035,439.704 874.808,440.13 874.616,440.574 874.461,441.032 874.344,441.501 874.266,441.978 874.226,442.459 874.226,442.943 874.266,443.424 874.344,443.901 874.461,444.37 874.616,444.828 874.808,445.272 875.035,445.698 875.297,446.105 875.59,446.489 875.914,446.848 876.266,447.179 876.644,447.48 877.045,447.75 877.467,447.986 877.907,448.187 878.362,448.351 878.828,448.478 879.303,448.566 879.784,448.615 880.267,448.625 880.75,448.595 881.228,448.527 881.699,448.419 882.16,448.274 882.608,448.091 883.039,447.872 883.451,447.619 883.841,447.334 884.206,447.017 884.544,446.672 884.853,446.3 885.131,445.904 885.376,445.487 885.585,445.052 885.759,444.601 885.895,444.137 885.993,443.664 886.052,443.184 886.072,442.701 " />
<polyline fill="none" vector-effect="none" points="936.86,442.701 936.84,442.218 936.781,441.738 936.683,441.265 936.547,440.801 936.373,440.35 936.164,439.915 935.919,439.498 935.641,439.102 935.332,438.73 934.994,438.385 934.629,438.068 934.239,437.783 933.827,437.53 933.396,437.311 932.948,437.129 932.487,436.983 932.016,436.875 931.538,436.807 931.055,436.777 930.572,436.787 930.091,436.836 929.616,436.924 929.149,437.051 928.695,437.215 928.255,437.416 927.833,437.652 927.432,437.922 927.054,438.223 926.702,438.554 926.378,438.913 926.085,439.297 925.823,439.704 925.596,440.13 925.404,440.574 925.249,441.032 925.132,441.501 925.053,441.978 925.014,442.459 925.014,442.943 925.053,443.424 925.132,443.901 925.249,444.37 925.404,444.828 925.596,445.272 925.823,445.698 926.085,446.105 926.378,446.489 926.702,446.848 927.054,447.179 927.432,447.48 927.833,447.75 928.255,447.986 928.695,448.187 929.149,448.351 929.616,448.478 930.091,448.566 930.572,448.615 931.055,448.625 931.538,448.595 932.016,448.527 932.487,448.419 932.948,448.274 933.396,448.091 933.827,447.872 934.239,447.619 934.629,447.334 934.994,447.017 935.332,446.672 935.641,446.3 935.919,445.904 936.164,445.487 936.373,445.052 936.547,444.601 936.683,444.137 936.781,443.664 936.84,443.184 936.86,442.701 " />
<polyline fill="none" vector-effect="none" points="716.779,802.73 716.759,802.247 716.7,801.767 716.602,801.293 716.466,800.83 716.292,800.379 716.083,799.943 715.838,799.526 715.56,799.13 715.251,798.759 714.913,798.413 714.548,798.097 714.158,797.811 713.746,797.558 713.315,797.34 712.867,797.157 712.407,797.011 711.935,796.904 711.457,796.835 710.974,796.805 710.491,796.815 710.01,796.865 709.535,796.953 709.069,797.08 708.614,797.244 708.174,797.445 707.752,797.681 707.351,797.95 706.973,798.252 706.621,798.583 706.297,798.941 706.004,799.325 705.742,799.732 705.515,800.159 705.323,800.602 705.168,801.06 705.051,801.529 704.973,802.006 704.933,802.488 704.933,802.971 704.973,803.453 705.051,803.93 705.168,804.399 705.323,804.857 705.515,805.3 705.742,805.727 706.004,806.134 706.297,806.518 706.621,806.876 706.973,807.208 707.351,807.509 707.752,807.778 708.174,808.014 708.614,808.215 709.069,808.38 709.535,808.506 710.01,808.594 710.491,808.644 710.974,808.654 711.457,808.624 711.935,808.555 712.407,808.448 712.867,808.302 713.315,808.119 713.746,807.901 714.158,807.648 714.548,807.362 714.913,807.046 715.251,806.7 715.56,806.329 715.838,805.933 716.083,805.516 716.292,805.08 716.466,804.629 716.602,804.166 716.7,803.692 716.759,803.212 716.779,802.73 " />
<polyline fill="none" vector-effect="none" points="886.072,802.73 886.052,802.247 885.993,801.767 885.895,801.293 885.759,800.83 885.585,800.379 885.376,799.943 885.131,799.526 884.853,799.13 884.544,798.759 884.206,798.413 883.841,798.097 883.451,797.811 883.039,797.558 882.608,797.34 882.16,797.157 881.699,797.011 881.228,796.904 880.75,796.835 880.267,796.805 879.784,796.815 879.303,796.865 878.828,796.953 878.362,797.08 877.907,797.244 877.467,797.445 877.045,797.681 876.644,797.95 876.266,798.252 875.914,798.583 875.59,798.941 875.297,799.325 875.035,799.732 874.808,800.159 874.616,800.602 874.461,801.06 874.344,801.529 874.266,802.006 874.226,802.488 874.226,802.971 874.266,803.453 874.344,803.93 874.461,804.399 874.616,804.857 874.808,805.3 875.035,805.727 875.297,806.134 875.59,806.518 875.914,806.876 876.266,807.208 876.644,807.509 877.045,807.778 877.467,808.014 877.907,808.215 878.362,808.38 878.828,808.506 879.303,808.594 879.784,808.644 880.267,808.654 880.75,808.624 881.228,808.555 881.699,808.448 882.16,808.302 882.608,808.119 883.039,807.901 883.451,807.648 883.841,807.362 884.206,807.046 884.544,806.7 884.853,806.329 885.131,805.933 885.376,805.516 885.585,805.08 885.759,804.629 885.895,804.166 885.993,803.692 886.052,803.212 886.072,802.73 " />
<polyline fill="none" vector-effect="none" points="716.779,509.853 716.759,509.37 716.7,508.89 716.602,508.417 716.466,507.953 716.292,507.502 716.083,507.066 715.838,506.649 715.56,506.254 715.251,505.882 714.913,505.537 714.548,505.22 714.158,504.934 713.746,504.682 713.315,504.463 712.867,504.28 712.407,504.135 711.935,504.027 711.457,503.958 710.974,503.929 710.491,503.939 710.01,503.988 709.535,504.076 709.069,504.203 708.614,504.367 708.174,504.568 707.752,504.804 707.351,505.073 706.973,505.375 706.621,505.706 706.297,506.065 706.004,506.449 705.742,506.855 705.515,507.282 705.323,507.726 705.168,508.183 705.051,508.652 704.973,509.129 704.933,509.611 704.933,510.094 704.973,510.576 705.051,511.053 705.168,511.522 705.323,511.98 705.515,512.424 705.742,512.85 706.004,513.257 706.297,513.641 706.621,514 706.973,514.331 707.351,514.632 707.752,514.902 708.174,515.138 708.614,515.338 709.069,515.503 709.535,515.629 710.01,515.718 710.491,515.767 710.974,515.777 711.457,515.747 711.935,515.678 712.407,515.571 712.867,515.425 713.315,515.243 713.746,515.024 714.158,514.771 714.548,514.485 714.913,514.169 715.251,513.823 715.56,513.452 715.838,513.056 716.083,512.639 716.292,512.204 716.466,511.753 716.602,511.289 716.7,510.815 716.759,510.336 716.779,509.853 " />
<polyline fill="none" vector-effect="none" points="886.072,509.853 886.052,509.37 885.993,508.89 885.895,508.417 885.759,507.953 885.585,507.502 885.376,507.066 885.131,506.649 884.853,506.254 884.544,505.882 884.206,505.537 883.841,505.22 883.451,504.934 883.039,504.682 882.608,504.463 882.16,504.28 881.699,504.135 881.228,504.027 880.75,503.958 880.267,503.929 879.784,503.939 879.303,503.988 878.828,504.076 878.362,504.203 877.907,504.367 877.467,504.568 877.045,504.804 876.644,505.073 876.266,505.375 875.914,505.706 875.59,506.065 875.297,506.449 875.035,506.855 874.808,507.282 874.616,507.726 874.461,508.183 874.344,508.652 874.266,509.129 874.226,509.611 874.226,510.094 874.266,510.576 874.344,511.053 874.461,511.522 874.616,511.98 874.808,512.424 875.035,512.85 875.297,513.257 875.59,513.641 875.914,514 876.266,514.331 876.644,514.632 877.045,514.902 877.467,515.138 877.907,515.338 878.362,515.503 878.828,515.629 879.303,515.718 879.784,515.767 880.267,515.777 880.75,515.747 881.228,515.678 881.699,515.571 882.16,515.425 882.608,515.243 883.039,515.024 883.451,514.771 883.841,514.485 884.206,514.169 884.544,513.823 884.853,513.452 885.131,513.056 885.376,512.639 885.585,512.204 885.759,511.753 885.895,511.289 885.993,510.815 886.052,510.336 886.072,509.853 " />
<polyline fill="none" vector-effect="none" points="622.821,838 968.179,838 " />
<polyline fill="none" vector-effect="none" points="622.821,838 622.801,829.393 622.742,820.786 622.642,812.18 622.503,803.574 622.324,794.969 622.106,786.365 621.847,777.762 621.549,769.16 621.212,760.56 620.834,751.961 620.417,743.364 619.96,734.769 619.463,726.177 618.927,717.586 618.351,708.999 617.736,700.414 617.08,691.832 616.385,683.253 615.651,674.677 614.877,666.105 614.063,657.537 613.21,648.972 612.317,640.412 611.385,631.855 610.413,623.304 609.402,614.756 608.351,606.214 607.261,597.676 606.131,589.144 604.963,580.616 603.754,572.095 602.506,563.579 601.219,555.068 599.893,546.564 598.528,538.066 597.123,529.575 595.679,521.09 594.196,512.612 592.673,504.14 591.112,495.676 589.511,487.219 587.872,478.77 586.193,470.328 584.476,461.894 582.719,453.469 580.924,445.051 579.09,436.642 577.217,428.241 575.305,419.849 573.355,411.466 571.365,403.092 569.338,394.727 567.271,386.372 565.166,378.027 563.023,369.691 560.841,361.365 558.62,353.049 556.361,344.744 554.064,336.449 551.729,328.165 549.355,319.892 546.943,311.63 544.493,303.379 542.005,295.14 539.479,286.912 536.915,278.696 534.313,270.491 531.673,262.299 528.995,254.119 526.28,245.952 523.527,237.797 520.736,229.655 517.908,221.526 515.042,213.41 512.139,205.308 509.198,197.219 506.22,189.144 503.205,181.082 500.153,173.035 497.063,165.001 493.936,156.982 490.773,148.978 " />
<polyline fill="none" vector-effect="none" points="1100.23,148.978 1097.06,156.982 1093.94,165.001 1090.85,173.035 1087.8,181.082 1084.78,189.144 1081.8,197.219 1078.86,205.308 1075.96,213.41 1073.09,221.526 1070.26,229.655 1067.47,237.797 1064.72,245.952 1062,254.119 1059.33,262.299 1056.69,270.491 1054.09,278.696 1051.52,286.912 1048.99,295.14 1046.51,303.379 1044.06,311.63 1041.65,319.892 1039.27,328.165 1036.94,336.449 1034.64,344.744 1032.38,353.049 1030.16,361.365 1027.98,369.691 1025.83,378.027 1023.73,386.372 1021.66,394.727 1019.63,403.092 1017.65,411.466 1015.69,419.849 1013.78,428.241 1011.91,436.642 1010.08,445.051 1008.28,453.469 1006.52,461.894 1004.81,470.328 1003.13,478.77 1001.49,487.219 999.888,495.676 998.327,504.14 996.804,512.612 995.321,521.09 993.877,529.575 992.472,538.066 991.107,546.564 989.781,555.068 988.494,563.579 987.246,572.095 986.037,580.616 984.869,589.144 983.739,597.676 982.649,606.214 981.598,614.756 980.587,623.304 979.615,631.855 978.683,640.412 977.79,648.972 976.937,657.537 976.123,666.105 975.349,674.677 974.615,683.253 973.92,691.832 973.264,700.414 972.649,708.999 972.073,717.586 971.537,726.177 971.04,734.769 970.583,743.364 970.166,751.961 969.788,760.56 969.451,769.16 969.153,777.762 968.894,786.365 968.676,794.969 968.497,803.574 968.358,812.18 968.258,820.786 968.199,829.393 968.179,838 " />
</g>

<g fill="#ffffff" fill-opacity="1" stroke="#ffffff" stroke-opacity="1" stroke-width="1" stroke-linecap="round" stroke-linejoin="bevel" transform="matrix(0.999371,0,0,0.998807,0,0)"
font-family="MS Shell Dlg 2" font-size="11" font-weight="400" font-style="normal" 
>
</g>

<g fill="#ffffff" fill-opacity="1" stroke="#ffffff" stroke-opacity="1" stroke-width="1" stroke-linecap="round" stroke-linejoin="bevel" transform="matrix(1,0,0,1,0,0)"
font-family="MS Shell Dlg 2" font-size="11" font-weight="400" font-style="normal" 
>
</g>

<g fill="none" stroke="#000000" stroke-opacity="1" stroke-width="1" stroke-linecap="square" stroke-linejoin="bevel" transform="matrix(1,0,0,1,0,0)"
font-family="MS Shell Dlg 2" font-size="11" font-weight="400" font-style="normal" 
>
</g>
</g>
</svg>
