<?xml version="1.0" encoding="UTF-8" standalone="no"?>
<svg width="420.952mm" height="221.721mm"
 viewBox="0 0 1591 838"
 xmlns="http://www.w3.org/2000/svg" xmlns:xlink="http://www.w3.org/1999/xlink"  version="1.2" baseProfile="tiny">
<title>Qt Svg Document</title>
<desc>Generated with Qt</desc>
<defs>
</defs>
<g fill="none" stroke="black" stroke-width="1" fill-rule="evenodd" stroke-linecap="square" stroke-linejoin="bevel" >

<g fill="none" stroke="#000000" stroke-opacity="1" stroke-width="1" stroke-linecap="square" stroke-linejoin="bevel" transform="matrix(1,0,0,1,0,0)"
font-family="MS Shell Dlg 2" font-size="11" font-weight="400" font-style="normal" 
>
</g>

<g fill="#000000" fill-opacity="1" stroke="none" transform="matrix(1,0,0,1,0,0)"
font-family="MS Shell Dlg 2" font-size="11" font-weight="400" font-style="normal" 
>
<path vector-effect="non-scaling-stroke" fill-rule="evenodd" d="M0,0 L1591,0 L1591,838 L0,838 L0,0"/>
</g>

<g fill="none" stroke="#000000" stroke-opacity="1" stroke-width="1" stroke-linecap="square" stroke-linejoin="bevel" transform="matrix(1,0,0,1,0,0)"
font-family="MS Shell Dlg 2" font-size="11" font-weight="400" font-style="normal" 
>
</g>

<g fill="#000000" fill-opacity="1" stroke="#000000" stroke-opacity="1" stroke-width="1" stroke-linecap="square" stroke-linejoin="bevel" transform="matrix(0.999371,0,0,0.998807,0,0)"
font-family="MS Shell Dlg 2" font-size="11" font-weight="400" font-style="normal" 
>
</g>

<g fill="#ffffff" fill-opacity="1" stroke="#ffffff" stroke-opacity="1" stroke-width="1" stroke-linecap="round" stroke-linejoin="bevel" transform="matrix(0.999371,0,0,0.998807,0,0)"
font-family="MS Shell Dlg 2" font-size="11" font-weight="400" font-style="normal" 
>
<polyline fill="none" vector-effect="none" points="707.111,639.972 707.111,675.328 353.556,675.328 353.556,639.972 247.489,639.972 247.489,675.328 -1.13687e-13,675.328 -1.13687e-13,639.972 -1.13687e-13,198.028 -1.13687e-13,162.672 247.489,162.672 247.489,198.028 247.489,419 282.844,419 282.844,198.028 353.556,198.028 353.556,162.672 707.111,162.672 707.111,198.028 883.889,198.028 883.889,162.672 1237.44,162.672 1237.44,198.028 1308.16,198.028 1308.16,419 1343.51,419 1343.51,198.028 1343.51,162.672 1591,162.672 1591,198.028 1591,639.972 1591,675.328 1343.51,675.328 1343.51,639.972 1237.44,639.972 1237.44,675.328 883.889,675.328 883.889,639.972 707.111,639.972 " />
<polyline fill="none" vector-effect="none" points="656.586,445.517 596.478,445.517 673.025,578.1 703.079,526.045 " />
<polyline fill="none" vector-effect="none" points="861.841,586.939 841.993,552.561 " />
<polyline fill="none" vector-effect="none" points="887.921,526.045 917.975,578.1 994.522,445.517 934.414,445.517 " />
<polyline fill="none" vector-effect="none" points="934.414,392.483 994.522,392.483 917.975,259.9 887.921,311.955 " />
<polyline fill="none" vector-effect="none" points="729.159,251.061 749.007,285.439 " />
<polyline fill="none" vector-effect="none" points="703.079,311.955 673.025,259.9 596.478,392.483 656.586,392.483 " />
<polyline fill="none" vector-effect="none" points="504.621,445.517 351.527,445.517 428.074,578.1 504.621,445.517 " />
<polyline fill="none" vector-effect="none" points="616.89,586.939 550.55,472.033 484.209,586.939 " />
<polyline fill="none" vector-effect="none" points="484.209,251.061 550.55,365.967 616.89,251.061 " />
<polyline fill="none" vector-effect="none" points="504.621,392.483 428.074,259.9 351.527,392.483 504.621,392.483 " />
<polyline fill="none" vector-effect="none" points="212.133,445.517 106.577,445.517 183.124,578.1 212.133,527.854 " />
<polyline fill="none" vector-effect="none" points="371.94,586.939 318.2,493.859 " />
<polyline fill="none" vector-effect="none" points="212.133,310.146 183.124,259.9 106.577,392.483 212.133,392.483 " />
<polyline fill="none" vector-effect="none" points="126.989,586.939 60.6486,472.033 53.0333,485.223 " />
<polyline fill="none" vector-effect="none" points="53.0333,352.777 60.6486,365.967 126.989,251.061 " />
<polyline fill="none" vector-effect="none" points="1106.79,586.939 1040.45,472.033 974.11,586.939 " />
<polyline fill="none" vector-effect="none" points="1086.38,445.517 1162.93,578.1 1239.47,445.517 1086.38,445.517 " />
<polyline fill="none" vector-effect="none" points="1086.38,392.483 1239.47,392.483 1162.93,259.9 1086.38,392.483 " />
<polyline fill="none" vector-effect="none" points="974.11,251.061 1040.45,365.967 1106.79,251.061 " />
<polyline fill="none" vector-effect="none" points="1272.8,493.859 1219.06,586.939 " />
<polyline fill="none" vector-effect="none" points="1378.87,527.854 1407.88,578.1 1484.42,445.517 1378.87,445.517 " />
<polyline fill="none" vector-effect="none" points="1378.87,392.483 1484.42,392.483 1407.88,259.9 1378.87,310.146 " />
<polyline fill="none" vector-effect="none" points="1219.06,251.061 1272.8,344.141 " />
<polyline fill="none" vector-effect="none" points="1537.97,485.223 1530.35,472.033 1464.01,586.939 " />
<polyline fill="none" vector-effect="none" points="1464.01,251.061 1530.35,365.967 1537.97,352.777 " />
<polyline fill="none" vector-effect="none" points="1464.01,251.061 1537.97,251.061 1537.97,352.777 " />
<polyline fill="none" vector-effect="none" points="1537.97,485.223 1537.97,586.939 1464.01,586.939 " />
<polyline fill="none" vector-effect="none" points="1272.8,586.939 1219.06,586.939 " />
<polyline fill="none" vector-effect="none" points="1106.79,586.939 974.11,586.939 " />
<polyline fill="none" vector-effect="none" points="861.841,586.939 729.159,586.939 " />
<polyline fill="none" vector-effect="none" points="616.89,586.939 484.209,586.939 " />
<polyline fill="none" vector-effect="none" points="371.94,586.939 318.2,586.939 " />
<polyline fill="none" vector-effect="none" points="126.989,586.939 53.0333,586.939 53.0333,485.223 " />
<polyline fill="none" vector-effect="none" points="53.0333,352.777 53.0333,251.061 126.989,251.061 " />
<polyline fill="none" vector-effect="none" points="484.209,251.061 616.89,251.061 " />
<polyline fill="none" vector-effect="none" points="729.159,251.061 861.841,251.061 " />
<polyline fill="none" vector-effect="none" points="974.11,251.061 1106.79,251.061 " />
<polyline fill="none" vector-effect="none" points="1219.06,251.061 1272.8,251.061 " />
<polyline fill="none" vector-effect="none" points="883.889,419 883.862,416.831 883.782,414.663 883.649,412.498 883.463,410.336 883.224,408.18 882.932,406.031 882.588,403.889 882.191,401.756 881.741,399.634 881.24,397.523 880.687,395.426 880.083,393.342 879.428,391.274 878.722,389.223 877.966,387.189 877.161,385.175 876.306,383.181 875.403,381.209 874.451,379.259 873.452,377.334 872.406,375.433 871.314,373.559 870.176,371.712 868.993,369.894 867.765,368.105 866.495,366.347 865.181,364.62 863.826,362.927 862.429,361.267 860.992,359.642 859.515,358.052 858,356.5 856.448,354.985 854.858,353.508 853.233,352.071 851.573,350.674 849.88,349.319 848.153,348.005 846.395,346.735 844.606,345.507 842.788,344.324 840.941,343.186 839.067,342.094 837.166,341.048 835.241,340.049 833.291,339.097 831.319,338.194 829.325,337.339 827.311,336.534 825.277,335.778 823.226,335.072 821.158,334.417 819.074,333.813 816.977,333.26 814.866,332.759 812.744,332.309 810.611,331.912 808.469,331.568 806.32,331.276 804.164,331.037 802.002,330.851 799.837,330.718 797.669,330.638 795.5,330.611 793.331,330.638 791.163,330.718 788.998,330.851 786.836,331.037 784.68,331.276 782.531,331.568 780.389,331.912 778.256,332.309 776.134,332.759 774.023,333.26 771.926,333.813 769.842,334.417 767.774,335.072 765.723,335.778 763.689,336.534 761.675,337.339 759.681,338.194 757.709,339.097 755.759,340.049 753.834,341.048 751.933,342.094 750.059,343.186 748.212,344.324 746.394,345.507 744.605,346.735 742.847,348.005 741.12,349.319 739.427,350.674 737.767,352.071 736.142,353.508 734.552,354.985 733,356.5 731.485,358.052 730.008,359.642 728.571,361.267 727.174,362.927 725.819,364.62 724.505,366.347 723.235,368.105 722.007,369.894 720.824,371.712 719.686,373.559 718.594,375.433 717.548,377.334 716.549,379.259 715.597,381.209 714.694,383.181 713.839,385.175 713.034,387.189 712.278,389.223 711.572,391.274 710.917,393.342 710.313,395.426 709.76,397.523 709.259,399.634 708.809,401.756 708.412,403.889 708.068,406.031 707.776,408.18 707.537,410.336 707.351,412.498 707.218,414.663 707.138,416.831 707.111,419 707.138,421.169 707.218,423.337 707.351,425.502 707.537,427.664 707.776,429.82 708.068,431.969 708.412,434.111 708.809,436.244 709.259,438.366 709.76,440.477 710.313,442.574 710.917,444.658 711.572,446.726 712.278,448.777 713.034,450.811 713.839,452.825 714.694,454.819 715.597,456.791 716.549,458.741 717.548,460.666 718.594,462.567 719.686,464.441 720.824,466.288 722.007,468.106 723.235,469.895 724.505,471.653 725.819,473.38 727.174,475.073 728.571,476.733 730.008,478.358 731.485,479.948 733,481.5 734.552,483.015 736.142,484.492 737.767,485.929 739.427,487.326 741.12,488.681 742.847,489.995 744.605,491.265 746.394,492.493 748.212,493.676 750.059,494.814 751.933,495.906 753.834,496.952 755.759,497.951 757.709,498.903 759.681,499.806 761.675,500.661 763.689,501.466 765.723,502.222 767.774,502.928 769.842,503.583 771.926,504.187 774.023,504.74 776.134,505.241 778.256,505.691 780.389,506.088 782.531,506.432 784.68,506.724 786.836,506.963 788.998,507.149 791.163,507.282 793.331,507.362 795.5,507.389 797.669,507.362 799.837,507.282 802.002,507.149 804.164,506.963 806.32,506.724 808.469,506.432 810.611,506.088 812.744,505.691 814.866,505.241 816.977,504.74 819.074,504.187 821.158,503.583 823.226,502.928 825.277,502.222 827.311,501.466 829.325,500.661 831.319,499.806 833.291,498.903 835.241,497.951 837.166,496.952 839.067,495.906 840.941,494.814 842.788,493.676 844.606,492.493 846.395,491.265 848.153,489.995 849.88,488.681 851.573,487.326 853.233,485.929 854.858,484.492 856.448,483.015 858,481.5 859.515,479.948 860.992,478.358 862.429,476.733 863.826,475.073 865.181,473.38 866.495,471.653 867.765,469.895 868.993,468.106 870.176,466.288 871.314,464.441 872.406,462.567 873.452,460.666 874.451,458.741 875.403,456.791 876.306,454.819 877.161,452.825 877.966,450.811 878.722,448.777 879.428,446.726 880.083,444.658 880.687,442.574 881.24,440.477 881.741,438.366 882.191,436.244 882.588,434.111 882.932,431.969 883.224,429.82 883.463,427.664 883.649,425.502 883.782,423.337 883.862,421.169 883.889,419 " />
<polyline fill="none" vector-effect="none" points="841.993,285.439 839.749,284.679 837.494,283.956 835.226,283.272 832.947,282.626 830.658,282.018 828.359,281.448 826.05,280.917 823.733,280.425 821.409,279.971 819.076,279.557 816.738,279.182 814.393,278.845 812.043,278.549 809.688,278.291 807.33,278.073 804.968,277.895 802.603,277.756 800.237,277.657 797.869,277.598 795.5,277.578 793.131,277.598 790.763,277.657 788.397,277.756 786.032,277.895 783.67,278.073 781.312,278.291 778.957,278.549 776.607,278.845 774.262,279.182 771.924,279.557 769.591,279.971 767.267,280.425 764.95,280.917 762.641,281.448 760.342,282.018 758.053,282.626 755.774,283.272 753.506,283.956 751.251,284.679 749.007,285.439 " />
<polyline fill="none" vector-effect="none" points="841.993,285.439 861.841,251.061 " />
<polyline fill="none" vector-effect="none" points="749.007,552.561 729.159,586.939 " />
<polyline fill="none" vector-effect="none" points="703.079,311.955 701.299,313.518 699.546,315.111 697.819,316.732 696.12,318.383 694.449,320.061 692.806,321.768 691.192,323.501 689.607,325.262 688.052,327.048 686.527,328.861 685.032,330.698 683.569,332.561 682.137,334.448 680.737,336.358 679.369,338.292 678.033,340.248 676.731,342.227 675.462,344.227 674.226,346.248 673.025,348.289 671.858,350.35 670.725,352.43 669.628,354.53 668.566,356.647 667.539,358.781 666.549,360.933 665.594,363.101 664.676,365.284 663.795,367.483 662.95,369.696 662.143,371.923 661.374,374.163 660.641,376.416 659.947,378.68 659.291,380.956 658.673,383.243 658.093,385.54 657.552,387.846 657.05,390.16 656.586,392.483 " />
<polyline fill="none" vector-effect="none" points="656.586,445.517 657.05,447.84 657.552,450.154 658.093,452.46 658.673,454.757 659.291,457.044 659.947,459.32 660.641,461.584 661.374,463.837 662.143,466.077 662.95,468.304 663.795,470.517 664.676,472.716 665.594,474.899 666.549,477.067 667.539,479.219 668.566,481.353 669.628,483.47 670.725,485.57 671.858,487.65 673.025,489.711 674.226,491.752 675.462,493.773 676.731,495.773 678.033,497.752 679.369,499.708 680.737,501.642 682.137,503.552 683.569,505.439 685.032,507.302 686.527,509.139 688.052,510.952 689.607,512.738 691.192,514.499 692.806,516.232 694.449,517.939 696.12,519.617 697.819,521.268 699.546,522.889 701.299,524.482 703.079,526.045 " />
<polyline fill="none" vector-effect="none" points="749.007,552.561 751.251,553.321 753.506,554.044 755.774,554.728 758.053,555.374 760.342,555.982 762.641,556.552 764.95,557.083 767.267,557.575 769.591,558.029 771.924,558.443 774.262,558.818 776.607,559.155 778.957,559.451 781.312,559.709 783.67,559.927 786.032,560.105 788.397,560.244 790.763,560.343 793.131,560.402 795.5,560.422 797.869,560.402 800.237,560.343 802.603,560.244 804.968,560.105 807.33,559.927 809.688,559.709 812.043,559.451 814.393,559.155 816.738,558.818 819.076,558.443 821.409,558.029 823.733,557.575 826.05,557.083 828.359,556.552 830.658,555.982 832.947,555.374 835.226,554.728 837.494,554.044 839.749,553.321 841.993,552.561 " />
<polyline fill="none" vector-effect="none" points="887.921,526.045 889.701,524.482 891.454,522.889 893.181,521.268 894.88,519.617 896.551,517.939 898.194,516.232 899.808,514.499 901.393,512.738 902.948,510.952 904.473,509.139 905.968,507.302 907.431,505.439 908.863,503.552 910.263,501.642 911.631,499.708 912.967,497.752 914.269,495.773 915.538,493.773 916.774,491.752 917.975,489.711 919.142,487.65 920.275,485.57 921.372,483.47 922.434,481.353 923.461,479.219 924.451,477.067 925.406,474.899 926.324,472.716 927.205,470.517 928.05,468.304 928.857,466.077 929.626,463.837 930.359,461.584 931.053,459.32 931.709,457.044 932.327,454.757 932.907,452.46 933.448,450.154 933.95,447.84 934.414,445.517 " />
<polyline fill="none" vector-effect="none" points="934.414,392.483 933.95,390.16 933.448,387.846 932.907,385.54 932.327,383.243 931.709,380.956 931.053,378.68 930.359,376.416 929.626,374.163 928.857,371.923 928.05,369.696 927.205,367.483 926.324,365.284 925.406,363.101 924.451,360.933 923.461,358.781 922.434,356.647 921.372,354.53 920.275,352.43 919.142,350.35 917.975,348.289 916.774,346.248 915.538,344.227 914.269,342.227 912.967,340.248 911.631,338.292 910.263,336.358 908.863,334.448 907.431,332.561 905.968,330.698 904.473,328.861 902.948,327.048 901.393,325.262 899.808,323.501 898.194,321.768 896.551,320.061 894.88,318.383 893.181,316.732 891.454,315.111 889.701,313.518 887.921,311.955 " />
<polyline fill="none" vector-effect="none" points="318.2,251.061 371.94,251.061 " />
<polyline fill="none" vector-effect="none" points="318.2,344.141 371.94,251.061 " />
<polyline fill="none" vector-effect="none" points="318.2,251.061 318.2,344.141 " />
<polyline fill="none" vector-effect="none" points="212.133,392.483 212.133,310.146 " />
<polyline fill="none" vector-effect="none" points="212.133,527.854 212.133,445.517 " />
<polyline fill="none" vector-effect="none" points="318.2,493.859 318.2,586.939 " />
<polyline fill="none" vector-effect="none" points="1272.8,251.061 1272.8,344.141 " />
<polyline fill="none" vector-effect="none" points="1272.8,493.859 1272.8,586.939 " />
<polyline fill="none" vector-effect="none" points="1378.87,527.854 1378.87,445.517 " />
<polyline fill="none" vector-effect="none" points="1378.87,392.483 1378.87,310.146 " />
</g>

<g fill="#ffffff" fill-opacity="1" stroke="#ffffff" stroke-opacity="1" stroke-width="1" stroke-linecap="round" stroke-linejoin="bevel" transform="matrix(0.999371,0,0,0.998807,0,0)"
font-family="MS Shell Dlg 2" font-size="11" font-weight="400" font-style="normal" 
>
</g>

<g fill="#ffffff" fill-opacity="1" stroke="#ffffff" stroke-opacity="1" stroke-width="1" stroke-linecap="round" stroke-linejoin="bevel" transform="matrix(1,0,0,1,0,0)"
font-family="MS Shell Dlg 2" font-size="11" font-weight="400" font-style="normal" 
>
</g>

<g fill="none" stroke="#000000" stroke-opacity="1" stroke-width="1" stroke-linecap="square" stroke-linejoin="bevel" transform="matrix(1,0,0,1,0,0)"
font-family="MS Shell Dlg 2" font-size="11" font-weight="400" font-style="normal" 
>
</g>
</g>
</svg>
