<?xml version="1.0" encoding="UTF-8" standalone="no"?>
<svg width="420.952mm" height="221.721mm"
 viewBox="0 0 1591 838"
 xmlns="http://www.w3.org/2000/svg" xmlns:xlink="http://www.w3.org/1999/xlink"  version="1.2" baseProfile="tiny">
<title>Qt Svg Document</title>
<desc>Generated with Qt</desc>
<defs>
</defs>
<g fill="none" stroke="black" stroke-width="1" fill-rule="evenodd" stroke-linecap="square" stroke-linejoin="bevel" >

<g fill="none" stroke="#000000" stroke-opacity="1" stroke-width="1" stroke-linecap="square" stroke-linejoin="bevel" transform="matrix(1,0,0,1,0,0)"
font-family="MS Shell Dlg 2" font-size="11" font-weight="400" font-style="normal" 
>
</g>

<g fill="#000000" fill-opacity="1" stroke="none" transform="matrix(1,0,0,1,0,0)"
font-family="MS Shell Dlg 2" font-size="11" font-weight="400" font-style="normal" 
>
<path vector-effect="non-scaling-stroke" fill-rule="evenodd" d="M0,0 L1591,0 L1591,838 L0,838 L0,0"/>
</g>

<g fill="none" stroke="#000000" stroke-opacity="1" stroke-width="1" stroke-linecap="square" stroke-linejoin="bevel" transform="matrix(1,0,0,1,0,0)"
font-family="MS Shell Dlg 2" font-size="11" font-weight="400" font-style="normal" 
>
</g>

<g fill="#000000" fill-opacity="1" stroke="#000000" stroke-opacity="1" stroke-width="1" stroke-linecap="square" stroke-linejoin="bevel" transform="matrix(0.999371,0,0,0.998807,0,0)"
font-family="MS Shell Dlg 2" font-size="11" font-weight="400" font-style="normal" 
>
</g>

<g fill="#ffffff" fill-opacity="1" stroke="#ffffff" stroke-opacity="1" stroke-width="1" stroke-linecap="square" stroke-linejoin="bevel" transform="matrix(0.999371,0,0,0.998807,0,0)"
font-family="MS Shell Dlg 2" font-size="11" font-weight="400" font-style="normal" 
>
</g>

<g fill="#ffffff" fill-opacity="1" stroke="none" transform="matrix(1,0,0,1,0,0)"
font-family="MS Shell Dlg 2" font-size="11" font-weight="400" font-style="normal" 
>
<path vector-effect="non-scaling-stroke" fill-rule="evenodd" d="M-0.5,657.323 L0.5,657.323 L0.5,658.323 L-0.5,658.323 L-0.5,657.323"/>
</g>

<g fill="#ffffff" fill-opacity="1" stroke="#ffffff" stroke-opacity="1" stroke-width="1" stroke-linecap="square" stroke-linejoin="bevel" transform="matrix(0.999371,0,0,0.998807,0,0)"
font-family="MS Shell Dlg 2" font-size="11" font-weight="400" font-style="normal" 
>
</g>

<g fill="#ffffff" fill-opacity="1" stroke="#ffffff" stroke-opacity="1" stroke-width="1" stroke-linecap="round" stroke-linejoin="bevel" transform="matrix(0.999371,0,0,0.998807,0,0)"
font-family="MS Shell Dlg 2" font-size="11" font-weight="400" font-style="normal" 
>
<polyline fill="none" vector-effect="none" points="1399.31,217.729 1399.31,179.392 1591,179.392 1591,217.729 1591,620.271 1591,658.608 1399.31,658.608 1399.31,620.271 1284.3,620.271 1284.3,658.608 900.928,658.608 900.928,620.271 690.072,620.271 690.072,658.608 306.699,658.608 306.699,620.271 191.687,620.271 191.687,658.608 -1.13687e-13,658.608 -1.4819e-13,620.271 -1.13687e-13,217.729 -1.13687e-13,179.392 191.687,179.392 191.687,217.729 191.687,419 230.024,419 230.024,217.729 306.699,217.729 306.699,179.392 690.072,179.392 690.072,217.729 900.928,217.729 900.928,179.392 1284.3,179.392 1284.3,217.729 1360.98,217.729 1360.98,419 1399.31,419 1399.31,217.729 " />
<polyline fill="none" vector-effect="none" points="911.704,275.235 895.716,302.927 " />
<polyline fill="none" vector-effect="none" points="1322.64,562.765 1276.92,562.765 " />
<polyline fill="none" vector-effect="none" points="646.095,275.235 579.693,390.247 644.87,390.247 " />
<polyline fill="none" vector-effect="none" points="679.296,562.765 695.284,535.073 " />
<polyline fill="none" vector-effect="none" points="944.905,562.765 1011.31,447.753 946.13,447.753 " />
<polyline fill="none" vector-effect="none" points="579.693,275.235 529.891,361.494 480.089,275.235 " />
<polyline fill="none" vector-effect="none" points="480.089,562.765 529.891,476.506 579.693,562.765 " />
<polyline fill="none" vector-effect="none" points="380.486,275.235 314.084,390.247 480.089,390.247 413.687,275.235 " />
<polyline fill="none" vector-effect="none" points="413.687,562.765 480.089,447.753 314.084,447.753 380.486,562.765 " />
<polyline fill="none" vector-effect="none" points="314.084,275.235 268.361,354.428 " />
<polyline fill="none" vector-effect="none" points="268.361,483.572 314.084,562.765 " />
<polyline fill="none" vector-effect="none" points="114.877,275.235 57.506,374.605 " />
<polyline fill="none" vector-effect="none" points="148.078,562.765 153.349,553.635 " />
<polyline fill="none" vector-effect="none" points="1177.31,275.235 1110.91,390.247 1276.92,390.247 1210.51,275.235 " />
<polyline fill="none" vector-effect="none" points="1011.31,275.235 1061.11,361.494 1110.91,275.235 " />
<polyline fill="none" vector-effect="none" points="1110.91,562.765 1061.11,476.506 1011.31,562.765 " />
<polyline fill="none" vector-effect="none" points="1210.51,562.765 1276.92,447.753 1110.91,447.753 1177.31,562.765 " />
<polyline fill="none" vector-effect="none" points="1442.92,275.235 1437.65,284.365 " />
<polyline fill="none" vector-effect="none" points="1276.92,275.235 1322.64,354.428 " />
<polyline fill="none" vector-effect="none" points="1322.64,483.572 1276.92,562.765 " />
<polyline fill="none" vector-effect="none" points="1476.12,562.765 1533.49,463.395 " />
<polyline fill="none" vector-effect="none" points="1533.49,374.605 1476.12,275.235 " />
<polyline fill="none" vector-effect="none" points="1533.49,447.753 1437.65,447.753 " />
<polyline fill="none" vector-effect="none" points="57.506,463.395 114.877,562.765 " />
<polyline fill="none" vector-effect="none" points="57.506,390.247 153.349,390.247 " />
<polyline fill="none" vector-effect="none" points="1476.12,562.765 1442.92,562.765 " />
<polyline fill="none" vector-effect="none" points="1533.49,374.605 1533.49,390.247 " />
<polyline fill="none" vector-effect="none" points="1533.49,447.753 1533.49,463.395 " />
<polyline fill="none" vector-effect="none" points="1442.92,275.235 1476.12,275.235 " />
<polyline fill="none" vector-effect="none" points="1276.92,275.235 1322.64,275.235 " />
<polyline fill="none" vector-effect="none" points="1177.31,275.235 1210.51,275.235 " />
<polyline fill="none" vector-effect="none" points="1011.31,275.235 1110.91,275.235 " />
<polyline fill="none" vector-effect="none" points="911.704,275.235 944.905,275.235 " />
<polyline fill="none" vector-effect="none" points="646.095,275.235 679.296,275.235 " />
<polyline fill="none" vector-effect="none" points="480.089,275.235 579.693,275.235 " />
<polyline fill="none" vector-effect="none" points="380.486,275.235 413.687,275.235 " />
<polyline fill="none" vector-effect="none" points="114.877,275.235 148.078,275.235 " />
<polyline fill="none" vector-effect="none" points="57.506,463.395 57.506,447.753 " />
<polyline fill="none" vector-effect="none" points="57.506,390.247 57.506,374.605 " />
<polyline fill="none" vector-effect="none" points="148.078,562.765 114.877,562.765 " />
<polyline fill="none" vector-effect="none" points="314.084,562.765 268.361,562.765 " />
<polyline fill="none" vector-effect="none" points="413.687,562.765 380.486,562.765 " />
<polyline fill="none" vector-effect="none" points="579.693,562.765 480.089,562.765 " />
<polyline fill="none" vector-effect="none" points="679.296,562.765 646.095,562.765 " />
<polyline fill="none" vector-effect="none" points="944.905,562.765 911.704,562.765 " />
<polyline fill="none" vector-effect="none" points="1110.91,562.765 1011.31,562.765 " />
<polyline fill="none" vector-effect="none" points="1210.51,562.765 1177.31,562.765 " />
<polyline fill="none" vector-effect="none" points="891.343,419 891.315,416.648 891.228,414.297 891.084,411.949 890.882,409.606 890.623,407.268 890.306,404.937 889.932,402.614 889.502,400.302 889.015,398.001 888.471,395.712 887.872,393.437 887.216,391.178 886.506,388.936 885.741,386.711 884.921,384.506 884.048,382.322 883.121,380.16 882.141,378.022 881.11,375.908 880.026,373.82 878.892,371.759 877.708,369.727 876.474,367.724 875.191,365.752 873.86,363.813 872.482,361.906 871.058,360.034 869.588,358.198 868.073,356.398 866.515,354.636 864.914,352.912 863.271,351.229 861.588,349.586 859.864,347.985 858.102,346.427 856.302,344.912 854.466,343.442 852.594,342.018 850.687,340.64 848.748,339.309 846.776,338.026 844.773,336.792 842.741,335.608 840.68,334.474 838.592,333.39 836.478,332.359 834.34,331.379 832.178,330.452 829.994,329.579 827.789,328.759 825.564,327.994 823.322,327.284 821.063,326.628 818.788,326.029 816.499,325.485 814.198,324.998 811.886,324.568 809.563,324.194 807.232,323.877 804.894,323.618 802.551,323.416 800.203,323.272 797.852,323.185 795.5,323.157 793.148,323.185 790.797,323.272 788.449,323.416 786.106,323.618 783.768,323.877 781.437,324.194 779.114,324.568 776.802,324.998 774.501,325.485 772.212,326.029 769.937,326.628 767.678,327.284 765.436,327.994 763.211,328.759 761.006,329.579 758.822,330.452 756.66,331.379 754.522,332.359 752.408,333.39 750.32,334.474 748.259,335.608 746.227,336.792 744.224,338.026 742.252,339.309 740.313,340.64 738.406,342.018 736.534,343.442 734.698,344.912 732.898,346.427 731.136,347.985 729.412,349.586 727.729,351.229 726.086,352.912 724.485,354.636 722.927,356.398 721.412,358.198 719.942,360.034 718.518,361.906 717.14,363.813 715.809,365.752 714.526,367.724 713.292,369.727 712.108,371.759 710.974,373.82 709.89,375.908 708.859,378.022 707.879,380.16 706.952,382.322 706.079,384.506 705.259,386.711 704.494,388.936 703.784,391.178 703.128,393.437 702.529,395.712 701.985,398.001 701.498,400.302 701.068,402.614 700.694,404.937 700.377,407.268 700.118,409.606 699.916,411.949 699.772,414.297 699.685,416.648 699.657,419 699.685,421.352 699.772,423.703 699.916,426.051 700.118,428.394 700.377,430.732 700.694,433.063 701.068,435.386 701.498,437.698 701.985,439.999 702.529,442.288 703.128,444.563 703.784,446.822 704.494,449.064 705.259,451.289 706.079,453.494 706.952,455.678 707.879,457.84 708.859,459.978 709.89,462.092 710.974,464.18 712.108,466.241 713.292,468.273 714.526,470.276 715.809,472.248 717.14,474.187 718.518,476.094 719.942,477.966 721.412,479.802 722.927,481.602 724.485,483.364 726.086,485.088 727.729,486.771 729.412,488.414 731.136,490.015 732.898,491.573 734.698,493.088 736.534,494.558 738.406,495.982 740.313,497.36 742.252,498.691 744.224,499.974 746.227,501.208 748.259,502.392 750.32,503.526 752.408,504.61 754.522,505.641 756.66,506.621 758.822,507.548 761.006,508.421 763.211,509.241 765.436,510.006 767.678,510.716 769.937,511.372 772.212,511.971 774.501,512.515 776.802,513.002 779.114,513.432 781.437,513.806 783.768,514.123 786.106,514.382 788.449,514.584 790.797,514.728 793.148,514.815 795.5,514.843 797.852,514.815 800.203,514.728 802.551,514.584 804.894,514.382 807.232,514.123 809.563,513.806 811.886,513.432 814.198,513.002 816.499,512.515 818.788,511.971 821.063,511.372 823.322,510.716 825.564,510.006 827.789,509.241 829.994,508.421 832.178,507.548 834.34,506.621 836.478,505.641 838.592,504.61 840.68,503.526 842.741,502.392 844.773,501.208 846.776,499.974 848.748,498.691 850.687,497.36 852.594,495.982 854.466,494.558 856.302,493.088 858.102,491.573 859.864,490.015 861.588,488.414 863.271,486.771 864.914,485.088 866.515,483.364 868.073,481.602 869.588,479.802 871.058,477.966 872.482,476.094 873.86,474.187 875.191,472.248 876.474,470.276 877.708,468.273 878.892,466.241 880.026,464.18 881.11,462.092 882.141,459.978 883.121,457.84 884.048,455.678 884.921,453.494 885.741,451.289 886.506,449.064 887.216,446.822 887.872,444.563 888.471,442.288 889.015,439.999 889.502,437.698 889.932,435.386 890.306,433.063 890.623,430.732 890.882,428.394 891.084,426.051 891.228,423.703 891.315,421.352 891.343,419 " />
<polyline fill="none" vector-effect="none" points="644.87,447.753 645.348,450.152 645.864,452.543 646.418,454.926 647.01,457.299 647.64,459.663 648.307,462.016 649.012,464.358 649.754,466.689 650.534,469.008 651.35,471.314 652.203,473.607 653.092,475.885 654.017,478.15 654.979,480.399 655.976,482.633 657.009,484.85 658.077,487.051 659.18,489.234 660.317,491.4 661.489,493.547 662.696,495.675 663.935,497.783 665.209,499.872 666.515,501.94 667.855,503.987 669.227,506.012 670.631,508.015 672.066,509.995 673.534,511.953 675.032,513.886 676.561,515.796 678.12,517.681 679.709,519.541 681.327,521.375 682.975,523.183 684.651,524.964 686.355,526.719 688.087,528.446 689.847,530.146 691.633,531.817 693.446,533.459 695.284,535.073 " />
<polyline fill="none" vector-effect="none" points="895.716,535.073 911.704,562.765 " />
<polyline fill="none" vector-effect="none" points="946.13,390.247 1011.31,390.247 944.905,275.235 " />
<polyline fill="none" vector-effect="none" points="695.284,302.927 679.296,275.235 " />
<polyline fill="none" vector-effect="none" points="644.87,447.753 579.693,447.753 646.095,562.765 " />
<polyline fill="none" vector-effect="none" points="695.284,302.927 693.446,304.541 691.633,306.183 689.847,307.854 688.087,309.554 686.355,311.281 684.651,313.036 682.975,314.817 681.327,316.625 679.709,318.459 678.12,320.319 676.561,322.204 675.032,324.114 673.534,326.047 672.066,328.005 670.631,329.985 669.227,331.988 667.855,334.013 666.515,336.06 665.209,338.128 663.935,340.217 662.696,342.325 661.489,344.453 660.317,346.6 659.18,348.766 658.077,350.949 657.009,353.15 655.976,355.367 654.979,357.601 654.017,359.85 653.092,362.115 652.203,364.393 651.35,366.686 650.534,368.992 649.754,371.311 649.012,373.642 648.307,375.984 647.64,378.337 647.01,380.701 646.418,383.074 645.864,385.457 645.348,387.848 644.87,390.247 " />
<polyline fill="none" vector-effect="none" points="946.13,390.247 945.652,387.848 945.136,385.457 944.582,383.074 943.99,380.701 943.36,378.337 942.693,375.984 941.988,373.642 941.246,371.311 940.466,368.992 939.65,366.686 938.797,364.393 937.908,362.115 936.983,359.85 936.021,357.601 935.024,355.367 933.991,353.15 932.923,350.949 931.82,348.766 930.683,346.6 929.511,344.453 928.304,342.325 927.065,340.217 925.791,338.128 924.485,336.06 923.145,334.013 921.773,331.988 920.369,329.985 918.934,328.005 917.466,326.047 915.968,324.114 914.439,322.204 912.88,320.319 911.291,318.459 909.673,316.625 908.025,314.817 906.349,313.036 904.645,311.281 902.913,309.554 901.153,307.854 899.367,306.183 897.554,304.541 895.716,302.927 " />
<polyline fill="none" vector-effect="none" points="895.716,535.073 897.554,533.459 899.367,531.817 901.153,530.146 902.913,528.446 904.645,526.719 906.349,524.964 908.025,523.183 909.673,521.375 911.291,519.541 912.88,517.681 914.439,515.796 915.968,513.886 917.466,511.953 918.934,509.995 920.369,508.015 921.773,506.012 923.145,503.987 924.485,501.94 925.791,499.872 927.065,497.783 928.304,495.675 929.511,493.547 930.683,491.4 931.82,489.234 932.923,487.051 933.991,484.85 935.024,482.633 936.021,480.399 936.983,478.15 937.908,475.885 938.797,473.607 939.65,471.314 940.466,469.008 941.246,466.689 941.988,464.358 942.693,462.016 943.36,459.663 943.99,457.299 944.582,454.926 945.136,452.543 945.652,450.152 946.13,447.753 " />
<polyline fill="none" vector-effect="none" points="268.361,275.235 268.361,354.428 " />
<polyline fill="none" vector-effect="none" points="153.349,284.365 148.078,275.235 " />
<polyline fill="none" vector-effect="none" points="268.361,275.235 314.084,275.235 " />
<polyline fill="none" vector-effect="none" points="153.349,447.753 57.506,447.753 " />
<polyline fill="none" vector-effect="none" points="153.349,553.635 153.349,447.753 " />
<polyline fill="none" vector-effect="none" points="268.361,483.572 268.361,562.765 " />
<polyline fill="none" vector-effect="none" points="153.349,390.247 153.349,284.365 " />
<polyline fill="none" vector-effect="none" points="1437.65,390.247 1533.49,390.247 " />
<polyline fill="none" vector-effect="none" points="1437.65,553.635 1442.92,562.765 " />
<polyline fill="none" vector-effect="none" points="1322.64,354.428 1322.64,275.235 " />
<polyline fill="none" vector-effect="none" points="1322.64,562.765 1322.64,483.572 " />
<polyline fill="none" vector-effect="none" points="1437.65,284.365 1437.65,390.247 " />
<polyline fill="none" vector-effect="none" points="1437.65,447.753 1437.65,553.635 " />
</g>

<g fill="#ffffff" fill-opacity="1" stroke="#ffffff" stroke-opacity="1" stroke-width="1" stroke-linecap="round" stroke-linejoin="bevel" transform="matrix(0.999371,0,0,0.998807,0,0)"
font-family="MS Shell Dlg 2" font-size="11" font-weight="400" font-style="normal" 
>
</g>

<g fill="#ffffff" fill-opacity="1" stroke="#ffffff" stroke-opacity="1" stroke-width="1" stroke-linecap="round" stroke-linejoin="bevel" transform="matrix(1,0,0,1,0,0)"
font-family="MS Shell Dlg 2" font-size="11" font-weight="400" font-style="normal" 
>
</g>

<g fill="none" stroke="#000000" stroke-opacity="1" stroke-width="1" stroke-linecap="square" stroke-linejoin="bevel" transform="matrix(1,0,0,1,0,0)"
font-family="MS Shell Dlg 2" font-size="11" font-weight="400" font-style="normal" 
>
</g>
</g>
</svg>
