  0
SECTION
  2
HEADER
  9
$ACADVER
  1
AC1015
  9
$ACADMAINTVER
 70
     6
  9
$DWGCODEPAGE
  3
ANSI_1252
  9
$INSBASE
 10
0.0
 20
0.0
 30
0.0
  9
$EXTMIN
 10
-0.0000000000000568
 20
-0.0000000000000036
 30
0.0
  9
$EXTMAX
 10
484.3260290116842
 20
495.0
 30
0.0
  9
$LIMMIN
 10
0.0
 20
0.0
  9
$LIMMAX
 10
12.0
 20
9.0
  9
$ORTHOMODE
 70
     0
  9
$REGENMODE
 70
     1
  9
$FILLMODE
 70
     1
  9
$QTEXTMODE
 70
     0
  9
$MIRRTEXT
 70
     0
  9
$LTSCALE
 40
1.0
  9
$ATTMODE
 70
     1
  9
$TEXTSIZE
 40
0.2
  9
$TRACEWID
 40
0.05
  9
$TEXTSTYLE
  7
Standard
  9
$CLAYER
  8
Attachment Holes
  9
$CELTYPE
  6
ByLayer
  9
$CECOLOR
 62
   256
  9
$CELTSCALE
 40
1.0
  9
$DISPSILH
 70
     0
  9
$DIMSCALE
 40
1.0
  9
$DIMASZ
 40
0.18
  9
$DIMEXO
 40
0.0625
  9
$DIMDLI
 40
0.38
  9
$DIMRND
 40
0.0
  9
$DIMDLE
 40
0.0
  9
$DIMEXE
 40
0.18
  9
$DIMTP
 40
0.0
  9
$DIMTM
 40
0.0
  9
$DIMTXT
 40
0.18
  9
$DIMCEN
 40
0.09
  9
$DIMTSZ
 40
0.0
  9
$DIMTOL
 70
     0
  9
$DIMLIM
 70
     0
  9
$DIMTIH
 70
     1
  9
$DIMTOH
 70
     1
  9
$DIMSE1
 70
     0
  9
$DIMSE2
 70
     0
  9
$DIMTAD
 70
     0
  9
$DIMZIN
 70
     0
  9
$DIMBLK
  1

  9
$DIMASO
 70
     1
  9
$DIMSHO
 70
     1
  9
$DIMPOST
  1

  9
$DIMAPOST
  1

  9
$DIMALT
 70
     0
  9
$DIMALTD
 70
     2
  9
$DIMALTF
 40
25.4
  9
$DIMLFAC
 40
1.0
  9
$DIMTOFL
 70
     0
  9
$DIMTVP
 40
0.0
  9
$DIMTIX
 70
     0
  9
$DIMSOXD
 70
     0
  9
$DIMSAH
 70
     0
  9
$DIMBLK1
  1

  9
$DIMBLK2
  1

  9
$DIMSTYLE
  2
Standard
  9
$DIMCLRD
 70
     0
  9
$DIMCLRE
 70
     0
  9
$DIMCLRT
 70
     0
  9
$DIMTFAC
 40
1.0
  9
$DIMGAP
 40
0.09
  9
$DIMJUST
 70
     0
  9
$DIMSD1
 70
     0
  9
$DIMSD2
 70
     0
  9
$DIMTOLJ
 70
     1
  9
$DIMTZIN
 70
     0
  9
$DIMALTZ
 70
     0
  9
$DIMALTTZ
 70
     0
  9
$DIMUPT
 70
     0
  9
$DIMDEC
 70
     4
  9
$DIMTDEC
 70
     4
  9
$DIMALTU
 70
     2
  9
$DIMALTTD
 70
     2
  9
$DIMTXSTY
  7
Standard
  9
$DIMAUNIT
 70
     0
  9
$DIMADEC
 70
     0
  9
$DIMALTRND
 40
0.0
  9
$DIMAZIN
 70
     0
  9
$DIMDSEP
 70
    46
  9
$DIMATFIT
 70
     3
  9
$DIMFRAC
 70
     0
  9
$DIMLDRBLK
  1

  9
$DIMLUNIT
 70
     2
  9
$DIMLWD
 70
    -2
  9
$DIMLWE
 70
    -2
  9
$DIMTMOVE
 70
     0
  9
$LUNITS
 70
     2
  9
$LUPREC
 70
     4
  9
$SKETCHINC
 40
0.1
  9
$FILLETRAD
 40
5.0
  9
$AUNITS
 70
     0
  9
$AUPREC
 70
     0
  9
$MENU
  1
.
  9
$ELEVATION
 40
0.0
  9
$PELEVATION
 40
0.0
  9
$THICKNESS
 40
0.0
  9
$LIMCHECK
 70
     0
  9
$CHAMFERA
 40
0.0
  9
$CHAMFERB
 40
0.0
  9
$CHAMFERC
 40
0.0
  9
$CHAMFERD
 40
0.0
  9
$SKPOLY
 70
     0
  9
$TDCREATE
 40
2452643.105050937
  9
$TDUCREATE
 40
2452643.063384271
  9
$TDUPDATE
 40
2456785.745013542
  9
$TDUUPDATE
 40
2456785.703346875
  9
$TDINDWG
 40
0.360502419
  9
$TDUSRTIMER
 40
2456785.702611783
  9
$USRTIMER
 70
     1
  9
$ANGBASE
 50
0.0
  9
$ANGDIR
 70
     0
  9
$PDMODE
 70
     0
  9
$PDSIZE
 40
0.0
  9
$PLINEWID
 40
0.0
  9
$SPLFRAME
 70
     0
  9
$SPLINETYPE
 70
     6
  9
$SPLINESEGS
 70
     8
  9
$HANDSEED
  5
3B6
  9
$SURFTAB1
 70
     6
  9
$SURFTAB2
 70
     6
  9
$SURFTYPE
 70
     6
  9
$SURFU
 70
     6
  9
$SURFV
 70
     6
  9
$UCSBASE
  2

  9
$UCSNAME
  2

  9
$UCSORG
 10
0.0
 20
0.0
 30
0.0
  9
$UCSXDIR
 10
1.0
 20
0.0
 30
0.0
  9
$UCSYDIR
 10
0.0
 20
1.0
 30
0.0
  9
$UCSORTHOREF
  2

  9
$UCSORTHOVIEW
 70
     0
  9
$UCSORGTOP
 10
0.0
 20
0.0
 30
0.0
  9
$UCSORGBOTTOM
 10
0.0
 20
0.0
 30
0.0
  9
$UCSORGLEFT
 10
0.0
 20
0.0
 30
0.0
  9
$UCSORGRIGHT
 10
0.0
 20
0.0
 30
0.0
  9
$UCSORGFRONT
 10
0.0
 20
0.0
 30
0.0
  9
$UCSORGBACK
 10
0.0
 20
0.0
 30
0.0
  9
$PUCSBASE
  2

  9
$PUCSNAME
  2

  9
$PUCSORG
 10
0.0
 20
0.0
 30
0.0
  9
$PUCSXDIR
 10
1.0
 20
0.0
 30
0.0
  9
$PUCSYDIR
 10
0.0
 20
1.0
 30
0.0
  9
$PUCSORTHOREF
  2

  9
$PUCSORTHOVIEW
 70
     0
  9
$PUCSORGTOP
 10
0.0
 20
0.0
 30
0.0
  9
$PUCSORGBOTTOM
 10
0.0
 20
0.0
 30
0.0
  9
$PUCSORGLEFT
 10
0.0
 20
0.0
 30
0.0
  9
$PUCSORGRIGHT
 10
0.0
 20
0.0
 30
0.0
  9
$PUCSORGFRONT
 10
0.0
 20
0.0
 30
0.0
  9
$PUCSORGBACK
 10
0.0
 20
0.0
 30
0.0
  9
$USERI1
 70
     0
  9
$USERI2
 70
     0
  9
$USERI3
 70
     0
  9
$USERI4
 70
     0
  9
$USERI5
 70
     0
  9
$USERR1
 40
0.0
  9
$USERR2
 40
0.0
  9
$USERR3
 40
0.0
  9
$USERR4
 40
0.0
  9
$USERR5
 40
0.0
  9
$WORLDVIEW
 70
     1
  9
$SHADEDGE
 70
     3
  9
$SHADEDIF
 70
    70
  9
$TILEMODE
 70
     1
  9
$MAXACTVP
 70
    64
  9
$PINSBASE
 10
0.0
 20
0.0
 30
0.0
  9
$PLIMCHECK
 70
     0
  9
$PEXTMIN
 10
0.0
 20
0.0
 30
0.0
  9
$PEXTMAX
 10
0.0
 20
0.0
 30
0.0
  9
$PLIMMIN
 10
0.0
 20
0.0
  9
$PLIMMAX
 10
0.0
 20
0.0
  9
$UNITMODE
 70
     0
  9
$VISRETAIN
 70
     1
  9
$PLINEGEN
 70
     0
  9
$PSLTSCALE
 70
     1
  9
$TREEDEPTH
 70
  3020
  9
$CMLSTYLE
  2
Standard
  9
$CMLJUST
 70
     0
  9
$CMLSCALE
 40
1.0
  9
$PROXYGRAPHICS
 70
     1
  9
$MEASUREMENT
 70
     0
  9
$CELWEIGHT
370
    -1
  9
$ENDCAPS
280
     0
  9
$JOINSTYLE
280
     0
  9
$LWDISPLAY
290
     0
  9
$INSUNITS
 70
     1
  9
$HYPERLINKBASE
  1

  9
$STYLESHEET
  1

  9
$XEDIT
290
     1
  9
$CEPSNTYPE
380
     0
  9
$PSTYLEMODE
290
     1
  9
$FINGERPRINTGUID
  2
{FDEAD576-A652-11D2-9A35-0060089B3A3F}
  9
$VERSIONGUID
  2
{FBC2AE19-5C5C-49EC-81BC-71B1A3362A02}
  9
$EXTNAMES
290
     1
  9
$PSVPSCALE
 40
0.0
  9
$OLESTARTUP
290
     0
  0
ENDSEC
  0
SECTION
  2
CLASSES
  0
CLASS
  1
ACDBDICTIONARYWDFLT
  2
AcDbDictionaryWithDefault
  3
ObjectDBX Classes
 90
        0
280
     0
281
     0
  0
CLASS
  1
ACDBPLACEHOLDER
  2
AcDbPlaceHolder
  3
ObjectDBX Classes
 90
        0
280
     0
281
     0
  0
CLASS
  1
LAYOUT
  2
AcDbLayout
  3
ObjectDBX Classes
 90
        0
280
     0
281
     0
  0
CLASS
  1
DICTIONARYVAR
  2
AcDbDictionaryVar
  3
ObjectDBX Classes
 90
        0
280
     0
281
     0
  0
CLASS
  1
TABLESTYLE
  2
AcDbTableStyle
  3
ObjectDBX Classes
 90
     4095
280
     0
281
     0
  0
CLASS
  1
MATERIAL
  2
AcDbMaterial
  3
ObjectDBX Classes
 90
     1153
280
     0
281
     0
  0
CLASS
  1
VISUALSTYLE
  2
AcDbVisualStyle
  3
ObjectDBX Classes
 90
     4095
280
     0
281
     0
  0
CLASS
  1
SCALE
  2
AcDbScale
  3
ObjectDBX Classes
 90
     1153
280
     0
281
     0
  0
CLASS
  1
CELLSTYLEMAP
  2
AcDbCellStyleMap
  3
ObjectDBX Classes
 90
     1152
280
     0
281
     0
  0
CLASS
  1
RASTERVARIABLES
  2
AcDbRasterVariables
  3
ISM
 90
        0
280
     0
281
     0
  0
CLASS
  1
SUN
  2
AcDbSun
  3
SCENEOE
 90
     1153
280
     0
281
     0
  0
CLASS
  1
DIMASSOC
  2
AcDbDimAssoc
  3
"AcDbDimAssoc|Product Desc:     AcDim ARX App For Dimension|Company:          Autodesk, Inc.|WEB Address:      www.autodesk.com"
 90
        0
280
     0
281
     0
  0
ENDSEC
  0
SECTION
  2
TABLES
  0
TABLE
  2
VPORT
  5
8
330
0
100
AcDbSymbolTable
 70
     1
  0
VPORT
  5
94
330
8
100
AcDbSymbolTableRecord
100
AcDbViewportTableRecord
  2
*Active
 70
     0
 10
0.0
 20
0.0
 11
1.0
 21
1.0
 12
304.334344532289
 22
270.2496328602505
 13
0.0
 23
0.0
 14
0.5
 24
0.5
 15
0.5
 25
0.5
 16
0.0
 26
0.0
 36
1.0
 17
-27.66959356597977
 27
-19.53870295786214
 37
0.0
 40
610.9398701223005
 41
1.969059405940594
 42
50.0
 43
0.0
 44
0.0
 50
0.0
 51
0.0
 71
    16
 72
  1000
 73
     1
 74
     3
 75
     0
 76
     0
 77
     0
 78
     0
281
     0
 65
     1
110
0.0
120
0.0
130
0.0
111
1.0
121
0.0
131
0.0
112
0.0
122
1.0
132
0.0
 79
     0
146
0.0
  0
ENDTAB
  0
TABLE
  2
LTYPE
  5
5
330
0
100
AcDbSymbolTable
 70
     1
  0
LTYPE
  5
14
330
5
100
AcDbSymbolTableRecord
100
AcDbLinetypeTableRecord
  2
ByBlock
 70
     0
  3

 72
    65
 73
     0
 40
0.0
  0
LTYPE
  5
15
330
5
100
AcDbSymbolTableRecord
100
AcDbLinetypeTableRecord
  2
ByLayer
 70
     0
  3

 72
    65
 73
     0
 40
0.0
  0
LTYPE
  5
16
330
5
100
AcDbSymbolTableRecord
100
AcDbLinetypeTableRecord
  2
Continuous
 70
     0
  3
Solid line
 72
    65
 73
     0
 40
0.0
  0
ENDTAB
  0
TABLE
  2
LAYER
  5
2
102
{ACAD_XDICTIONARY
360
32F
102
}
330
0
100
AcDbSymbolTable
 70
     6
  0
LAYER
  5
10
330
2
100
AcDbSymbolTableRecord
100
AcDbLayerTableRecord
  2
0
 70
     0
 62
     7
  6
Continuous
370
    -3
390
F
  0
LAYER
  5
238
330
2
100
AcDbSymbolTableRecord
100
AcDbLayerTableRecord
  2
Defpoints
 70
     0
 62
     7
  6
Continuous
290
     0
370
    -3
390
F
  0
LAYER
  5
332
330
2
100
AcDbSymbolTableRecord
100
AcDbLayerTableRecord
  2
Attachment Holes
 70
     0
 62
     1
  6
Continuous
370
    -3
390
F
1001
AcAecLayerStandard
1000

1000

  0
LAYER
  5
338
330
2
100
AcDbSymbolTableRecord
100
AcDbLayerTableRecord
  2
Support Holes
 70
     0
 62
     6
  6
Continuous
290
     0
370
    -3
390
F
1001
AcAecLayerStandard
1000

1000

  0
LAYER
  5
382
330
2
100
AcDbSymbolTableRecord
100
AcDbLayerTableRecord
  2
Attachment Grooves
 70
     0
 62
     2
  6
Continuous
290
     0
370
    -3
390
F
1001
AcAecLayerStandard
1000

1000

  0
LAYER
  5
386
330
2
100
AcDbSymbolTableRecord
100
AcDbLayerTableRecord
  2
Outline Cuts
 70
     0
 62
     5
  6
Continuous
370
    -3
390
F
1001
AcAecLayerStandard
1000

1000

  0
ENDTAB
  0
TABLE
  2
STYLE
  5
3
330
0
100
AcDbSymbolTable
 70
     1
  0
STYLE
  5
11
330
3
100
AcDbSymbolTableRecord
100
AcDbTextStyleTableRecord
  2
Standard
 70
     0
 40
0.0
 41
1.0
 50
0.0
 71
     0
 42
0.2
  3
arial.ttf
  4

1001
ACAD
1000
Arial
1071
        0
  0
ENDTAB
  0
TABLE
  2
VIEW
  5
6
330
0
100
AcDbSymbolTable
 70
     0
  0
ENDTAB
  0
TABLE
  2
UCS
  5
7
330
0
100
AcDbSymbolTable
 70
     0
  0
ENDTAB
  0
TABLE
  2
APPID
  5
9
330
0
100
AcDbSymbolTable
 70
     2
  0
APPID
  5
12
330
9
100
AcDbSymbolTableRecord
100
AcDbRegAppTableRecord
  2
ACAD
 70
     0
  0
APPID
  5
333
330
9
100
AcDbSymbolTableRecord
100
AcDbRegAppTableRecord
  2
AcAecLayerStandard
 70
     0
  0
ENDTAB
  0
TABLE
  2
DIMSTYLE
  5
A
330
0
100
AcDbSymbolTable
 70
     2
100
AcDbDimStyleTable
  0
DIMSTYLE
105
27
330
A
100
AcDbSymbolTableRecord
100
AcDbDimStyleTableRecord
  2
Standard
 70
     0
178
     0
340
11
  0
DIMSTYLE
105
E1
330
A
100
AcDbSymbolTableRecord
100
AcDbDimStyleTableRecord
  2
Ansi1
 70
     0
178
     0
340
11
  0
ENDTAB
  0
TABLE
  2
BLOCK_RECORD
  5
1
330
0
100
AcDbSymbolTable
 70
     1
  0
BLOCK_RECORD
  5
1F
330
1
100
AcDbSymbolTableRecord
100
AcDbBlockTableRecord
  2
*Model_Space
340
22
  0
BLOCK_RECORD
  5
58
330
1
100
AcDbSymbolTableRecord
100
AcDbBlockTableRecord
  2
*Paper_Space
340
59
  0
BLOCK_RECORD
  5
5D
330
1
100
AcDbSymbolTableRecord
100
AcDbBlockTableRecord
  2
*Paper_Space0
340
5E
  0
ENDTAB
  0
ENDSEC
  0
SECTION
  2
BLOCKS
  0
BLOCK
  5
20
330
1F
100
AcDbEntity
  8
0
100
AcDbBlockBegin
  2
*Model_Space
 70
     0
 10
0.0
 20
0.0
 30
0.0
  3
*Model_Space
  1
*Model_Space
  0
ENDBLK
  5
21
330
1F
100
AcDbEntity
  8
0
100
AcDbBlockEnd
  0
BLOCK
  5
5A
330
58
100
AcDbEntity
 67
     1
  8
0
100
AcDbBlockBegin
  2
*Paper_Space
 70
     0
 10
0.0
 20
0.0
 30
0.0
  3
*Paper_Space
  1
*Paper_Space
  0
ENDBLK
  5
5B
330
58
100
AcDbEntity
 67
     1
  8
0
100
AcDbBlockEnd
  0
BLOCK
  5
5F
330
5D
100
AcDbEntity
  8
0
100
AcDbBlockBegin
  2
*Paper_Space0
 70
     0
 10
0.0
 20
0.0
 30
0.0
  3
*Paper_Space0
  1
*Paper_Space0
  0
ENDBLK
  5
60
330
5D
100
AcDbEntity
  8
0
100
AcDbBlockEnd
  0
ENDSEC
  0
SECTION
  2
ENTITIES
  0
LWPOLYLINE
  5
127
330
1F
100
AcDbEntity
  8
Outline Cuts
100
AcDbPolyline
 90
        4
 70
     0
 43
0.0
 10
180.0
 20
44.0
 10
180.0
 20
22.0
 42
-0.414213562373095
 10
158.0
 20
0.0
 10
137.75
 20
0.0
  0
CIRCLE
  5
128
330
1F
100
AcDbEntity
  8
0
100
AcDbCircle
 10
0.0
 20
0.0
 30
0.0
 40
0.0
  0
CIRCLE
  5
129
330
1F
100
AcDbEntity
  8
Support Holes
100
AcDbCircle
 10
20.0
 20
22.5
 30
0.0
 40
1.5
  0
CIRCLE
  5
12A
330
1F
100
AcDbEntity
  8
Support Holes
100
AcDbCircle
 10
20.0
 20
472.5
 30
0.0
 40
1.5
  0
CIRCLE
  5
12C
330
1F
100
AcDbEntity
  8
Support Holes
100
AcDbCircle
 10
160.0
 20
22.5
 30
0.0
 40
1.5
  0
CIRCLE
  5
12D
330
1F
100
AcDbEntity
  8
Support Holes
100
AcDbCircle
 10
160.0
 20
472.5
 30
0.0
 40
1.5
  0
LWPOLYLINE
  5
133
330
1F
100
AcDbEntity
  8
Outline Cuts
100
AcDbPolyline
 90
        6
 70
     0
 43
0.0
 10
0.0
 20
451.0000000000004
 10
0.0
 20
473.0
 42
-0.414213562373095
 10
22.0
 20
495.0
 10
158.0
 20
495.0
 42
-0.414213562373095
 10
180.0
 20
473.0
 10
180.0
 20
451.0
  0
LWPOLYLINE
  5
147
330
1F
100
AcDbEntity
  8
Outline Cuts
100
AcDbPolyline
 90
        2
 70
     0
 43
0.0
 10
180.0000000000001
 20
451.0000000000001
 42
0.1916461916461916
 10
180.0
 20
44.00000000000006
  0
LWPOLYLINE
  5
148
330
1F
100
AcDbEntity
  8
Outline Cuts
100
AcDbPolyline
 90
        2
 70
     0
 43
0.0
 10
0.0000000000000568
 20
44.00000000000011
 42
0.1916461916461916
 10
0.0
 20
451.0000000000001
  0
LWPOLYLINE
  5
161
330
1F
100
AcDbEntity
  8
Attachment Grooves
100
AcDbPolyline
 90
        4
 70
     1
 43
0.0
 10
78.25
 20
445.0000000000001
 10
78.25
 20
370.0000000000001
 10
101.75
 20
370.0000000000001
 10
101.75
 20
445.0000000000001
  0
ARC
  5
19C
330
1F
100
AcDbEntity
  8
Outline Cuts
100
AcDbCircle
 10
90.0
 20
-148.2541666666667
 30
0.0
 40
155.7541666666667
100
AcDbArc
 50
72.14718414652135
 51
75.58978766926961
  0
LWPOLYLINE
  5
19D
330
1F
100
AcDbEntity
  8
Outline Cuts
100
AcDbPolyline
 90
        4
 70
     0
 43
0.0
 10
42.25
 20
0.0
 10
22.00000000000001
 20
0.0
 42
-0.414213562373095
 10
0.0
 20
22.0
 10
0.0
 20
44.00000000000003
  0
LWPOLYLINE
  5
19E
330
1F
100
AcDbEntity
  8
Outline Cuts
100
AcDbPolyline
 90
        4
 70
     0
 43
0.0
 10
58.75
 20
12.2851782533906
 10
58.75
 20
29.99999999999996
 10
121.25
 20
29.99999999999996
 10
121.25
 20
12.2851782533906
  0
ARC
  5
1A3
330
1F
100
AcDbEntity
  8
Outline Cuts
100
AcDbCircle
 10
394.3260290116842
 20
-148.2541666666667
 30
0.0
 40
155.7541666666667
100
AcDbArc
 50
72.14718414652135
 51
107.8528158534787
  0
CIRCLE
  5
1A8
330
1F
100
AcDbEntity
  8
Support Holes
100
AcDbCircle
 10
324.3260290116842
 20
22.5
 30
0.0
 40
1.5
  0
CIRCLE
  5
1A9
330
1F
100
AcDbEntity
  8
Support Holes
100
AcDbCircle
 10
324.3260290116842
 20
472.5
 30
0.0
 40
1.5
  0
CIRCLE
  5
1AA
330
1F
100
AcDbEntity
  8
Support Holes
100
AcDbCircle
 10
464.3260290116842
 20
22.5
 30
0.0
 40
1.5
  0
CIRCLE
  5
1AB
330
1F
100
AcDbEntity
  8
Support Holes
100
AcDbCircle
 10
464.3260290116842
 20
472.5
 30
0.0
 40
1.5
  0
LWPOLYLINE
  5
1AC
330
1F
100
AcDbEntity
  8
Outline Cuts
100
AcDbPolyline
 90
        6
 70
     0
 43
0.0
 10
304.3260290116842
 20
451.0000000000004
 10
304.3260290116842
 20
473.0
 42
-0.414213562373095
 10
326.3260290116842
 20
495.0
 10
462.3260290116842
 20
495.0
 42
-0.414213562373095
 10
484.3260290116842
 20
473.0
 10
484.3260290116842
 20
451.0
  0
LWPOLYLINE
  5
1AD
330
1F
100
AcDbEntity
  8
Outline Cuts
100
AcDbPolyline
 90
        2
 70
     0
 43
0.0
 10
484.3260290116843
 20
451.0000000000001
 42
0.1916461916461916
 10
484.3260290116842
 20
44.00000000000006
  0
LWPOLYLINE
  5
1AE
330
1F
100
AcDbEntity
  8
Outline Cuts
100
AcDbPolyline
 90
        2
 70
     0
 43
0.0
 10
304.3260290116843
 20
44.00000000000011
 42
0.1916461916461916
 10
304.3260290116842
 20
451.0000000000001
  0
LWPOLYLINE
  5
1B7
330
1F
100
AcDbEntity
  8
Attachment Grooves
100
AcDbPolyline
 90
        4
 70
     1
 43
0.0
 10
381.8260290116842
 20
156.333
 10
381.8260290116842
 20
231.333
 10
406.8260290116842
 20
231.333
 10
406.8260290116842
 20
156.333
  0
LWPOLYLINE
  5
1BA
330
1F
100
AcDbEntity
  8
Attachment Grooves
100
AcDbPolyline
 90
        4
 70
     1
 43
0.0
 10
381.8260290116842
 20
445.0000000000001
 10
381.8260290116842
 20
370.0000000000001
 10
406.8260290116842
 20
370.0000000000001
 10
406.8260290116842
 20
445.0000000000001
  0
LWPOLYLINE
  5
1C1
330
1F
100
AcDbEntity
  8
Attachment Grooves
100
AcDbPolyline
 90
        4
 70
     1
 43
0.0
 10
381.8260290116842
 20
338.667
 10
381.8260290116842
 20
263.667
 10
406.8260290116842
 20
263.667
 10
406.8260290116842
 20
338.667
  0
LWPOLYLINE
  5
1CB
330
1F
100
AcDbEntity
  8
Outline Cuts
100
AcDbPolyline
 90
        4
 70
     0
 43
0.0
 10
346.5760290116842
 20
0.0
 10
326.3260290116842
 20
0.0
 42
-0.414213562373095
 10
304.3260290116842
 20
22.0
 10
304.3260290116842
 20
44.00000000000003
  0
LWPOLYLINE
  5
1CC
330
1F
100
AcDbEntity
  8
Outline Cuts
100
AcDbPolyline
 90
        4
 70
     0
 43
0.0
 10
484.3260290116842
 20
44.0
 10
484.3260290116842
 20
22.0
 42
-0.414213562373095
 10
462.3260290116842
 20
0.0
 10
442.0760290116842
 20
0.0
  0
ARC
  5
1CD
330
1F
100
AcDbEntity
  8
Outline Cuts
100
AcDbCircle
 10
90.0
 20
-148.2541666666667
 30
0.0
 40
155.7541666666667
100
AcDbArc
 50
104.4102123307304
 51
107.8528158534787
  0
ARC
  5
1CE
330
1F
100
AcDbEntity
  8
Outline Cuts
100
AcDbCircle
 10
48.74999999999999
 20
12.2851782533906
 30
0.0
 40
10.0
100
AcDbArc
 50
284.4102123307304
 51
0.0
  0
ARC
  5
1CF
330
1F
100
AcDbEntity
  8
Outline Cuts
100
AcDbCircle
 10
131.25
 20
12.2851782533906
 30
0.0
 40
10.0
100
AcDbArc
 50
180.0
 51
255.5897876692696
  0
LWPOLYLINE
  5
1D0
330
1F
100
AcDbEntity
  8
Support Holes
100
AcDbPolyline
 90
        4
 70
     1
 43
0.0
 10
136.5
 20
60.0
 10
136.5
 20
80.0
 10
138.5
 20
80.0
 10
138.5
 20
60.0
  0
LWPOLYLINE
  5
1D1
330
1F
100
AcDbEntity
  8
Support Holes
100
AcDbPolyline
 90
        4
 70
     1
 43
0.0
 10
136.5
 20
95.0
 10
136.5
 20
115.0
 10
138.5
 20
115.0
 10
138.5
 20
95.0
  0
LWPOLYLINE
  5
1D2
330
1F
100
AcDbEntity
  8
Support Holes
100
AcDbPolyline
 90
        4
 70
     1
 43
0.0
 10
41.5
 20
60.0
 10
41.5
 20
80.0
 10
43.5
 20
80.0
 10
43.5
 20
60.0
  0
LWPOLYLINE
  5
1D3
330
1F
100
AcDbEntity
  8
Support Holes
100
AcDbPolyline
 90
        4
 70
     1
 43
0.0
 10
41.5
 20
95.0
 10
41.5
 20
115.0
 10
43.5
 20
115.0
 10
43.5
 20
95.0
  0
LWPOLYLINE
  5
1D4
330
1F
100
AcDbEntity
  8
Support Holes
100
AcDbPolyline
 90
        4
 70
     1
 43
0.0
 10
136.4999999999993
 20
435.0000000000001
 10
136.4999999999994
 20
415.0000000000001
 10
138.4999999999994
 20
415.0000000000001
 10
138.4999999999993
 20
435.0000000000001
  0
LWPOLYLINE
  5
1D5
330
1F
100
AcDbEntity
  8
Support Holes
100
AcDbPolyline
 90
        4
 70
     1
 43
0.0
 10
136.4999999999995
 20
400.0000000000001
 10
136.4999999999995
 20
380.0000000000001
 10
138.4999999999995
 20
380.0000000000001
 10
138.4999999999995
 20
400.0000000000001
  0
LWPOLYLINE
  5
1D6
330
1F
100
AcDbEntity
  8
Support Holes
100
AcDbPolyline
 90
        4
 70
     1
 43
0.0
 10
41.49999999999947
 20
399.9999999999998
 10
41.49999999999953
 20
379.9999999999998
 10
43.49999999999953
 20
379.9999999999998
 10
43.49999999999947
 20
399.9999999999998
  0
LWPOLYLINE
  5
1D7
330
1F
100
AcDbEntity
  8
Support Holes
100
AcDbPolyline
 90
        4
 70
     1
 43
0.0
 10
41.49999999999935
 20
434.9999999999998
 10
41.49999999999942
 20
414.9999999999998
 10
43.49999999999942
 20
414.9999999999998
 10
43.49999999999935
 20
434.9999999999998
  0
LWPOLYLINE
  5
1D8
330
1F
100
AcDbEntity
  8
Support Holes
100
AcDbPolyline
 90
        4
 70
     1
 43
0.0
 10
45.0
 20
139.6665
 10
45.0
 20
141.6665
 10
59.0
 20
141.6665
 10
59.0
 20
139.6665
  0
LWPOLYLINE
  5
1D9
330
1F
100
AcDbEntity
  8
Support Holes
100
AcDbPolyline
 90
        4
 70
     1
 43
0.0
 10
65.0
 20
139.6665
 10
65.0
 20
141.6665
 10
85.0
 20
141.6665
 10
85.0
 20
139.6665
  0
LWPOLYLINE
  5
1DB
330
1F
100
AcDbEntity
  8
Support Holes
100
AcDbPolyline
 90
        4
 70
     1
 43
0.0
 10
135.0
 20
139.6665
 10
135.0
 20
141.6665
 10
121.0
 20
141.6665
 10
121.0
 20
139.6665
  0
LWPOLYLINE
  5
1DC
330
1F
100
AcDbEntity
  8
Support Holes
100
AcDbPolyline
 90
        4
 70
     1
 43
0.0
 10
115.0
 20
139.6665
 10
115.0
 20
141.6665
 10
95.0
 20
141.6665
 10
95.0
 20
139.6665
  0
LWPOLYLINE
  5
1DD
330
1F
100
AcDbEntity
  8
Support Holes
100
AcDbPolyline
 90
        4
 70
     1
 43
0.0
 10
44.99999999999994
 20
355.3334999999997
 10
44.99999999999994
 20
353.3334999999997
 10
58.99999999999994
 20
353.3334999999997
 10
58.99999999999994
 20
355.3334999999997
  0
LWPOLYLINE
  5
1DE
330
1F
100
AcDbEntity
  8
Support Holes
100
AcDbPolyline
 90
        4
 70
     1
 43
0.0
 10
64.99999999999993
 20
355.3334999999997
 10
64.99999999999994
 20
353.3334999999997
 10
84.99999999999994
 20
353.3334999999998
 10
84.99999999999993
 20
355.3334999999998
  0
LWPOLYLINE
  5
1DF
330
1F
100
AcDbEntity
  8
Support Holes
100
AcDbPolyline
 90
        4
 70
     1
 43
0.0
 10
114.9999999999999
 20
355.3334999999998
 10
114.9999999999999
 20
353.3334999999998
 10
94.99999999999994
 20
353.3334999999998
 10
94.99999999999993
 20
355.3334999999998
  0
LWPOLYLINE
  5
1E0
330
1F
100
AcDbEntity
  8
Support Holes
100
AcDbPolyline
 90
        4
 70
     1
 43
0.0
 10
134.9999999999999
 20
355.3334999999998
 10
134.9999999999999
 20
353.3334999999998
 10
120.9999999999999
 20
353.3334999999998
 10
120.9999999999999
 20
355.3334999999998
  0
LWPOLYLINE
  5
1E1
330
1F
100
AcDbEntity
  8
Support Holes
100
AcDbPolyline
 90
        4
 70
     1
 43
0.0
 10
345.8260290116837
 20
399.9999999999998
 10
345.8260290116838
 20
379.9999999999998
 10
347.8260290116838
 20
379.9999999999998
 10
347.8260290116837
 20
399.9999999999998
  0
LWPOLYLINE
  5
1E2
330
1F
100
AcDbEntity
  8
Support Holes
100
AcDbPolyline
 90
        4
 70
     1
 43
0.0
 10
345.8260290116835
 20
434.9999999999998
 10
345.8260290116837
 20
414.9999999999998
 10
347.8260290116837
 20
414.9999999999998
 10
347.8260290116835
 20
434.9999999999998
  0
LWPOLYLINE
  5
1E3
330
1F
100
AcDbEntity
  8
Support Holes
100
AcDbPolyline
 90
        4
 70
     1
 43
0.0
 10
440.8260290116835
 20
435.0000000000001
 10
440.8260290116837
 20
415.0000000000001
 10
442.8260290116837
 20
415.0000000000001
 10
442.8260290116835
 20
435.0000000000001
  0
LWPOLYLINE
  5
1E4
330
1F
100
AcDbEntity
  8
Support Holes
100
AcDbPolyline
 90
        4
 70
     1
 43
0.0
 10
440.8260290116837
 20
400.0000000000001
 10
440.8260290116838
 20
380.0000000000001
 10
442.8260290116838
 20
380.0000000000001
 10
442.8260290116837
 20
400.0000000000001
  0
LWPOLYLINE
  5
1E5
330
1F
100
AcDbEntity
  8
Support Holes
100
AcDbPolyline
 90
        4
 70
     1
 43
0.0
 10
349.3260290116842
 20
355.3334999999997
 10
349.3260290116842
 20
353.3334999999997
 10
363.3260290116842
 20
353.3334999999997
 10
363.3260290116842
 20
355.3334999999997
  0
LWPOLYLINE
  5
1E6
330
1F
100
AcDbEntity
  8
Support Holes
100
AcDbPolyline
 90
        4
 70
     1
 43
0.0
 10
369.3260290116842
 20
355.3334999999997
 10
369.3260290116842
 20
353.3334999999997
 10
389.3260290116842
 20
353.3334999999998
 10
389.3260290116842
 20
355.3334999999998
  0
LWPOLYLINE
  5
1E7
330
1F
100
AcDbEntity
  8
Support Holes
100
AcDbPolyline
 90
        4
 70
     1
 43
0.0
 10
419.3260290116842
 20
355.3334999999998
 10
419.3260290116842
 20
353.3334999999998
 10
399.3260290116842
 20
353.3334999999998
 10
399.3260290116842
 20
355.3334999999998
  0
LWPOLYLINE
  5
1E8
330
1F
100
AcDbEntity
  8
Support Holes
100
AcDbPolyline
 90
        4
 70
     1
 43
0.0
 10
439.3260290116842
 20
355.3334999999998
 10
439.3260290116842
 20
353.3334999999998
 10
425.3260290116842
 20
353.3334999999998
 10
425.3260290116842
 20
355.3334999999998
  0
LWPOLYLINE
  5
1E9
330
1F
100
AcDbEntity
  8
Support Holes
100
AcDbPolyline
 90
        4
 70
     1
 43
0.0
 10
349.3260290116842
 20
139.6665
 10
349.3260290116842
 20
141.6665
 10
363.3260290116842
 20
141.6665
 10
363.3260290116842
 20
139.6665
  0
LWPOLYLINE
  5
1EA
330
1F
100
AcDbEntity
  8
Support Holes
100
AcDbPolyline
 90
        4
 70
     1
 43
0.0
 10
369.3260290116842
 20
139.6665
 10
369.3260290116842
 20
141.6665
 10
389.3260290116842
 20
141.6665
 10
389.3260290116842
 20
139.6665
  0
LWPOLYLINE
  5
1EB
330
1F
100
AcDbEntity
  8
Support Holes
100
AcDbPolyline
 90
        4
 70
     1
 43
0.0
 10
439.3260290116842
 20
139.6665
 10
439.3260290116842
 20
141.6665
 10
425.3260290116842
 20
141.6665
 10
425.3260290116842
 20
139.6665
  0
LWPOLYLINE
  5
1EC
330
1F
100
AcDbEntity
  8
Support Holes
100
AcDbPolyline
 90
        4
 70
     1
 43
0.0
 10
419.3260290116842
 20
139.6665
 10
419.3260290116842
 20
141.6665
 10
399.3260290116842
 20
141.6665
 10
399.3260290116842
 20
139.6665
  0
LWPOLYLINE
  5
1ED
330
1F
100
AcDbEntity
  8
Support Holes
100
AcDbPolyline
 90
        4
 70
     1
 43
0.0
 10
345.8260290116842
 20
95.0
 10
345.8260290116842
 20
115.0
 10
347.8260290116842
 20
115.0
 10
347.8260290116842
 20
95.0
  0
LWPOLYLINE
  5
1EE
330
1F
100
AcDbEntity
  8
Support Holes
100
AcDbPolyline
 90
        4
 70
     1
 43
0.0
 10
345.8260290116842
 20
60.0
 10
345.8260290116842
 20
80.0
 10
347.8260290116842
 20
80.0
 10
347.8260290116842
 20
60.0
  0
LWPOLYLINE
  5
1EF
330
1F
100
AcDbEntity
  8
Support Holes
100
AcDbPolyline
 90
        4
 70
     1
 43
0.0
 10
440.8260290116842
 20
95.0
 10
440.8260290116842
 20
115.0
 10
442.8260290116842
 20
115.0
 10
442.8260290116842
 20
95.0
  0
LWPOLYLINE
  5
1F0
330
1F
100
AcDbEntity
  8
Support Holes
100
AcDbPolyline
 90
        4
 70
     1
 43
0.0
 10
440.8260290116842
 20
60.0
 10
440.8260290116842
 20
80.0
 10
442.8260290116842
 20
80.0
 10
442.8260290116842
 20
60.0
  0
CIRCLE
  5
1F2
330
1F
100
AcDbEntity
  8
Support Holes
100
AcDbCircle
 10
103.5
 20
148.99975
 30
0.0
 40
1.5
  0
CIRCLE
  5
1F3
330
1F
100
AcDbEntity
  8
Support Holes
100
AcDbCircle
 10
136.5
 20
148.99975
 30
0.0
 40
1.5
  0
CIRCLE
  5
1F5
330
1F
100
AcDbEntity
  8
Support Holes
100
AcDbCircle
 10
76.5
 20
148.99975
 30
0.0
 40
1.5
  0
CIRCLE
  5
1F6
330
1F
100
AcDbEntity
  8
Support Holes
100
AcDbCircle
 10
43.5
 20
148.99975
 30
0.0
 40
1.5
  0
CIRCLE
  5
1F7
330
1F
100
AcDbEntity
  8
Support Holes
100
AcDbCircle
 10
103.4999999999998
 20
346.0002499999998
 30
0.0
 40
1.5
  0
CIRCLE
  5
1F8
330
1F
100
AcDbEntity
  8
Support Holes
100
AcDbCircle
 10
136.4999999999998
 20
346.0002499999999
 30
0.0
 40
1.5
  0
CIRCLE
  5
1F9
330
1F
100
AcDbEntity
  8
Support Holes
100
AcDbCircle
 10
76.49999999999976
 20
346.0002499999998
 30
0.0
 40
1.5
  0
CIRCLE
  5
1FA
330
1F
100
AcDbEntity
  8
Support Holes
100
AcDbCircle
 10
43.49999999999977
 20
346.0002499999997
 30
0.0
 40
1.5
  0
CIRCLE
  5
1FC
330
1F
100
AcDbEntity
  8
Support Holes
100
AcDbCircle
 10
126.0
 20
240.0
 30
0.0
 40
1.5
  0
CIRCLE
  5
1FD
330
1F
100
AcDbEntity
  8
Support Holes
100
AcDbCircle
 10
54.0
 20
240.0
 30
0.0
 40
1.5
  0
CIRCLE
  5
1FE
330
1F
100
AcDbEntity
  8
Support Holes
100
AcDbCircle
 10
53.99999999999998
 20
254.9999999999998
 30
0.0
 40
1.5
  0
CIRCLE
  5
1FF
330
1F
100
AcDbEntity
  8
Support Holes
100
AcDbCircle
 10
126.0
 20
255.0000000000001
 30
0.0
 40
1.5
  0
CIRCLE
  5
200
330
1F
100
AcDbEntity
  8
Support Holes
100
AcDbCircle
 10
407.8260290116842
 20
148.99975
 30
0.0
 40
1.5
  0
CIRCLE
  5
201
330
1F
100
AcDbEntity
  8
Support Holes
100
AcDbCircle
 10
440.8260290116842
 20
148.99975
 30
0.0
 40
1.5
  0
CIRCLE
  5
202
330
1F
100
AcDbEntity
  8
Support Holes
100
AcDbCircle
 10
380.8260290116842
 20
148.99975
 30
0.0
 40
1.5
  0
CIRCLE
  5
203
330
1F
100
AcDbEntity
  8
Support Holes
100
AcDbCircle
 10
347.8260290116842
 20
148.99975
 30
0.0
 40
1.5
  0
CIRCLE
  5
204
330
1F
100
AcDbEntity
  8
Support Holes
100
AcDbCircle
 10
430.3260290116842
 20
240.0
 30
0.0
 40
1.5
  0
CIRCLE
  5
205
330
1F
100
AcDbEntity
  8
Support Holes
100
AcDbCircle
 10
358.3260290116842
 20
240.0
 30
0.0
 40
1.5
  0
CIRCLE
  5
206
330
1F
100
AcDbEntity
  8
Support Holes
100
AcDbCircle
 10
358.3260290116842
 20
254.9999999999998
 30
0.0
 40
1.5
  0
CIRCLE
  5
207
330
1F
100
AcDbEntity
  8
Support Holes
100
AcDbCircle
 10
430.3260290116842
 20
255.0000000000001
 30
0.0
 40
1.5
  0
CIRCLE
  5
208
330
1F
100
AcDbEntity
  8
Support Holes
100
AcDbCircle
 10
407.826029011684
 20
346.0002499999998
 30
0.0
 40
1.5
  0
CIRCLE
  5
209
330
1F
100
AcDbEntity
  8
Support Holes
100
AcDbCircle
 10
440.826029011684
 20
346.0002499999999
 30
0.0
 40
1.5
  0
CIRCLE
  5
20A
330
1F
100
AcDbEntity
  8
Support Holes
100
AcDbCircle
 10
380.826029011684
 20
346.0002499999998
 30
0.0
 40
1.5
  0
CIRCLE
  5
20B
330
1F
100
AcDbEntity
  8
Support Holes
100
AcDbCircle
 10
347.826029011684
 20
346.0002499999997
 30
0.0
 40
1.5
  0
CIRCLE
  5
216
330
1F
100
AcDbEntity
  8
0
100
AcDbCircle
 10
160.0
 20
22.5
 30
0.0
 40
0.0
  0
CIRCLE
  5
217
330
1F
100
AcDbEntity
  8
0
100
AcDbCircle
 10
160.0
 20
22.5
 30
0.0
 40
0.0
  0
CIRCLE
  5
218
330
1F
100
AcDbEntity
  8
0
100
AcDbCircle
 10
160.0
 20
22.5
 30
0.0
 40
0.0
  0
CIRCLE
  5
21A
330
1F
100
AcDbEntity
  8
0
100
AcDbCircle
 10
160.0
 20
22.5
 30
0.0
 40
0.0
  0
LWPOLYLINE
  5
21F
330
1F
100
AcDbEntity
  8
Outline Cuts
100
AcDbPolyline
 90
        4
 70
     1
 43
0.0
 10
160.0
 20
30.5
 42
0.9999999999999999
 10
160.0
 20
34.5
 42
0.3888787318529897
 10
148.045663622899
 20
23.5458689129719
 42
0.9999999999999992
 10
152.030442415266
 20
23.19724594198127
 42
-0.3888787318529897
  0
LWPOLYLINE
  5
231
330
1F
100
AcDbEntity
  8
Outline Cuts
100
AcDbPolyline
 90
        4
 70
     1
 43
0.0
 10
20.0
 20
30.5
 42
-0.9999999999999999
 10
20.0
 20
34.5
 42
-0.3888787318529897
 10
31.95433637710096
 20
23.5458689129719
 42
-0.9999999999999992
 10
27.96955758473396
 20
23.19724594198127
 42
0.3888787318529897
  0
LWPOLYLINE
  5
232
330
1F
100
AcDbEntity
  8
Outline Cuts
100
AcDbPolyline
 90
        4
 70
     1
 43
0.0
 10
19.99999999999988
 20
464.4999999999997
 42
0.9999999999999999
 10
19.99999999999988
 20
460.4999999999997
 42
0.3888787318529897
 10
31.95433637710083
 20
471.4541310870279
 42
0.9999999999999992
 10
27.96955758473383
 20
471.8027540580185
 42
-0.3888787318529897
  0
LWPOLYLINE
  5
233
330
1F
100
AcDbEntity
  8
Outline Cuts
100
AcDbPolyline
 90
        4
 70
     1
 43
0.0
 10
159.9999999999999
 20
464.4999999999998
 42
-0.9999999999999999
 10
159.9999999999999
 20
460.4999999999998
 42
-0.3888787318529897
 10
148.0456636228989
 20
471.4541310870279
 42
-0.9999999999999992
 10
152.0304424152659
 20
471.8027540580185
 42
0.3888787318529897
  0
LWPOLYLINE
  5
234
330
1F
100
AcDbEntity
  8
Outline Cuts
100
AcDbPolyline
 90
        4
 70
     1
 43
0.0
 10
324.3260290116841
 20
464.4999999999997
 42
0.9999999999999999
 10
324.3260290116841
 20
460.4999999999997
 42
0.3888787318529897
 10
336.2803653887851
 20
471.4541310870279
 42
0.9999999999999992
 10
332.295586596418
 20
471.8027540580185
 42
-0.3888787318529897
  0
LWPOLYLINE
  5
235
330
1F
100
AcDbEntity
  8
Outline Cuts
100
AcDbPolyline
 90
        4
 70
     1
 43
0.0
 10
464.3260290116841
 20
464.4999999999998
 42
-0.9999999999999999
 10
464.3260290116841
 20
460.4999999999998
 42
-0.3888787318529897
 10
452.3716926345832
 20
471.4541310870279
 42
-0.9999999999999992
 10
456.3564714269501
 20
471.8027540580185
 42
0.3888787318529897
  0
LWPOLYLINE
  5
236
330
1F
100
AcDbEntity
  8
Outline Cuts
100
AcDbPolyline
 90
        4
 70
     1
 43
0.0
 10
464.3260290116842
 20
30.5
 42
0.9999999999999999
 10
464.3260290116842
 20
34.5
 42
0.3888787318529897
 10
452.3716926345833
 20
23.5458689129719
 42
0.9999999999999992
 10
456.3564714269503
 20
23.19724594198127
 42
-0.3888787318529897
  0
LWPOLYLINE
  5
237
330
1F
100
AcDbEntity
  8
Outline Cuts
100
AcDbPolyline
 90
        4
 70
     1
 43
0.0
 10
324.3260290116842
 20
30.5
 42
-0.9999999999999999
 10
324.3260290116842
 20
34.5
 42
-0.3888787318529897
 10
336.2803653887852
 20
23.5458689129719
 42
-0.9999999999999992
 10
332.2955865964182
 20
23.19724594198127
 42
0.3888787318529897
  0
CIRCLE
  5
249
330
1F
100
AcDbEntity
  8
Attachment Grooves
100
AcDbCircle
 10
394.3260290116843
 20
87.5
 30
0.0
 40
15.0
  0
LWPOLYLINE
  5
24A
330
1F
100
AcDbEntity
  8
Attachment Grooves
100
AcDbPolyline
 90
        4
 70
     1
 43
0.0
 10
380.3606700832499
 20
98.99048519428138
 10
362.6830005535862
 20
116.6681547239451
 10
365.1578742877392
 20
119.143028458098
 10
382.8355438174029
 20
101.4653589284343
  0
LWPOLYLINE
  5
24F
330
1F
100
AcDbEntity
  8
Attachment Grooves
100
AcDbPolyline
 90
        4
 70
     1
 43
0.0
 10
408.2913879401186
 20
98.99048519428138
 10
425.9690574697823
 20
116.6681547239451
 10
423.4941837356294
 20
119.143028458098
 10
405.8165142059657
 20
101.4653589284343
  0
LWPOLYLINE
  5
250
330
1F
100
AcDbEntity
  8
Attachment Grooves
100
AcDbPolyline
 90
        4
 70
     1
 43
0.0
 10
380.3606700832499
 20
76.00951480571862
 10
362.6830005535862
 20
58.33184527605491
 10
365.1578742877392
 20
55.85697154190197
 10
382.8355438174029
 20
73.53464107156569
  0
LWPOLYLINE
  5
251
330
1F
100
AcDbEntity
  8
Attachment Grooves
100
AcDbPolyline
 90
        4
 70
     1
 43
0.0
 10
408.2913879401186
 20
76.00951480571862
 10
425.9690574697823
 20
58.33184527605491
 10
423.4941837356294
 20
55.85697154190197
 10
405.8165142059657
 20
73.53464107156569
  0
LWPOLYLINE
  5
252
330
1F
100
AcDbEntity
  8
Attachment Grooves
100
AcDbPolyline
 90
        4
 70
     1
 43
0.0
 10
362.6830005535862
 20
70.0
 10
362.6830005535862
 20
105.0
 10
366.1830005535862
 20
105.0
 10
366.1830005535862
 20
70.0
  0
LWPOLYLINE
  5
253
330
1F
100
AcDbEntity
  8
Attachment Grooves
100
AcDbPolyline
 90
        4
 70
     1
 43
0.0
 10
371.1830005535862
 20
77.5
 10
371.1830005535862
 20
97.5
 10
374.6830005535862
 20
97.5
 10
374.6830005535862
 20
77.5
  0
LWPOLYLINE
  5
256
330
1F
100
AcDbEntity
  8
Attachment Grooves
100
AcDbPolyline
 90
        4
 70
     1
 43
0.0
 10
411.8260290116843
 20
55.85697154190194
 10
376.8260290116843
 20
55.85697154190194
 10
376.8260290116843
 20
59.35697154190194
 10
411.8260290116843
 20
59.35697154190194
  0
LWPOLYLINE
  5
257
330
1F
100
AcDbEntity
  8
Attachment Grooves
100
AcDbPolyline
 90
        4
 70
     1
 43
0.0
 10
404.3260290116843
 20
64.35697154190194
 10
384.3260290116843
 20
64.35697154190194
 10
384.3260290116843
 20
67.85697154190194
 10
404.3260290116843
 20
67.85697154190194
  0
LWPOLYLINE
  5
258
330
1F
100
AcDbEntity
  8
Attachment Grooves
100
AcDbPolyline
 90
        4
 70
     1
 43
0.0
 10
425.9690574697823
 20
105.0
 10
425.9690574697823
 20
70.0
 10
422.4690574697823
 20
70.0
 10
422.4690574697823
 20
105.0
  0
LWPOLYLINE
  5
259
330
1F
100
AcDbEntity
  8
Attachment Grooves
100
AcDbPolyline
 90
        4
 70
     1
 43
0.0
 10
417.4690574697823
 20
97.5
 10
417.4690574697823
 20
77.5
 10
413.9690574697823
 20
77.5
 10
413.9690574697823
 20
97.5
  0
LWPOLYLINE
  5
25A
330
1F
100
AcDbEntity
  8
Attachment Grooves
100
AcDbPolyline
 90
        4
 70
     1
 43
0.0
 10
376.8260290116843
 20
119.1430284580981
 10
411.8260290116843
 20
119.143028458098
 10
411.8260290116843
 20
115.643028458098
 10
376.8260290116843
 20
115.6430284580981
  0
LWPOLYLINE
  5
25B
330
1F
100
AcDbEntity
  8
Attachment Grooves
100
AcDbPolyline
 90
        4
 70
     1
 43
0.0
 10
384.3260290116843
 20
110.6430284580981
 10
404.3260290116843
 20
110.6430284580981
 10
404.3260290116843
 20
107.1430284580981
 10
384.3260290116843
 20
107.1430284580981
  0
LWPOLYLINE
  5
25C
330
1F
100
AcDbEntity
  8
Attachment Grooves
100
AcDbPolyline
 90
        4
 70
     1
 43
0.0
 10
351.8260290116843
 20
29.85697154190194
 10
351.8260290116843
 20
34.85697154190194
 10
391.8260290116843
 20
34.85697154190194
 10
391.8260290116843
 20
29.85697154190194
  0
LWPOLYLINE
  5
25D
330
1F
100
AcDbEntity
  8
Attachment Grooves
100
AcDbPolyline
 90
        4
 70
     1
 43
0.0
 10
396.8260290116843
 20
29.85697154190194
 10
396.8260290116843
 20
34.85697154190194
 10
436.8260290116843
 20
34.85697154190194
 10
436.8260290116843
 20
29.85697154190194
  0
LWPOLYLINE
  5
25E
330
1F
100
AcDbEntity
  8
Attachment Grooves
100
AcDbPolyline
 90
        4
 70
     1
 43
0.0
 10
48.25
 20
50.0
 10
48.25
 20
125.0
 10
51.75
 20
125.0
 10
51.75
 20
50.0
  0
LWPOLYLINE
  5
25F
330
1F
100
AcDbEntity
  8
Attachment Grooves
100
AcDbPolyline
 90
        4
 70
     1
 43
0.0
 10
63.25
 20
50.0
 10
63.25
 20
125.0
 10
66.75
 20
125.0
 10
66.75
 20
50.0
  0
LWPOLYLINE
  5
260
330
1F
100
AcDbEntity
  8
Attachment Grooves
100
AcDbPolyline
 90
        4
 70
     1
 43
0.0
 10
113.25
 20
50.0
 10
113.25
 20
125.0
 10
116.75
 20
125.0
 10
116.75
 20
50.0
  0
LWPOLYLINE
  5
261
330
1F
100
AcDbEntity
  8
Attachment Grooves
100
AcDbPolyline
 90
        4
 70
     1
 43
0.0
 10
128.25
 20
50.0
 10
128.25
 20
125.0
 10
131.75
 20
125.0
 10
131.75
 20
50.0
  0
LWPOLYLINE
  5
262
330
1F
100
AcDbEntity
  8
Attachment Grooves
100
AcDbPolyline
 90
        4
 70
     1
 43
0.0
 10
63.25
 20
156.333
 10
63.25
 20
231.333
 10
66.75
 20
231.333
 10
66.75
 20
156.333
  0
LWPOLYLINE
  5
263
330
1F
100
AcDbEntity
  8
Attachment Grooves
100
AcDbPolyline
 90
        4
 70
     1
 43
0.0
 10
113.25
 20
156.333
 10
113.25
 20
231.333
 10
116.75
 20
231.333
 10
116.75
 20
156.333
  0
LWPOLYLINE
  5
264
330
1F
100
AcDbEntity
  8
Attachment Grooves
100
AcDbPolyline
 90
        4
 70
     1
 43
0.0
 10
63.25
 20
263.667
 10
63.25
 20
338.667
 10
66.75
 20
338.667
 10
66.75
 20
263.667
  0
LWPOLYLINE
  5
265
330
1F
100
AcDbEntity
  8
Attachment Grooves
100
AcDbPolyline
 90
        4
 70
     1
 43
0.0
 10
113.25
 20
263.667
 10
113.25
 20
338.667
 10
116.75
 20
338.667
 10
116.75
 20
263.667
  0
LWPOLYLINE
  5
266
330
1F
100
AcDbEntity
  8
Attachment Grooves
100
AcDbPolyline
 90
        4
 70
     1
 43
0.0
 10
48.25
 20
370.0000000000001
 10
48.25
 20
445.0000000000001
 10
51.75
 20
445.0000000000001
 10
51.75
 20
370.0000000000001
  0
LWPOLYLINE
  5
267
330
1F
100
AcDbEntity
  8
Attachment Grooves
100
AcDbPolyline
 90
        4
 70
     1
 43
0.0
 10
63.25
 20
370.0000000000001
 10
63.25
 20
445.0000000000001
 10
66.75
 20
445.0000000000001
 10
66.75
 20
370.0000000000001
  0
LWPOLYLINE
  5
268
330
1F
100
AcDbEntity
  8
Attachment Grooves
100
AcDbPolyline
 90
        4
 70
     1
 43
0.0
 10
113.25
 20
370.0000000000001
 10
113.25
 20
445.0000000000001
 10
116.75
 20
445.0000000000001
 10
116.75
 20
370.0000000000001
  0
LWPOLYLINE
  5
269
330
1F
100
AcDbEntity
  8
Attachment Grooves
100
AcDbPolyline
 90
        4
 70
     1
 43
0.0
 10
128.25
 20
370.0000000000001
 10
128.25
 20
445.0000000000001
 10
131.75
 20
445.0000000000001
 10
131.75
 20
370.0000000000001
  0
LWPOLYLINE
  5
26A
330
1F
100
AcDbEntity
  8
Attachment Grooves
100
AcDbPolyline
 90
        4
 70
     1
 43
0.0
 10
352.5760290116842
 20
50.0
 10
352.5760290116842
 20
125.0
 10
356.0760290116842
 20
125.0
 10
356.0760290116842
 20
50.0
  0
LWPOLYLINE
  5
26B
330
1F
100
AcDbEntity
  8
Attachment Grooves
100
AcDbPolyline
 90
        4
 70
     1
 43
0.0
 10
432.5760290116842
 20
50.0
 10
432.5760290116842
 20
125.0
 10
436.0760290116842
 20
125.0
 10
436.0760290116842
 20
50.0
  0
LWPOLYLINE
  5
26C
330
1F
100
AcDbEntity
  8
Attachment Grooves
100
AcDbPolyline
 90
        4
 70
     1
 43
0.0
 10
367.5760290116842
 20
156.333
 10
367.5760290116842
 20
231.333
 10
371.0760290116842
 20
231.333
 10
371.0760290116842
 20
156.333
  0
LWPOLYLINE
  5
26D
330
1F
100
AcDbEntity
  8
Attachment Grooves
100
AcDbPolyline
 90
        4
 70
     1
 43
0.0
 10
417.5760290116842
 20
156.333
 10
417.5760290116842
 20
231.333
 10
421.0760290116842
 20
231.333
 10
421.0760290116842
 20
156.333
  0
LWPOLYLINE
  5
26E
330
1F
100
AcDbEntity
  8
Attachment Grooves
100
AcDbPolyline
 90
        4
 70
     1
 43
0.0
 10
367.5760290116842
 20
263.667
 10
367.5760290116842
 20
338.667
 10
371.0760290116842
 20
338.667
 10
371.0760290116842
 20
263.667
  0
LWPOLYLINE
  5
26F
330
1F
100
AcDbEntity
  8
Attachment Grooves
100
AcDbPolyline
 90
        4
 70
     1
 43
0.0
 10
417.5760290116842
 20
263.667
 10
417.5760290116842
 20
338.667
 10
421.0760290116842
 20
338.667
 10
421.0760290116842
 20
263.667
  0
LWPOLYLINE
  5
270
330
1F
100
AcDbEntity
  8
Attachment Grooves
100
AcDbPolyline
 90
        4
 70
     1
 43
0.0
 10
352.5760290116842
 20
370.0000000000001
 10
352.5760290116842
 20
445.0000000000001
 10
356.0760290116842
 20
445.0000000000001
 10
356.0760290116842
 20
370.0000000000001
  0
LWPOLYLINE
  5
271
330
1F
100
AcDbEntity
  8
Attachment Grooves
100
AcDbPolyline
 90
        4
 70
     1
 43
0.0
 10
367.5760290116842
 20
370.0000000000001
 10
367.5760290116842
 20
445.0000000000001
 10
371.0760290116842
 20
445.0000000000001
 10
371.0760290116842
 20
370.0000000000001
  0
LWPOLYLINE
  5
272
330
1F
100
AcDbEntity
  8
Attachment Grooves
100
AcDbPolyline
 90
        4
 70
     1
 43
0.0
 10
417.5760290116842
 20
370.0000000000001
 10
417.5760290116842
 20
445.0000000000001
 10
421.0760290116842
 20
445.0000000000001
 10
421.0760290116842
 20
370.0000000000001
  0
LWPOLYLINE
  5
273
330
1F
100
AcDbEntity
  8
Attachment Grooves
100
AcDbPolyline
 90
        4
 70
     1
 43
0.0
 10
432.5760290116842
 20
370.0000000000001
 10
432.5760290116842
 20
445.0000000000001
 10
436.0760290116842
 20
445.0000000000001
 10
436.0760290116842
 20
370.0000000000001
  0
LWPOLYLINE
  5
284
330
1F
100
AcDbEntity
  8
Attachment Grooves
100
AcDbPolyline
 90
        4
 70
     1
 43
0.0
 10
33.25
 20
395.0000000000001
 10
33.25
 20
445.0000000000001
 10
36.75000000000001
 20
445.0000000000001
 10
36.75000000000001
 20
395.0000000000001
  0
LWPOLYLINE
  5
285
330
1F
100
AcDbEntity
  8
Attachment Grooves
100
AcDbPolyline
 90
        4
 70
     1
 43
0.0
 10
143.25
 20
395.0000000000001
 10
143.25
 20
445.0000000000001
 10
146.75
 20
445.0000000000001
 10
146.75
 20
395.0000000000001
  0
LWPOLYLINE
  5
286
330
1F
100
AcDbEntity
  8
Attachment Grooves
100
AcDbPolyline
 90
        4
 70
     1
 43
0.0
 10
33.25
 20
50.0
 10
33.25
 20
100.0
 10
36.75000000000001
 20
100.0
 10
36.75000000000001
 20
50.0
  0
LWPOLYLINE
  5
287
330
1F
100
AcDbEntity
  8
Attachment Grooves
100
AcDbPolyline
 90
        4
 70
     1
 43
0.0
 10
143.25
 20
50.0
 10
143.25
 20
100.0
 10
146.75
 20
100.0
 10
146.75
 20
50.0
  0
LWPOLYLINE
  5
288
330
1F
100
AcDbEntity
  8
Attachment Grooves
100
AcDbPolyline
 90
        4
 70
     1
 43
0.0
 10
337.5760290116842
 20
50.0
 10
337.5760290116842
 20
100.0
 10
341.0760290116842
 20
100.0
 10
341.0760290116842
 20
50.0
  0
LWPOLYLINE
  5
289
330
1F
100
AcDbEntity
  8
Attachment Grooves
100
AcDbPolyline
 90
        4
 70
     1
 43
0.0
 10
447.5760290116842
 20
50.0
 10
447.5760290116842
 20
100.0
 10
451.0760290116842
 20
100.0
 10
451.0760290116842
 20
50.0
  0
LWPOLYLINE
  5
28A
330
1F
100
AcDbEntity
  8
Attachment Grooves
100
AcDbPolyline
 90
        4
 70
     1
 43
0.0
 10
447.5760290116842
 20
395.0000000000001
 10
447.5760290116842
 20
445.0000000000001
 10
451.0760290116842
 20
445.0000000000001
 10
451.0760290116842
 20
395.0000000000001
  0
LWPOLYLINE
  5
28B
330
1F
100
AcDbEntity
  8
Attachment Grooves
100
AcDbPolyline
 90
        4
 70
     1
 43
0.0
 10
337.5760290116842
 20
395.0000000000001
 10
337.5760290116842
 20
445.0000000000001
 10
341.0760290116842
 20
445.0000000000001
 10
341.0760290116842
 20
395.0000000000001
  0
CIRCLE
  5
290
330
1F
100
AcDbEntity
  8
Attachment Holes
100
AcDbCircle
 10
57.5
 20
385.0000000000001
 30
0.0
 40
1.75
  0
CIRCLE
  5
291
330
1F
100
AcDbEntity
  8
0
100
AcDbCircle
 10
57.5
 20
430.0000000000001
 30
0.0
 40
0.0
  0
CIRCLE
  5
292
330
1F
100
AcDbEntity
  8
Attachment Holes
100
AcDbCircle
 10
57.5
 20
430.0000000000001
 30
0.0
 40
1.75
  0
CIRCLE
  5
293
330
1F
100
AcDbEntity
  8
Attachment Holes
100
AcDbCircle
 10
57.49999999999999
 20
407.5000000000001
 30
0.0
 40
1.75
  0
CIRCLE
  5
294
330
1F
100
AcDbEntity
  8
Attachment Holes
100
AcDbCircle
 10
122.5
 20
385.0000000000001
 30
0.0
 40
1.75
  0
CIRCLE
  5
295
330
1F
100
AcDbEntity
  8
Attachment Holes
100
AcDbCircle
 10
122.5
 20
430.0000000000001
 30
0.0
 40
1.75
  0
CIRCLE
  5
296
330
1F
100
AcDbEntity
  8
Attachment Holes
100
AcDbCircle
 10
122.5
 20
407.5000000000001
 30
0.0
 40
1.75
  0
CIRCLE
  5
297
330
1F
100
AcDbEntity
  8
Attachment Holes
100
AcDbCircle
 10
122.5
 20
278.667
 30
0.0
 40
1.75
  0
CIRCLE
  5
298
330
1F
100
AcDbEntity
  8
Attachment Holes
100
AcDbCircle
 10
122.5
 20
323.667
 30
0.0
 40
1.75
  0
CIRCLE
  5
299
330
1F
100
AcDbEntity
  8
Attachment Holes
100
AcDbCircle
 10
122.5
 20
301.167
 30
0.0
 40
1.75
  0
CIRCLE
  5
29A
330
1F
100
AcDbEntity
  8
Attachment Holes
100
AcDbCircle
 10
122.5
 20
171.333
 30
0.0
 40
1.75
  0
CIRCLE
  5
29B
330
1F
100
AcDbEntity
  8
Attachment Holes
100
AcDbCircle
 10
122.5
 20
216.333
 30
0.0
 40
1.75
  0
CIRCLE
  5
29C
330
1F
100
AcDbEntity
  8
Attachment Holes
100
AcDbCircle
 10
122.5
 20
193.833
 30
0.0
 40
1.75
  0
CIRCLE
  5
29D
330
1F
100
AcDbEntity
  8
Attachment Holes
100
AcDbCircle
 10
122.5
 20
65.0
 30
0.0
 40
1.75
  0
CIRCLE
  5
29E
330
1F
100
AcDbEntity
  8
Attachment Holes
100
AcDbCircle
 10
122.5
 20
110.0
 30
0.0
 40
1.75
  0
CIRCLE
  5
29F
330
1F
100
AcDbEntity
  8
Attachment Holes
100
AcDbCircle
 10
122.5
 20
87.5
 30
0.0
 40
1.75
  0
CIRCLE
  5
2A0
330
1F
100
AcDbEntity
  8
Attachment Holes
100
AcDbCircle
 10
57.5
 20
65.0
 30
0.0
 40
1.75
  0
CIRCLE
  5
2A1
330
1F
100
AcDbEntity
  8
Attachment Holes
100
AcDbCircle
 10
57.5
 20
110.0
 30
0.0
 40
1.75
  0
CIRCLE
  5
2A2
330
1F
100
AcDbEntity
  8
Attachment Holes
100
AcDbCircle
 10
57.49999999999999
 20
87.5
 30
0.0
 40
1.75
  0
CIRCLE
  5
2A3
330
1F
100
AcDbEntity
  8
Attachment Holes
100
AcDbCircle
 10
57.5
 20
278.667
 30
0.0
 40
1.75
  0
CIRCLE
  5
2A4
330
1F
100
AcDbEntity
  8
Attachment Holes
100
AcDbCircle
 10
57.5
 20
323.667
 30
0.0
 40
1.75
  0
CIRCLE
  5
2A5
330
1F
100
AcDbEntity
  8
Attachment Holes
100
AcDbCircle
 10
57.49999999999999
 20
301.167
 30
0.0
 40
1.75
  0
CIRCLE
  5
2A6
330
1F
100
AcDbEntity
  8
Attachment Holes
100
AcDbCircle
 10
57.5
 20
171.333
 30
0.0
 40
1.75
  0
CIRCLE
  5
2A7
330
1F
100
AcDbEntity
  8
Attachment Holes
100
AcDbCircle
 10
57.5
 20
216.333
 30
0.0
 40
1.75
  0
CIRCLE
  5
2A8
330
1F
100
AcDbEntity
  8
Attachment Holes
100
AcDbCircle
 10
57.49999999999999
 20
193.833
 30
0.0
 40
1.75
  0
LWPOLYLINE
  5
2F5
330
1F
100
AcDbEntity
  8
Attachment Grooves
100
AcDbPolyline
 90
        4
 70
     1
 43
0.0
 10
78.25
 20
338.667
 10
78.25
 20
263.667
 10
101.75
 20
263.667
 10
101.75
 20
338.667
  0
LWPOLYLINE
  5
2F6
330
1F
100
AcDbEntity
  8
Attachment Grooves
100
AcDbPolyline
 90
        4
 70
     1
 43
0.0
 10
78.25
 20
231.333
 10
78.25
 20
156.333
 10
101.75
 20
156.333
 10
101.75
 20
231.333
  0
LWPOLYLINE
  5
2F7
330
1F
100
AcDbEntity
  8
Attachment Grooves
100
AcDbPolyline
 90
        4
 70
     1
 43
0.0
 10
78.25
 20
125.0
 10
78.25
 20
50.0
 10
101.75
 20
50.0
 10
101.75
 20
125.0
  0
CIRCLE
  5
30A
330
1F
100
AcDbEntity
  8
Attachment Holes
100
AcDbCircle
 10
50.0
 20
450.7500000000001
 30
0.0
 40
1.75
  0
CIRCLE
  5
30B
330
1F
100
AcDbEntity
  8
Attachment Holes
100
AcDbCircle
 10
65.0
 20
450.7500000000001
 30
0.0
 40
1.75
  0
CIRCLE
  5
30C
330
1F
100
AcDbEntity
  8
Attachment Holes
100
AcDbCircle
 10
115.0
 20
450.7500000000001
 30
0.0
 40
1.75
  0
CIRCLE
  5
30D
330
1F
100
AcDbEntity
  8
Attachment Holes
100
AcDbCircle
 10
130.0
 20
450.7500000000001
 30
0.0
 40
1.75
  0
CIRCLE
  5
316
330
1F
100
AcDbEntity
  8
Attachment Holes
100
AcDbCircle
 10
50.0
 20
44.25
 30
0.0
 40
1.75
  0
CIRCLE
  5
317
330
1F
100
AcDbEntity
  8
Attachment Holes
100
AcDbCircle
 10
65.0
 20
44.25
 30
0.0
 40
1.75
  0
CIRCLE
  5
318
330
1F
100
AcDbEntity
  8
Attachment Holes
100
AcDbCircle
 10
115.0
 20
44.25
 30
0.0
 40
1.75
  0
CIRCLE
  5
319
330
1F
100
AcDbEntity
  8
Attachment Holes
100
AcDbCircle
 10
130.0
 20
44.25
 30
0.0
 40
1.75
  0
CIRCLE
  5
31B
330
1F
100
AcDbEntity
  8
Attachment Holes
100
AcDbCircle
 10
50.0
 20
130.75
 30
0.0
 40
1.75
  0
CIRCLE
  5
31C
330
1F
100
AcDbEntity
  8
Attachment Holes
100
AcDbCircle
 10
65.0
 20
130.75
 30
0.0
 40
1.75
  0
CIRCLE
  5
31D
330
1F
100
AcDbEntity
  8
Attachment Holes
100
AcDbCircle
 10
115.0
 20
130.75
 30
0.0
 40
1.75
  0
CIRCLE
  5
31E
330
1F
100
AcDbEntity
  8
Attachment Holes
100
AcDbCircle
 10
130.0
 20
130.75
 30
0.0
 40
1.75
  0
CIRCLE
  5
31F
330
1F
100
AcDbEntity
  8
Attachment Holes
100
AcDbCircle
 10
50.0
 20
364.2500000000001
 30
0.0
 40
1.75
  0
CIRCLE
  5
320
330
1F
100
AcDbEntity
  8
Attachment Holes
100
AcDbCircle
 10
65.0
 20
364.2500000000001
 30
0.0
 40
1.75
  0
CIRCLE
  5
321
330
1F
100
AcDbEntity
  8
Attachment Holes
100
AcDbCircle
 10
115.0
 20
364.2500000000001
 30
0.0
 40
1.75
  0
CIRCLE
  5
322
330
1F
100
AcDbEntity
  8
Attachment Holes
100
AcDbCircle
 10
130.0
 20
364.2500000000001
 30
0.0
 40
1.75
  0
CIRCLE
  5
323
330
1F
100
AcDbEntity
  8
Attachment Holes
100
AcDbCircle
 10
65.0
 20
257.917
 30
0.0
 40
1.75
  0
CIRCLE
  5
324
330
1F
100
AcDbEntity
  8
Attachment Holes
100
AcDbCircle
 10
115.0
 20
257.917
 30
0.0
 40
1.75
  0
CIRCLE
  5
325
330
1F
100
AcDbEntity
  8
Attachment Holes
100
AcDbCircle
 10
65.0
 20
150.583
 30
0.0
 40
1.75
  0
CIRCLE
  5
326
330
1F
100
AcDbEntity
  8
Attachment Holes
100
AcDbCircle
 10
115.0
 20
150.583
 30
0.0
 40
1.75
  0
CIRCLE
  5
327
330
1F
100
AcDbEntity
  8
Attachment Holes
100
AcDbCircle
 10
65.0
 20
237.083
 30
0.0
 40
1.75
  0
CIRCLE
  5
328
330
1F
100
AcDbEntity
  8
Attachment Holes
100
AcDbCircle
 10
115.0
 20
237.083
 30
0.0
 40
1.75
  0
CIRCLE
  5
329
330
1F
100
AcDbEntity
  8
Attachment Holes
100
AcDbCircle
 10
65.0
 20
344.417
 30
0.0
 40
1.75
  0
CIRCLE
  5
32A
330
1F
100
AcDbEntity
  8
Attachment Holes
100
AcDbCircle
 10
115.0
 20
344.417
 30
0.0
 40
1.75
  0
CIRCLE
  5
33D
330
1F
100
AcDbEntity
  8
Attachment Holes
100
AcDbCircle
 10
361.8260290116842
 20
385.0000000000001
 30
0.0
 40
1.75
  0
CIRCLE
  5
33E
330
1F
100
AcDbEntity
  8
Attachment Holes
100
AcDbCircle
 10
361.8260290116842
 20
430.0000000000001
 30
0.0
 40
1.75
  0
CIRCLE
  5
33F
330
1F
100
AcDbEntity
  8
Attachment Holes
100
AcDbCircle
 10
361.8260290116842
 20
407.5000000000001
 30
0.0
 40
1.75
  0
CIRCLE
  5
340
330
1F
100
AcDbEntity
  8
Attachment Holes
100
AcDbCircle
 10
426.8260290116842
 20
385.0000000000001
 30
0.0
 40
1.75
  0
CIRCLE
  5
341
330
1F
100
AcDbEntity
  8
Attachment Holes
100
AcDbCircle
 10
426.8260290116842
 20
430.0000000000001
 30
0.0
 40
1.75
  0
CIRCLE
  5
342
330
1F
100
AcDbEntity
  8
Attachment Holes
100
AcDbCircle
 10
426.8260290116842
 20
407.5000000000001
 30
0.0
 40
1.75
  0
CIRCLE
  5
343
330
1F
100
AcDbEntity
  8
Attachment Holes
100
AcDbCircle
 10
426.8260290116842
 20
278.667
 30
0.0
 40
1.75
  0
CIRCLE
  5
344
330
1F
100
AcDbEntity
  8
Attachment Holes
100
AcDbCircle
 10
426.8260290116842
 20
323.667
 30
0.0
 40
1.75
  0
CIRCLE
  5
345
330
1F
100
AcDbEntity
  8
Attachment Holes
100
AcDbCircle
 10
426.8260290116842
 20
301.167
 30
0.0
 40
1.75
  0
CIRCLE
  5
346
330
1F
100
AcDbEntity
  8
Attachment Holes
100
AcDbCircle
 10
426.8260290116842
 20
171.333
 30
0.0
 40
1.75
  0
CIRCLE
  5
347
330
1F
100
AcDbEntity
  8
Attachment Holes
100
AcDbCircle
 10
426.8260290116842
 20
216.333
 30
0.0
 40
1.75
  0
CIRCLE
  5
348
330
1F
100
AcDbEntity
  8
Attachment Holes
100
AcDbCircle
 10
426.8260290116842
 20
193.833
 30
0.0
 40
1.75
  0
CIRCLE
  5
349
330
1F
100
AcDbEntity
  8
Attachment Holes
100
AcDbCircle
 10
426.8260290116842
 20
65.0
 30
0.0
 40
1.75
  0
CIRCLE
  5
34A
330
1F
100
AcDbEntity
  8
Attachment Holes
100
AcDbCircle
 10
426.8260290116842
 20
110.0
 30
0.0
 40
1.75
  0
CIRCLE
  5
34C
330
1F
100
AcDbEntity
  8
Attachment Holes
100
AcDbCircle
 10
361.8260290116842
 20
65.0
 30
0.0
 40
1.75
  0
CIRCLE
  5
34D
330
1F
100
AcDbEntity
  8
Attachment Holes
100
AcDbCircle
 10
361.8260290116842
 20
110.0
 30
0.0
 40
1.75
  0
CIRCLE
  5
34F
330
1F
100
AcDbEntity
  8
Attachment Holes
100
AcDbCircle
 10
361.8260290116842
 20
278.667
 30
0.0
 40
1.75
  0
CIRCLE
  5
350
330
1F
100
AcDbEntity
  8
Attachment Holes
100
AcDbCircle
 10
361.8260290116842
 20
323.667
 30
0.0
 40
1.75
  0
CIRCLE
  5
351
330
1F
100
AcDbEntity
  8
Attachment Holes
100
AcDbCircle
 10
361.8260290116842
 20
301.167
 30
0.0
 40
1.75
  0
CIRCLE
  5
352
330
1F
100
AcDbEntity
  8
Attachment Holes
100
AcDbCircle
 10
361.8260290116842
 20
171.333
 30
0.0
 40
1.75
  0
CIRCLE
  5
353
330
1F
100
AcDbEntity
  8
Attachment Holes
100
AcDbCircle
 10
361.8260290116842
 20
216.333
 30
0.0
 40
1.75
  0
CIRCLE
  5
354
330
1F
100
AcDbEntity
  8
Attachment Holes
100
AcDbCircle
 10
361.8260290116842
 20
193.833
 30
0.0
 40
1.75
  0
CIRCLE
  5
35E
330
1F
100
AcDbEntity
  8
Attachment Holes
100
AcDbCircle
 10
354.3260290116842
 20
450.7500000000001
 30
0.0
 40
1.75
  0
CIRCLE
  5
35F
330
1F
100
AcDbEntity
  8
Attachment Holes
100
AcDbCircle
 10
369.3260290116842
 20
450.7500000000001
 30
0.0
 40
1.75
  0
CIRCLE
  5
360
330
1F
100
AcDbEntity
  8
Attachment Holes
100
AcDbCircle
 10
419.3260290116842
 20
450.7500000000001
 30
0.0
 40
1.75
  0
CIRCLE
  5
361
330
1F
100
AcDbEntity
  8
Attachment Holes
100
AcDbCircle
 10
434.3260290116842
 20
450.7500000000001
 30
0.0
 40
1.75
  0
CIRCLE
  5
364
330
1F
100
AcDbEntity
  8
Attachment Holes
100
AcDbCircle
 10
354.3260290116842
 20
44.25
 30
0.0
 40
1.75
  0
CIRCLE
  5
365
330
1F
100
AcDbEntity
  8
Attachment Holes
100
AcDbCircle
 10
369.3260290116842
 20
44.25
 30
0.0
 40
1.75
  0
CIRCLE
  5
366
330
1F
100
AcDbEntity
  8
Attachment Holes
100
AcDbCircle
 10
419.3260290116842
 20
44.25
 30
0.0
 40
1.75
  0
CIRCLE
  5
367
330
1F
100
AcDbEntity
  8
Attachment Holes
100
AcDbCircle
 10
434.3260290116842
 20
44.25
 30
0.0
 40
1.75
  0
CIRCLE
  5
369
330
1F
100
AcDbEntity
  8
Attachment Holes
100
AcDbCircle
 10
354.3260290116842
 20
130.75
 30
0.0
 40
1.75
  0
CIRCLE
  5
36A
330
1F
100
AcDbEntity
  8
Attachment Holes
100
AcDbCircle
 10
369.3260290116842
 20
130.75
 30
0.0
 40
1.75
  0
CIRCLE
  5
36B
330
1F
100
AcDbEntity
  8
Attachment Holes
100
AcDbCircle
 10
419.3260290116842
 20
130.75
 30
0.0
 40
1.75
  0
CIRCLE
  5
36C
330
1F
100
AcDbEntity
  8
Attachment Holes
100
AcDbCircle
 10
434.3260290116842
 20
130.75
 30
0.0
 40
1.75
  0
CIRCLE
  5
36D
330
1F
100
AcDbEntity
  8
Attachment Holes
100
AcDbCircle
 10
354.3260290116842
 20
364.2500000000001
 30
0.0
 40
1.75
  0
CIRCLE
  5
36E
330
1F
100
AcDbEntity
  8
Attachment Holes
100
AcDbCircle
 10
369.3260290116842
 20
364.2500000000001
 30
0.0
 40
1.75
  0
CIRCLE
  5
36F
330
1F
100
AcDbEntity
  8
Attachment Holes
100
AcDbCircle
 10
419.3260290116842
 20
364.2500000000001
 30
0.0
 40
1.75
  0
CIRCLE
  5
370
330
1F
100
AcDbEntity
  8
Attachment Holes
100
AcDbCircle
 10
434.3260290116842
 20
364.2500000000001
 30
0.0
 40
1.75
  0
CIRCLE
  5
371
330
1F
100
AcDbEntity
  8
Attachment Holes
100
AcDbCircle
 10
369.3260290116842
 20
257.917
 30
0.0
 40
1.75
  0
CIRCLE
  5
372
330
1F
100
AcDbEntity
  8
Attachment Holes
100
AcDbCircle
 10
419.3260290116842
 20
257.917
 30
0.0
 40
1.75
  0
CIRCLE
  5
373
330
1F
100
AcDbEntity
  8
Attachment Holes
100
AcDbCircle
 10
369.3260290116842
 20
150.583
 30
0.0
 40
1.75
  0
CIRCLE
  5
374
330
1F
100
AcDbEntity
  8
Attachment Holes
100
AcDbCircle
 10
419.3260290116842
 20
150.583
 30
0.0
 40
1.75
  0
CIRCLE
  5
375
330
1F
100
AcDbEntity
  8
Attachment Holes
100
AcDbCircle
 10
369.3260290116842
 20
237.083
 30
0.0
 40
1.75
  0
CIRCLE
  5
376
330
1F
100
AcDbEntity
  8
Attachment Holes
100
AcDbCircle
 10
419.3260290116842
 20
237.083
 30
0.0
 40
1.75
  0
CIRCLE
  5
377
330
1F
100
AcDbEntity
  8
Attachment Holes
100
AcDbCircle
 10
369.3260290116842
 20
344.417
 30
0.0
 40
1.75
  0
CIRCLE
  5
378
330
1F
100
AcDbEntity
  8
Attachment Holes
100
AcDbCircle
 10
419.3260290116842
 20
344.417
 30
0.0
 40
1.75
  0
ENDSEC
  0
SECTION
  2
OBJECTS
  0
DICTIONARY
  5
C
330
0
100
AcDbDictionary
281
     1
  3
ACAD_DETAILVIEWSTYLE
350
124
  3
ACAD_GROUP
350
D
  3
ACAD_IMAGE_VARS
350
DC
  3
ACAD_LAYOUT
350
1A
  3
ACAD_MLINESTYLE
350
17
  3
ACAD_PLOTSETTINGS
350
19
  3
ACAD_PLOTSTYLENAME
350
E
  3
ACAD_SCALELIST
350
B6
  3
ACAD_SECTIONVIEWSTYLE
350
125
  3
AcDbVariableDictionary
350
66
  3
APPDATA
350
E3
  3
DWGPROPS
350
3B5
  0
DICTIONARY
  5
32F
330
2
100
AcDbDictionary
280
     1
281
     1
  3
ACAD_LAYERSTATES
360
330
  3
ACLYDICTIONARY
360
387
  0
DICTIONARY
  5
124
102
{ACAD_REACTORS
330
C
102
}
330
C
100
AcDbDictionary
281
     1
  0
DICTIONARY
  5
D
102
{ACAD_REACTORS
330
C
102
}
330
C
100
AcDbDictionary
281
     1
  0
RASTERVARIABLES
  5
DC
102
{ACAD_REACTORS
330
C
102
}
330
C
100
AcDbRasterVariables
 90
        0
 70
     1
 71
     1
 72
     5
  0
DICTIONARY
  5
1A
102
{ACAD_REACTORS
330
C
102
}
330
C
100
AcDbDictionary
281
     1
  3
Model
350
22
  3
Sheet1
350
59
  3
Sheet2
350
5E
  0
DICTIONARY
  5
17
102
{ACAD_REACTORS
330
C
102
}
330
C
100
AcDbDictionary
281
     1
  3
Standard
350
18
  0
DICTIONARY
  5
19
102
{ACAD_REACTORS
330
C
102
}
330
C
100
AcDbDictionary
281
     1
  0
ACDBDICTIONARYWDFLT
  5
E
102
{ACAD_REACTORS
330
C
102
}
330
C
100
AcDbDictionary
281
     1
  3
Normal
350
F
100
AcDbDictionaryWithDefault
340
F
  0
DICTIONARY
  5
B6
102
{ACAD_REACTORS
330
C
102
}
330
C
100
AcDbDictionary
281
     1
  3
A0
350
B7
  3
A1
350
B8
  3
A2
350
B9
  3
A3
350
BA
  3
A4
350
BB
  3
A5
350
BC
  3
A6
350
BD
  3
A7
350
BE
  3
A8
350
BF
  3
A9
350
C0
  3
B0
350
C1
  3
B1
350
C2
  3
B2
350
C3
  3
B3
350
C4
  3
B4
350
C5
  3
B5
350
C6
  3
B6
350
C7
  3
B7
350
C8
  3
B8
350
C9
  3
B9
350
CA
  3
C0
350
CB
  3
C1
350
CC
  3
C2
350
CD
  3
C3
350
CE
  3
C4
350
CF
  3
C5
350
D0
  3
C6
350
D1
  3
C7
350
D2
  3
C8
350
D3
  3
C9
350
D4
  3
D0
350
D5
  3
D1
350
D6
  3
D2
350
D7
  0
DICTIONARY
  5
125
102
{ACAD_REACTORS
330
C
102
}
330
C
100
AcDbDictionary
281
     1
  0
DICTIONARY
  5
66
102
{ACAD_REACTORS
330
C
102
}
330
C
100
AcDbDictionary
281
     1
  3
DIMASSOC
350
67
  3
HIDETEXT
350
6B
  0
DICTIONARY
  5
E3
102
{ACAD_REACTORS
330
C
102
}
330
C
100
AcDbDictionary
281
     1
  0
XRECORD
  5
3B5
102
{ACAD_REACTORS
330
C
102
}
330
C
100
AcDbXrecord
280
     1
  1
DWGPROPS COOKIE
  2

  3

  4

  6

  7

  8
DarkWing_2
  9

300
=
301
=
302
=
303
=
304
=
305
=
306
=
307
=
308
=
309
=
 40
0.0
 41
2452643.063384271
 42
2456785.703346875
  1

 90
        0
  0
DICTIONARY
  5
330
102
{ACAD_REACTORS
330
32F
102
}
330
32F
100
AcDbDictionary
281
     1
  3
ARGON_LAYERP_1
350
331
  3
ARGON_LAYERP_10
350
381
  3
ARGON_LAYERP_11
350
385
  3
ARGON_LAYERP_12
350
388
  3
ARGON_LAYERP_13
350
389
  3
ARGON_LAYERP_14
350
38A
  3
ARGON_LAYERP_15
350
38B
  3
ARGON_LAYERP_16
350
38C
  3
ARGON_LAYERP_17
350
3AE
  3
ARGON_LAYERP_18
350
3AF
  3
ARGON_LAYERP_19
350
3B0
  3
ARGON_LAYERP_2
350
335
  3
ARGON_LAYERP_20
350
3B1
  3
ARGON_LAYERP_21
350
3B2
  3
ARGON_LAYERP_22
350
3B3
  3
ARGON_LAYERP_23
350
3B4
  3
ARGON_LAYERP_3
350
337
  3
ARGON_LAYERP_4
350
33A
  3
ARGON_LAYERP_5
350
33B
  3
ARGON_LAYERP_6
350
33C
  3
ARGON_LAYERP_7
350
37D
  3
ARGON_LAYERP_8
350
37E
  3
ARGON_LAYERP_9
350
37F
  0
DICTIONARY
  5
387
102
{ACAD_REACTORS
330
32F
102
}
330
32F
100
AcDbDictionary
281
     1
1001
ACAD
1000
<All
  0
LAYOUT
  5
22
102
{ACAD_REACTORS
330
1A
102
}
330
1A
100
AcDbPlotSettings
  1

  2
none_device
  4
ANSI_A_(8.50_x_11.00_Inches)
  6

 40
6.35
 41
19.05
 42
6.35
 43
19.05
 44
215.9
 45
279.4
 46
11.11250000000003
 47
0.0000000000000142
 48
0.0
 49
0.0
140
0.0
141
0.0
142
1.0
143
1.263157894736842
 70
 11444
 72
     0
 73
     1
 74
     1
  7
monochrome.ctb
 75
     0
147
0.7916666666666665
148
-702.8076765758875
149
-496.2830551296954
100
AcDbLayout
  1
Model
 70
     1
 71
     0
 10
0.0
 20
0.0
 11
12.0
 21
9.0
 12
0.0
 22
0.0
 32
0.0
 14
-0.0000000000000568
 24
-0.0000000000000036
 34
0.0
 15
484.3260290116842
 25
495.0
 35
0.0
146
0.0
 13
0.0
 23
0.0
 33
0.0
 16
1.0
 26
0.0
 36
0.0
 17
0.0
 27
1.0
 37
0.0
 76
     0
330
1F
331
94
  0
LAYOUT
  5
59
102
{ACAD_REACTORS
330
1A
102
}
330
1A
100
AcDbPlotSettings
  1

  2
None
  4

  6

 40
0.0
 41
0.0
 42
0.0
 43
0.0
 44
0.0
 45
0.0
 46
0.0
 47
0.0
 48
0.0
 49
0.0
140
0.0
141
0.0
142
1.0
143
1.0
 70
   688
 72
     0
 73
     0
 74
     5
  7

 75
    16
147
1.0
148
0.0
149
0.0
100
AcDbLayout
  1
Sheet1
 70
     1
 71
     1
 10
0.0
 20
0.0
 11
12.0
 21
9.0
 12
0.0
 22
0.0
 32
0.0
 14
0.0
 24
0.0
 34
0.0
 15
0.0
 25
0.0
 35
0.0
146
0.0
 13
0.0
 23
0.0
 33
0.0
 16
1.0
 26
0.0
 36
0.0
 17
0.0
 27
1.0
 37
0.0
 76
     0
330
58
  0
LAYOUT
  5
5E
102
{ACAD_REACTORS
330
1A
102
}
330
1A
100
AcDbPlotSettings
  1

  2
None
  4

  6

 40
0.0
 41
0.0
 42
0.0
 43
0.0
 44
0.0
 45
0.0
 46
0.0
 47
0.0
 48
0.0
 49
0.0
140
0.0
141
0.0
142
1.0
143
1.0
 70
   688
 72
     0
 73
     0
 74
     5
  7

 75
    16
147
1.0
148
0.0
149
0.0
100
AcDbLayout
  1
Sheet2
 70
     1
 71
     2
 10
0.0
 20
0.0
 11
12.0
 21
9.0
 12
0.0
 22
0.0
 32
0.0
 14
0.0
 24
0.0
 34
0.0
 15
0.0
 25
0.0
 35
0.0
146
0.0
 13
0.0
 23
0.0
 33
0.0
 16
1.0
 26
0.0
 36
0.0
 17
0.0
 27
1.0
 37
0.0
 76
     0
330
5D
  0
MLINESTYLE
  5
18
102
{ACAD_REACTORS
330
17
102
}
330
17
100
AcDbMlineStyle
  2
STANDARD
 70
     0
  3

 62
   256
 51
90.0
 52
90.0
 71
     2
 49
0.5
 62
   256
  6
BYLAYER
 49
-0.5
 62
   256
  6
BYLAYER
  0
ACDBPLACEHOLDER
  5
F
102
{ACAD_REACTORS
330
E
102
}
330
E
  0
SCALE
  5
B7
102
{ACAD_REACTORS
330
B6
102
}
330
B6
100
AcDbScale
 70
     0
300
1:1
140
1.0
141
1.0
290
     1
  0
SCALE
  5
B8
102
{ACAD_REACTORS
330
B6
102
}
330
B6
100
AcDbScale
 70
     0
300
1:2
140
1.0
141
2.0
290
     0
  0
SCALE
  5
B9
102
{ACAD_REACTORS
330
B6
102
}
330
B6
100
AcDbScale
 70
     0
300
1:4
140
1.0
141
4.0
290
     0
  0
SCALE
  5
BA
102
{ACAD_REACTORS
330
B6
102
}
330
B6
100
AcDbScale
 70
     0
300
1:5
140
1.0
141
5.0
290
     0
  0
SCALE
  5
BB
102
{ACAD_REACTORS
330
B6
102
}
330
B6
100
AcDbScale
 70
     0
300
1:8
140
1.0
141
8.0
290
     0
  0
SCALE
  5
BC
102
{ACAD_REACTORS
330
B6
102
}
330
B6
100
AcDbScale
 70
     0
300
1:10
140
1.0
141
10.0
290
     0
  0
SCALE
  5
BD
102
{ACAD_REACTORS
330
B6
102
}
330
B6
100
AcDbScale
 70
     0
300
1:16
140
1.0
141
16.0
290
     0
  0
SCALE
  5
BE
102
{ACAD_REACTORS
330
B6
102
}
330
B6
100
AcDbScale
 70
     0
300
1:20
140
1.0
141
20.0
290
     0
  0
SCALE
  5
BF
102
{ACAD_REACTORS
330
B6
102
}
330
B6
100
AcDbScale
 70
     0
300
1:30
140
1.0
141
30.0
290
     0
  0
SCALE
  5
C0
102
{ACAD_REACTORS
330
B6
102
}
330
B6
100
AcDbScale
 70
     0
300
1:40
140
1.0
141
40.0
290
     0
  0
SCALE
  5
C1
102
{ACAD_REACTORS
330
B6
102
}
330
B6
100
AcDbScale
 70
     0
300
1:50
140
1.0
141
50.0
290
     0
  0
SCALE
  5
C2
102
{ACAD_REACTORS
330
B6
102
}
330
B6
100
AcDbScale
 70
     0
300
1:100
140
1.0
141
100.0
290
     0
  0
SCALE
  5
C3
102
{ACAD_REACTORS
330
B6
102
}
330
B6
100
AcDbScale
 70
     0
300
2:1
140
2.0
141
1.0
290
     0
  0
SCALE
  5
C4
102
{ACAD_REACTORS
330
B6
102
}
330
B6
100
AcDbScale
 70
     0
300
4:1
140
4.0
141
1.0
290
     0
  0
SCALE
  5
C5
102
{ACAD_REACTORS
330
B6
102
}
330
B6
100
AcDbScale
 70
     0
300
8:1
140
8.0
141
1.0
290
     0
  0
SCALE
  5
C6
102
{ACAD_REACTORS
330
B6
102
}
330
B6
100
AcDbScale
 70
     0
300
10:1
140
10.0
141
1.0
290
     0
  0
SCALE
  5
C7
102
{ACAD_REACTORS
330
B6
102
}
330
B6
100
AcDbScale
 70
     0
300
100:1
140
100.0
141
1.0
290
     0
  0
SCALE
  5
C8
102
{ACAD_REACTORS
330
B6
102
}
330
B6
100
AcDbScale
 70
     0
300
1/128" = 1'-0"
140
0.0078125
141
12.0
290
     0
  0
SCALE
  5
C9
102
{ACAD_REACTORS
330
B6
102
}
330
B6
100
AcDbScale
 70
     0
300
1/64" = 1'-0"
140
0.015625
141
12.0
290
     0
  0
SCALE
  5
CA
102
{ACAD_REACTORS
330
B6
102
}
330
B6
100
AcDbScale
 70
     0
300
1/32" = 1'-0"
140
0.03125
141
12.0
290
     0
  0
SCALE
  5
CB
102
{ACAD_REACTORS
330
B6
102
}
330
B6
100
AcDbScale
 70
     0
300
1/16" = 1'-0"
140
0.0625
141
12.0
290
     0
  0
SCALE
  5
CC
102
{ACAD_REACTORS
330
B6
102
}
330
B6
100
AcDbScale
 70
     0
300
3/32" = 1'-0"
140
0.09375
141
12.0
290
     0
  0
SCALE
  5
CD
102
{ACAD_REACTORS
330
B6
102
}
330
B6
100
AcDbScale
 70
     0
300
1/8" = 1'-0"
140
0.125
141
12.0
290
     0
  0
SCALE
  5
CE
102
{ACAD_REACTORS
330
B6
102
}
330
B6
100
AcDbScale
 70
     0
300
3/16" = 1'-0"
140
0.1875
141
12.0
290
     0
  0
SCALE
  5
CF
102
{ACAD_REACTORS
330
B6
102
}
330
B6
100
AcDbScale
 70
     0
300
1/4" = 1'-0"
140
0.25
141
12.0
290
     0
  0
SCALE
  5
D0
102
{ACAD_REACTORS
330
B6
102
}
330
B6
100
AcDbScale
 70
     0
300
3/8" = 1'-0"
140
0.375
141
12.0
290
     0
  0
SCALE
  5
D1
102
{ACAD_REACTORS
330
B6
102
}
330
B6
100
AcDbScale
 70
     0
300
1/2" = 1'-0"
140
0.5
141
12.0
290
     0
  0
SCALE
  5
D2
102
{ACAD_REACTORS
330
B6
102
}
330
B6
100
AcDbScale
 70
     0
300
3/4" = 1'-0"
140
0.75
141
12.0
290
     0
  0
SCALE
  5
D3
102
{ACAD_REACTORS
330
B6
102
}
330
B6
100
AcDbScale
 70
     0
300
1" = 1'-0"
140
1.0
141
12.0
290
     0
  0
SCALE
  5
D4
102
{ACAD_REACTORS
330
B6
102
}
330
B6
100
AcDbScale
 70
     0
300
1-1/2" = 1'-0"
140
1.5
141
12.0
290
     0
  0
SCALE
  5
D5
102
{ACAD_REACTORS
330
B6
102
}
330
B6
100
AcDbScale
 70
     0
300
3" = 1'-0"
140
3.0
141
12.0
290
     0
  0
SCALE
  5
D6
102
{ACAD_REACTORS
330
B6
102
}
330
B6
100
AcDbScale
 70
     0
300
6" = 1'-0"
140
6.0
141
12.0
290
     0
  0
SCALE
  5
D7
102
{ACAD_REACTORS
330
B6
102
}
330
B6
100
AcDbScale
 70
     0
300
1'-0" = 1'-0"
140
12.0
141
12.0
290
     0
  0
DICTIONARYVAR
  5
67
102
{ACAD_REACTORS
330
66
102
}
330
66
100
DictionaryVariables
280
     0
  1
2
  0
DICTIONARYVAR
  5
6B
102
{ACAD_REACTORS
330
66
102
}
330
66
100
DictionaryVariables
280
     0
  1
1
  0
XRECORD
  5
331
102
{ACAD_REACTORS
330
330
102
}
330
330
100
AcDbXrecord
280
     1
 91
     1023
301

290
     0
302
0
330
10
 90
        8
 62
     7
370
    -3
331
16
  1
Color_7
330
238
 90
        0
 62
     7
370
    -3
331
16
  1
Color_7
  0
XRECORD
  5
381
102
{ACAD_REACTORS
330
330
102
}
330
330
100
AcDbXrecord
280
     1
 91
     1023
301

290
     0
302
Attachment Holes
330
10
 90
        8
 62
     7
370
    -3
331
16
  1
Color_7
330
238
 90
        0
 62
     7
370
    -3
331
16
  1
Color_7
330
332
 90
        8
 62
     1
370
    -3
331
16
  1
Color_1
330
338
 90
        0
 62
     6
370
    -3
331
16
  1
Color_6
  0
XRECORD
  5
385
102
{ACAD_REACTORS
330
330
102
}
330
330
100
AcDbXrecord
280
     1
 91
     1023
301

290
     0
302
Attachment Holes
330
10
 90
        8
 62
     7
370
    -3
331
16
  1
Color_7
330
238
 90
        0
 62
     7
370
    -3
331
16
  1
Color_7
330
332
 90
        8
 62
     1
370
    -3
331
16
  1
Color_1
330
338
 90
        0
 62
     6
370
    -3
331
16
  1
Color_6
330
382
 90
        0
 62
     2
370
    -3
331
16
  1
Color_2
  0
XRECORD
  5
388
102
{ACAD_REACTORS
330
330
102
}
330
330
100
AcDbXrecord
280
     1
 91
     1023
301

290
     0
302
Attachment Holes
330
10
 90
        8
 62
     7
370
    -3
331
16
  1
Color_7
330
238
 90
        0
 62
     7
370
    -3
331
16
  1
Color_7
330
332
 90
        8
 62
     1
370
    -3
331
16
  1
Color_1
330
338
 90
        0
 62
     6
370
    -3
331
16
  1
Color_6
330
382
 90
        0
 62
     2
370
    -3
331
16
  1
Color_2
330
386
 90
        8
 62
     5
370
    -3
331
16
  1
Color_5
  0
XRECORD
  5
389
102
{ACAD_REACTORS
330
330
102
}
330
330
100
AcDbXrecord
280
     1
 91
     1023
301

290
     0
302
Attachment Holes
330
10
 90
        8
 62
     7
370
    -3
331
16
  1
Color_7
330
238
 90
        0
 62
     7
370
    -3
331
16
  1
Color_7
330
332
 90
        8
 62
     1
370
    -3
331
16
  1
Color_1
330
338
 90
        0
 62
     6
370
    -3
331
16
  1
Color_6
330
382
 90
        4
 62
     2
370
    -3
331
16
  1
Color_2
330
386
 90
        8
 62
     5
370
    -3
331
16
  1
Color_5
  0
XRECORD
  5
38A
102
{ACAD_REACTORS
330
330
102
}
330
330
100
AcDbXrecord
280
     1
 91
     1023
301

290
     0
302
Attachment Holes
330
10
 90
        8
 62
     7
370
    -3
331
16
  1
Color_7
330
238
 90
        0
 62
     7
370
    -3
331
16
  1
Color_7
330
332
 90
       12
 62
     1
370
    -3
331
16
  1
Color_1
330
338
 90
        0
 62
     6
370
    -3
331
16
  1
Color_6
330
382
 90
        4
 62
     2
370
    -3
331
16
  1
Color_2
330
386
 90
        8
 62
     5
370
    -3
331
16
  1
Color_5
  0
XRECORD
  5
38B
102
{ACAD_REACTORS
330
330
102
}
330
330
100
AcDbXrecord
280
     1
 91
     1023
301

290
     0
302
Attachment Holes
330
10
 90
        8
 62
     7
370
    -3
331
16
  1
Color_7
330
238
 90
        4
 62
     7
370
    -3
331
16
  1
Color_7
330
332
 90
       12
 62
     1
370
    -3
331
16
  1
Color_1
330
338
 90
        0
 62
     6
370
    -3
331
16
  1
Color_6
330
382
 90
        4
 62
     2
370
    -3
331
16
  1
Color_2
330
386
 90
        8
 62
     5
370
    -3
331
16
  1
Color_5
  0
XRECORD
  5
38C
102
{ACAD_REACTORS
330
330
102
}
330
330
100
AcDbXrecord
280
     1
 91
     1023
301

290
     0
302
Attachment Holes
330
10
 90
        8
 62
     7
370
    -3
331
16
  1
Color_7
330
238
 90
        4
 62
     7
370
    -3
331
16
  1
Color_7
330
332
 90
       12
 62
     1
370
    -3
331
16
  1
Color_1
330
338
 90
        0
 62
     6
370
    -3
331
16
  1
Color_6
330
382
 90
        4
 62
     2
370
    -3
331
16
  1
Color_2
330
386
 90
       12
 62
     5
370
    -3
331
16
  1
Color_5
  0
XRECORD
  5
3AE
102
{ACAD_REACTORS
330
330
102
}
330
330
100
AcDbXrecord
280
     1
 91
     1023
301

290
     0
302
Attachment Holes
330
10
 90
        8
 62
     7
370
    -3
331
16
  1
Color_7
330
238
 90
        4
 62
     7
370
    -3
331
16
  1
Color_7
330
332
 90
       12
 62
     1
370
    -3
331
16
  1
Color_1
330
338
 90
        4
 62
     6
370
    -3
331
16
  1
Color_6
330
382
 90
        4
 62
     2
370
    -3
331
16
  1
Color_2
330
386
 90
       12
 62
     5
370
    -3
331
16
  1
Color_5
  0
XRECORD
  5
3AF
102
{ACAD_REACTORS
330
330
102
}
330
330
100
AcDbXrecord
280
     1
 91
     1023
301

290
     0
302
Attachment Holes
330
10
 90
        8
 62
     7
370
    -3
331
16
  1
Color_7
330
238
 90
        4
 62
     7
370
    -3
331
16
  1
Color_7
330
332
 90
       12
 62
     1
370
    -3
331
16
  1
Color_1
330
338
 90
        4
 62
     6
370
    -3
331
16
  1
Color_6
330
382
 90
        0
 62
     2
370
    -3
331
16
  1
Color_2
330
386
 90
       12
 62
     5
370
    -3
331
16
  1
Color_5
  0
XRECORD
  5
3B0
102
{ACAD_REACTORS
330
330
102
}
330
330
100
AcDbXrecord
280
     1
 91
     1023
301

290
     0
302
Attachment Holes
330
10
 90
        8
 62
     7
370
    -3
331
16
  1
Color_7
330
238
 90
        4
 62
     7
370
    -3
331
16
  1
Color_7
330
332
 90
        8
 62
     1
370
    -3
331
16
  1
Color_1
330
338
 90
        4
 62
     6
370
    -3
331
16
  1
Color_6
330
382
 90
        0
 62
     2
370
    -3
331
16
  1
Color_2
330
386
 90
       12
 62
     5
370
    -3
331
16
  1
Color_5
  0
XRECORD
  5
335
102
{ACAD_REACTORS
330
330
102
}
330
330
100
AcDbXrecord
280
     1
 91
     1023
301

290
     0
302
0
330
10
 90
        8
 62
     7
370
    -3
331
16
  1
Color_7
330
238
 90
        0
 62
     7
370
    -3
331
16
  1
Color_7
330
332
 90
        8
 62
     1
370
    -3
331
16
  1
Color_1
  0
XRECORD
  5
3B1
102
{ACAD_REACTORS
330
330
102
}
330
330
100
AcDbXrecord
280
     1
 91
     1023
301

290
     0
302
Attachment Holes
330
10
 90
        8
 62
     7
370
    -3
331
16
  1
Color_7
330
238
 90
        0
 62
     7
370
    -3
331
16
  1
Color_7
330
332
 90
        8
 62
     1
370
    -3
331
16
  1
Color_1
330
338
 90
        4
 62
     6
370
    -3
331
16
  1
Color_6
330
382
 90
        0
 62
     2
370
    -3
331
16
  1
Color_2
330
386
 90
       12
 62
     5
370
    -3
331
16
  1
Color_5
  0
XRECORD
  5
3B2
102
{ACAD_REACTORS
330
330
102
}
330
330
100
AcDbXrecord
280
     1
 91
     1023
301

290
     0
302
Defpoints
330
10
 90
        8
 62
     7
370
    -3
331
16
  1
Color_7
330
238
 90
        0
 62
     7
370
    -3
331
16
  1
Color_7
330
332
 90
        8
 62
     1
370
    -3
331
16
  1
Color_1
330
338
 90
        4
 62
     6
370
    -3
331
16
  1
Color_6
330
382
 90
        0
 62
     2
370
    -3
331
16
  1
Color_2
330
386
 90
       12
 62
     5
370
    -3
331
16
  1
Color_5
  0
XRECORD
  5
3B3
102
{ACAD_REACTORS
330
330
102
}
330
330
100
AcDbXrecord
280
     1
 91
     1023
301

290
     0
302
Defpoints
330
10
 90
        8
 62
     7
370
    -3
331
16
  1
Color_7
330
238
 90
        0
 62
     7
370
    -3
331
16
  1
Color_7
330
332
 90
        8
 62
     1
370
    -3
331
16
  1
Color_1
330
338
 90
        4
 62
     6
370
    -3
331
16
  1
Color_6
330
382
 90
        0
 62
     2
370
    -3
331
16
  1
Color_2
330
386
 90
        8
 62
     5
370
    -3
331
16
  1
Color_5
  0
XRECORD
  5
3B4
102
{ACAD_REACTORS
330
330
102
}
330
330
100
AcDbXrecord
280
     1
 91
     1023
301

290
     0
302
Defpoints
330
10
 90
        8
 62
     7
370
    -3
331
16
  1
Color_7
330
238
 90
        0
 62
     7
370
    -3
331
16
  1
Color_7
330
332
 90
        8
 62
     1
370
    -3
331
16
  1
Color_1
330
338
 90
        0
 62
     6
370
    -3
331
16
  1
Color_6
330
382
 90
        0
 62
     2
370
    -3
331
16
  1
Color_2
330
386
 90
        8
 62
     5
370
    -3
331
16
  1
Color_5
  0
XRECORD
  5
337
102
{ACAD_REACTORS
330
330
102
}
330
330
100
AcDbXrecord
280
     1
 91
     1023
301

290
     0
302
Attachment Holes
330
10
 90
        8
 62
     7
370
    -3
331
16
  1
Color_7
330
238
 90
        0
 62
     7
370
    -3
331
16
  1
Color_7
330
332
 90
        8
 62
     1
370
    -3
331
16
  1
Color_1
  0
XRECORD
  5
33A
102
{ACAD_REACTORS
330
330
102
}
330
330
100
AcDbXrecord
280
     1
 91
     1023
301

290
     0
302
Attachment Holes
330
10
 90
        8
 62
     7
370
    -3
331
16
  1
Color_7
330
238
 90
        0
 62
     7
370
    -3
331
16
  1
Color_7
330
332
 90
        8
 62
     1
370
    -3
331
16
  1
Color_1
330
338
 90
        0
 62
     6
370
    -3
331
16
  1
Color_6
  0
XRECORD
  5
33B
102
{ACAD_REACTORS
330
330
102
}
330
330
100
AcDbXrecord
280
     1
 91
     1023
301

290
     0
302
Attachment Holes
330
10
 90
        8
 62
     7
370
    -3
331
16
  1
Color_7
330
238
 90
        4
 62
     7
370
    -3
331
16
  1
Color_7
330
332
 90
        8
 62
     1
370
    -3
331
16
  1
Color_1
330
338
 90
        0
 62
     6
370
    -3
331
16
  1
Color_6
  0
XRECORD
  5
33C
102
{ACAD_REACTORS
330
330
102
}
330
330
100
AcDbXrecord
280
     1
 91
     1023
301

290
     0
302
Attachment Holes
330
10
 90
        8
 62
     7
370
    -3
331
16
  1
Color_7
330
238
 90
        4
 62
     7
370
    -3
331
16
  1
Color_7
330
332
 90
        8
 62
     1
370
    -3
331
16
  1
Color_1
330
338
 90
        4
 62
     6
370
    -3
331
16
  1
Color_6
  0
XRECORD
  5
37D
102
{ACAD_REACTORS
330
330
102
}
330
330
100
AcDbXrecord
280
     1
 91
     1023
301

290
     0
302
Attachment Holes
330
10
 90
       12
 62
     7
370
    -3
331
16
  1
Color_7
330
238
 90
        4
 62
     7
370
    -3
331
16
  1
Color_7
330
332
 90
        8
 62
     1
370
    -3
331
16
  1
Color_1
330
338
 90
        4
 62
     6
370
    -3
331
16
  1
Color_6
  0
XRECORD
  5
37E
102
{ACAD_REACTORS
330
330
102
}
330
330
100
AcDbXrecord
280
     1
 91
     1023
301

290
     0
302
Attachment Holes
330
10
 90
       12
 62
     7
370
    -3
331
16
  1
Color_7
330
238
 90
        0
 62
     7
370
    -3
331
16
  1
Color_7
330
332
 90
        8
 62
     1
370
    -3
331
16
  1
Color_1
330
338
 90
        4
 62
     6
370
    -3
331
16
  1
Color_6
  0
XRECORD
  5
37F
102
{ACAD_REACTORS
330
330
102
}
330
330
100
AcDbXrecord
280
     1
 91
     1023
301

290
     0
302
Attachment Holes
330
10
 90
       12
 62
     7
370
    -3
331
16
  1
Color_7
330
238
 90
        0
 62
     7
370
    -3
331
16
  1
Color_7
330
332
 90
        8
 62
     1
370
    -3
331
16
  1
Color_1
330
338
 90
        0
 62
     6
370
    -3
331
16
  1
Color_6
  0
ENDSEC
  0
EOF
